<?xml version="1.0" encoding="us-ascii" standalone="no"?><svg xmlns="http://www.w3.org/2000/svg" xmlns:xlink="http://www.w3.org/1999/xlink" contentStyleType="text/css" height="483px" preserveAspectRatio="none" style="width:1738px;height:483px;background:#FFFFFF;" version="1.1" viewBox="0 0 1738 483" width="1738px" zoomAndPan="magnify"><defs/><g><!--cluster Arquitectura de Componentes--><g id="cluster_Arquitectura de Componentes"><path d="M270.5,6 L482.5,6 A3.75,3.75 0 0 1 485,8.5 L492,29.6094 L1728.5,29.6094 A2.5,2.5 0 0 1 1731,32.1094 L1731,194.5 A2.5,2.5 0 0 1 1728.5,197 L270.5,197 A2.5,2.5 0 0 1 268,194.5 L268,8.5 A2.5,2.5 0 0 1 270.5,6 " fill="none" style="stroke:#000000;stroke-width:1.5;"/><line style="stroke:#000000;stroke-width:1.5;" x1="268" x2="492" y1="29.6094" y2="29.6094"/><text fill="#000000" font-family="sans-serif" font-size="14" font-weight="bold" lengthAdjust="spacing" textLength="211" x="272" y="22.5332">Arquitectura de Componentes</text></g><!--cluster Especificaci?n de Interfaces--><g id="cluster_Especificaci&#243;n de Interfaces"><path d="M8.5,221 L208.5,221 A3.75,3.75 0 0 1 211,223.5 L218,244.6094 L1306.5,244.6094 A2.5,2.5 0 0 1 1309,247.1094 L1309,473.5 A2.5,2.5 0 0 1 1306.5,476 L8.5,476 A2.5,2.5 0 0 1 6,473.5 L6,223.5 A2.5,2.5 0 0 1 8.5,221 " fill="none" style="stroke:#000000;stroke-width:1.5;"/><line style="stroke:#000000;stroke-width:1.5;" x1="6" x2="218" y1="244.6094" y2="244.6094"/><text fill="#000000" font-family="sans-serif" font-size="14" font-weight="bold" lengthAdjust="spacing" textLength="199" x="10" y="237.5332">Especificaci&#243;n de Interfaces</text></g><!--entity RegisterActivity--><g id="elem_RegisterActivity"><rect fill="#F1F1F1" height="47.6094" rx="2.5" ry="2.5" style="stroke:#181818;stroke-width:0.5;" width="137" x="284" y="46"/><rect fill="#F1F1F1" height="10" style="stroke:#181818;stroke-width:0.5;" width="15" x="401" y="51"/><rect fill="#F1F1F1" height="2" style="stroke:#181818;stroke-width:0.5;" width="4" x="399" y="53"/><rect fill="#F1F1F1" height="2" style="stroke:#181818;stroke-width:0.5;" width="4" x="399" y="57"/><text fill="#000000" font-family="sans-serif" font-size="14" lengthAdjust="spacing" textLength="97" x="299" y="80.5332">RegisterActivity</text></g><!--entity RegisterViewModel--><g id="elem_RegisterViewModel"><rect fill="#F1F1F1" height="47.6094" rx="2.5" ry="2.5" style="stroke:#181818;stroke-width:0.5;" width="160" x="1003" y="46"/><rect fill="#F1F1F1" height="10" style="stroke:#181818;stroke-width:0.5;" width="15" x="1143" y="51"/><rect fill="#F1F1F1" height="2" style="stroke:#181818;stroke-width:0.5;" width="4" x="1141" y="53"/><rect fill="#F1F1F1" height="2" style="stroke:#181818;stroke-width:0.5;" width="4" x="1141" y="57"/><text fill="#000000" font-family="sans-serif" font-size="14" lengthAdjust="spacing" textLength="120" x="1018" y="80.5332">RegisterViewModel</text></g><!--entity AutentificationRepository--><g id="elem_AutentificationRepository"><rect fill="#F1F1F1" height="47.6094" rx="2.5" ry="2.5" style="stroke:#181818;stroke-width:0.5;" width="197" x="1518" y="86"/><rect fill="#F1F1F1" height="10" style="stroke:#181818;stroke-width:0.5;" width="15" x="1695" y="91"/><rect fill="#F1F1F1" height="2" style="stroke:#181818;stroke-width:0.5;" width="4" x="1693" y="93"/><rect fill="#F1F1F1" height="2" style="stroke:#181818;stroke-width:0.5;" width="4" x="1693" y="97"/><text fill="#000000" font-family="sans-serif" font-size="14" lengthAdjust="spacing" textLength="157" x="1533" y="120.5332">AutentificationRepository</text></g><!--entity LoginActivity--><g id="elem_LoginActivity"><rect fill="#F1F1F1" height="47.6094" rx="2.5" ry="2.5" style="stroke:#181818;stroke-width:0.5;" width="119" x="293" y="129"/><rect fill="#F1F1F1" height="10" style="stroke:#181818;stroke-width:0.5;" width="15" x="392" y="134"/><rect fill="#F1F1F1" height="2" style="stroke:#181818;stroke-width:0.5;" width="4" x="390" y="136"/><rect fill="#F1F1F1" height="2" style="stroke:#181818;stroke-width:0.5;" width="4" x="390" y="140"/><text fill="#000000" font-family="sans-serif" font-size="14" lengthAdjust="spacing" textLength="79" x="308" y="163.5332">LoginActivity</text></g><!--entity LoginViewModel--><g id="elem_LoginViewModel"><rect fill="#F1F1F1" height="47.6094" rx="2.5" ry="2.5" style="stroke:#181818;stroke-width:0.5;" width="142" x="1012" y="129"/><rect fill="#F1F1F1" height="10" style="stroke:#181818;stroke-width:0.5;" width="15" x="1134" y="134"/><rect fill="#F1F1F1" height="2" style="stroke:#181818;stroke-width:0.5;" width="4" x="1132" y="136"/><rect fill="#F1F1F1" height="2" style="stroke:#181818;stroke-width:0.5;" width="4" x="1132" y="140"/><text fill="#000000" font-family="sans-serif" font-size="14" lengthAdjust="spacing" textLength="102" x="1027" y="163.5332">LoginViewModel</text></g><!--class IRegisterViewModel--><g id="elem_IRegisterViewModel"><rect codeLine="24" fill="#F1F1F1" height="100.8281" id="IRegisterViewModel" rx="2.5" ry="2.5" style="stroke:#181818;stroke-width:0.5;" width="661" x="22" y="358.5"/><ellipse cx="285.75" cy="374.5" fill="#B4A7E5" rx="11" ry="11" style="stroke:#181818;stroke-width:1.0;"/><path d="M286.7031,371.1406 L286.7031,377.7969 L288.4219,377.7969 Q289.0313,377.7969 289.2969,378.0313 Q289.5625,378.2656 289.5625,378.6563 Q289.5625,379.0313 289.2969,379.2656 Q289.0313,379.5 288.4219,379.5 L283.2813,379.5 Q282.6719,379.5 282.4063,379.2656 Q282.1406,379.0313 282.1406,378.6406 Q282.1406,378.2656 282.4063,378.0313 Q282.6719,377.7969 283.2813,377.7969 L285,377.7969 L285,371.1406 L283.2813,371.1406 Q282.6719,371.1406 282.4063,370.9063 Q282.1406,370.6719 282.1406,370.2813 Q282.1406,369.9063 282.4063,369.6719 Q282.6719,369.4375 283.2813,369.4375 L288.4219,369.4375 Q289.0313,369.4375 289.2969,369.6719 Q289.5625,369.9063 289.5625,370.2813 Q289.5625,370.6719 289.2969,370.9063 Q289.0313,371.1406 288.4219,371.1406 L286.7031,371.1406 Z " fill="#000000"/><text fill="#000000" font-family="sans-serif" font-size="14" font-style="italic" lengthAdjust="spacing" textLength="125" x="306.25" y="380.2285">IRegisterViewModel</text><line style="stroke:#181818;stroke-width:0.5;" x1="23" x2="682" y1="390.5" y2="390.5"/><text fill="#000000" font-family="sans-serif" font-size="14" lengthAdjust="spacing" textLength="377" x="28" y="409.0332">String contrasenha, String telefono, String fechaNacimiento,</text><line style="stroke:#181818;stroke-width:0.5;" x1="23" x2="682" y1="416.1094" y2="416.1094"/><ellipse cx="33" cy="430.4141" fill="#84BE84" rx="3" ry="3" style="stroke:#038048;stroke-width:1.0;"/><text fill="#000000" font-family="sans-serif" font-size="14" lengthAdjust="spacing" textLength="440" x="42" y="434.6426">registar(String nombre, String apellido1, String apellido2, String email,</text><text fill="#000000" font-family="sans-serif" font-size="14" lengthAdjust="spacing" textLength="635" x="42" y="452.252">String genero, String peso, String altura, Objetivos objetivo, NivelDeActividad nivelDeActividad) : void</text></g><!--class ILoginViewModel--><g id="elem_ILoginViewModel"><rect codeLine="30" fill="#F1F1F1" height="65.6094" id="ILoginViewModel" rx="2.5" ry="2.5" style="stroke:#181818;stroke-width:0.5;" width="306" x="199.5" y="257"/><ellipse cx="294.75" cy="273" fill="#B4A7E5" rx="11" ry="11" style="stroke:#181818;stroke-width:1.0;"/><path d="M295.7031,269.6406 L295.7031,276.2969 L297.4219,276.2969 Q298.0313,276.2969 298.2969,276.5313 Q298.5625,276.7656 298.5625,277.1563 Q298.5625,277.5313 298.2969,277.7656 Q298.0313,278 297.4219,278 L292.2813,278 Q291.6719,278 291.4063,277.7656 Q291.1406,277.5313 291.1406,277.1406 Q291.1406,276.7656 291.4063,276.5313 Q291.6719,276.2969 292.2813,276.2969 L294,276.2969 L294,269.6406 L292.2813,269.6406 Q291.6719,269.6406 291.4063,269.4063 Q291.1406,269.1719 291.1406,268.7813 Q291.1406,268.4063 291.4063,268.1719 Q291.6719,267.9375 292.2813,267.9375 L297.4219,267.9375 Q298.0313,267.9375 298.2969,268.1719 Q298.5625,268.4063 298.5625,268.7813 Q298.5625,269.1719 298.2969,269.4063 Q298.0313,269.6406 297.4219,269.6406 L295.7031,269.6406 Z " fill="#000000"/><text fill="#000000" font-family="sans-serif" font-size="14" font-style="italic" lengthAdjust="spacing" textLength="107" x="315.25" y="278.7285">ILoginViewModel</text><line style="stroke:#181818;stroke-width:0.5;" x1="200.5" x2="504.5" y1="289" y2="289"/><line style="stroke:#181818;stroke-width:0.5;" x1="200.5" x2="504.5" y1="297" y2="297"/><ellipse cx="210.5" cy="311.3047" fill="#84BE84" rx="3" ry="3" style="stroke:#038048;stroke-width:1.0;"/><text fill="#000000" font-family="sans-serif" font-size="14" lengthAdjust="spacing" textLength="280" x="219.5" y="315.5332">login(String email, String contrasenha) : void</text></g><!--class IAutentificationRepository--><g id="elem_IAutentificationRepository"><rect codeLine="35" fill="#F1F1F1" height="83.2188" id="IAutentificationRepository" rx="2.5" ry="2.5" style="stroke:#181818;stroke-width:0.5;" width="420" x="873" y="367.5"/><ellipse cx="998.25" cy="383.5" fill="#B4A7E5" rx="11" ry="11" style="stroke:#181818;stroke-width:1.0;"/><path d="M999.2031,380.1406 L999.2031,386.7969 L1000.9219,386.7969 Q1001.5313,386.7969 1001.7969,387.0313 Q1002.0625,387.2656 1002.0625,387.6563 Q1002.0625,388.0313 1001.7969,388.2656 Q1001.5313,388.5 1000.9219,388.5 L995.7813,388.5 Q995.1719,388.5 994.9063,388.2656 Q994.6406,388.0313 994.6406,387.6406 Q994.6406,387.2656 994.9063,387.0313 Q995.1719,386.7969 995.7813,386.7969 L997.5,386.7969 L997.5,380.1406 L995.7813,380.1406 Q995.1719,380.1406 994.9063,379.9063 Q994.6406,379.6719 994.6406,379.2813 Q994.6406,378.9063 994.9063,378.6719 Q995.1719,378.4375 995.7813,378.4375 L1000.9219,378.4375 Q1001.5313,378.4375 1001.7969,378.6719 Q1002.0625,378.9063 1002.0625,379.2813 Q1002.0625,379.6719 1001.7969,379.9063 Q1001.5313,380.1406 1000.9219,380.1406 L999.2031,380.1406 Z " fill="#000000"/><text fill="#000000" font-family="sans-serif" font-size="14" font-style="italic" lengthAdjust="spacing" textLength="161" x="1018.75" y="389.2285">IAutentificationRepository</text><line style="stroke:#181818;stroke-width:0.5;" x1="874" x2="1292" y1="399.5" y2="399.5"/><line style="stroke:#181818;stroke-width:0.5;" x1="874" x2="1292" y1="407.5" y2="407.5"/><ellipse cx="884" cy="421.8047" fill="#84BE84" rx="3" ry="3" style="stroke:#038048;stroke-width:1.0;"/><text fill="#000000" font-family="sans-serif" font-size="14" lengthAdjust="spacing" textLength="361" x="893" y="426.0332">registarUsuario(RegistroDTO registroDTO) : UsuarioDTO</text><ellipse cx="884" cy="439.4141" fill="#84BE84" rx="3" ry="3" style="stroke:#038048;stroke-width:1.0;"/><text fill="#000000" font-family="sans-serif" font-size="14" lengthAdjust="spacing" textLength="394" x="893" y="443.6426">iniciarSesion(InicioSesionDTO inicioSesionDTO) : UsuarioDTO</text></g><!--link RegisterActivity to RegisterViewModel--><g id="link_RegisterActivity_RegisterViewModel"><path codeLine="14" d="M421.06,70 C556.15,70 858.98,70 1003,70 " fill="none" id="RegisterActivity-RegisterViewModel" style="stroke:#181818;stroke-width:1.0;"/><text fill="#000000" font-family="sans-serif" font-size="13" lengthAdjust="spacing" textLength="114" x="721" y="59.4951">IRegisterViewModel</text><path d="M701.6102,62.9289 A10,10 0 0 0 701.6102 77.0711" fill="none" style="stroke:#181818;stroke-width:1.5;"/><ellipse cx="708.6813" cy="70" fill="#FFFFFF" rx="6" ry="6" style="stroke:#181818;stroke-width:1.5;"/></g><!--link RegisterViewModel to AutentificationRepository--><g id="link_RegisterViewModel_AutentificationRepository"><path codeLine="15" d="M1163.28,75.97 C1257.77,83.08 1415.64,94.96 1517.64,102.64 " fill="none" id="RegisterViewModel-AutentificationRepository" style="stroke:#181818;stroke-width:1.0;"/><text fill="#000000" font-family="sans-serif" font-size="13" lengthAdjust="spacing" textLength="147" x="1333" y="78.4951">IAutentificationRepository</text><path d="M1331.1233,81.5095 A10,10 0 0 0 1330.062 95.6117" fill="none" style="stroke:#181818;stroke-width:1.5;"/><ellipse cx="1337.6438" cy="89.0912" fill="#FFFFFF" rx="6" ry="6" style="stroke:#181818;stroke-width:1.5;"/></g><!--link LoginActivity to LoginViewModel--><g id="link_LoginActivity_LoginViewModel"><path codeLine="17" d="M412.19,153 C545.1,153 868.61,153 1011.81,153 " fill="none" id="LoginActivity-LoginViewModel" style="stroke:#181818;stroke-width:1.0;"/><text fill="#000000" font-family="sans-serif" font-size="13" lengthAdjust="spacing" textLength="97" x="729.5" y="142.4951">ILoginViewModel</text><path d="M701.0702,145.9289 A10,10 0 0 0 701.0702 160.0711" fill="none" style="stroke:#181818;stroke-width:1.5;"/><ellipse cx="708.1413" cy="153" fill="#FFFFFF" rx="6" ry="6" style="stroke:#181818;stroke-width:1.5;"/></g><!--link LoginViewModel to AutentificationRepository--><g id="link_LoginViewModel_AutentificationRepository"><path codeLine="18" d="M1154.37,150.91 C1270.12,147.47 1488,141 1488,141 C1488,141 1500.61,137.93 1517.89,133.73 " fill="none" id="LoginViewModel-AutentificationRepository" style="stroke:#181818;stroke-width:1.0;"/><text fill="#000000" font-family="sans-serif" font-size="13" lengthAdjust="spacing" textLength="147" x="1333" y="130.4951">IAutentificationRepository</text><path d="M1357.3134,137.807 A10,10 0 0 0 1357.7332 151.9429" fill="none" style="stroke:#181818;stroke-width:1.5;"/><ellipse cx="1364.5913" cy="144.665" fill="#FFFFFF" rx="6" ry="6" style="stroke:#181818;stroke-width:1.5;"/></g><!--SRC=[hLDDRzim3BtxLn0vkPWBj3lk5gmz1DXQeErs7LYPSRZAeYOfwO8Xlse_ONziakqc_eXtcYuM7vyUAJxPlx2nwB06pOR2tX9OqViKPAYrl7wh-IURAjEq3X0475UR02KxKe75P9b5zO8LmMBfVcmvH7Zh44g2Zr9RCMG2-GNyoZA8IxrXi7YWYdqWjumwEmxx1SmnlZAzVfQIz9Iot8RuvJKhJDqya1NFGLnI6tC_ISLclbgJxfTg2ECkuJA_keH9P_01LXDm872YDWgpZIUbsMJRq-0YhTom-QGnH4xd_ayVXvxljzwIQaYA__msoVfLDDsjKNNEDzNv3JipgKY2Rhq3rsJHvO_1nPS7HkfdHmLq8LhIcakvdY3lZmZLoBg0esX_THGb9ZZqP3PuF1Oeld8nSWJMf3Pu5-zLSno45FyIhCYGEnsrv4y1wlHJ573__9sYRU91kbq1TxmZVKEjdoMMO4R0HRHY9rmsnG-JOOvSxKzIfrG-dCdq-cFzSO7v9tBEjIz-YuubRprsSlDqt-MQVIhMKMBKEy-65QDx91zhvAiKIHia1Hx6PrHYuuViBm00]--></g></svg>