<?xml version="1.0" encoding="us-ascii" standalone="no"?><svg xmlns="http://www.w3.org/2000/svg" xmlns:xlink="http://www.w3.org/1999/xlink" contentStyleType="text/css" height="1738px" preserveAspectRatio="none" style="width:3252px;height:1738px;background:#FFFFFF;" version="1.1" viewBox="0 0 3252 1738" width="3252px" zoomAndPan="magnify"><defs/><g><!--cluster Servidor Backend (API REST)--><g id="cluster_Servidor Backend (API REST)"><polygon fill="none" points="32,32,52,12,2338,12,2338,1684,2318,1704,32,1704,32,32" style="stroke:#181818;stroke-width:2.0;"/><line style="stroke:#181818;stroke-width:2.0;" x1="2318" x2="2338" y1="32" y2="12"/><line style="stroke:#181818;stroke-width:2.0;" x1="32" x2="2318" y1="32" y2="32"/><line style="stroke:#181818;stroke-width:2.0;" x1="2318" x2="2318" y1="32" y2="1704"/><text fill="#000000" font-family="sans-serif" font-size="28" font-weight="bold" lengthAdjust="spacing" textLength="404" x="975" y="67.0664">Servidor Backend (API REST)</text></g><!--cluster Controllers--><g id="cluster_Controllers"><path d="M1161,126 L1321,126 A7.5,7.5 0 0 1 1326,131 L1340,173.2188 L2253,173.2188 A5,5 0 0 1 2258,178.2188 L2258,897 A5,5 0 0 1 2253,902 L1161,902 A5,5 0 0 1 1156,897 L1156,131 A5,5 0 0 1 1161,126 " fill="none" style="stroke:#000000;stroke-width:3.0;"/><line style="stroke:#000000;stroke-width:3.0;" x1="1156" x2="1340" y1="173.2188" y2="173.2188"/><text fill="#000000" font-family="sans-serif" font-size="28" font-weight="bold" lengthAdjust="spacing" textLength="158" x="1164" y="159.0664">Controllers</text></g><!--cluster Services--><g id="cluster_Services"><path d="M101,126 L227,126 A7.5,7.5 0 0 1 232,131 L246,173.2188 L1103,173.2188 A5,5 0 0 1 1108,178.2188 L1108,897 A5,5 0 0 1 1103,902 L101,902 A5,5 0 0 1 96,897 L96,131 A5,5 0 0 1 101,126 " fill="none" style="stroke:#000000;stroke-width:3.0;"/><line style="stroke:#000000;stroke-width:3.0;" x1="96" x2="246" y1="173.2188" y2="173.2188"/><text fill="#000000" font-family="sans-serif" font-size="28" font-weight="bold" lengthAdjust="spacing" textLength="124" x="104" y="159.0664">Services</text></g><!--cluster Repository--><g id="cluster_Repository"><path d="M1125,968 L1279,968 A7.5,7.5 0 0 1 1284,973 L1298,1015.2188 L2253,1015.2188 A5,5 0 0 1 2258,1020.2188 L2258,1635 A5,5 0 0 1 2253,1640 L1125,1640 A5,5 0 0 1 1120,1635 L1120,973 A5,5 0 0 1 1125,968 " fill="none" style="stroke:#000000;stroke-width:3.0;"/><line style="stroke:#000000;stroke-width:3.0;" x1="1120" x2="1298" y1="1015.2188" y2="1015.2188"/><text fill="#000000" font-family="sans-serif" font-size="28" font-weight="bold" lengthAdjust="spacing" textLength="152" x="1128" y="1001.0664">Repository</text></g><!--cluster Base de Datos SQL--><g id="cluster_Base de Datos SQL"><path d="M2418,458 C2418,438 2818,438 2818,438 C2818,438 3218,438 3218,458 L3218,1164 C3218,1184 2818,1184 2818,1184 C2818,1184 2418,1184 2418,1164 L2418,458 " fill="none" style="stroke:#181818;stroke-width:2.0;"/><path d="M2418,458 C2418,478 2818,478 2818,478 C2818,478 3218,478 3218,458 " fill="none" style="stroke:#181818;stroke-width:2.0;"/><text fill="#000000" font-family="sans-serif" font-size="28" font-weight="bold" lengthAdjust="spacing" textLength="266" x="2685" y="511.0664">Base de Datos SQL</text></g><!--entity UsuarioController--><g id="elem_UsuarioController"><rect fill="#F1F1F1" height="95.2188" rx="5" ry="5" style="stroke:#181818;stroke-width:1.0;" width="300" x="1188" y="198"/><rect fill="#F1F1F1" height="20" style="stroke:#181818;stroke-width:1.0;" width="30" x="1448" y="208"/><rect fill="#F1F1F1" height="4" style="stroke:#181818;stroke-width:1.0;" width="8" x="1444" y="212"/><rect fill="#F1F1F1" height="4" style="stroke:#181818;stroke-width:1.0;" width="8" x="1444" y="220"/><text fill="#000000" font-family="sans-serif" font-size="28" lengthAdjust="spacing" textLength="220" x="1218" y="267.0664">UsuarioController</text></g><!--entity RutinaController--><g id="elem_RutinaController"><rect fill="#F1F1F1" height="95.2188" rx="5" ry="5" style="stroke:#181818;stroke-width:1.0;" width="286" x="1559" y="198"/><rect fill="#F1F1F1" height="20" style="stroke:#181818;stroke-width:1.0;" width="30" x="1805" y="208"/><rect fill="#F1F1F1" height="4" style="stroke:#181818;stroke-width:1.0;" width="8" x="1801" y="212"/><rect fill="#F1F1F1" height="4" style="stroke:#181818;stroke-width:1.0;" width="8" x="1801" y="220"/><text fill="#000000" font-family="sans-serif" font-size="28" lengthAdjust="spacing" textLength="206" x="1589" y="267.0664">RutinaController</text></g><!--entity EjercicioController--><g id="elem_EjercicioController"><rect fill="#F1F1F1" height="95.2188" rx="5" ry="5" style="stroke:#181818;stroke-width:1.0;" width="310" x="1915" y="198"/><rect fill="#F1F1F1" height="20" style="stroke:#181818;stroke-width:1.0;" width="30" x="2185" y="208"/><rect fill="#F1F1F1" height="4" style="stroke:#181818;stroke-width:1.0;" width="8" x="2181" y="212"/><rect fill="#F1F1F1" height="4" style="stroke:#181818;stroke-width:1.0;" width="8" x="2181" y="220"/><text fill="#000000" font-family="sans-serif" font-size="28" lengthAdjust="spacing" textLength="230" x="1945" y="267.0664">EjercicioController</text></g><!--entity SerieController--><g id="elem_SerieController"><rect fill="#F1F1F1" height="95.2188" rx="5" ry="5" style="stroke:#181818;stroke-width:1.0;" width="270" x="1205" y="556"/><rect fill="#F1F1F1" height="20" style="stroke:#181818;stroke-width:1.0;" width="30" x="1435" y="566"/><rect fill="#F1F1F1" height="4" style="stroke:#181818;stroke-width:1.0;" width="8" x="1431" y="570"/><rect fill="#F1F1F1" height="4" style="stroke:#181818;stroke-width:1.0;" width="8" x="1431" y="578"/><text fill="#000000" font-family="sans-serif" font-size="28" lengthAdjust="spacing" textLength="190" x="1235" y="625.0664">SerieController</text></g><!--entity DietaController--><g id="elem_DietaController"><rect fill="#F1F1F1" height="95.2188" rx="5" ry="5" style="stroke:#181818;stroke-width:1.0;" width="270" x="1545" y="556"/><rect fill="#F1F1F1" height="20" style="stroke:#181818;stroke-width:1.0;" width="30" x="1775" y="566"/><rect fill="#F1F1F1" height="4" style="stroke:#181818;stroke-width:1.0;" width="8" x="1771" y="570"/><rect fill="#F1F1F1" height="4" style="stroke:#181818;stroke-width:1.0;" width="8" x="1771" y="578"/><text fill="#000000" font-family="sans-serif" font-size="28" lengthAdjust="spacing" textLength="190" x="1575" y="625.0664">DietaController</text></g><!--entity ComidaController--><g id="elem_ComidaController"><rect fill="#F1F1F1" height="95.2188" rx="5" ry="5" style="stroke:#181818;stroke-width:1.0;" width="300" x="1886" y="556"/><rect fill="#F1F1F1" height="20" style="stroke:#181818;stroke-width:1.0;" width="30" x="2146" y="566"/><rect fill="#F1F1F1" height="4" style="stroke:#181818;stroke-width:1.0;" width="8" x="2142" y="570"/><rect fill="#F1F1F1" height="4" style="stroke:#181818;stroke-width:1.0;" width="8" x="2142" y="578"/><text fill="#000000" font-family="sans-serif" font-size="28" lengthAdjust="spacing" textLength="220" x="1916" y="625.0664">ComidaController</text></g><!--entity AlimentoController--><g id="elem_AlimentoController"><rect fill="#F1F1F1" height="95.2188" rx="5" ry="5" style="stroke:#181818;stroke-width:1.0;" width="312" x="1188" y="774"/><rect fill="#F1F1F1" height="20" style="stroke:#181818;stroke-width:1.0;" width="30" x="1460" y="784"/><rect fill="#F1F1F1" height="4" style="stroke:#181818;stroke-width:1.0;" width="8" x="1456" y="788"/><rect fill="#F1F1F1" height="4" style="stroke:#181818;stroke-width:1.0;" width="8" x="1456" y="796"/><text fill="#000000" font-family="sans-serif" font-size="28" lengthAdjust="spacing" textLength="232" x="1218" y="843.0664">AlimentoController</text></g><!--entity UsuarioService--><g id="elem_UsuarioService"><rect fill="#F1F1F1" height="95.2188" rx="5" ry="5" style="stroke:#181818;stroke-width:1.0;" width="270" x="129" y="198"/><rect fill="#F1F1F1" height="20" style="stroke:#181818;stroke-width:1.0;" width="30" x="359" y="208"/><rect fill="#F1F1F1" height="4" style="stroke:#181818;stroke-width:1.0;" width="8" x="355" y="212"/><rect fill="#F1F1F1" height="4" style="stroke:#181818;stroke-width:1.0;" width="8" x="355" y="220"/><text fill="#000000" font-family="sans-serif" font-size="28" lengthAdjust="spacing" textLength="190" x="159" y="267.0664">UsuarioService</text></g><!--entity RutinaService--><g id="elem_RutinaService"><rect fill="#F1F1F1" height="95.2188" rx="5" ry="5" style="stroke:#181818;stroke-width:1.0;" width="256" x="470" y="198"/><rect fill="#F1F1F1" height="20" style="stroke:#181818;stroke-width:1.0;" width="30" x="686" y="208"/><rect fill="#F1F1F1" height="4" style="stroke:#181818;stroke-width:1.0;" width="8" x="682" y="212"/><rect fill="#F1F1F1" height="4" style="stroke:#181818;stroke-width:1.0;" width="8" x="682" y="220"/><text fill="#000000" font-family="sans-serif" font-size="28" lengthAdjust="spacing" textLength="176" x="500" y="267.0664">RutinaService</text></g><!--entity EjercicioService--><g id="elem_EjercicioService"><rect fill="#F1F1F1" height="95.2188" rx="5" ry="5" style="stroke:#181818;stroke-width:1.0;" width="280" x="796" y="198"/><rect fill="#F1F1F1" height="20" style="stroke:#181818;stroke-width:1.0;" width="30" x="1036" y="208"/><rect fill="#F1F1F1" height="4" style="stroke:#181818;stroke-width:1.0;" width="8" x="1032" y="212"/><rect fill="#F1F1F1" height="4" style="stroke:#181818;stroke-width:1.0;" width="8" x="1032" y="220"/><text fill="#000000" font-family="sans-serif" font-size="28" lengthAdjust="spacing" textLength="200" x="826" y="267.0664">EjercicioService</text></g><!--entity SerieService--><g id="elem_SerieService"><rect fill="#F1F1F1" height="95.2188" rx="5" ry="5" style="stroke:#181818;stroke-width:1.0;" width="240" x="146" y="556"/><rect fill="#F1F1F1" height="20" style="stroke:#181818;stroke-width:1.0;" width="30" x="346" y="566"/><rect fill="#F1F1F1" height="4" style="stroke:#181818;stroke-width:1.0;" width="8" x="342" y="570"/><rect fill="#F1F1F1" height="4" style="stroke:#181818;stroke-width:1.0;" width="8" x="342" y="578"/><text fill="#000000" font-family="sans-serif" font-size="28" lengthAdjust="spacing" textLength="160" x="176" y="625.0664">SerieService</text></g><!--entity DietaService--><g id="elem_DietaService"><rect fill="#F1F1F1" height="95.2188" rx="5" ry="5" style="stroke:#181818;stroke-width:1.0;" width="240" x="456" y="556"/><rect fill="#F1F1F1" height="20" style="stroke:#181818;stroke-width:1.0;" width="30" x="656" y="566"/><rect fill="#F1F1F1" height="4" style="stroke:#181818;stroke-width:1.0;" width="8" x="652" y="570"/><rect fill="#F1F1F1" height="4" style="stroke:#181818;stroke-width:1.0;" width="8" x="652" y="578"/><text fill="#000000" font-family="sans-serif" font-size="28" lengthAdjust="spacing" textLength="160" x="486" y="625.0664">DietaService</text></g><!--entity ComidaService--><g id="elem_ComidaService"><rect fill="#F1F1F1" height="95.2188" rx="5" ry="5" style="stroke:#181818;stroke-width:1.0;" width="270" x="767" y="556"/><rect fill="#F1F1F1" height="20" style="stroke:#181818;stroke-width:1.0;" width="30" x="997" y="566"/><rect fill="#F1F1F1" height="4" style="stroke:#181818;stroke-width:1.0;" width="8" x="993" y="570"/><rect fill="#F1F1F1" height="4" style="stroke:#181818;stroke-width:1.0;" width="8" x="993" y="578"/><text fill="#000000" font-family="sans-serif" font-size="28" lengthAdjust="spacing" textLength="190" x="797" y="625.0664">ComidaService</text></g><!--entity AlimentoService--><g id="elem_AlimentoService"><rect fill="#F1F1F1" height="95.2188" rx="5" ry="5" style="stroke:#181818;stroke-width:1.0;" width="282" x="129" y="774"/><rect fill="#F1F1F1" height="20" style="stroke:#181818;stroke-width:1.0;" width="30" x="371" y="784"/><rect fill="#F1F1F1" height="4" style="stroke:#181818;stroke-width:1.0;" width="8" x="367" y="788"/><rect fill="#F1F1F1" height="4" style="stroke:#181818;stroke-width:1.0;" width="8" x="367" y="796"/><text fill="#000000" font-family="sans-serif" font-size="28" lengthAdjust="spacing" textLength="202" x="159" y="843.0664">AlimentoService</text></g><!--entity UsuarioRepository--><g id="elem_UsuarioRepository"><rect fill="#F1F1F1" height="95.2188" rx="5" ry="5" style="stroke:#181818;stroke-width:1.0;" width="312" x="1152" y="1040"/><rect fill="#F1F1F1" height="20" style="stroke:#181818;stroke-width:1.0;" width="30" x="1424" y="1050"/><rect fill="#F1F1F1" height="4" style="stroke:#181818;stroke-width:1.0;" width="8" x="1420" y="1054"/><rect fill="#F1F1F1" height="4" style="stroke:#181818;stroke-width:1.0;" width="8" x="1420" y="1062"/><text fill="#000000" font-family="sans-serif" font-size="28" lengthAdjust="spacing" textLength="232" x="1182" y="1109.0664">UsuarioRepository</text></g><!--entity RutinaRepository--><g id="elem_RutinaRepository"><rect fill="#F1F1F1" height="95.2188" rx="5" ry="5" style="stroke:#181818;stroke-width:1.0;" width="298" x="1535" y="1040"/><rect fill="#F1F1F1" height="20" style="stroke:#181818;stroke-width:1.0;" width="30" x="1793" y="1050"/><rect fill="#F1F1F1" height="4" style="stroke:#181818;stroke-width:1.0;" width="8" x="1789" y="1054"/><rect fill="#F1F1F1" height="4" style="stroke:#181818;stroke-width:1.0;" width="8" x="1789" y="1062"/><text fill="#000000" font-family="sans-serif" font-size="28" lengthAdjust="spacing" textLength="218" x="1565" y="1109.0664">RutinaRepository</text></g><!--entity EjercicioRepository--><g id="elem_EjercicioRepository"><rect fill="#F1F1F1" height="95.2188" rx="5" ry="5" style="stroke:#181818;stroke-width:1.0;" width="322" x="1903" y="1040"/><rect fill="#F1F1F1" height="20" style="stroke:#181818;stroke-width:1.0;" width="30" x="2185" y="1050"/><rect fill="#F1F1F1" height="4" style="stroke:#181818;stroke-width:1.0;" width="8" x="2181" y="1054"/><rect fill="#F1F1F1" height="4" style="stroke:#181818;stroke-width:1.0;" width="8" x="2181" y="1062"/><text fill="#000000" font-family="sans-serif" font-size="28" lengthAdjust="spacing" textLength="242" x="1933" y="1109.0664">EjercicioRepository</text></g><!--entity SerieRepository--><g id="elem_SerieRepository"><rect fill="#F1F1F1" height="95.2188" rx="5" ry="5" style="stroke:#181818;stroke-width:1.0;" width="282" x="1169" y="1294"/><rect fill="#F1F1F1" height="20" style="stroke:#181818;stroke-width:1.0;" width="30" x="1411" y="1304"/><rect fill="#F1F1F1" height="4" style="stroke:#181818;stroke-width:1.0;" width="8" x="1407" y="1308"/><rect fill="#F1F1F1" height="4" style="stroke:#181818;stroke-width:1.0;" width="8" x="1407" y="1316"/><text fill="#000000" font-family="sans-serif" font-size="28" lengthAdjust="spacing" textLength="202" x="1199" y="1363.0664">SerieRepository</text></g><!--entity DietaRepository--><g id="elem_DietaRepository"><rect fill="#F1F1F1" height="95.2188" rx="5" ry="5" style="stroke:#181818;stroke-width:1.0;" width="282" x="1521" y="1294"/><rect fill="#F1F1F1" height="20" style="stroke:#181818;stroke-width:1.0;" width="30" x="1763" y="1304"/><rect fill="#F1F1F1" height="4" style="stroke:#181818;stroke-width:1.0;" width="8" x="1759" y="1308"/><rect fill="#F1F1F1" height="4" style="stroke:#181818;stroke-width:1.0;" width="8" x="1759" y="1316"/><text fill="#000000" font-family="sans-serif" font-size="28" lengthAdjust="spacing" textLength="202" x="1551" y="1363.0664">DietaRepository</text></g><!--entity ComidaRepository--><g id="elem_ComidaRepository"><rect fill="#F1F1F1" height="95.2188" rx="5" ry="5" style="stroke:#181818;stroke-width:1.0;" width="312" x="1874" y="1294"/><rect fill="#F1F1F1" height="20" style="stroke:#181818;stroke-width:1.0;" width="30" x="2146" y="1304"/><rect fill="#F1F1F1" height="4" style="stroke:#181818;stroke-width:1.0;" width="8" x="2142" y="1308"/><rect fill="#F1F1F1" height="4" style="stroke:#181818;stroke-width:1.0;" width="8" x="2142" y="1316"/><text fill="#000000" font-family="sans-serif" font-size="28" lengthAdjust="spacing" textLength="232" x="1904" y="1363.0664">ComidaRepository</text></g><!--entity AlimentoRepository--><g id="elem_AlimentoRepository"><rect fill="#F1F1F1" height="95.2188" rx="5" ry="5" style="stroke:#181818;stroke-width:1.0;" width="324" x="1152" y="1512"/><rect fill="#F1F1F1" height="20" style="stroke:#181818;stroke-width:1.0;" width="30" x="1436" y="1522"/><rect fill="#F1F1F1" height="4" style="stroke:#181818;stroke-width:1.0;" width="8" x="1432" y="1526"/><rect fill="#F1F1F1" height="4" style="stroke:#181818;stroke-width:1.0;" width="8" x="1432" y="1534"/><text fill="#000000" font-family="sans-serif" font-size="28" lengthAdjust="spacing" textLength="244" x="1182" y="1581.0664">AlimentoRepository</text></g><!--entity Usuario--><g id="elem_Usuario"><rect fill="#F1F1F1" height="95.2188" rx="5" ry="5" style="stroke:#181818;stroke-width:1.0;" width="176" x="2504" y="556"/><rect fill="#F1F1F1" height="20" style="stroke:#181818;stroke-width:1.0;" width="30" x="2640" y="566"/><rect fill="#F1F1F1" height="4" style="stroke:#181818;stroke-width:1.0;" width="8" x="2636" y="570"/><rect fill="#F1F1F1" height="4" style="stroke:#181818;stroke-width:1.0;" width="8" x="2636" y="578"/><text fill="#000000" font-family="sans-serif" font-size="28" lengthAdjust="spacing" textLength="96" x="2534" y="625.0664">Usuario</text></g><!--entity Rutina--><g id="elem_Rutina"><rect fill="#F1F1F1" height="95.2188" rx="5" ry="5" style="stroke:#181818;stroke-width:1.0;" width="162" x="2751" y="556"/><rect fill="#F1F1F1" height="20" style="stroke:#181818;stroke-width:1.0;" width="30" x="2873" y="566"/><rect fill="#F1F1F1" height="4" style="stroke:#181818;stroke-width:1.0;" width="8" x="2869" y="570"/><rect fill="#F1F1F1" height="4" style="stroke:#181818;stroke-width:1.0;" width="8" x="2869" y="578"/><text fill="#000000" font-family="sans-serif" font-size="28" lengthAdjust="spacing" textLength="82" x="2781" y="625.0664">Rutina</text></g><!--entity Ejercicio--><g id="elem_Ejercicio"><rect fill="#F1F1F1" height="95.2188" rx="5" ry="5" style="stroke:#181818;stroke-width:1.0;" width="186" x="2983" y="556"/><rect fill="#F1F1F1" height="20" style="stroke:#181818;stroke-width:1.0;" width="30" x="3129" y="566"/><rect fill="#F1F1F1" height="4" style="stroke:#181818;stroke-width:1.0;" width="8" x="3125" y="570"/><rect fill="#F1F1F1" height="4" style="stroke:#181818;stroke-width:1.0;" width="8" x="3125" y="578"/><text fill="#000000" font-family="sans-serif" font-size="28" lengthAdjust="spacing" textLength="106" x="3013" y="625.0664">Ejercicio</text></g><!--entity Serie--><g id="elem_Serie"><rect fill="#F1F1F1" height="95.2188" rx="5" ry="5" style="stroke:#181818;stroke-width:1.0;" width="146" x="2521" y="774"/><rect fill="#F1F1F1" height="20" style="stroke:#181818;stroke-width:1.0;" width="30" x="2627" y="784"/><rect fill="#F1F1F1" height="4" style="stroke:#181818;stroke-width:1.0;" width="8" x="2623" y="788"/><rect fill="#F1F1F1" height="4" style="stroke:#181818;stroke-width:1.0;" width="8" x="2623" y="796"/><text fill="#000000" font-family="sans-serif" font-size="28" lengthAdjust="spacing" textLength="66" x="2551" y="843.0664">Serie</text></g><!--entity Dieta--><g id="elem_Dieta"><rect fill="#F1F1F1" height="95.2188" rx="5" ry="5" style="stroke:#181818;stroke-width:1.0;" width="146" x="2737" y="774"/><rect fill="#F1F1F1" height="20" style="stroke:#181818;stroke-width:1.0;" width="30" x="2843" y="784"/><rect fill="#F1F1F1" height="4" style="stroke:#181818;stroke-width:1.0;" width="8" x="2839" y="788"/><rect fill="#F1F1F1" height="4" style="stroke:#181818;stroke-width:1.0;" width="8" x="2839" y="796"/><text fill="#000000" font-family="sans-serif" font-size="28" lengthAdjust="spacing" textLength="66" x="2767" y="843.0664">Dieta</text></g><!--entity Comida--><g id="elem_Comida"><rect fill="#F1F1F1" height="95.2188" rx="5" ry="5" style="stroke:#181818;stroke-width:1.0;" width="176" x="2954" y="774"/><rect fill="#F1F1F1" height="20" style="stroke:#181818;stroke-width:1.0;" width="30" x="3090" y="784"/><rect fill="#F1F1F1" height="4" style="stroke:#181818;stroke-width:1.0;" width="8" x="3086" y="788"/><rect fill="#F1F1F1" height="4" style="stroke:#181818;stroke-width:1.0;" width="8" x="3086" y="796"/><text fill="#000000" font-family="sans-serif" font-size="28" lengthAdjust="spacing" textLength="96" x="2984" y="843.0664">Comida</text></g><!--entity Alimento--><g id="elem_Alimento"><rect fill="#F1F1F1" height="95.2188" rx="5" ry="5" style="stroke:#181818;stroke-width:1.0;" width="188" x="2504" y="1040"/><rect fill="#F1F1F1" height="20" style="stroke:#181818;stroke-width:1.0;" width="30" x="2652" y="1050"/><rect fill="#F1F1F1" height="4" style="stroke:#181818;stroke-width:1.0;" width="8" x="2648" y="1054"/><rect fill="#F1F1F1" height="4" style="stroke:#181818;stroke-width:1.0;" width="8" x="2648" y="1062"/><text fill="#000000" font-family="sans-serif" font-size="28" lengthAdjust="spacing" textLength="108" x="2534" y="1109.0664">Alimento</text></g><!--link Servidor Backend (API REST) to Base de Datos SQL--><g id="link_Servidor Backend (API REST)_Base de Datos SQL"><path d="M2338.1286,298.9748 C2338.2827,299.4621 2338.4378,299.9521 2338.5936,300.4446 C2339.2171,302.415 2339.8537,304.4271 2340.5028,306.4784 C2350.8881,339.3006 2364.4563,382.1838 2378.0225,425.0625 C2391.5888,467.9412 2405.1531,510.8156 2415.5309,543.6203 C2416.1796,545.6706 2416.8157,547.6816 2417.4387,549.6507 C2417.5944,550.143 2414.1299,539.1915 2414.284,539.6786 " fill="none" id="Servidor Backend (API REST)-to-Base de Datos SQL" style="stroke:#181818;stroke-width:2.0;"/><polygon fill="#181818" points="2417.9034,551.1197,2420.1018,531.5451,2414.8872,541.5854,2404.8469,536.3709,2417.9034,551.1197" style="stroke:#181818;stroke-width:2.0;"/><text fill="#000000" font-family="sans-serif" font-size="26" lengthAdjust="spacing" textLength="176" x="2368" y="382.9902">Consultas SQL</text></g><!--SRC=[VPAzQiCm54PtFuN8r0vPEdO8v6yeP6ZiPYePRgLBKQ98GP8B9VJTAykru-jhQeo7yzdc752GO50y5OLr2iMiGl-bbVDY1VACLec7vUkBABVLs-DCt8f2fEkQ9lXCBw-TZTuPWpxqu_iXrE2rks_7bfTrr1OOtfxGIoqdFaWg6XdTQ8pyBsjtqOhZfT4Nj97yEoy_evASBP5d_0saWR8-WE9iJr5MfwZrfgoJxkcaSObN5tHq_fivtoUYpN1lpfOipsZsPxHDOBYh60vTIBeLHFY0a49MpJCTlGr45qIrtpKzmnmICLOV2WyrYTn8wTW8_7_Iv_F5fDcpI4Sfr2P21hy0]--></g></svg>