<?xml version="1.0" encoding="us-ascii" standalone="no"?><svg xmlns="http://www.w3.org/2000/svg" xmlns:xlink="http://www.w3.org/1999/xlink" contentStyleType="text/css" height="1216px" preserveAspectRatio="none" style="width:1075px;height:1216px;background:#FFFFFF;" version="1.1" viewBox="0 0 1075 1216" width="1075px" zoomAndPan="magnify"><defs/><g><!--class Musculo--><g id="elem_Musculo"><rect codeLine="6" fill="#F1F1F1" height="259.3125" id="Musculo" rx="2.5" ry="2.5" style="stroke:#181818;stroke-width:0.5;" width="109" x="47" y="16"/><ellipse cx="73.25" cy="32" fill="#EB937F" rx="11" ry="11" style="stroke:#181818;stroke-width:1.0;"/><path d="M72.1094,32.7969 L72.1094,35.2969 L76.4375,35.2969 L76.4375,34.375 Q76.4375,33.7656 76.6719,33.5 Q76.9219,33.2344 77.2969,33.2344 Q77.6719,33.2344 77.9063,33.5 Q78.1406,33.7656 78.1406,34.375 L78.1406,37 L70.1406,37 Q69.5156,37 69.25,36.7656 Q69,36.5313 69,36.1406 Q69,35.7656 69.2656,35.5313 Q69.5313,35.2969 70.1406,35.2969 L70.4063,35.2969 L70.4063,28.6406 L70.1406,28.6406 Q69.5156,28.6406 69.25,28.4063 Q69,28.1719 69,27.7813 Q69,27.4063 69.25,27.1719 Q69.5156,26.9375 70.1406,26.9375 L77.7656,26.9375 L77.7656,29.5313 Q77.7656,30.1406 77.5313,30.4063 Q77.3125,30.6563 76.9219,30.6563 Q76.5469,30.6563 76.3125,30.4063 Q76.0781,30.1406 76.0781,29.5313 L76.0781,28.6406 L72.1094,28.6406 L72.1094,31.0938 L73.5938,31.0938 Q73.5938,30.4375 73.7188,30.25 Q73.9844,29.8438 74.4531,29.8438 Q74.8281,29.8438 75.0625,30.1094 Q75.2969,30.3594 75.2969,30.9688 L75.2969,32.9375 Q75.2969,33.4844 75.1719,33.6719 Q74.9063,34.0625 74.4531,34.0625 Q73.9844,34.0625 73.7188,33.6563 Q73.5938,33.4688 73.5938,32.7969 L72.1094,32.7969 Z " fill="#000000"/><text fill="#000000" font-family="sans-serif" font-size="14" lengthAdjust="spacing" textLength="52" x="89.75" y="37.7285">Musculo</text><line style="stroke:#181818;stroke-width:0.5;" x1="48" x2="155" y1="48" y2="48"/><text fill="#000000" font-family="sans-serif" font-size="14" lengthAdjust="spacing" textLength="55" x="53" y="66.5332">CUELLO</text><text fill="#000000" font-family="sans-serif" font-size="14" lengthAdjust="spacing" textLength="61" x="53" y="84.1426">HOMBRO</text><text fill="#000000" font-family="sans-serif" font-size="14" lengthAdjust="spacing" textLength="48" x="53" y="101.752">PECHO</text><text fill="#000000" font-family="sans-serif" font-size="14" lengthAdjust="spacing" textLength="49" x="53" y="119.3613">BICEPS</text><text fill="#000000" font-family="sans-serif" font-size="14" lengthAdjust="spacing" textLength="59" x="53" y="136.9707">TRICEPS</text><text fill="#000000" font-family="sans-serif" font-size="14" lengthAdjust="spacing" textLength="83" x="53" y="154.5801">ANTEBRAZO</text><text fill="#000000" font-family="sans-serif" font-size="14" lengthAdjust="spacing" textLength="63" x="53" y="172.1895">ESPALDA</text><text fill="#000000" font-family="sans-serif" font-size="14" lengthAdjust="spacing" textLength="97" x="53" y="189.7988">ABDOMINALES</text><text fill="#000000" font-family="sans-serif" font-size="14" lengthAdjust="spacing" textLength="57" x="53" y="207.4082">GLUTEO</text><text fill="#000000" font-family="sans-serif" font-size="14" lengthAdjust="spacing" textLength="88" x="53" y="225.0176">CUADRICEPS</text><text fill="#000000" font-family="sans-serif" font-size="14" lengthAdjust="spacing" textLength="67" x="53" y="242.627">FEMORAL</text><text fill="#000000" font-family="sans-serif" font-size="14" lengthAdjust="spacing" textLength="59" x="53" y="260.2363">GEMELO</text><line style="stroke:#181818;stroke-width:0.5;" x1="48" x2="155" y1="267.3125" y2="267.3125"/></g><!--class DiaDeLaSemana--><g id="elem_DiaDeLaSemana"><rect codeLine="21" fill="#F1F1F1" height="171.2656" id="DiaDeLaSemana" rx="2.5" ry="2.5" style="stroke:#181818;stroke-width:0.5;" width="139" x="191" y="60"/><ellipse cx="206" cy="76" fill="#EB937F" rx="11" ry="11" style="stroke:#181818;stroke-width:1.0;"/><path d="M204.8594,76.7969 L204.8594,79.2969 L209.1875,79.2969 L209.1875,78.375 Q209.1875,77.7656 209.4219,77.5 Q209.6719,77.2344 210.0469,77.2344 Q210.4219,77.2344 210.6563,77.5 Q210.8906,77.7656 210.8906,78.375 L210.8906,81 L202.8906,81 Q202.2656,81 202,80.7656 Q201.75,80.5313 201.75,80.1406 Q201.75,79.7656 202.0156,79.5313 Q202.2813,79.2969 202.8906,79.2969 L203.1563,79.2969 L203.1563,72.6406 L202.8906,72.6406 Q202.2656,72.6406 202,72.4063 Q201.75,72.1719 201.75,71.7813 Q201.75,71.4063 202,71.1719 Q202.2656,70.9375 202.8906,70.9375 L210.5156,70.9375 L210.5156,73.5313 Q210.5156,74.1406 210.2813,74.4063 Q210.0625,74.6563 209.6719,74.6563 Q209.2969,74.6563 209.0625,74.4063 Q208.8281,74.1406 208.8281,73.5313 L208.8281,72.6406 L204.8594,72.6406 L204.8594,75.0938 L206.3438,75.0938 Q206.3438,74.4375 206.4688,74.25 Q206.7344,73.8438 207.2031,73.8438 Q207.5781,73.8438 207.8125,74.1094 Q208.0469,74.3594 208.0469,74.9688 L208.0469,76.9375 Q208.0469,77.4844 207.9219,77.6719 Q207.6563,78.0625 207.2031,78.0625 Q206.7344,78.0625 206.4688,77.6563 Q206.3438,77.4688 206.3438,76.7969 L204.8594,76.7969 Z " fill="#000000"/><text fill="#000000" font-family="sans-serif" font-size="14" lengthAdjust="spacing" textLength="107" x="220" y="81.7285">DiaDeLaSemana</text><line style="stroke:#181818;stroke-width:0.5;" x1="192" x2="329" y1="92" y2="92"/><text fill="#000000" font-family="sans-serif" font-size="14" lengthAdjust="spacing" textLength="44" x="197" y="110.5332">LUNES</text><text fill="#000000" font-family="sans-serif" font-size="14" lengthAdjust="spacing" textLength="57" x="197" y="128.1426">MARTES</text><text fill="#000000" font-family="sans-serif" font-size="14" lengthAdjust="spacing" textLength="80" x="197" y="145.752">MIERCOLES</text><text fill="#000000" font-family="sans-serif" font-size="14" lengthAdjust="spacing" textLength="51" x="197" y="163.3613">JUEVES</text><text fill="#000000" font-family="sans-serif" font-size="14" lengthAdjust="spacing" textLength="58" x="197" y="180.9707">VIERNES</text><text fill="#000000" font-family="sans-serif" font-size="14" lengthAdjust="spacing" textLength="57" x="197" y="198.5801">SABADO</text><text fill="#000000" font-family="sans-serif" font-size="14" lengthAdjust="spacing" textLength="66" x="197" y="216.1895">DOMINGO</text><line style="stroke:#181818;stroke-width:0.5;" x1="192" x2="329" y1="223.2656" y2="223.2656"/></g><!--class Genero--><g id="elem_Genero"><rect codeLine="31" fill="#F1F1F1" height="100.8281" id="Genero" rx="2.5" ry="2.5" style="stroke:#181818;stroke-width:0.5;" width="80" x="365.5" y="95"/><ellipse cx="380.5" cy="111" fill="#EB937F" rx="11" ry="11" style="stroke:#181818;stroke-width:1.0;"/><path d="M379.3594,111.7969 L379.3594,114.2969 L383.6875,114.2969 L383.6875,113.375 Q383.6875,112.7656 383.9219,112.5 Q384.1719,112.2344 384.5469,112.2344 Q384.9219,112.2344 385.1563,112.5 Q385.3906,112.7656 385.3906,113.375 L385.3906,116 L377.3906,116 Q376.7656,116 376.5,115.7656 Q376.25,115.5313 376.25,115.1406 Q376.25,114.7656 376.5156,114.5313 Q376.7813,114.2969 377.3906,114.2969 L377.6563,114.2969 L377.6563,107.6406 L377.3906,107.6406 Q376.7656,107.6406 376.5,107.4063 Q376.25,107.1719 376.25,106.7813 Q376.25,106.4063 376.5,106.1719 Q376.7656,105.9375 377.3906,105.9375 L385.0156,105.9375 L385.0156,108.5313 Q385.0156,109.1406 384.7813,109.4063 Q384.5625,109.6563 384.1719,109.6563 Q383.7969,109.6563 383.5625,109.4063 Q383.3281,109.1406 383.3281,108.5313 L383.3281,107.6406 L379.3594,107.6406 L379.3594,110.0938 L380.8438,110.0938 Q380.8438,109.4375 380.9688,109.25 Q381.2344,108.8438 381.7031,108.8438 Q382.0781,108.8438 382.3125,109.1094 Q382.5469,109.3594 382.5469,109.9688 L382.5469,111.9375 Q382.5469,112.4844 382.4219,112.6719 Q382.1563,113.0625 381.7031,113.0625 Q381.2344,113.0625 380.9688,112.6563 Q380.8438,112.4688 380.8438,111.7969 L379.3594,111.7969 Z " fill="#000000"/><text fill="#000000" font-family="sans-serif" font-size="14" lengthAdjust="spacing" textLength="48" x="394.5" y="116.7285">Genero</text><line style="stroke:#181818;stroke-width:0.5;" x1="366.5" x2="444.5" y1="127" y2="127"/><text fill="#000000" font-family="sans-serif" font-size="14" lengthAdjust="spacing" textLength="59" x="371.5" y="145.5332">HOMBRE</text><text fill="#000000" font-family="sans-serif" font-size="14" lengthAdjust="spacing" textLength="45" x="371.5" y="163.1426">MUJER</text><text fill="#000000" font-family="sans-serif" font-size="14" lengthAdjust="spacing" textLength="41" x="371.5" y="180.752">OTRO</text><line style="stroke:#181818;stroke-width:0.5;" x1="366.5" x2="444.5" y1="187.8281" y2="187.8281"/></g><!--class Objetivo--><g id="elem_Objetivo"><rect codeLine="37" fill="#F1F1F1" height="100.8281" id="Objetivo" rx="2.5" ry="2.5" style="stroke:#181818;stroke-width:0.5;" width="189" x="7" y="388"/><ellipse cx="71.25" cy="404" fill="#EB937F" rx="11" ry="11" style="stroke:#181818;stroke-width:1.0;"/><path d="M70.1094,404.7969 L70.1094,407.2969 L74.4375,407.2969 L74.4375,406.375 Q74.4375,405.7656 74.6719,405.5 Q74.9219,405.2344 75.2969,405.2344 Q75.6719,405.2344 75.9063,405.5 Q76.1406,405.7656 76.1406,406.375 L76.1406,409 L68.1406,409 Q67.5156,409 67.25,408.7656 Q67,408.5313 67,408.1406 Q67,407.7656 67.2656,407.5313 Q67.5313,407.2969 68.1406,407.2969 L68.4063,407.2969 L68.4063,400.6406 L68.1406,400.6406 Q67.5156,400.6406 67.25,400.4063 Q67,400.1719 67,399.7813 Q67,399.4063 67.25,399.1719 Q67.5156,398.9375 68.1406,398.9375 L75.7656,398.9375 L75.7656,401.5313 Q75.7656,402.1406 75.5313,402.4063 Q75.3125,402.6563 74.9219,402.6563 Q74.5469,402.6563 74.3125,402.4063 Q74.0781,402.1406 74.0781,401.5313 L74.0781,400.6406 L70.1094,400.6406 L70.1094,403.0938 L71.5938,403.0938 Q71.5938,402.4375 71.7188,402.25 Q71.9844,401.8438 72.4531,401.8438 Q72.8281,401.8438 73.0625,402.1094 Q73.2969,402.3594 73.2969,402.9688 L73.2969,404.9375 Q73.2969,405.4844 73.1719,405.6719 Q72.9063,406.0625 72.4531,406.0625 Q71.9844,406.0625 71.7188,405.6563 Q71.5938,405.4688 71.5938,404.7969 L70.1094,404.7969 Z " fill="#000000"/><text fill="#000000" font-family="sans-serif" font-size="14" lengthAdjust="spacing" textLength="52" x="91.75" y="409.7285">Objetivo</text><line style="stroke:#181818;stroke-width:0.5;" x1="8" x2="195" y1="420" y2="420"/><text fill="#000000" font-family="sans-serif" font-size="14" lengthAdjust="spacing" textLength="113" x="13" y="438.5332">PERDER_GRASA</text><text fill="#000000" font-family="sans-serif" font-size="14" lengthAdjust="spacing" textLength="177" x="13" y="456.1426">GANAR_MASA_MUSCULAR</text><text fill="#000000" font-family="sans-serif" font-size="14" lengthAdjust="spacing" textLength="121" x="13" y="473.752">MANTENER_PESO</text><line style="stroke:#181818;stroke-width:0.5;" x1="8" x2="195" y1="480.8281" y2="480.8281"/></g><!--class NivelDeActividad--><g id="elem_NivelDeActividad"><rect codeLine="43" fill="#F1F1F1" height="136.0469" id="NivelDeActividad" rx="2.5" ry="2.5" style="stroke:#181818;stroke-width:0.5;" width="172" x="231.5" y="370.5"/><ellipse cx="262.25" cy="386.5" fill="#EB937F" rx="11" ry="11" style="stroke:#181818;stroke-width:1.0;"/><path d="M261.1094,387.2969 L261.1094,389.7969 L265.4375,389.7969 L265.4375,388.875 Q265.4375,388.2656 265.6719,388 Q265.9219,387.7344 266.2969,387.7344 Q266.6719,387.7344 266.9063,388 Q267.1406,388.2656 267.1406,388.875 L267.1406,391.5 L259.1406,391.5 Q258.5156,391.5 258.25,391.2656 Q258,391.0313 258,390.6406 Q258,390.2656 258.2656,390.0313 Q258.5313,389.7969 259.1406,389.7969 L259.4063,389.7969 L259.4063,383.1406 L259.1406,383.1406 Q258.5156,383.1406 258.25,382.9063 Q258,382.6719 258,382.2813 Q258,381.9063 258.25,381.6719 Q258.5156,381.4375 259.1406,381.4375 L266.7656,381.4375 L266.7656,384.0313 Q266.7656,384.6406 266.5313,384.9063 Q266.3125,385.1563 265.9219,385.1563 Q265.5469,385.1563 265.3125,384.9063 Q265.0781,384.6406 265.0781,384.0313 L265.0781,383.1406 L261.1094,383.1406 L261.1094,385.5938 L262.5938,385.5938 Q262.5938,384.9375 262.7188,384.75 Q262.9844,384.3438 263.4531,384.3438 Q263.8281,384.3438 264.0625,384.6094 Q264.2969,384.8594 264.2969,385.4688 L264.2969,387.4375 Q264.2969,387.9844 264.1719,388.1719 Q263.9063,388.5625 263.4531,388.5625 Q262.9844,388.5625 262.7188,388.1563 Q262.5938,387.9688 262.5938,387.2969 L261.1094,387.2969 Z " fill="#000000"/><text fill="#000000" font-family="sans-serif" font-size="14" lengthAdjust="spacing" textLength="105" x="279.75" y="392.2285">NivelDeActividad</text><line style="stroke:#181818;stroke-width:0.5;" x1="232.5" x2="402.5" y1="402.5" y2="402.5"/><text fill="#000000" font-family="sans-serif" font-size="14" lengthAdjust="spacing" textLength="88" x="237.5" y="421.0332">SEDENTARIO</text><text fill="#000000" font-family="sans-serif" font-size="14" lengthAdjust="spacing" textLength="131" x="237.5" y="438.6426">EJERCICIO_LIGERO</text><text fill="#000000" font-family="sans-serif" font-size="14" lengthAdjust="spacing" textLength="160" x="237.5" y="456.252">EJERCICIO_MODERADO</text><text fill="#000000" font-family="sans-serif" font-size="14" lengthAdjust="spacing" textLength="138" x="237.5" y="473.8613">EJERCICIO_INTENSO</text><text fill="#000000" font-family="sans-serif" font-size="14" lengthAdjust="spacing" textLength="53" x="237.5" y="491.4707">ATLETA</text><line style="stroke:#181818;stroke-width:0.5;" x1="232.5" x2="402.5" y1="498.5469" y2="498.5469"/></g><!--class Usuario--><g id="elem_Usuario"><rect codeLine="55" fill="#F1F1F1" height="276.9219" id="Usuario" rx="2.5" ry="2.5" style="stroke:#181818;stroke-width:0.5;" width="247" x="615" y="7"/><ellipse cx="710.25" cy="23" fill="#ADD1B2" rx="11" ry="11" style="stroke:#181818;stroke-width:1.0;"/><path d="M713.0156,18.875 Q713.1719,18.6563 713.3594,18.5469 Q713.5469,18.4375 713.7656,18.4375 Q714.1406,18.4375 714.375,18.7031 Q714.6094,18.9531 714.6094,19.5625 L714.6094,21.0156 Q714.6094,21.625 714.375,21.8906 Q714.1406,22.1563 713.7656,22.1563 Q713.4219,22.1563 713.2188,21.9531 Q713.0156,21.7656 712.9063,21.25 Q712.8594,20.8906 712.6719,20.7031 Q712.3438,20.3281 711.7344,20.1094 Q711.125,19.8906 710.5,19.8906 Q709.7344,19.8906 709.0938,20.2188 Q708.4688,20.5469 707.9688,21.2969 Q707.4844,22.0469 707.4844,23.0781 L707.4844,24.1719 Q707.4844,25.4063 708.375,26.2344 Q709.2656,27.0469 710.8594,27.0469 Q711.7969,27.0469 712.4531,26.7969 Q712.8438,26.6406 713.2656,26.2031 Q713.5313,25.9375 713.6719,25.8594 Q713.8281,25.7813 714.0313,25.7813 Q714.3594,25.7813 714.6094,26.0469 Q714.875,26.2969 714.875,26.6406 Q714.875,26.9844 714.5313,27.3906 Q714.0313,27.9688 713.2344,28.2969 Q712.1563,28.75 710.8594,28.75 Q709.3438,28.75 708.1406,28.125 Q707.1563,27.625 706.4688,26.5625 Q705.7813,25.4844 705.7813,24.2031 L705.7813,23.0469 Q705.7813,21.7188 706.3906,20.5781 Q707.0156,19.4219 708.1094,18.8125 Q709.2031,18.1875 710.4375,18.1875 Q711.1719,18.1875 711.8125,18.3594 Q712.4688,18.5156 713.0156,18.875 Z " fill="#000000"/><text fill="#000000" font-family="sans-serif" font-size="14" lengthAdjust="spacing" textLength="48" x="730.75" y="28.7285">Usuario</text><line style="stroke:#181818;stroke-width:0.5;" x1="616" x2="861" y1="39" y2="39"/><rect fill="none" height="6" style="stroke:#C82930;stroke-width:1.0;" width="6" x="623" y="50.3047"/><text fill="#000000" font-family="sans-serif" font-size="14" lengthAdjust="spacing" textLength="103" x="635" y="57.5332">idUsuario : Long</text><rect fill="none" height="6" style="stroke:#C82930;stroke-width:1.0;" width="6" x="623" y="67.9141"/><text fill="#000000" font-family="sans-serif" font-size="14" lengthAdjust="spacing" textLength="97" x="635" y="75.1426">nombre : String</text><rect fill="none" height="6" style="stroke:#C82930;stroke-width:1.0;" width="6" x="623" y="85.5234"/><text fill="#000000" font-family="sans-serif" font-size="14" lengthAdjust="spacing" textLength="106" x="635" y="92.752">apellido1 : String</text><rect fill="none" height="6" style="stroke:#C82930;stroke-width:1.0;" width="6" x="623" y="103.1328"/><text fill="#000000" font-family="sans-serif" font-size="14" lengthAdjust="spacing" textLength="106" x="635" y="110.3613">apellido2 : String</text><rect fill="none" height="6" style="stroke:#C82930;stroke-width:1.0;" width="6" x="623" y="120.7422"/><text fill="#000000" font-family="sans-serif" font-size="14" lengthAdjust="spacing" textLength="180" x="635" y="127.9707">fechaNacimiento : LocalDate</text><rect fill="none" height="6" style="stroke:#C82930;stroke-width:1.0;" width="6" x="623" y="138.3516"/><text fill="#000000" font-family="sans-serif" font-size="14" lengthAdjust="spacing" textLength="101" x="635" y="145.5801">genero: Genero</text><rect fill="none" height="6" style="stroke:#C82930;stroke-width:1.0;" width="6" x="623" y="155.9609"/><text fill="#000000" font-family="sans-serif" font-size="14" lengthAdjust="spacing" textLength="70" x="635" y="163.1895">peso : float</text><rect fill="none" height="6" style="stroke:#C82930;stroke-width:1.0;" width="6" x="623" y="173.5703"/><text fill="#000000" font-family="sans-serif" font-size="14" lengthAdjust="spacing" textLength="63" x="635" y="180.7988">altura : int</text><rect fill="none" height="6" style="stroke:#C82930;stroke-width:1.0;" width="6" x="623" y="191.1797"/><text fill="#000000" font-family="sans-serif" font-size="14" lengthAdjust="spacing" textLength="82" x="635" y="198.4082">email : String</text><rect fill="none" height="6" style="stroke:#C82930;stroke-width:1.0;" width="6" x="623" y="208.7891"/><text fill="#000000" font-family="sans-serif" font-size="14" lengthAdjust="spacing" textLength="100" x="635" y="216.0176">telefono : String</text><rect fill="none" height="6" style="stroke:#C82930;stroke-width:1.0;" width="6" x="623" y="226.3984"/><text fill="#000000" font-family="sans-serif" font-size="14" lengthAdjust="spacing" textLength="128" x="635" y="233.627">contrasenha : String</text><rect fill="none" height="6" style="stroke:#C82930;stroke-width:1.0;" width="6" x="623" y="244.0078"/><text fill="#000000" font-family="sans-serif" font-size="14" lengthAdjust="spacing" textLength="221" x="635" y="251.2363">nivelDeActividad : NivelDeActividad</text><rect fill="none" height="6" style="stroke:#C82930;stroke-width:1.0;" width="6" x="623" y="261.6172"/><text fill="#000000" font-family="sans-serif" font-size="14" lengthAdjust="spacing" textLength="113" x="635" y="268.8457">objetivo : Objetivo</text><line style="stroke:#181818;stroke-width:0.5;" x1="616" x2="861" y1="275.9219" y2="275.9219"/></g><!--class DietaCompleta--><g id="elem_DietaCompleta"><rect codeLine="71" fill="#F1F1F1" height="188.875" id="DietaCompleta" rx="2.5" ry="2.5" style="stroke:#181818;stroke-width:0.5;" width="161" x="439" y="344"/><ellipse cx="470.2" cy="360" fill="#ADD1B2" rx="11" ry="11" style="stroke:#181818;stroke-width:1.0;"/><path d="M472.9656,355.875 Q473.1219,355.6563 473.3094,355.5469 Q473.4969,355.4375 473.7156,355.4375 Q474.0906,355.4375 474.325,355.7031 Q474.5594,355.9531 474.5594,356.5625 L474.5594,358.0156 Q474.5594,358.625 474.325,358.8906 Q474.0906,359.1563 473.7156,359.1563 Q473.3719,359.1563 473.1688,358.9531 Q472.9656,358.7656 472.8563,358.25 Q472.8094,357.8906 472.6219,357.7031 Q472.2938,357.3281 471.6844,357.1094 Q471.075,356.8906 470.45,356.8906 Q469.6844,356.8906 469.0438,357.2188 Q468.4188,357.5469 467.9188,358.2969 Q467.4344,359.0469 467.4344,360.0781 L467.4344,361.1719 Q467.4344,362.4063 468.325,363.2344 Q469.2156,364.0469 470.8094,364.0469 Q471.7469,364.0469 472.4031,363.7969 Q472.7938,363.6406 473.2156,363.2031 Q473.4813,362.9375 473.6219,362.8594 Q473.7781,362.7813 473.9813,362.7813 Q474.3094,362.7813 474.5594,363.0469 Q474.825,363.2969 474.825,363.6406 Q474.825,363.9844 474.4813,364.3906 Q473.9813,364.9688 473.1844,365.2969 Q472.1063,365.75 470.8094,365.75 Q469.2938,365.75 468.0906,365.125 Q467.1063,364.625 466.4188,363.5625 Q465.7313,362.4844 465.7313,361.2031 L465.7313,360.0469 Q465.7313,358.7188 466.3406,357.5781 Q466.9656,356.4219 468.0594,355.8125 Q469.1531,355.1875 470.3875,355.1875 Q471.1219,355.1875 471.7625,355.3594 Q472.4188,355.5156 472.9656,355.875 Z " fill="#000000"/><text fill="#000000" font-family="sans-serif" font-size="14" lengthAdjust="spacing" textLength="93" x="487.8" y="365.7285">DietaCompleta</text><line style="stroke:#181818;stroke-width:0.5;" x1="440" x2="599" y1="376" y2="376"/><rect fill="none" height="6" style="stroke:#C82930;stroke-width:1.0;" width="6" x="447" y="387.3047"/><text fill="#000000" font-family="sans-serif" font-size="14" lengthAdjust="spacing" textLength="88" x="459" y="394.5332">idDieta : Long</text><rect fill="none" height="6" style="stroke:#C82930;stroke-width:1.0;" width="6" x="447" y="404.9141"/><text fill="#000000" font-family="sans-serif" font-size="14" lengthAdjust="spacing" textLength="97" x="459" y="412.1426">nombre : String</text><rect fill="none" height="6" style="stroke:#C82930;stroke-width:1.0;" width="6" x="447" y="422.5234"/><text fill="#000000" font-family="sans-serif" font-size="14" lengthAdjust="spacing" textLength="121" x="459" y="429.752">descripcion : String</text><rect fill="none" height="6" style="stroke:#C82930;stroke-width:1.0;" width="6" x="447" y="440.1328"/><text fill="#000000" font-family="sans-serif" font-size="14" lengthAdjust="spacing" textLength="135" x="459" y="447.3613">caloriasTotales : float</text><rect fill="none" height="6" style="stroke:#C82930;stroke-width:1.0;" width="6" x="447" y="457.7422"/><text fill="#000000" font-family="sans-serif" font-size="14" lengthAdjust="spacing" textLength="98" x="459" y="464.9707">proteinas : float</text><rect fill="none" height="6" style="stroke:#C82930;stroke-width:1.0;" width="6" x="447" y="475.3516"/><text fill="#000000" font-family="sans-serif" font-size="14" lengthAdjust="spacing" textLength="126" x="459" y="482.5801">carbohidratos : float</text><rect fill="none" height="6" style="stroke:#C82930;stroke-width:1.0;" width="6" x="447" y="492.9609"/><text fill="#000000" font-family="sans-serif" font-size="14" lengthAdjust="spacing" textLength="82" x="459" y="500.1895">grasas : float</text><rect fill="none" height="6" style="stroke:#C82930;stroke-width:1.0;" width="6" x="447" y="510.5703"/><text fill="#000000" font-family="sans-serif" font-size="14" lengthAdjust="spacing" textLength="100" x="459" y="517.7988">activa : boolean</text><line style="stroke:#181818;stroke-width:0.5;" x1="440" x2="599" y1="524.875" y2="524.875"/></g><!--class DiaEnDieta--><g id="elem_DiaEnDieta"><rect codeLine="82" fill="#F1F1F1" height="171.2656" id="DiaEnDieta" rx="2.5" ry="2.5" style="stroke:#181818;stroke-width:0.5;" width="250" x="394.5" y="593"/><ellipse cx="479.75" cy="609" fill="#ADD1B2" rx="11" ry="11" style="stroke:#181818;stroke-width:1.0;"/><path d="M482.5156,604.875 Q482.6719,604.6563 482.8594,604.5469 Q483.0469,604.4375 483.2656,604.4375 Q483.6406,604.4375 483.875,604.7031 Q484.1094,604.9531 484.1094,605.5625 L484.1094,607.0156 Q484.1094,607.625 483.875,607.8906 Q483.6406,608.1563 483.2656,608.1563 Q482.9219,608.1563 482.7188,607.9531 Q482.5156,607.7656 482.4063,607.25 Q482.3594,606.8906 482.1719,606.7031 Q481.8438,606.3281 481.2344,606.1094 Q480.625,605.8906 480,605.8906 Q479.2344,605.8906 478.5938,606.2188 Q477.9688,606.5469 477.4688,607.2969 Q476.9844,608.0469 476.9844,609.0781 L476.9844,610.1719 Q476.9844,611.4063 477.875,612.2344 Q478.7656,613.0469 480.3594,613.0469 Q481.2969,613.0469 481.9531,612.7969 Q482.3438,612.6406 482.7656,612.2031 Q483.0313,611.9375 483.1719,611.8594 Q483.3281,611.7813 483.5313,611.7813 Q483.8594,611.7813 484.1094,612.0469 Q484.375,612.2969 484.375,612.6406 Q484.375,612.9844 484.0313,613.3906 Q483.5313,613.9688 482.7344,614.2969 Q481.6563,614.75 480.3594,614.75 Q478.8438,614.75 477.6406,614.125 Q476.6563,613.625 475.9688,612.5625 Q475.2813,611.4844 475.2813,610.2031 L475.2813,609.0469 Q475.2813,607.7188 475.8906,606.5781 Q476.5156,605.4219 477.6094,604.8125 Q478.7031,604.1875 479.9375,604.1875 Q480.6719,604.1875 481.3125,604.3594 Q481.9688,604.5156 482.5156,604.875 Z " fill="#000000"/><text fill="#000000" font-family="sans-serif" font-size="14" lengthAdjust="spacing" textLength="71" x="500.25" y="614.7285">DiaEnDieta</text><line style="stroke:#181818;stroke-width:0.5;" x1="395.5" x2="643.5" y1="625" y2="625"/><rect fill="none" height="6" style="stroke:#C82930;stroke-width:1.0;" width="6" x="402.5" y="636.3047"/><text fill="#000000" font-family="sans-serif" font-size="14" lengthAdjust="spacing" textLength="126" x="414.5" y="643.5332">idDiaEnDieta : Long</text><rect fill="none" height="6" style="stroke:#C82930;stroke-width:1.0;" width="6" x="402.5" y="653.9141"/><text fill="#000000" font-family="sans-serif" font-size="14" lengthAdjust="spacing" textLength="97" x="414.5" y="661.1426">nombre : String</text><rect fill="none" height="6" style="stroke:#C82930;stroke-width:1.0;" width="6" x="402.5" y="671.5234"/><text fill="#000000" font-family="sans-serif" font-size="14" lengthAdjust="spacing" textLength="135" x="414.5" y="678.752">caloriasTotales : float</text><rect fill="none" height="6" style="stroke:#C82930;stroke-width:1.0;" width="6" x="402.5" y="689.1328"/><text fill="#000000" font-family="sans-serif" font-size="14" lengthAdjust="spacing" textLength="98" x="414.5" y="696.3613">proteinas : float</text><rect fill="none" height="6" style="stroke:#C82930;stroke-width:1.0;" width="6" x="402.5" y="706.7422"/><text fill="#000000" font-family="sans-serif" font-size="14" lengthAdjust="spacing" textLength="126" x="414.5" y="713.9707">carbohidratos : float</text><rect fill="none" height="6" style="stroke:#C82930;stroke-width:1.0;" width="6" x="402.5" y="724.3516"/><text fill="#000000" font-family="sans-serif" font-size="14" lengthAdjust="spacing" textLength="82" x="414.5" y="731.5801">grasas : float</text><rect fill="none" height="6" style="stroke:#C82930;stroke-width:1.0;" width="6" x="402.5" y="741.9609"/><text fill="#000000" font-family="sans-serif" font-size="14" lengthAdjust="spacing" textLength="224" x="414.5" y="749.1895">diaDeLaSemana : DiaDeLaSemana</text><line style="stroke:#181818;stroke-width:0.5;" x1="395.5" x2="643.5" y1="756.2656" y2="756.2656"/></g><!--class Comida--><g id="elem_Comida"><rect codeLine="93" fill="#F1F1F1" height="153.6563" id="Comida" rx="2.5" ry="2.5" style="stroke:#181818;stroke-width:0.5;" width="161" x="439" y="824"/><ellipse cx="491.25" cy="840" fill="#ADD1B2" rx="11" ry="11" style="stroke:#181818;stroke-width:1.0;"/><path d="M494.0156,835.875 Q494.1719,835.6563 494.3594,835.5469 Q494.5469,835.4375 494.7656,835.4375 Q495.1406,835.4375 495.375,835.7031 Q495.6094,835.9531 495.6094,836.5625 L495.6094,838.0156 Q495.6094,838.625 495.375,838.8906 Q495.1406,839.1563 494.7656,839.1563 Q494.4219,839.1563 494.2188,838.9531 Q494.0156,838.7656 493.9063,838.25 Q493.8594,837.8906 493.6719,837.7031 Q493.3438,837.3281 492.7344,837.1094 Q492.125,836.8906 491.5,836.8906 Q490.7344,836.8906 490.0938,837.2188 Q489.4688,837.5469 488.9688,838.2969 Q488.4844,839.0469 488.4844,840.0781 L488.4844,841.1719 Q488.4844,842.4063 489.375,843.2344 Q490.2656,844.0469 491.8594,844.0469 Q492.7969,844.0469 493.4531,843.7969 Q493.8438,843.6406 494.2656,843.2031 Q494.5313,842.9375 494.6719,842.8594 Q494.8281,842.7813 495.0313,842.7813 Q495.3594,842.7813 495.6094,843.0469 Q495.875,843.2969 495.875,843.6406 Q495.875,843.9844 495.5313,844.3906 Q495.0313,844.9688 494.2344,845.2969 Q493.1563,845.75 491.8594,845.75 Q490.3438,845.75 489.1406,845.125 Q488.1563,844.625 487.4688,843.5625 Q486.7813,842.4844 486.7813,841.2031 L486.7813,840.0469 Q486.7813,838.7188 487.3906,837.5781 Q488.0156,836.4219 489.1094,835.8125 Q490.2031,835.1875 491.4375,835.1875 Q492.1719,835.1875 492.8125,835.3594 Q493.4688,835.5156 494.0156,835.875 Z " fill="#000000"/><text fill="#000000" font-family="sans-serif" font-size="14" lengthAdjust="spacing" textLength="48" x="511.75" y="845.7285">Comida</text><line style="stroke:#181818;stroke-width:0.5;" x1="440" x2="599" y1="856" y2="856"/><rect fill="none" height="6" style="stroke:#C82930;stroke-width:1.0;" width="6" x="447" y="867.3047"/><text fill="#000000" font-family="sans-serif" font-size="14" lengthAdjust="spacing" textLength="103" x="459" y="874.5332">idComida : Long</text><rect fill="none" height="6" style="stroke:#C82930;stroke-width:1.0;" width="6" x="447" y="884.9141"/><text fill="#000000" font-family="sans-serif" font-size="14" lengthAdjust="spacing" textLength="97" x="459" y="892.1426">nombre : String</text><rect fill="none" height="6" style="stroke:#C82930;stroke-width:1.0;" width="6" x="447" y="902.5234"/><text fill="#000000" font-family="sans-serif" font-size="14" lengthAdjust="spacing" textLength="135" x="459" y="909.752">caloriasTotales : float</text><rect fill="none" height="6" style="stroke:#C82930;stroke-width:1.0;" width="6" x="447" y="920.1328"/><text fill="#000000" font-family="sans-serif" font-size="14" lengthAdjust="spacing" textLength="98" x="459" y="927.3613">proteinas : float</text><rect fill="none" height="6" style="stroke:#C82930;stroke-width:1.0;" width="6" x="447" y="937.7422"/><text fill="#000000" font-family="sans-serif" font-size="14" lengthAdjust="spacing" textLength="126" x="459" y="944.9707">carbohidratos : float</text><rect fill="none" height="6" style="stroke:#C82930;stroke-width:1.0;" width="6" x="447" y="955.3516"/><text fill="#000000" font-family="sans-serif" font-size="14" lengthAdjust="spacing" textLength="82" x="459" y="962.5801">grasas : float</text><line style="stroke:#181818;stroke-width:0.5;" x1="440" x2="599" y1="969.6563" y2="969.6563"/></g><!--class Ingrediente--><g id="elem_Ingrediente"><rect codeLine="102" fill="#F1F1F1" height="171.2656" id="Ingrediente" rx="2.5" ry="2.5" style="stroke:#181818;stroke-width:0.5;" width="169" x="435" y="1038"/><ellipse cx="479.75" cy="1054" fill="#ADD1B2" rx="11" ry="11" style="stroke:#181818;stroke-width:1.0;"/><path d="M482.5156,1049.875 Q482.6719,1049.6563 482.8594,1049.5469 Q483.0469,1049.4375 483.2656,1049.4375 Q483.6406,1049.4375 483.875,1049.7031 Q484.1094,1049.9531 484.1094,1050.5625 L484.1094,1052.0156 Q484.1094,1052.625 483.875,1052.8906 Q483.6406,1053.1563 483.2656,1053.1563 Q482.9219,1053.1563 482.7188,1052.9531 Q482.5156,1052.7656 482.4063,1052.25 Q482.3594,1051.8906 482.1719,1051.7031 Q481.8438,1051.3281 481.2344,1051.1094 Q480.625,1050.8906 480,1050.8906 Q479.2344,1050.8906 478.5938,1051.2188 Q477.9688,1051.5469 477.4688,1052.2969 Q476.9844,1053.0469 476.9844,1054.0781 L476.9844,1055.1719 Q476.9844,1056.4063 477.875,1057.2344 Q478.7656,1058.0469 480.3594,1058.0469 Q481.2969,1058.0469 481.9531,1057.7969 Q482.3438,1057.6406 482.7656,1057.2031 Q483.0313,1056.9375 483.1719,1056.8594 Q483.3281,1056.7813 483.5313,1056.7813 Q483.8594,1056.7813 484.1094,1057.0469 Q484.375,1057.2969 484.375,1057.6406 Q484.375,1057.9844 484.0313,1058.3906 Q483.5313,1058.9688 482.7344,1059.2969 Q481.6563,1059.75 480.3594,1059.75 Q478.8438,1059.75 477.6406,1059.125 Q476.6563,1058.625 475.9688,1057.5625 Q475.2813,1056.4844 475.2813,1055.2031 L475.2813,1054.0469 Q475.2813,1052.7188 475.8906,1051.5781 Q476.5156,1050.4219 477.6094,1049.8125 Q478.7031,1049.1875 479.9375,1049.1875 Q480.6719,1049.1875 481.3125,1049.3594 Q481.9688,1049.5156 482.5156,1049.875 Z " fill="#000000"/><text fill="#000000" font-family="sans-serif" font-size="14" lengthAdjust="spacing" textLength="71" x="500.25" y="1059.7285">Ingrediente</text><line style="stroke:#181818;stroke-width:0.5;" x1="436" x2="603" y1="1070" y2="1070"/><rect fill="none" height="6" style="stroke:#C82930;stroke-width:1.0;" width="6" x="443" y="1081.3047"/><text fill="#000000" font-family="sans-serif" font-size="14" lengthAdjust="spacing" textLength="126" x="455" y="1088.5332">idIngrediente : Long</text><rect fill="none" height="6" style="stroke:#C82930;stroke-width:1.0;" width="6" x="443" y="1098.9141"/><text fill="#000000" font-family="sans-serif" font-size="14" lengthAdjust="spacing" textLength="97" x="455" y="1106.1426">nombre : String</text><rect fill="none" height="6" style="stroke:#C82930;stroke-width:1.0;" width="6" x="443" y="1116.5234"/><text fill="#000000" font-family="sans-serif" font-size="14" lengthAdjust="spacing" textLength="143" x="455" y="1123.752">cantidadGramos : float</text><rect fill="none" height="6" style="stroke:#C82930;stroke-width:1.0;" width="6" x="443" y="1134.1328"/><text fill="#000000" font-family="sans-serif" font-size="14" lengthAdjust="spacing" textLength="88" x="455" y="1141.3613">calorias : float</text><rect fill="none" height="6" style="stroke:#C82930;stroke-width:1.0;" width="6" x="443" y="1151.7422"/><text fill="#000000" font-family="sans-serif" font-size="14" lengthAdjust="spacing" textLength="98" x="455" y="1158.9707">proteinas : float</text><rect fill="none" height="6" style="stroke:#C82930;stroke-width:1.0;" width="6" x="443" y="1169.3516"/><text fill="#000000" font-family="sans-serif" font-size="14" lengthAdjust="spacing" textLength="126" x="455" y="1176.5801">carbohidratos : float</text><rect fill="none" height="6" style="stroke:#C82930;stroke-width:1.0;" width="6" x="443" y="1186.9609"/><text fill="#000000" font-family="sans-serif" font-size="14" lengthAdjust="spacing" textLength="82" x="455" y="1194.1895">grasas : float</text><line style="stroke:#181818;stroke-width:0.5;" x1="436" x2="603" y1="1201.2656" y2="1201.2656"/></g><!--class Alimento--><g id="elem_Alimento"><rect codeLine="112" fill="#F1F1F1" height="153.6563" id="Alimento" rx="2.5" ry="2.5" style="stroke:#181818;stroke-width:0.5;" width="206" x="635.5" y="361.5"/><ellipse cx="707.25" cy="377.5" fill="#ADD1B2" rx="11" ry="11" style="stroke:#181818;stroke-width:1.0;"/><path d="M710.0156,373.375 Q710.1719,373.1563 710.3594,373.0469 Q710.5469,372.9375 710.7656,372.9375 Q711.1406,372.9375 711.375,373.2031 Q711.6094,373.4531 711.6094,374.0625 L711.6094,375.5156 Q711.6094,376.125 711.375,376.3906 Q711.1406,376.6563 710.7656,376.6563 Q710.4219,376.6563 710.2188,376.4531 Q710.0156,376.2656 709.9063,375.75 Q709.8594,375.3906 709.6719,375.2031 Q709.3438,374.8281 708.7344,374.6094 Q708.125,374.3906 707.5,374.3906 Q706.7344,374.3906 706.0938,374.7188 Q705.4688,375.0469 704.9688,375.7969 Q704.4844,376.5469 704.4844,377.5781 L704.4844,378.6719 Q704.4844,379.9063 705.375,380.7344 Q706.2656,381.5469 707.8594,381.5469 Q708.7969,381.5469 709.4531,381.2969 Q709.8438,381.1406 710.2656,380.7031 Q710.5313,380.4375 710.6719,380.3594 Q710.8281,380.2813 711.0313,380.2813 Q711.3594,380.2813 711.6094,380.5469 Q711.875,380.7969 711.875,381.1406 Q711.875,381.4844 711.5313,381.8906 Q711.0313,382.4688 710.2344,382.7969 Q709.1563,383.25 707.8594,383.25 Q706.3438,383.25 705.1406,382.625 Q704.1563,382.125 703.4688,381.0625 Q702.7813,379.9844 702.7813,378.7031 L702.7813,377.5469 Q702.7813,376.2188 703.3906,375.0781 Q704.0156,373.9219 705.1094,373.3125 Q706.2031,372.6875 707.4375,372.6875 Q708.1719,372.6875 708.8125,372.8594 Q709.4688,373.0156 710.0156,373.375 Z " fill="#000000"/><text fill="#000000" font-family="sans-serif" font-size="14" lengthAdjust="spacing" textLength="54" x="727.75" y="383.2285">Alimento</text><line style="stroke:#181818;stroke-width:0.5;" x1="636.5" x2="840.5" y1="393.5" y2="393.5"/><rect fill="none" height="6" style="stroke:#C82930;stroke-width:1.0;" width="6" x="643.5" y="404.8047"/><text fill="#000000" font-family="sans-serif" font-size="14" lengthAdjust="spacing" textLength="109" x="655.5" y="412.0332">idAlimento : Long</text><rect fill="none" height="6" style="stroke:#C82930;stroke-width:1.0;" width="6" x="643.5" y="422.4141"/><text fill="#000000" font-family="sans-serif" font-size="14" lengthAdjust="spacing" textLength="97" x="655.5" y="429.6426">nombre : String</text><rect fill="none" height="6" style="stroke:#C82930;stroke-width:1.0;" width="6" x="643.5" y="440.0234"/><text fill="#000000" font-family="sans-serif" font-size="14" lengthAdjust="spacing" textLength="142" x="655.5" y="447.252">caloriasPor100g : float</text><rect fill="none" height="6" style="stroke:#C82930;stroke-width:1.0;" width="6" x="643.5" y="457.6328"/><text fill="#000000" font-family="sans-serif" font-size="14" lengthAdjust="spacing" textLength="152" x="655.5" y="464.8613">proteinasPor100g : float</text><rect fill="none" height="6" style="stroke:#C82930;stroke-width:1.0;" width="6" x="643.5" y="475.2422"/><text fill="#000000" font-family="sans-serif" font-size="14" lengthAdjust="spacing" textLength="180" x="655.5" y="482.4707">carbohidratosPor100g : float</text><rect fill="none" height="6" style="stroke:#C82930;stroke-width:1.0;" width="6" x="643.5" y="492.8516"/><text fill="#000000" font-family="sans-serif" font-size="14" lengthAdjust="spacing" textLength="136" x="655.5" y="500.0801">grasasPor100g : float</text><line style="stroke:#181818;stroke-width:0.5;" x1="636.5" x2="840.5" y1="507.1563" y2="507.1563"/></g><!--class RutinaCompleta--><g id="elem_RutinaCompleta"><rect codeLine="121" fill="#F1F1F1" height="100.8281" id="RutinaCompleta" rx="2.5" ry="2.5" style="stroke:#181818;stroke-width:0.5;" width="133" x="877" y="388"/><ellipse cx="892" cy="404" fill="#ADD1B2" rx="11" ry="11" style="stroke:#181818;stroke-width:1.0;"/><path d="M894.7656,399.875 Q894.9219,399.6563 895.1094,399.5469 Q895.2969,399.4375 895.5156,399.4375 Q895.8906,399.4375 896.125,399.7031 Q896.3594,399.9531 896.3594,400.5625 L896.3594,402.0156 Q896.3594,402.625 896.125,402.8906 Q895.8906,403.1563 895.5156,403.1563 Q895.1719,403.1563 894.9688,402.9531 Q894.7656,402.7656 894.6563,402.25 Q894.6094,401.8906 894.4219,401.7031 Q894.0938,401.3281 893.4844,401.1094 Q892.875,400.8906 892.25,400.8906 Q891.4844,400.8906 890.8438,401.2188 Q890.2188,401.5469 889.7188,402.2969 Q889.2344,403.0469 889.2344,404.0781 L889.2344,405.1719 Q889.2344,406.4063 890.125,407.2344 Q891.0156,408.0469 892.6094,408.0469 Q893.5469,408.0469 894.2031,407.7969 Q894.5938,407.6406 895.0156,407.2031 Q895.2813,406.9375 895.4219,406.8594 Q895.5781,406.7813 895.7813,406.7813 Q896.1094,406.7813 896.3594,407.0469 Q896.625,407.2969 896.625,407.6406 Q896.625,407.9844 896.2813,408.3906 Q895.7813,408.9688 894.9844,409.2969 Q893.9063,409.75 892.6094,409.75 Q891.0938,409.75 889.8906,409.125 Q888.9063,408.625 888.2188,407.5625 Q887.5313,406.4844 887.5313,405.2031 L887.5313,404.0469 Q887.5313,402.7188 888.1406,401.5781 Q888.7656,400.4219 889.8594,399.8125 Q890.9531,399.1875 892.1875,399.1875 Q892.9219,399.1875 893.5625,399.3594 Q894.2188,399.5156 894.7656,399.875 Z " fill="#000000"/><text fill="#000000" font-family="sans-serif" font-size="14" lengthAdjust="spacing" textLength="101" x="906" y="409.7285">RutinaCompleta</text><line style="stroke:#181818;stroke-width:0.5;" x1="878" x2="1009" y1="420" y2="420"/><rect fill="none" height="6" style="stroke:#C82930;stroke-width:1.0;" width="6" x="885" y="431.3047"/><text fill="#000000" font-family="sans-serif" font-size="14" lengthAdjust="spacing" textLength="96" x="897" y="438.5332">idRutina : Long</text><rect fill="none" height="6" style="stroke:#C82930;stroke-width:1.0;" width="6" x="885" y="448.9141"/><text fill="#000000" font-family="sans-serif" font-size="14" lengthAdjust="spacing" textLength="97" x="897" y="456.1426">nombre : String</text><rect fill="none" height="6" style="stroke:#C82930;stroke-width:1.0;" width="6" x="885" y="466.5234"/><text fill="#000000" font-family="sans-serif" font-size="14" lengthAdjust="spacing" textLength="104" x="897" y="473.752">resumen : String</text><line style="stroke:#181818;stroke-width:0.5;" x1="878" x2="1009" y1="480.8281" y2="480.8281"/></g><!--class DiaEnRutina--><g id="elem_DiaEnRutina"><rect codeLine="127" fill="#F1F1F1" height="136.0469" id="DiaEnRutina" rx="2.5" ry="2.5" style="stroke:#181818;stroke-width:0.5;" width="250" x="818.5" y="610.5"/><ellipse cx="899.75" cy="626.5" fill="#ADD1B2" rx="11" ry="11" style="stroke:#181818;stroke-width:1.0;"/><path d="M902.5156,622.375 Q902.6719,622.1563 902.8594,622.0469 Q903.0469,621.9375 903.2656,621.9375 Q903.6406,621.9375 903.875,622.2031 Q904.1094,622.4531 904.1094,623.0625 L904.1094,624.5156 Q904.1094,625.125 903.875,625.3906 Q903.6406,625.6563 903.2656,625.6563 Q902.9219,625.6563 902.7188,625.4531 Q902.5156,625.2656 902.4063,624.75 Q902.3594,624.3906 902.1719,624.2031 Q901.8438,623.8281 901.2344,623.6094 Q900.625,623.3906 900,623.3906 Q899.2344,623.3906 898.5938,623.7188 Q897.9688,624.0469 897.4688,624.7969 Q896.9844,625.5469 896.9844,626.5781 L896.9844,627.6719 Q896.9844,628.9063 897.875,629.7344 Q898.7656,630.5469 900.3594,630.5469 Q901.2969,630.5469 901.9531,630.2969 Q902.3438,630.1406 902.7656,629.7031 Q903.0313,629.4375 903.1719,629.3594 Q903.3281,629.2813 903.5313,629.2813 Q903.8594,629.2813 904.1094,629.5469 Q904.375,629.7969 904.375,630.1406 Q904.375,630.4844 904.0313,630.8906 Q903.5313,631.4688 902.7344,631.7969 Q901.6563,632.25 900.3594,632.25 Q898.8438,632.25 897.6406,631.625 Q896.6563,631.125 895.9688,630.0625 Q895.2813,628.9844 895.2813,627.7031 L895.2813,626.5469 Q895.2813,625.2188 895.8906,624.0781 Q896.5156,622.9219 897.6094,622.3125 Q898.7031,621.6875 899.9375,621.6875 Q900.6719,621.6875 901.3125,621.8594 Q901.9688,622.0156 902.5156,622.375 Z " fill="#000000"/><text fill="#000000" font-family="sans-serif" font-size="14" lengthAdjust="spacing" textLength="79" x="920.25" y="632.2285">DiaEnRutina</text><line style="stroke:#181818;stroke-width:0.5;" x1="819.5" x2="1067.5" y1="642.5" y2="642.5"/><rect fill="none" height="6" style="stroke:#C82930;stroke-width:1.0;" width="6" x="826.5" y="653.8047"/><text fill="#000000" font-family="sans-serif" font-size="14" lengthAdjust="spacing" textLength="126" x="838.5" y="661.0332">idDiaEnDieta : Long</text><rect fill="none" height="6" style="stroke:#C82930;stroke-width:1.0;" width="6" x="826.5" y="671.4141"/><text fill="#000000" font-family="sans-serif" font-size="14" lengthAdjust="spacing" textLength="97" x="838.5" y="678.6426">nombre : String</text><rect fill="none" height="6" style="stroke:#C82930;stroke-width:1.0;" width="6" x="826.5" y="689.0234"/><text fill="#000000" font-family="sans-serif" font-size="14" lengthAdjust="spacing" textLength="104" x="838.5" y="696.252">resumen : String</text><rect fill="none" height="6" style="stroke:#C82930;stroke-width:1.0;" width="6" x="826.5" y="706.6328"/><text fill="#000000" font-family="sans-serif" font-size="14" lengthAdjust="spacing" textLength="157" x="838.5" y="713.8613">caloriasQuemadas : float</text><rect fill="none" height="6" style="stroke:#C82930;stroke-width:1.0;" width="6" x="826.5" y="724.2422"/><text fill="#000000" font-family="sans-serif" font-size="14" lengthAdjust="spacing" textLength="224" x="838.5" y="731.4707">diaDeLaSemana : DiaDeLaSemana</text><line style="stroke:#181818;stroke-width:0.5;" x1="819.5" x2="1067.5" y1="738.5469" y2="738.5469"/></g><!--class Ejercicio--><g id="elem_Ejercicio"><rect codeLine="135" fill="#F1F1F1" height="118.4375" id="Ejercicio" rx="2.5" ry="2.5" style="stroke:#181818;stroke-width:0.5;" width="202" x="842.5" y="842"/><ellipse cx="912.75" cy="858" fill="#ADD1B2" rx="11" ry="11" style="stroke:#181818;stroke-width:1.0;"/><path d="M915.5156,853.875 Q915.6719,853.6563 915.8594,853.5469 Q916.0469,853.4375 916.2656,853.4375 Q916.6406,853.4375 916.875,853.7031 Q917.1094,853.9531 917.1094,854.5625 L917.1094,856.0156 Q917.1094,856.625 916.875,856.8906 Q916.6406,857.1563 916.2656,857.1563 Q915.9219,857.1563 915.7188,856.9531 Q915.5156,856.7656 915.4063,856.25 Q915.3594,855.8906 915.1719,855.7031 Q914.8438,855.3281 914.2344,855.1094 Q913.625,854.8906 913,854.8906 Q912.2344,854.8906 911.5938,855.2188 Q910.9688,855.5469 910.4688,856.2969 Q909.9844,857.0469 909.9844,858.0781 L909.9844,859.1719 Q909.9844,860.4063 910.875,861.2344 Q911.7656,862.0469 913.3594,862.0469 Q914.2969,862.0469 914.9531,861.7969 Q915.3438,861.6406 915.7656,861.2031 Q916.0313,860.9375 916.1719,860.8594 Q916.3281,860.7813 916.5313,860.7813 Q916.8594,860.7813 917.1094,861.0469 Q917.375,861.2969 917.375,861.6406 Q917.375,861.9844 917.0313,862.3906 Q916.5313,862.9688 915.7344,863.2969 Q914.6563,863.75 913.3594,863.75 Q911.8438,863.75 910.6406,863.125 Q909.6563,862.625 908.9688,861.5625 Q908.2813,860.4844 908.2813,859.2031 L908.2813,858.0469 Q908.2813,856.7188 908.8906,855.5781 Q909.5156,854.4219 910.6094,853.8125 Q911.7031,853.1875 912.9375,853.1875 Q913.6719,853.1875 914.3125,853.3594 Q914.9688,853.5156 915.5156,853.875 Z " fill="#000000"/><text fill="#000000" font-family="sans-serif" font-size="14" lengthAdjust="spacing" textLength="53" x="933.25" y="863.7285">Ejercicio</text><line style="stroke:#181818;stroke-width:0.5;" x1="843.5" x2="1043.5" y1="874" y2="874"/><rect fill="none" height="6" style="stroke:#C82930;stroke-width:1.0;" width="6" x="850.5" y="885.3047"/><text fill="#000000" font-family="sans-serif" font-size="14" lengthAdjust="spacing" textLength="108" x="862.5" y="892.5332">idEjercicio : Long</text><rect fill="none" height="6" style="stroke:#C82930;stroke-width:1.0;" width="6" x="850.5" y="902.9141"/><text fill="#000000" font-family="sans-serif" font-size="14" lengthAdjust="spacing" textLength="97" x="862.5" y="910.1426">nombre : String</text><rect fill="none" height="6" style="stroke:#C82930;stroke-width:1.0;" width="6" x="850.5" y="920.5234"/><text fill="#000000" font-family="sans-serif" font-size="14" lengthAdjust="spacing" textLength="118" x="862.5" y="927.752">explicacion : String</text><rect fill="none" height="6" style="stroke:#C82930;stroke-width:1.0;" width="6" x="850.5" y="938.1328"/><text fill="#000000" font-family="sans-serif" font-size="14" lengthAdjust="spacing" textLength="176" x="862.5" y="945.3613">musculoEnfocado : Musculo</text><line style="stroke:#181818;stroke-width:0.5;" x1="843.5" x2="1043.5" y1="952.4375" y2="952.4375"/></g><!--class Serie--><g id="elem_Serie"><rect codeLine="142" fill="#F1F1F1" height="118.4375" id="Serie" rx="2.5" ry="2.5" style="stroke:#181818;stroke-width:0.5;" width="156" x="865.5" y="1064.5"/><ellipse cx="922.75" cy="1080.5" fill="#ADD1B2" rx="11" ry="11" style="stroke:#181818;stroke-width:1.0;"/><path d="M925.5156,1076.375 Q925.6719,1076.1563 925.8594,1076.0469 Q926.0469,1075.9375 926.2656,1075.9375 Q926.6406,1075.9375 926.875,1076.2031 Q927.1094,1076.4531 927.1094,1077.0625 L927.1094,1078.5156 Q927.1094,1079.125 926.875,1079.3906 Q926.6406,1079.6563 926.2656,1079.6563 Q925.9219,1079.6563 925.7188,1079.4531 Q925.5156,1079.2656 925.4063,1078.75 Q925.3594,1078.3906 925.1719,1078.2031 Q924.8438,1077.8281 924.2344,1077.6094 Q923.625,1077.3906 923,1077.3906 Q922.2344,1077.3906 921.5938,1077.7188 Q920.9688,1078.0469 920.4688,1078.7969 Q919.9844,1079.5469 919.9844,1080.5781 L919.9844,1081.6719 Q919.9844,1082.9063 920.875,1083.7344 Q921.7656,1084.5469 923.3594,1084.5469 Q924.2969,1084.5469 924.9531,1084.2969 Q925.3438,1084.1406 925.7656,1083.7031 Q926.0313,1083.4375 926.1719,1083.3594 Q926.3281,1083.2813 926.5313,1083.2813 Q926.8594,1083.2813 927.1094,1083.5469 Q927.375,1083.7969 927.375,1084.1406 Q927.375,1084.4844 927.0313,1084.8906 Q926.5313,1085.4688 925.7344,1085.7969 Q924.6563,1086.25 923.3594,1086.25 Q921.8438,1086.25 920.6406,1085.625 Q919.6563,1085.125 918.9688,1084.0625 Q918.2813,1082.9844 918.2813,1081.7031 L918.2813,1080.5469 Q918.2813,1079.2188 918.8906,1078.0781 Q919.5156,1076.9219 920.6094,1076.3125 Q921.7031,1075.6875 922.9375,1075.6875 Q923.6719,1075.6875 924.3125,1075.8594 Q924.9688,1076.0156 925.5156,1076.375 Z " fill="#000000"/><text fill="#000000" font-family="sans-serif" font-size="14" lengthAdjust="spacing" textLength="33" x="943.25" y="1086.2285">Serie</text><line style="stroke:#181818;stroke-width:0.5;" x1="866.5" x2="1020.5" y1="1096.5" y2="1096.5"/><rect fill="none" height="6" style="stroke:#C82930;stroke-width:1.0;" width="6" x="873.5" y="1107.8047"/><text fill="#000000" font-family="sans-serif" font-size="14" lengthAdjust="spacing" textLength="88" x="885.5" y="1115.0332">idSerie : Long</text><rect fill="none" height="6" style="stroke:#C82930;stroke-width:1.0;" width="6" x="873.5" y="1125.4141"/><text fill="#000000" font-family="sans-serif" font-size="14" lengthAdjust="spacing" textLength="130" x="885.5" y="1132.6426">serieAnterior : String</text><rect fill="none" height="6" style="stroke:#C82930;stroke-width:1.0;" width="6" x="873.5" y="1143.0234"/><text fill="#000000" font-family="sans-serif" font-size="14" lengthAdjust="spacing" textLength="104" x="885.5" y="1150.252">repeticiones : int</text><rect fill="none" height="6" style="stroke:#C82930;stroke-width:1.0;" width="6" x="873.5" y="1160.6328"/><text fill="#000000" font-family="sans-serif" font-size="14" lengthAdjust="spacing" textLength="58" x="885.5" y="1167.8613">peso : int</text><line style="stroke:#181818;stroke-width:0.5;" x1="866.5" x2="1020.5" y1="1174.9375" y2="1174.9375"/></g><!--link Usuario to DietaCompleta--><g id="link_Usuario_DietaCompleta"><path codeLine="153" d="M634.77,284.33 C619.63,304.46 604.33,324.78 590.05,343.75 " fill="none" id="Usuario-DietaCompleta" style="stroke:#181818;stroke-width:1.0;"/><text fill="#000000" font-family="sans-serif" font-size="13" lengthAdjust="spacing" textLength="7" x="622.241" y="305.4071">1</text><text fill="#000000" font-family="sans-serif" font-size="13" lengthAdjust="spacing" textLength="20" x="574.8751" y="333.0762">0..*</text></g><!--link DietaCompleta to DiaEnDieta--><g id="link_DietaCompleta_DiaEnDieta"><path codeLine="155" d="M519.5,533.22 C519.5,552.86 519.5,573.47 519.5,592.76 " fill="none" id="DietaCompleta-DiaEnDieta" style="stroke:#181818;stroke-width:1.0;"/><text fill="#000000" font-family="sans-serif" font-size="13" lengthAdjust="spacing" textLength="7" x="512.243" y="554.2761">1</text><text fill="#000000" font-family="sans-serif" font-size="13" lengthAdjust="spacing" textLength="20" x="498.6406" y="582.203">1..*</text></g><!--link Usuario to RutinaCompleta--><g id="link_Usuario_RutinaCompleta"><path codeLine="157" d="M835.6,284.33 C861.68,321.35 888.22,359.03 908.46,387.76 " fill="none" id="Usuario-RutinaCompleta" style="stroke:#181818;stroke-width:1.0;"/><text fill="#000000" font-family="sans-serif" font-size="13" lengthAdjust="spacing" textLength="7" x="833.4263" y="305.4071">1</text><text fill="#000000" font-family="sans-serif" font-size="13" lengthAdjust="spacing" textLength="20" x="882.1263" y="377.0316">0..*</text></g><!--link DiaEnDieta to Comida--><g id="link_DiaEnDieta_Comida"><path codeLine="159" d="M519.5,764.12 C519.5,783.8 519.5,804.62 519.5,823.9 " fill="none" id="DiaEnDieta-Comida" style="stroke:#181818;stroke-width:1.0;"/><text fill="#000000" font-family="sans-serif" font-size="13" lengthAdjust="spacing" textLength="7" x="512.1992" y="785.6643">1</text><text fill="#000000" font-family="sans-serif" font-size="13" lengthAdjust="spacing" textLength="20" x="498.5156" y="813.0523">1..*</text></g><!--link Comida to Ingrediente--><g id="link_Comida_Ingrediente"><path codeLine="161" d="M519.5,978.19 C519.5,997.36 519.5,1018.06 519.5,1037.62 " fill="none" id="Comida-Ingrediente" style="stroke:#181818;stroke-width:1.0;"/><text fill="#000000" font-family="sans-serif" font-size="13" lengthAdjust="spacing" textLength="7" x="512.1992" y="999.036">1</text><text fill="#000000" font-family="sans-serif" font-size="13" lengthAdjust="spacing" textLength="20" x="498.6406" y="1027.051">1..*</text></g><!--link Usuario to Alimento--><g id="link_Usuario_Alimento"><path codeLine="163" d="M738.5,284.33 C738.5,310.77 738.5,337.55 738.5,361.17 " fill="none" id="Usuario-Alimento" style="stroke:#181818;stroke-width:1.0;"/><text fill="#000000" font-family="sans-serif" font-size="13" lengthAdjust="spacing" textLength="7" x="731.3195" y="305.4071">1</text><text fill="#000000" font-family="sans-serif" font-size="13" lengthAdjust="spacing" textLength="20" x="717.5469" y="350.5652">0..*</text></g><!--link RutinaCompleta to DiaEnRutina--><g id="link_RutinaCompleta_DiaEnRutina"><path codeLine="165" d="M943.5,489.1 C943.5,524.25 943.5,571.81 943.5,610.36 " fill="none" id="RutinaCompleta-DiaEnRutina" style="stroke:#181818;stroke-width:1.0;"/><text fill="#000000" font-family="sans-serif" font-size="13" lengthAdjust="spacing" textLength="7" x="936.0297" y="510.5047">1</text><text fill="#000000" font-family="sans-serif" font-size="13" lengthAdjust="spacing" textLength="20" x="922.4063" y="599.544">1..*</text></g><!--link DiaEnRutina to Ejercicio--><g id="link_DiaEnRutina_Ejercicio"><path codeLine="167" d="M943.5,746.56 C943.5,776.96 943.5,812.58 943.5,841.84 " fill="none" id="DiaEnRutina-Ejercicio" style="stroke:#181818;stroke-width:1.0;"/><text fill="#000000" font-family="sans-serif" font-size="13" lengthAdjust="spacing" textLength="20" x="922.4688" y="767.9145">1..*</text><text fill="#000000" font-family="sans-serif" font-size="13" lengthAdjust="spacing" textLength="20" x="922.2813" y="831.1448">1..*</text></g><!--link Ejercicio to Serie--><g id="link_Ejercicio_Serie"><path codeLine="169" d="M943.5,960.22 C943.5,992.38 943.5,1032.19 943.5,1064.33 " fill="none" id="Ejercicio-Serie" style="stroke:#181818;stroke-width:1.0;"/><text fill="#000000" font-family="sans-serif" font-size="13" lengthAdjust="spacing" textLength="7" x="936.0734" y="981.9023">1</text><text fill="#000000" font-family="sans-serif" font-size="13" lengthAdjust="spacing" textLength="20" x="922.2813" y="1053.6335">1..*</text></g><!--SRC=[lLP1Rzem5BxxLrXSAargLNP4si4a7asLnCn9UjW5cSHGLy56JgWcJVllinCJaa1PAstZOjxdn_S-l_Vyp0tyyiO7tBWjYECimXJv986ZhGk_0bmUTZ0wLFcXL13-15w6mv201nBDAG5Bx3qGC0yyl4n0IjiLnIcUK_IT09miKUWZWEO-YO8OXJW1Yp1BCJ4yo7V-Nt54A0h10aSu913ySb5zmNmUieJlc6GsTfZ5XY12DBLBWAb7BEDZXf_CycG0kv-WkJaSQ28kICUsu99hPLWQwHX4sIEcWAJqv4BMBxmMhzO9ciyIKn_JrOAY13N00iM8hY9Zhg8iyR8GqGQFx8bZuxh4oOaj5g-yz3dA3QKeME5O4-pZE4Kq88s9ZGely0Ao2eC5fcCm8dvJgn4Ss829oPM5KHhY5DcuDtyklsa0BqG9Jk25hVFovoMhAfXL1wQ5pSij5CNHci5GoQs1fDgjDJTsKclH86pFor8KQde9_Dm7Dpn_PZ7BnKvmMRUaEIjzLdEpkssADdF5Cy2ULzPdKofMMygoFcXc026jQJf5b7tscfTyewJgOxcIjMOLby-i3yjnkMPd5JHUwjWYiwvRREBRDFc2rynJktrfLfUi1hkMge9NkHRxN2WvKCbAfGMhKbMpabUzC- -rghcGh8_bJA_LioWqgrKVtvg33XoPFOlLirQgv4psnJCiMxL7vHrmHVu_qbaCxlviE0kiQAVQPDjKnYbsnlzMswKma5lD2zl7t2dg8rTboTess4ApdHegQFN-PQ6e5BlcjhKgE_CTcLigFRs_truITBurq7M-tSeRuvrAUgWDxUW-jU0rfPfN1tES4pHiSKVmaHuVCy9UFhuTJ4iM7-lTLWr-uJeNUJTMJ_OLAVp7lXGv6qmBAsVNlj1ORipqB2o5UxDFyHAknR4ls-zTdCgQo3If6UjwUFAzcN4sMdDPsYdhPh0rtlVcG8f3P9wj6B_hByVnVPbC9n3UtiB9_TtTfybmkW8m7BRMrxfEdUknh6-o3PlBqdMTq7csPErK0S1Dbz5kxuOFOvr27QyN0AEE7b7rsjFfSRtgza-UNQi0SEgQ4LjJOl0R]--></g></svg>