<?xml version="1.0" encoding="us-ascii" standalone="no"?><svg xmlns="http://www.w3.org/2000/svg" xmlns:xlink="http://www.w3.org/1999/xlink" contentStyleType="text/css" height="1340px" preserveAspectRatio="none" style="width:796px;height:1340px;background:#FFFFFF;" version="1.1" viewBox="0 0 796 1340" width="796px" zoomAndPan="magnify"><defs/><g><!--class Musculos--><g id="elem_Musculos"><rect codeLine="6" fill="#F1F1F1" height="259.3125" id="Musculos" rx="2.5" ry="2.5" style="stroke:#181818;stroke-width:0.5;" width="109" x="12.5" y="7"/><ellipse cx="35.6" cy="23" fill="#EB937F" rx="11" ry="11" style="stroke:#181818;stroke-width:1.0;"/><path d="M34.4594,23.7969 L34.4594,26.2969 L38.7875,26.2969 L38.7875,25.375 Q38.7875,24.7656 39.0219,24.5 Q39.2719,24.2344 39.6469,24.2344 Q40.0219,24.2344 40.2563,24.5 Q40.4906,24.7656 40.4906,25.375 L40.4906,28 L32.4906,28 Q31.8656,28 31.6,27.7656 Q31.35,27.5313 31.35,27.1406 Q31.35,26.7656 31.6156,26.5313 Q31.8813,26.2969 32.4906,26.2969 L32.7563,26.2969 L32.7563,19.6406 L32.4906,19.6406 Q31.8656,19.6406 31.6,19.4063 Q31.35,19.1719 31.35,18.7813 Q31.35,18.4063 31.6,18.1719 Q31.8656,17.9375 32.4906,17.9375 L40.1156,17.9375 L40.1156,20.5313 Q40.1156,21.1406 39.8813,21.4063 Q39.6625,21.6563 39.2719,21.6563 Q38.8969,21.6563 38.6625,21.4063 Q38.4281,21.1406 38.4281,20.5313 L38.4281,19.6406 L34.4594,19.6406 L34.4594,22.0938 L35.9438,22.0938 Q35.9438,21.4375 36.0688,21.25 Q36.3344,20.8438 36.8031,20.8438 Q37.1781,20.8438 37.4125,21.1094 Q37.6469,21.3594 37.6469,21.9688 L37.6469,23.9375 Q37.6469,24.4844 37.5219,24.6719 Q37.2563,25.0625 36.8031,25.0625 Q36.3344,25.0625 36.0688,24.6563 Q35.9438,24.4688 35.9438,23.7969 L34.4594,23.7969 Z " fill="#000000"/><text fill="#000000" font-family="sans-serif" font-size="14" lengthAdjust="spacing" textLength="59" x="51.4" y="28.7285">Musculos</text><line style="stroke:#181818;stroke-width:0.5;" x1="13.5" x2="120.5" y1="39" y2="39"/><text fill="#000000" font-family="sans-serif" font-size="14" lengthAdjust="spacing" textLength="55" x="18.5" y="57.5332">CUELLO</text><text fill="#000000" font-family="sans-serif" font-size="14" lengthAdjust="spacing" textLength="61" x="18.5" y="75.1426">HOMBRO</text><text fill="#000000" font-family="sans-serif" font-size="14" lengthAdjust="spacing" textLength="48" x="18.5" y="92.752">PECHO</text><text fill="#000000" font-family="sans-serif" font-size="14" lengthAdjust="spacing" textLength="49" x="18.5" y="110.3613">BICEPS</text><text fill="#000000" font-family="sans-serif" font-size="14" lengthAdjust="spacing" textLength="59" x="18.5" y="127.9707">TRICEPS</text><text fill="#000000" font-family="sans-serif" font-size="14" lengthAdjust="spacing" textLength="83" x="18.5" y="145.5801">ANTEBRAZO</text><text fill="#000000" font-family="sans-serif" font-size="14" lengthAdjust="spacing" textLength="63" x="18.5" y="163.1895">ESPALDA</text><text fill="#000000" font-family="sans-serif" font-size="14" lengthAdjust="spacing" textLength="97" x="18.5" y="180.7988">ABDOMINALES</text><text fill="#000000" font-family="sans-serif" font-size="14" lengthAdjust="spacing" textLength="57" x="18.5" y="198.4082">GLUTEO</text><text fill="#000000" font-family="sans-serif" font-size="14" lengthAdjust="spacing" textLength="88" x="18.5" y="216.0176">CUADRICEPS</text><text fill="#000000" font-family="sans-serif" font-size="14" lengthAdjust="spacing" textLength="67" x="18.5" y="233.627">FEMORAL</text><text fill="#000000" font-family="sans-serif" font-size="14" lengthAdjust="spacing" textLength="59" x="18.5" y="251.2363">GEMELO</text><line style="stroke:#181818;stroke-width:0.5;" x1="13.5" x2="120.5" y1="258.3125" y2="258.3125"/></g><!--class DiaDeLaSemana--><g id="elem_DiaDeLaSemana"><rect codeLine="21" fill="#F1F1F1" height="171.2656" id="DiaDeLaSemana" rx="2.5" ry="2.5" style="stroke:#181818;stroke-width:0.5;" width="139" x="156.5" y="51"/><ellipse cx="171.5" cy="67" fill="#EB937F" rx="11" ry="11" style="stroke:#181818;stroke-width:1.0;"/><path d="M170.3594,67.7969 L170.3594,70.2969 L174.6875,70.2969 L174.6875,69.375 Q174.6875,68.7656 174.9219,68.5 Q175.1719,68.2344 175.5469,68.2344 Q175.9219,68.2344 176.1563,68.5 Q176.3906,68.7656 176.3906,69.375 L176.3906,72 L168.3906,72 Q167.7656,72 167.5,71.7656 Q167.25,71.5313 167.25,71.1406 Q167.25,70.7656 167.5156,70.5313 Q167.7813,70.2969 168.3906,70.2969 L168.6563,70.2969 L168.6563,63.6406 L168.3906,63.6406 Q167.7656,63.6406 167.5,63.4063 Q167.25,63.1719 167.25,62.7813 Q167.25,62.4063 167.5,62.1719 Q167.7656,61.9375 168.3906,61.9375 L176.0156,61.9375 L176.0156,64.5313 Q176.0156,65.1406 175.7813,65.4063 Q175.5625,65.6563 175.1719,65.6563 Q174.7969,65.6563 174.5625,65.4063 Q174.3281,65.1406 174.3281,64.5313 L174.3281,63.6406 L170.3594,63.6406 L170.3594,66.0938 L171.8438,66.0938 Q171.8438,65.4375 171.9688,65.25 Q172.2344,64.8438 172.7031,64.8438 Q173.0781,64.8438 173.3125,65.1094 Q173.5469,65.3594 173.5469,65.9688 L173.5469,67.9375 Q173.5469,68.4844 173.4219,68.6719 Q173.1563,69.0625 172.7031,69.0625 Q172.2344,69.0625 171.9688,68.6563 Q171.8438,68.4688 171.8438,67.7969 L170.3594,67.7969 Z " fill="#000000"/><text fill="#000000" font-family="sans-serif" font-size="14" lengthAdjust="spacing" textLength="107" x="185.5" y="72.7285">DiaDeLaSemana</text><line style="stroke:#181818;stroke-width:0.5;" x1="157.5" x2="294.5" y1="83" y2="83"/><text fill="#000000" font-family="sans-serif" font-size="14" lengthAdjust="spacing" textLength="44" x="162.5" y="101.5332">LUNES</text><text fill="#000000" font-family="sans-serif" font-size="14" lengthAdjust="spacing" textLength="57" x="162.5" y="119.1426">MARTES</text><text fill="#000000" font-family="sans-serif" font-size="14" lengthAdjust="spacing" textLength="80" x="162.5" y="136.752">MIERCOLES</text><text fill="#000000" font-family="sans-serif" font-size="14" lengthAdjust="spacing" textLength="51" x="162.5" y="154.3613">JUEVES</text><text fill="#000000" font-family="sans-serif" font-size="14" lengthAdjust="spacing" textLength="58" x="162.5" y="171.9707">VIERNES</text><text fill="#000000" font-family="sans-serif" font-size="14" lengthAdjust="spacing" textLength="57" x="162.5" y="189.5801">SABADO</text><text fill="#000000" font-family="sans-serif" font-size="14" lengthAdjust="spacing" textLength="66" x="162.5" y="207.1895">DOMINGO</text><line style="stroke:#181818;stroke-width:0.5;" x1="157.5" x2="294.5" y1="214.2656" y2="214.2656"/></g><!--class Usuario--><g id="elem_Usuario"><rect codeLine="35" fill="#F1F1F1" height="224.0938" id="Usuario" rx="2.5" ry="2.5" style="stroke:#181818;stroke-width:0.5;" width="206" x="331" y="24.5"/><ellipse cx="405.75" cy="40.5" fill="#ADD1B2" rx="11" ry="11" style="stroke:#181818;stroke-width:1.0;"/><path d="M408.5156,36.375 Q408.6719,36.1563 408.8594,36.0469 Q409.0469,35.9375 409.2656,35.9375 Q409.6406,35.9375 409.875,36.2031 Q410.1094,36.4531 410.1094,37.0625 L410.1094,38.5156 Q410.1094,39.125 409.875,39.3906 Q409.6406,39.6563 409.2656,39.6563 Q408.9219,39.6563 408.7188,39.4531 Q408.5156,39.2656 408.4063,38.75 Q408.3594,38.3906 408.1719,38.2031 Q407.8438,37.8281 407.2344,37.6094 Q406.625,37.3906 406,37.3906 Q405.2344,37.3906 404.5938,37.7188 Q403.9688,38.0469 403.4688,38.7969 Q402.9844,39.5469 402.9844,40.5781 L402.9844,41.6719 Q402.9844,42.9063 403.875,43.7344 Q404.7656,44.5469 406.3594,44.5469 Q407.2969,44.5469 407.9531,44.2969 Q408.3438,44.1406 408.7656,43.7031 Q409.0313,43.4375 409.1719,43.3594 Q409.3281,43.2813 409.5313,43.2813 Q409.8594,43.2813 410.1094,43.5469 Q410.375,43.7969 410.375,44.1406 Q410.375,44.4844 410.0313,44.8906 Q409.5313,45.4688 408.7344,45.7969 Q407.6563,46.25 406.3594,46.25 Q404.8438,46.25 403.6406,45.625 Q402.6563,45.125 401.9688,44.0625 Q401.2813,42.9844 401.2813,41.7031 L401.2813,40.5469 Q401.2813,39.2188 401.8906,38.0781 Q402.5156,36.9219 403.6094,36.3125 Q404.7031,35.6875 405.9375,35.6875 Q406.6719,35.6875 407.3125,35.8594 Q407.9688,36.0156 408.5156,36.375 Z " fill="#000000"/><text fill="#000000" font-family="sans-serif" font-size="14" lengthAdjust="spacing" textLength="48" x="426.25" y="46.2285">Usuario</text><line style="stroke:#181818;stroke-width:0.5;" x1="332" x2="536" y1="56.5" y2="56.5"/><rect fill="none" height="6" style="stroke:#C82930;stroke-width:1.0;" width="6" x="339" y="67.8047"/><text fill="#000000" font-family="sans-serif" font-size="14" lengthAdjust="spacing" textLength="103" x="351" y="75.0332">idUsuario : Long</text><rect fill="none" height="6" style="stroke:#C82930;stroke-width:1.0;" width="6" x="339" y="85.4141"/><text fill="#000000" font-family="sans-serif" font-size="14" lengthAdjust="spacing" textLength="97" x="351" y="92.6426">nombre : String</text><rect fill="none" height="6" style="stroke:#C82930;stroke-width:1.0;" width="6" x="339" y="103.0234"/><text fill="#000000" font-family="sans-serif" font-size="14" lengthAdjust="spacing" textLength="106" x="351" y="110.252">apellido1 : String</text><rect fill="none" height="6" style="stroke:#C82930;stroke-width:1.0;" width="6" x="339" y="120.6328"/><text fill="#000000" font-family="sans-serif" font-size="14" lengthAdjust="spacing" textLength="106" x="351" y="127.8613">apellido2 : String</text><rect fill="none" height="6" style="stroke:#C82930;stroke-width:1.0;" width="6" x="339" y="138.2422"/><text fill="#000000" font-family="sans-serif" font-size="14" lengthAdjust="spacing" textLength="180" x="351" y="145.4707">fechaNacimiento : LocalDate</text><rect fill="none" height="6" style="stroke:#C82930;stroke-width:1.0;" width="6" x="339" y="155.8516"/><text fill="#000000" font-family="sans-serif" font-size="14" lengthAdjust="spacing" textLength="90" x="351" y="163.0801">genero: String</text><rect fill="none" height="6" style="stroke:#C82930;stroke-width:1.0;" width="6" x="339" y="173.4609"/><text fill="#000000" font-family="sans-serif" font-size="14" lengthAdjust="spacing" textLength="70" x="351" y="180.6895">peso : float</text><rect fill="none" height="6" style="stroke:#C82930;stroke-width:1.0;" width="6" x="339" y="191.0703"/><text fill="#000000" font-family="sans-serif" font-size="14" lengthAdjust="spacing" textLength="75" x="351" y="198.2988">altura : float</text><rect fill="none" height="6" style="stroke:#C82930;stroke-width:1.0;" width="6" x="339" y="208.6797"/><text fill="#000000" font-family="sans-serif" font-size="14" lengthAdjust="spacing" textLength="82" x="351" y="215.9082">email : String</text><rect fill="none" height="6" style="stroke:#C82930;stroke-width:1.0;" width="6" x="339" y="226.2891"/><text fill="#000000" font-family="sans-serif" font-size="14" lengthAdjust="spacing" textLength="128" x="351" y="233.5176">contrasenha : String</text><line style="stroke:#181818;stroke-width:0.5;" x1="332" x2="536" y1="240.5938" y2="240.5938"/></g><!--class DietaCompleta--><g id="elem_DietaCompleta"><rect codeLine="48" fill="#F1F1F1" height="171.2656" id="DietaCompleta" rx="2.5" ry="2.5" style="stroke:#181818;stroke-width:0.5;" width="161" x="219.5" y="326"/><ellipse cx="250.7" cy="342" fill="#ADD1B2" rx="11" ry="11" style="stroke:#181818;stroke-width:1.0;"/><path d="M253.4656,337.875 Q253.6219,337.6563 253.8094,337.5469 Q253.9969,337.4375 254.2156,337.4375 Q254.5906,337.4375 254.825,337.7031 Q255.0594,337.9531 255.0594,338.5625 L255.0594,340.0156 Q255.0594,340.625 254.825,340.8906 Q254.5906,341.1563 254.2156,341.1563 Q253.8719,341.1563 253.6688,340.9531 Q253.4656,340.7656 253.3563,340.25 Q253.3094,339.8906 253.1219,339.7031 Q252.7938,339.3281 252.1844,339.1094 Q251.575,338.8906 250.95,338.8906 Q250.1844,338.8906 249.5438,339.2188 Q248.9188,339.5469 248.4188,340.2969 Q247.9344,341.0469 247.9344,342.0781 L247.9344,343.1719 Q247.9344,344.4063 248.825,345.2344 Q249.7156,346.0469 251.3094,346.0469 Q252.2469,346.0469 252.9031,345.7969 Q253.2938,345.6406 253.7156,345.2031 Q253.9813,344.9375 254.1219,344.8594 Q254.2781,344.7813 254.4813,344.7813 Q254.8094,344.7813 255.0594,345.0469 Q255.325,345.2969 255.325,345.6406 Q255.325,345.9844 254.9813,346.3906 Q254.4813,346.9688 253.6844,347.2969 Q252.6063,347.75 251.3094,347.75 Q249.7938,347.75 248.5906,347.125 Q247.6063,346.625 246.9188,345.5625 Q246.2313,344.4844 246.2313,343.2031 L246.2313,342.0469 Q246.2313,340.7188 246.8406,339.5781 Q247.4656,338.4219 248.5594,337.8125 Q249.6531,337.1875 250.8875,337.1875 Q251.6219,337.1875 252.2625,337.3594 Q252.9188,337.5156 253.4656,337.875 Z " fill="#000000"/><text fill="#000000" font-family="sans-serif" font-size="14" lengthAdjust="spacing" textLength="93" x="268.3" y="347.7285">DietaCompleta</text><line style="stroke:#181818;stroke-width:0.5;" x1="220.5" x2="379.5" y1="358" y2="358"/><rect fill="none" height="6" style="stroke:#C82930;stroke-width:1.0;" width="6" x="227.5" y="369.3047"/><text fill="#000000" font-family="sans-serif" font-size="14" lengthAdjust="spacing" textLength="88" x="239.5" y="376.5332">idDieta : Long</text><rect fill="none" height="6" style="stroke:#C82930;stroke-width:1.0;" width="6" x="227.5" y="386.9141"/><text fill="#000000" font-family="sans-serif" font-size="14" lengthAdjust="spacing" textLength="97" x="239.5" y="394.1426">nombre : String</text><rect fill="none" height="6" style="stroke:#C82930;stroke-width:1.0;" width="6" x="227.5" y="404.5234"/><text fill="#000000" font-family="sans-serif" font-size="14" lengthAdjust="spacing" textLength="121" x="239.5" y="411.752">descripcion : String</text><rect fill="none" height="6" style="stroke:#C82930;stroke-width:1.0;" width="6" x="227.5" y="422.1328"/><text fill="#000000" font-family="sans-serif" font-size="14" lengthAdjust="spacing" textLength="135" x="239.5" y="429.3613">caloriasTotales : float</text><rect fill="none" height="6" style="stroke:#C82930;stroke-width:1.0;" width="6" x="227.5" y="439.7422"/><text fill="#000000" font-family="sans-serif" font-size="14" lengthAdjust="spacing" textLength="98" x="239.5" y="446.9707">proteinas : float</text><rect fill="none" height="6" style="stroke:#C82930;stroke-width:1.0;" width="6" x="227.5" y="457.3516"/><text fill="#000000" font-family="sans-serif" font-size="14" lengthAdjust="spacing" textLength="126" x="239.5" y="464.5801">carbohidratos : float</text><rect fill="none" height="6" style="stroke:#C82930;stroke-width:1.0;" width="6" x="227.5" y="474.9609"/><text fill="#000000" font-family="sans-serif" font-size="14" lengthAdjust="spacing" textLength="82" x="239.5" y="482.1895">grasas : float</text><line style="stroke:#181818;stroke-width:0.5;" x1="220.5" x2="379.5" y1="489.2656" y2="489.2656"/></g><!--class DiaEnDieta--><g id="elem_DiaEnDieta"><rect codeLine="58" fill="#F1F1F1" height="171.2656" id="DiaEnDieta" rx="2.5" ry="2.5" style="stroke:#181818;stroke-width:0.5;" width="250" x="7" y="557"/><ellipse cx="92.25" cy="573" fill="#ADD1B2" rx="11" ry="11" style="stroke:#181818;stroke-width:1.0;"/><path d="M95.0156,568.875 Q95.1719,568.6563 95.3594,568.5469 Q95.5469,568.4375 95.7656,568.4375 Q96.1406,568.4375 96.375,568.7031 Q96.6094,568.9531 96.6094,569.5625 L96.6094,571.0156 Q96.6094,571.625 96.375,571.8906 Q96.1406,572.1563 95.7656,572.1563 Q95.4219,572.1563 95.2188,571.9531 Q95.0156,571.7656 94.9063,571.25 Q94.8594,570.8906 94.6719,570.7031 Q94.3438,570.3281 93.7344,570.1094 Q93.125,569.8906 92.5,569.8906 Q91.7344,569.8906 91.0938,570.2188 Q90.4688,570.5469 89.9688,571.2969 Q89.4844,572.0469 89.4844,573.0781 L89.4844,574.1719 Q89.4844,575.4063 90.375,576.2344 Q91.2656,577.0469 92.8594,577.0469 Q93.7969,577.0469 94.4531,576.7969 Q94.8438,576.6406 95.2656,576.2031 Q95.5313,575.9375 95.6719,575.8594 Q95.8281,575.7813 96.0313,575.7813 Q96.3594,575.7813 96.6094,576.0469 Q96.875,576.2969 96.875,576.6406 Q96.875,576.9844 96.5313,577.3906 Q96.0313,577.9688 95.2344,578.2969 Q94.1563,578.75 92.8594,578.75 Q91.3438,578.75 90.1406,578.125 Q89.1563,577.625 88.4688,576.5625 Q87.7813,575.4844 87.7813,574.2031 L87.7813,573.0469 Q87.7813,571.7188 88.3906,570.5781 Q89.0156,569.4219 90.1094,568.8125 Q91.2031,568.1875 92.4375,568.1875 Q93.1719,568.1875 93.8125,568.3594 Q94.4688,568.5156 95.0156,568.875 Z " fill="#000000"/><text fill="#000000" font-family="sans-serif" font-size="14" lengthAdjust="spacing" textLength="71" x="112.75" y="578.7285">DiaEnDieta</text><line style="stroke:#181818;stroke-width:0.5;" x1="8" x2="256" y1="589" y2="589"/><rect fill="none" height="6" style="stroke:#C82930;stroke-width:1.0;" width="6" x="15" y="600.3047"/><text fill="#000000" font-family="sans-serif" font-size="14" lengthAdjust="spacing" textLength="126" x="27" y="607.5332">idDiaEnDieta : Long</text><rect fill="none" height="6" style="stroke:#C82930;stroke-width:1.0;" width="6" x="15" y="617.9141"/><text fill="#000000" font-family="sans-serif" font-size="14" lengthAdjust="spacing" textLength="97" x="27" y="625.1426">nombre : String</text><rect fill="none" height="6" style="stroke:#C82930;stroke-width:1.0;" width="6" x="15" y="635.5234"/><text fill="#000000" font-family="sans-serif" font-size="14" lengthAdjust="spacing" textLength="135" x="27" y="642.752">caloriasTotales : float</text><rect fill="none" height="6" style="stroke:#C82930;stroke-width:1.0;" width="6" x="15" y="653.1328"/><text fill="#000000" font-family="sans-serif" font-size="14" lengthAdjust="spacing" textLength="98" x="27" y="660.3613">proteinas : float</text><rect fill="none" height="6" style="stroke:#C82930;stroke-width:1.0;" width="6" x="15" y="670.7422"/><text fill="#000000" font-family="sans-serif" font-size="14" lengthAdjust="spacing" textLength="126" x="27" y="677.9707">carbohidratos : float</text><rect fill="none" height="6" style="stroke:#C82930;stroke-width:1.0;" width="6" x="15" y="688.3516"/><text fill="#000000" font-family="sans-serif" font-size="14" lengthAdjust="spacing" textLength="82" x="27" y="695.5801">grasas : float</text><rect fill="none" height="6" style="stroke:#C82930;stroke-width:1.0;" width="6" x="15" y="705.9609"/><text fill="#000000" font-family="sans-serif" font-size="14" lengthAdjust="spacing" textLength="224" x="27" y="713.1895">diaDeLaSemana : DiaDeLaSemana</text><line style="stroke:#181818;stroke-width:0.5;" x1="8" x2="256" y1="720.2656" y2="720.2656"/></g><!--class PlanificacionDeDieta--><g id="elem_PlanificacionDeDieta"><rect codeLine="68" fill="#F1F1F1" height="100.8281" id="PlanificacionDeDieta" rx="2.5" ry="2.5" style="stroke:#181818;stroke-width:0.5;" width="211" x="292.5" y="592"/><ellipse cx="329.55" cy="608" fill="#ADD1B2" rx="11" ry="11" style="stroke:#181818;stroke-width:1.0;"/><path d="M332.3156,603.875 Q332.4719,603.6563 332.6594,603.5469 Q332.8469,603.4375 333.0656,603.4375 Q333.4406,603.4375 333.675,603.7031 Q333.9094,603.9531 333.9094,604.5625 L333.9094,606.0156 Q333.9094,606.625 333.675,606.8906 Q333.4406,607.1563 333.0656,607.1563 Q332.7219,607.1563 332.5188,606.9531 Q332.3156,606.7656 332.2063,606.25 Q332.1594,605.8906 331.9719,605.7031 Q331.6438,605.3281 331.0344,605.1094 Q330.425,604.8906 329.8,604.8906 Q329.0344,604.8906 328.3938,605.2188 Q327.7688,605.5469 327.2688,606.2969 Q326.7844,607.0469 326.7844,608.0781 L326.7844,609.1719 Q326.7844,610.4063 327.675,611.2344 Q328.5656,612.0469 330.1594,612.0469 Q331.0969,612.0469 331.7531,611.7969 Q332.1438,611.6406 332.5656,611.2031 Q332.8313,610.9375 332.9719,610.8594 Q333.1281,610.7813 333.3313,610.7813 Q333.6594,610.7813 333.9094,611.0469 Q334.175,611.2969 334.175,611.6406 Q334.175,611.9844 333.8313,612.3906 Q333.3313,612.9688 332.5344,613.2969 Q331.4563,613.75 330.1594,613.75 Q328.6438,613.75 327.4406,613.125 Q326.4563,612.625 325.7688,611.5625 Q325.0813,610.4844 325.0813,609.2031 L325.0813,608.0469 Q325.0813,606.7188 325.6906,605.5781 Q326.3156,604.4219 327.4094,603.8125 Q328.5031,603.1875 329.7375,603.1875 Q330.4719,603.1875 331.1125,603.3594 Q331.7688,603.5156 332.3156,603.875 Z " fill="#000000"/><text fill="#000000" font-family="sans-serif" font-size="14" lengthAdjust="spacing" textLength="130" x="348.45" y="613.7285">PlanificacionDeDieta</text><line style="stroke:#181818;stroke-width:0.5;" x1="293.5" x2="502.5" y1="624" y2="624"/><rect fill="none" height="6" style="stroke:#C82930;stroke-width:1.0;" width="6" x="300.5" y="635.3047"/><text fill="#000000" font-family="sans-serif" font-size="14" lengthAdjust="spacing" textLength="185" x="312.5" y="642.5332">idPlanificacionDeDieta : Long</text><rect fill="none" height="6" style="stroke:#C82930;stroke-width:1.0;" width="6" x="300.5" y="652.9141"/><text fill="#000000" font-family="sans-serif" font-size="14" lengthAdjust="spacing" textLength="143" x="312.5" y="660.1426">fechaInicio : LocalDate</text><rect fill="none" height="6" style="stroke:#C82930;stroke-width:1.0;" width="6" x="300.5" y="670.5234"/><text fill="#000000" font-family="sans-serif" font-size="14" lengthAdjust="spacing" textLength="131" x="312.5" y="677.752">fechaFin : LocalDate</text><line style="stroke:#181818;stroke-width:0.5;" x1="293.5" x2="502.5" y1="684.8281" y2="684.8281"/></g><!--class Comida--><g id="elem_Comida"><rect codeLine="74" fill="#F1F1F1" height="153.6563" id="Comida" rx="2.5" ry="2.5" style="stroke:#181818;stroke-width:0.5;" width="161" x="51.5" y="788"/><ellipse cx="103.75" cy="804" fill="#ADD1B2" rx="11" ry="11" style="stroke:#181818;stroke-width:1.0;"/><path d="M106.5156,799.875 Q106.6719,799.6563 106.8594,799.5469 Q107.0469,799.4375 107.2656,799.4375 Q107.6406,799.4375 107.875,799.7031 Q108.1094,799.9531 108.1094,800.5625 L108.1094,802.0156 Q108.1094,802.625 107.875,802.8906 Q107.6406,803.1563 107.2656,803.1563 Q106.9219,803.1563 106.7188,802.9531 Q106.5156,802.7656 106.4063,802.25 Q106.3594,801.8906 106.1719,801.7031 Q105.8438,801.3281 105.2344,801.1094 Q104.625,800.8906 104,800.8906 Q103.2344,800.8906 102.5938,801.2188 Q101.9688,801.5469 101.4688,802.2969 Q100.9844,803.0469 100.9844,804.0781 L100.9844,805.1719 Q100.9844,806.4063 101.875,807.2344 Q102.7656,808.0469 104.3594,808.0469 Q105.2969,808.0469 105.9531,807.7969 Q106.3438,807.6406 106.7656,807.2031 Q107.0313,806.9375 107.1719,806.8594 Q107.3281,806.7813 107.5313,806.7813 Q107.8594,806.7813 108.1094,807.0469 Q108.375,807.2969 108.375,807.6406 Q108.375,807.9844 108.0313,808.3906 Q107.5313,808.9688 106.7344,809.2969 Q105.6563,809.75 104.3594,809.75 Q102.8438,809.75 101.6406,809.125 Q100.6563,808.625 99.9688,807.5625 Q99.2813,806.4844 99.2813,805.2031 L99.2813,804.0469 Q99.2813,802.7188 99.8906,801.5781 Q100.5156,800.4219 101.6094,799.8125 Q102.7031,799.1875 103.9375,799.1875 Q104.6719,799.1875 105.3125,799.3594 Q105.9688,799.5156 106.5156,799.875 Z " fill="#000000"/><text fill="#000000" font-family="sans-serif" font-size="14" lengthAdjust="spacing" textLength="48" x="124.25" y="809.7285">Comida</text><line style="stroke:#181818;stroke-width:0.5;" x1="52.5" x2="211.5" y1="820" y2="820"/><rect fill="none" height="6" style="stroke:#C82930;stroke-width:1.0;" width="6" x="59.5" y="831.3047"/><text fill="#000000" font-family="sans-serif" font-size="14" lengthAdjust="spacing" textLength="103" x="71.5" y="838.5332">idComida : Long</text><rect fill="none" height="6" style="stroke:#C82930;stroke-width:1.0;" width="6" x="59.5" y="848.9141"/><text fill="#000000" font-family="sans-serif" font-size="14" lengthAdjust="spacing" textLength="97" x="71.5" y="856.1426">nombre : String</text><rect fill="none" height="6" style="stroke:#C82930;stroke-width:1.0;" width="6" x="59.5" y="866.5234"/><text fill="#000000" font-family="sans-serif" font-size="14" lengthAdjust="spacing" textLength="135" x="71.5" y="873.752">caloriasTotales : float</text><rect fill="none" height="6" style="stroke:#C82930;stroke-width:1.0;" width="6" x="59.5" y="884.1328"/><text fill="#000000" font-family="sans-serif" font-size="14" lengthAdjust="spacing" textLength="98" x="71.5" y="891.3613">proteinas : float</text><rect fill="none" height="6" style="stroke:#C82930;stroke-width:1.0;" width="6" x="59.5" y="901.7422"/><text fill="#000000" font-family="sans-serif" font-size="14" lengthAdjust="spacing" textLength="126" x="71.5" y="908.9707">carbohidratos : float</text><rect fill="none" height="6" style="stroke:#C82930;stroke-width:1.0;" width="6" x="59.5" y="919.3516"/><text fill="#000000" font-family="sans-serif" font-size="14" lengthAdjust="spacing" textLength="82" x="71.5" y="926.5801">grasas : float</text><line style="stroke:#181818;stroke-width:0.5;" x1="52.5" x2="211.5" y1="933.6563" y2="933.6563"/></g><!--class Ingrediente--><g id="elem_Ingrediente"><rect codeLine="83" fill="#F1F1F1" height="83.2188" id="Ingrediente" rx="2.5" ry="2.5" style="stroke:#181818;stroke-width:0.5;" width="169" x="47.5" y="1019.5"/><ellipse cx="92.25" cy="1035.5" fill="#ADD1B2" rx="11" ry="11" style="stroke:#181818;stroke-width:1.0;"/><path d="M95.0156,1031.375 Q95.1719,1031.1563 95.3594,1031.0469 Q95.5469,1030.9375 95.7656,1030.9375 Q96.1406,1030.9375 96.375,1031.2031 Q96.6094,1031.4531 96.6094,1032.0625 L96.6094,1033.5156 Q96.6094,1034.125 96.375,1034.3906 Q96.1406,1034.6563 95.7656,1034.6563 Q95.4219,1034.6563 95.2188,1034.4531 Q95.0156,1034.2656 94.9063,1033.75 Q94.8594,1033.3906 94.6719,1033.2031 Q94.3438,1032.8281 93.7344,1032.6094 Q93.125,1032.3906 92.5,1032.3906 Q91.7344,1032.3906 91.0938,1032.7188 Q90.4688,1033.0469 89.9688,1033.7969 Q89.4844,1034.5469 89.4844,1035.5781 L89.4844,1036.6719 Q89.4844,1037.9063 90.375,1038.7344 Q91.2656,1039.5469 92.8594,1039.5469 Q93.7969,1039.5469 94.4531,1039.2969 Q94.8438,1039.1406 95.2656,1038.7031 Q95.5313,1038.4375 95.6719,1038.3594 Q95.8281,1038.2813 96.0313,1038.2813 Q96.3594,1038.2813 96.6094,1038.5469 Q96.875,1038.7969 96.875,1039.1406 Q96.875,1039.4844 96.5313,1039.8906 Q96.0313,1040.4688 95.2344,1040.7969 Q94.1563,1041.25 92.8594,1041.25 Q91.3438,1041.25 90.1406,1040.625 Q89.1563,1040.125 88.4688,1039.0625 Q87.7813,1037.9844 87.7813,1036.7031 L87.7813,1035.5469 Q87.7813,1034.2188 88.3906,1033.0781 Q89.0156,1031.9219 90.1094,1031.3125 Q91.2031,1030.6875 92.4375,1030.6875 Q93.1719,1030.6875 93.8125,1030.8594 Q94.4688,1031.0156 95.0156,1031.375 Z " fill="#000000"/><text fill="#000000" font-family="sans-serif" font-size="14" lengthAdjust="spacing" textLength="71" x="112.75" y="1041.2285">Ingrediente</text><line style="stroke:#181818;stroke-width:0.5;" x1="48.5" x2="215.5" y1="1051.5" y2="1051.5"/><rect fill="none" height="6" style="stroke:#C82930;stroke-width:1.0;" width="6" x="55.5" y="1062.8047"/><text fill="#000000" font-family="sans-serif" font-size="14" lengthAdjust="spacing" textLength="126" x="67.5" y="1070.0332">idIngrediente : Long</text><rect fill="none" height="6" style="stroke:#C82930;stroke-width:1.0;" width="6" x="55.5" y="1080.4141"/><text fill="#000000" font-family="sans-serif" font-size="14" lengthAdjust="spacing" textLength="143" x="67.5" y="1087.6426">cantidadGramos : float</text><line style="stroke:#181818;stroke-width:0.5;" x1="48.5" x2="215.5" y1="1094.7188" y2="1094.7188"/></g><!--class Alimento--><g id="elem_Alimento"><rect codeLine="88" fill="#F1F1F1" height="153.6563" id="Alimento" rx="2.5" ry="2.5" style="stroke:#181818;stroke-width:0.5;" width="152" x="56" y="1180"/><ellipse cx="100.75" cy="1196" fill="#ADD1B2" rx="11" ry="11" style="stroke:#181818;stroke-width:1.0;"/><path d="M103.5156,1191.875 Q103.6719,1191.6563 103.8594,1191.5469 Q104.0469,1191.4375 104.2656,1191.4375 Q104.6406,1191.4375 104.875,1191.7031 Q105.1094,1191.9531 105.1094,1192.5625 L105.1094,1194.0156 Q105.1094,1194.625 104.875,1194.8906 Q104.6406,1195.1563 104.2656,1195.1563 Q103.9219,1195.1563 103.7188,1194.9531 Q103.5156,1194.7656 103.4063,1194.25 Q103.3594,1193.8906 103.1719,1193.7031 Q102.8438,1193.3281 102.2344,1193.1094 Q101.625,1192.8906 101,1192.8906 Q100.2344,1192.8906 99.5938,1193.2188 Q98.9688,1193.5469 98.4688,1194.2969 Q97.9844,1195.0469 97.9844,1196.0781 L97.9844,1197.1719 Q97.9844,1198.4063 98.875,1199.2344 Q99.7656,1200.0469 101.3594,1200.0469 Q102.2969,1200.0469 102.9531,1199.7969 Q103.3438,1199.6406 103.7656,1199.2031 Q104.0313,1198.9375 104.1719,1198.8594 Q104.3281,1198.7813 104.5313,1198.7813 Q104.8594,1198.7813 105.1094,1199.0469 Q105.375,1199.2969 105.375,1199.6406 Q105.375,1199.9844 105.0313,1200.3906 Q104.5313,1200.9688 103.7344,1201.2969 Q102.6563,1201.75 101.3594,1201.75 Q99.8438,1201.75 98.6406,1201.125 Q97.6563,1200.625 96.9688,1199.5625 Q96.2813,1198.4844 96.2813,1197.2031 L96.2813,1196.0469 Q96.2813,1194.7188 96.8906,1193.5781 Q97.5156,1192.4219 98.6094,1191.8125 Q99.7031,1191.1875 100.9375,1191.1875 Q101.6719,1191.1875 102.3125,1191.3594 Q102.9688,1191.5156 103.5156,1191.875 Z " fill="#000000"/><text fill="#000000" font-family="sans-serif" font-size="14" lengthAdjust="spacing" textLength="54" x="121.25" y="1201.7285">Alimento</text><line style="stroke:#181818;stroke-width:0.5;" x1="57" x2="207" y1="1212" y2="1212"/><rect fill="none" height="6" style="stroke:#C82930;stroke-width:1.0;" width="6" x="64" y="1223.3047"/><text fill="#000000" font-family="sans-serif" font-size="14" lengthAdjust="spacing" textLength="109" x="76" y="1230.5332">idAlimento : Long</text><rect fill="none" height="6" style="stroke:#C82930;stroke-width:1.0;" width="6" x="64" y="1240.9141"/><text fill="#000000" font-family="sans-serif" font-size="14" lengthAdjust="spacing" textLength="97" x="76" y="1248.1426">nombre : String</text><rect fill="none" height="6" style="stroke:#C82930;stroke-width:1.0;" width="6" x="64" y="1258.5234"/><text fill="#000000" font-family="sans-serif" font-size="14" lengthAdjust="spacing" textLength="88" x="76" y="1265.752">calorias : float</text><rect fill="none" height="6" style="stroke:#C82930;stroke-width:1.0;" width="6" x="64" y="1276.1328"/><text fill="#000000" font-family="sans-serif" font-size="14" lengthAdjust="spacing" textLength="98" x="76" y="1283.3613">proteinas : float</text><rect fill="none" height="6" style="stroke:#C82930;stroke-width:1.0;" width="6" x="64" y="1293.7422"/><text fill="#000000" font-family="sans-serif" font-size="14" lengthAdjust="spacing" textLength="126" x="76" y="1300.9707">carbohidratos : float</text><rect fill="none" height="6" style="stroke:#C82930;stroke-width:1.0;" width="6" x="64" y="1311.3516"/><text fill="#000000" font-family="sans-serif" font-size="14" lengthAdjust="spacing" textLength="82" x="76" y="1318.5801">grasas : float</text><line style="stroke:#181818;stroke-width:0.5;" x1="57" x2="207" y1="1325.6563" y2="1325.6563"/></g><!--class RutinaCompleta--><g id="elem_RutinaCompleta"><rect codeLine="97" fill="#F1F1F1" height="100.8281" id="RutinaCompleta" rx="2.5" ry="2.5" style="stroke:#181818;stroke-width:0.5;" width="133" x="560.5" y="361"/><ellipse cx="575.5" cy="377" fill="#ADD1B2" rx="11" ry="11" style="stroke:#181818;stroke-width:1.0;"/><path d="M578.2656,372.875 Q578.4219,372.6563 578.6094,372.5469 Q578.7969,372.4375 579.0156,372.4375 Q579.3906,372.4375 579.625,372.7031 Q579.8594,372.9531 579.8594,373.5625 L579.8594,375.0156 Q579.8594,375.625 579.625,375.8906 Q579.3906,376.1563 579.0156,376.1563 Q578.6719,376.1563 578.4688,375.9531 Q578.2656,375.7656 578.1563,375.25 Q578.1094,374.8906 577.9219,374.7031 Q577.5938,374.3281 576.9844,374.1094 Q576.375,373.8906 575.75,373.8906 Q574.9844,373.8906 574.3438,374.2188 Q573.7188,374.5469 573.2188,375.2969 Q572.7344,376.0469 572.7344,377.0781 L572.7344,378.1719 Q572.7344,379.4063 573.625,380.2344 Q574.5156,381.0469 576.1094,381.0469 Q577.0469,381.0469 577.7031,380.7969 Q578.0938,380.6406 578.5156,380.2031 Q578.7813,379.9375 578.9219,379.8594 Q579.0781,379.7813 579.2813,379.7813 Q579.6094,379.7813 579.8594,380.0469 Q580.125,380.2969 580.125,380.6406 Q580.125,380.9844 579.7813,381.3906 Q579.2813,381.9688 578.4844,382.2969 Q577.4063,382.75 576.1094,382.75 Q574.5938,382.75 573.3906,382.125 Q572.4063,381.625 571.7188,380.5625 Q571.0313,379.4844 571.0313,378.2031 L571.0313,377.0469 Q571.0313,375.7188 571.6406,374.5781 Q572.2656,373.4219 573.3594,372.8125 Q574.4531,372.1875 575.6875,372.1875 Q576.4219,372.1875 577.0625,372.3594 Q577.7188,372.5156 578.2656,372.875 Z " fill="#000000"/><text fill="#000000" font-family="sans-serif" font-size="14" lengthAdjust="spacing" textLength="101" x="589.5" y="382.7285">RutinaCompleta</text><line style="stroke:#181818;stroke-width:0.5;" x1="561.5" x2="692.5" y1="393" y2="393"/><rect fill="none" height="6" style="stroke:#C82930;stroke-width:1.0;" width="6" x="568.5" y="404.3047"/><text fill="#000000" font-family="sans-serif" font-size="14" lengthAdjust="spacing" textLength="96" x="580.5" y="411.5332">idRutina : Long</text><rect fill="none" height="6" style="stroke:#C82930;stroke-width:1.0;" width="6" x="568.5" y="421.9141"/><text fill="#000000" font-family="sans-serif" font-size="14" lengthAdjust="spacing" textLength="97" x="580.5" y="429.1426">nombre : String</text><rect fill="none" height="6" style="stroke:#C82930;stroke-width:1.0;" width="6" x="568.5" y="439.5234"/><text fill="#000000" font-family="sans-serif" font-size="14" lengthAdjust="spacing" textLength="104" x="580.5" y="446.752">resumen : String</text><line style="stroke:#181818;stroke-width:0.5;" x1="561.5" x2="692.5" y1="453.8281" y2="453.8281"/></g><!--class DiaEnRutina--><g id="elem_DiaEnRutina"><rect codeLine="103" fill="#F1F1F1" height="136.0469" id="DiaEnRutina" rx="2.5" ry="2.5" style="stroke:#181818;stroke-width:0.5;" width="250" x="539" y="574.5"/><ellipse cx="620.25" cy="590.5" fill="#ADD1B2" rx="11" ry="11" style="stroke:#181818;stroke-width:1.0;"/><path d="M623.0156,586.375 Q623.1719,586.1563 623.3594,586.0469 Q623.5469,585.9375 623.7656,585.9375 Q624.1406,585.9375 624.375,586.2031 Q624.6094,586.4531 624.6094,587.0625 L624.6094,588.5156 Q624.6094,589.125 624.375,589.3906 Q624.1406,589.6563 623.7656,589.6563 Q623.4219,589.6563 623.2188,589.4531 Q623.0156,589.2656 622.9063,588.75 Q622.8594,588.3906 622.6719,588.2031 Q622.3438,587.8281 621.7344,587.6094 Q621.125,587.3906 620.5,587.3906 Q619.7344,587.3906 619.0938,587.7188 Q618.4688,588.0469 617.9688,588.7969 Q617.4844,589.5469 617.4844,590.5781 L617.4844,591.6719 Q617.4844,592.9063 618.375,593.7344 Q619.2656,594.5469 620.8594,594.5469 Q621.7969,594.5469 622.4531,594.2969 Q622.8438,594.1406 623.2656,593.7031 Q623.5313,593.4375 623.6719,593.3594 Q623.8281,593.2813 624.0313,593.2813 Q624.3594,593.2813 624.6094,593.5469 Q624.875,593.7969 624.875,594.1406 Q624.875,594.4844 624.5313,594.8906 Q624.0313,595.4688 623.2344,595.7969 Q622.1563,596.25 620.8594,596.25 Q619.3438,596.25 618.1406,595.625 Q617.1563,595.125 616.4688,594.0625 Q615.7813,592.9844 615.7813,591.7031 L615.7813,590.5469 Q615.7813,589.2188 616.3906,588.0781 Q617.0156,586.9219 618.1094,586.3125 Q619.2031,585.6875 620.4375,585.6875 Q621.1719,585.6875 621.8125,585.8594 Q622.4688,586.0156 623.0156,586.375 Z " fill="#000000"/><text fill="#000000" font-family="sans-serif" font-size="14" lengthAdjust="spacing" textLength="79" x="640.75" y="596.2285">DiaEnRutina</text><line style="stroke:#181818;stroke-width:0.5;" x1="540" x2="788" y1="606.5" y2="606.5"/><rect fill="none" height="6" style="stroke:#C82930;stroke-width:1.0;" width="6" x="547" y="617.8047"/><text fill="#000000" font-family="sans-serif" font-size="14" lengthAdjust="spacing" textLength="126" x="559" y="625.0332">idDiaEnDieta : Long</text><rect fill="none" height="6" style="stroke:#C82930;stroke-width:1.0;" width="6" x="547" y="635.4141"/><text fill="#000000" font-family="sans-serif" font-size="14" lengthAdjust="spacing" textLength="97" x="559" y="642.6426">nombre : String</text><rect fill="none" height="6" style="stroke:#C82930;stroke-width:1.0;" width="6" x="547" y="653.0234"/><text fill="#000000" font-family="sans-serif" font-size="14" lengthAdjust="spacing" textLength="104" x="559" y="660.252">resumen : String</text><rect fill="none" height="6" style="stroke:#C82930;stroke-width:1.0;" width="6" x="547" y="670.6328"/><text fill="#000000" font-family="sans-serif" font-size="14" lengthAdjust="spacing" textLength="157" x="559" y="677.8613">caloriasQuemadas : float</text><rect fill="none" height="6" style="stroke:#C82930;stroke-width:1.0;" width="6" x="547" y="688.2422"/><text fill="#000000" font-family="sans-serif" font-size="14" lengthAdjust="spacing" textLength="224" x="559" y="695.4707">diaDeLaSemana : DiaDeLaSemana</text><line style="stroke:#181818;stroke-width:0.5;" x1="540" x2="788" y1="702.5469" y2="702.5469"/></g><!--class Ejercicio--><g id="elem_Ejercicio"><rect codeLine="111" fill="#F1F1F1" height="118.4375" id="Ejercicio" rx="2.5" ry="2.5" style="stroke:#181818;stroke-width:0.5;" width="209" x="559.5" y="806"/><ellipse cx="633.25" cy="822" fill="#ADD1B2" rx="11" ry="11" style="stroke:#181818;stroke-width:1.0;"/><path d="M636.0156,817.875 Q636.1719,817.6563 636.3594,817.5469 Q636.5469,817.4375 636.7656,817.4375 Q637.1406,817.4375 637.375,817.7031 Q637.6094,817.9531 637.6094,818.5625 L637.6094,820.0156 Q637.6094,820.625 637.375,820.8906 Q637.1406,821.1563 636.7656,821.1563 Q636.4219,821.1563 636.2188,820.9531 Q636.0156,820.7656 635.9063,820.25 Q635.8594,819.8906 635.6719,819.7031 Q635.3438,819.3281 634.7344,819.1094 Q634.125,818.8906 633.5,818.8906 Q632.7344,818.8906 632.0938,819.2188 Q631.4688,819.5469 630.9688,820.2969 Q630.4844,821.0469 630.4844,822.0781 L630.4844,823.1719 Q630.4844,824.4063 631.375,825.2344 Q632.2656,826.0469 633.8594,826.0469 Q634.7969,826.0469 635.4531,825.7969 Q635.8438,825.6406 636.2656,825.2031 Q636.5313,824.9375 636.6719,824.8594 Q636.8281,824.7813 637.0313,824.7813 Q637.3594,824.7813 637.6094,825.0469 Q637.875,825.2969 637.875,825.6406 Q637.875,825.9844 637.5313,826.3906 Q637.0313,826.9688 636.2344,827.2969 Q635.1563,827.75 633.8594,827.75 Q632.3438,827.75 631.1406,827.125 Q630.1563,826.625 629.4688,825.5625 Q628.7813,824.4844 628.7813,823.2031 L628.7813,822.0469 Q628.7813,820.7188 629.3906,819.5781 Q630.0156,818.4219 631.1094,817.8125 Q632.2031,817.1875 633.4375,817.1875 Q634.1719,817.1875 634.8125,817.3594 Q635.4688,817.5156 636.0156,817.875 Z " fill="#000000"/><text fill="#000000" font-family="sans-serif" font-size="14" lengthAdjust="spacing" textLength="53" x="653.75" y="827.7285">Ejercicio</text><line style="stroke:#181818;stroke-width:0.5;" x1="560.5" x2="767.5" y1="838" y2="838"/><rect fill="none" height="6" style="stroke:#C82930;stroke-width:1.0;" width="6" x="567.5" y="849.3047"/><text fill="#000000" font-family="sans-serif" font-size="14" lengthAdjust="spacing" textLength="108" x="579.5" y="856.5332">idEjercicio : Long</text><rect fill="none" height="6" style="stroke:#C82930;stroke-width:1.0;" width="6" x="567.5" y="866.9141"/><text fill="#000000" font-family="sans-serif" font-size="14" lengthAdjust="spacing" textLength="97" x="579.5" y="874.1426">nombre : String</text><rect fill="none" height="6" style="stroke:#C82930;stroke-width:1.0;" width="6" x="567.5" y="884.5234"/><text fill="#000000" font-family="sans-serif" font-size="14" lengthAdjust="spacing" textLength="118" x="579.5" y="891.752">explicacion : String</text><rect fill="none" height="6" style="stroke:#C82930;stroke-width:1.0;" width="6" x="567.5" y="902.1328"/><text fill="#000000" font-family="sans-serif" font-size="14" lengthAdjust="spacing" textLength="183" x="579.5" y="909.3613">musculoEnfocado : Musculos</text><line style="stroke:#181818;stroke-width:0.5;" x1="560.5" x2="767.5" y1="916.4375" y2="916.4375"/></g><!--class Serie--><g id="elem_Serie"><rect codeLine="118" fill="#F1F1F1" height="118.4375" id="Serie" rx="2.5" ry="2.5" style="stroke:#181818;stroke-width:0.5;" width="156" x="586" y="1002"/><ellipse cx="643.25" cy="1018" fill="#ADD1B2" rx="11" ry="11" style="stroke:#181818;stroke-width:1.0;"/><path d="M646.0156,1013.875 Q646.1719,1013.6563 646.3594,1013.5469 Q646.5469,1013.4375 646.7656,1013.4375 Q647.1406,1013.4375 647.375,1013.7031 Q647.6094,1013.9531 647.6094,1014.5625 L647.6094,1016.0156 Q647.6094,1016.625 647.375,1016.8906 Q647.1406,1017.1563 646.7656,1017.1563 Q646.4219,1017.1563 646.2188,1016.9531 Q646.0156,1016.7656 645.9063,1016.25 Q645.8594,1015.8906 645.6719,1015.7031 Q645.3438,1015.3281 644.7344,1015.1094 Q644.125,1014.8906 643.5,1014.8906 Q642.7344,1014.8906 642.0938,1015.2188 Q641.4688,1015.5469 640.9688,1016.2969 Q640.4844,1017.0469 640.4844,1018.0781 L640.4844,1019.1719 Q640.4844,1020.4063 641.375,1021.2344 Q642.2656,1022.0469 643.8594,1022.0469 Q644.7969,1022.0469 645.4531,1021.7969 Q645.8438,1021.6406 646.2656,1021.2031 Q646.5313,1020.9375 646.6719,1020.8594 Q646.8281,1020.7813 647.0313,1020.7813 Q647.3594,1020.7813 647.6094,1021.0469 Q647.875,1021.2969 647.875,1021.6406 Q647.875,1021.9844 647.5313,1022.3906 Q647.0313,1022.9688 646.2344,1023.2969 Q645.1563,1023.75 643.8594,1023.75 Q642.3438,1023.75 641.1406,1023.125 Q640.1563,1022.625 639.4688,1021.5625 Q638.7813,1020.4844 638.7813,1019.2031 L638.7813,1018.0469 Q638.7813,1016.7188 639.3906,1015.5781 Q640.0156,1014.4219 641.1094,1013.8125 Q642.2031,1013.1875 643.4375,1013.1875 Q644.1719,1013.1875 644.8125,1013.3594 Q645.4688,1013.5156 646.0156,1013.875 Z " fill="#000000"/><text fill="#000000" font-family="sans-serif" font-size="14" lengthAdjust="spacing" textLength="33" x="663.75" y="1023.7285">Serie</text><line style="stroke:#181818;stroke-width:0.5;" x1="587" x2="741" y1="1034" y2="1034"/><rect fill="none" height="6" style="stroke:#C82930;stroke-width:1.0;" width="6" x="594" y="1045.3047"/><text fill="#000000" font-family="sans-serif" font-size="14" lengthAdjust="spacing" textLength="88" x="606" y="1052.5332">idSerie : Long</text><rect fill="none" height="6" style="stroke:#C82930;stroke-width:1.0;" width="6" x="594" y="1062.9141"/><text fill="#000000" font-family="sans-serif" font-size="14" lengthAdjust="spacing" textLength="130" x="606" y="1070.1426">serieAnterior : String</text><rect fill="none" height="6" style="stroke:#C82930;stroke-width:1.0;" width="6" x="594" y="1080.5234"/><text fill="#000000" font-family="sans-serif" font-size="14" lengthAdjust="spacing" textLength="104" x="606" y="1087.752">repeticiones : int</text><rect fill="none" height="6" style="stroke:#C82930;stroke-width:1.0;" width="6" x="594" y="1098.1328"/><text fill="#000000" font-family="sans-serif" font-size="14" lengthAdjust="spacing" textLength="58" x="606" y="1105.3613">peso : int</text><line style="stroke:#181818;stroke-width:0.5;" x1="587" x2="741" y1="1112.4375" y2="1112.4375"/></g><!--link Usuario to DietaCompleta--><g id="link_Usuario_DietaCompleta"><path codeLine="129" d="M379.5,248.54 C366.82,274.37 353.52,301.47 341.5,325.94 " fill="none" id="Usuario-DietaCompleta" style="stroke:#181818;stroke-width:1.0;"/><text fill="#000000" font-family="sans-serif" font-size="13" lengthAdjust="spacing" textLength="7" x="368.6031" y="270.109">1</text><text fill="#000000" font-family="sans-serif" font-size="13" lengthAdjust="spacing" textLength="20" x="324.3055" y="315.1063">0..*</text></g><!--link Usuario to PlanificacionDeDieta--><g id="link_Usuario_PlanificacionDeDieta"><path codeLine="131" d="M426.06,248.73 C418.41,355.7 407.21,512.49 401.55,591.73 " fill="none" id="Usuario-PlanificacionDeDieta" style="stroke:#181818;stroke-width:1.0;"/><text fill="#000000" font-family="sans-serif" font-size="13" lengthAdjust="spacing" textLength="7" x="418.3271" y="269.9356">1</text><text fill="#000000" font-family="sans-serif" font-size="13" lengthAdjust="spacing" textLength="20" x="380.643" y="580.9974">0..*</text></g><!--link DietaCompleta to DiaEnDieta--><g id="link_DietaCompleta_DiaEnDieta"><path codeLine="133" d="M237.92,497.12 C223.62,516.61 208.41,537.35 194.1,556.85 " fill="none" id="DietaCompleta-DiaEnDieta" style="stroke:#181818;stroke-width:1.0;"/><text fill="#000000" font-family="sans-serif" font-size="13" lengthAdjust="spacing" textLength="7" x="225.2842" y="518.6643">1</text><text fill="#000000" font-family="sans-serif" font-size="13" lengthAdjust="spacing" textLength="20" x="178.7402" y="546.0082">1..*</text></g><!--link DietaCompleta to PlanificacionDeDieta--><g id="link_DietaCompleta_PlanificacionDeDieta"><path codeLine="135" d="M336.21,497.12 C349.84,528.97 364.89,564.14 376.73,591.79 " fill="none" id="DietaCompleta-PlanificacionDeDieta" style="stroke:#181818;stroke-width:1.0;"/><text fill="#000000" font-family="sans-serif" font-size="13" lengthAdjust="spacing" textLength="7" x="332.021" y="518.6643">1</text><text fill="#000000" font-family="sans-serif" font-size="13" lengthAdjust="spacing" textLength="20" x="352.3327" y="581.0658">0..*</text></g><!--link Usuario to RutinaCompleta--><g id="link_Usuario_RutinaCompleta"><path codeLine="137" d="M512.5,248.54 C540.05,287.51 569.63,329.35 591.83,360.75 " fill="none" id="Usuario-RutinaCompleta" style="stroke:#181818;stroke-width:1.0;"/><text fill="#000000" font-family="sans-serif" font-size="13" lengthAdjust="spacing" textLength="7" x="510.5391" y="270.109">1</text><text fill="#000000" font-family="sans-serif" font-size="13" lengthAdjust="spacing" textLength="20" x="565.478" y="350.0202">0..*</text></g><!--link DiaEnDieta to Comida--><g id="link_DiaEnDieta_Comida"><path codeLine="139" d="M132,728.12 C132,747.8 132,768.62 132,787.9 " fill="none" id="DiaEnDieta-Comida" style="stroke:#181818;stroke-width:1.0;"/><text fill="#000000" font-family="sans-serif" font-size="13" lengthAdjust="spacing" textLength="7" x="124.6992" y="749.6643">1</text><text fill="#000000" font-family="sans-serif" font-size="13" lengthAdjust="spacing" textLength="20" x="111.0156" y="777.0523">1..*</text></g><!--link Comida to Ingrediente--><g id="link_Comida_Ingrediente"><path codeLine="141" d="M132,942.12 C132,968.44 132,996.92 132,1019.29 " fill="none" id="Comida-Ingrediente" style="stroke:#181818;stroke-width:1.0;"/><text fill="#000000" font-family="sans-serif" font-size="13" lengthAdjust="spacing" textLength="7" x="124.6883" y="963.2271">1</text><text fill="#000000" font-family="sans-serif" font-size="13" lengthAdjust="spacing" textLength="20" x="110.3438" y="1008.5629">1..*</text></g><!--link Ingrediente to Alimento--><g id="link_Ingrediente_Alimento"><path codeLine="143" d="M132,1102.67 C132,1125 132,1153.43 132,1179.73 " fill="none" id="Ingrediente-Alimento" style="stroke:#181818;stroke-width:1.0;"/><text fill="#000000" font-family="sans-serif" font-size="13" lengthAdjust="spacing" textLength="20" x="110.4063" y="1124.0919">1..*</text><text fill="#000000" font-family="sans-serif" font-size="13" lengthAdjust="spacing" textLength="7" x="124.6664" y="1169.131">1</text></g><!--link RutinaCompleta to DiaEnRutina--><g id="link_RutinaCompleta_DiaEnRutina"><path codeLine="145" d="M635.03,462.19 C640.32,494.94 647.32,538.25 653.11,574.1 " fill="none" id="RutinaCompleta-DiaEnRutina" style="stroke:#181818;stroke-width:1.0;"/><text fill="#000000" font-family="sans-serif" font-size="13" lengthAdjust="spacing" textLength="7" x="628.6104" y="483.2383">1</text><text fill="#000000" font-family="sans-serif" font-size="13" lengthAdjust="spacing" textLength="20" x="630.9557" y="563.7321">1..*</text></g><!--link DiaEnRutina to Ejercicio--><g id="link_DiaEnRutina_Ejercicio"><path codeLine="147" d="M664,710.56 C664,740.96 664,776.58 664,805.84 " fill="none" id="DiaEnRutina-Ejercicio" style="stroke:#181818;stroke-width:1.0;"/><text fill="#000000" font-family="sans-serif" font-size="13" lengthAdjust="spacing" textLength="20" x="642.9688" y="731.9145">1..*</text><text fill="#000000" font-family="sans-serif" font-size="13" lengthAdjust="spacing" textLength="20" x="642.7813" y="795.1448">1..*</text></g><!--link Ejercicio to Serie--><g id="link_Ejercicio_Serie"><path codeLine="149" d="M664,924.21 C664,948.76 664,977.29 664,1001.83 " fill="none" id="Ejercicio-Serie" style="stroke:#181818;stroke-width:1.0;"/><text fill="#000000" font-family="sans-serif" font-size="13" lengthAdjust="spacing" textLength="7" x="656.5734" y="945.8911">1</text><text fill="#000000" font-family="sans-serif" font-size="13" lengthAdjust="spacing" textLength="20" x="642.7813" y="991.1335">1..*</text></g><!--SRC=[lLNBRjim4BppAmXV0XH8qFGOe0TQOXmNakLATWwzCHJjiA18WQA00aN-lQIUbAguQT7M5saVcfsbPvTNyEChFt3LXI3U7MESeZ39u2oqy1LWiYvWN5Uq5gg2y3i8ZZYA4l2GnEiq0NiSF2HWlGtmFWE7j7sYtG6lK_Gb0JZReoX40At39DxkK8Gpi8cE1vnO71Hs-VSuJb8KWGsESPH0yDAL3Ja9MKGoLX19NEtekBC0CKeFxh75QP0un4z7_6WVZzRXuXbQs-v0Kt6JEBIhNn-BFPWWGXdEu4BevsEXWbGLF5OrqLnPPjUGvxrr1oCbpzObLV6acRKpetdZ8IKJWkVgTidvmNUU67qcEq9vmPaqBIWb8YI6sUYPIQQLbrwookMSX2B6GGfJQ-8vx15ouUDJ9Oqc5PFFP7I_z8s5d1aIgA8Kzjcrr_WkDPUpYcfUKgxaf18HIdDI7PGXWbKUgL8hmxWaleyI_QIUUQw9KRx_RCbwYHvJWcLBhQSvE2vm_IUax15C57itLV18UY-8v2TEYJkhaFdq5qD38uqgjf9JFbT44xddSk8U2jg_akTzYSxutwSpaDdAisQvapNh6FcUWHObqbYU-KQJGYt08C6BPZHQZC5yGrz_kQ6qDXPXDYwjyn8RpQhQKbuSFwlX3k1tL3r7X5xFdsihmlnFr8g_CaqRoRLSHli25VQj59sA9tIAzYh1ycHLcZk8_d8P2sPCyruQxVjGg78ciZgnYrPFMo-PSQHaerSkpRWLdV6sMm2cE4B1DjdXDrsE_SPVtQuWlBw6g_StD-zMq-qvpHgJbWOTWEdYxR-uxM1x3RoMTmdv5QvJxJhWGMX3Pbk-NHi0TEjZ5lL6601_dhjuaxaQXXQ0sT3CuBm9w3Xru-33DM-36W4OXJb3QqG4VW00]--></g></svg>