<?xml version="1.0" encoding="us-ascii" standalone="no"?><svg xmlns="http://www.w3.org/2000/svg" xmlns:xlink="http://www.w3.org/1999/xlink" contentStyleType="text/css" height="1538px" preserveAspectRatio="none" style="width:1822px;height:1538px;background:#FFFFFF;" version="1.1" viewBox="0 0 1822 1538" width="1822px" zoomAndPan="magnify"><defs/><g><!--class Musculo--><g id="elem_Musculo"><rect codeLine="6" fill="#F1F1F1" height="347.3594" id="Musculo" rx="2.5" ry="2.5" style="stroke:#181818;stroke-width:0.5;" width="125" x="39" y="7"/><ellipse cx="72.45" cy="23" fill="#EB937F" rx="11" ry="11" style="stroke:#181818;stroke-width:1.0;"/><path d="M71.3094,23.7969 L71.3094,26.2969 L75.6375,26.2969 L75.6375,25.375 Q75.6375,24.7656 75.8719,24.5 Q76.1219,24.2344 76.4969,24.2344 Q76.8719,24.2344 77.1063,24.5 Q77.3406,24.7656 77.3406,25.375 L77.3406,28 L69.3406,28 Q68.7156,28 68.45,27.7656 Q68.2,27.5313 68.2,27.1406 Q68.2,26.7656 68.4656,26.5313 Q68.7313,26.2969 69.3406,26.2969 L69.6063,26.2969 L69.6063,19.6406 L69.3406,19.6406 Q68.7156,19.6406 68.45,19.4063 Q68.2,19.1719 68.2,18.7813 Q68.2,18.4063 68.45,18.1719 Q68.7156,17.9375 69.3406,17.9375 L76.9656,17.9375 L76.9656,20.5313 Q76.9656,21.1406 76.7313,21.4063 Q76.5125,21.6563 76.1219,21.6563 Q75.7469,21.6563 75.5125,21.4063 Q75.2781,21.1406 75.2781,20.5313 L75.2781,19.6406 L71.3094,19.6406 L71.3094,22.0938 L72.7938,22.0938 Q72.7938,21.4375 72.9188,21.25 Q73.1844,20.8438 73.6531,20.8438 Q74.0281,20.8438 74.2625,21.1094 Q74.4969,21.3594 74.4969,21.9688 L74.4969,23.9375 Q74.4969,24.4844 74.3719,24.6719 Q74.1063,25.0625 73.6531,25.0625 Q73.1844,25.0625 72.9188,24.6563 Q72.7938,24.4688 72.7938,23.7969 L71.3094,23.7969 Z " fill="#000000"/><text fill="#000000" font-family="sans-serif" font-size="14" lengthAdjust="spacing" textLength="52" x="90.55" y="28.7285">Musculo</text><line style="stroke:#181818;stroke-width:0.5;" x1="40" x2="163" y1="39" y2="39"/><text fill="#000000" font-family="sans-serif" font-size="14" lengthAdjust="spacing" textLength="55" x="45" y="57.5332">CUELLO</text><text fill="#000000" font-family="sans-serif" font-size="14" lengthAdjust="spacing" textLength="70" x="45" y="75.1426">HOMBROS</text><text fill="#000000" font-family="sans-serif" font-size="14" lengthAdjust="spacing" textLength="75" x="45" y="92.752">DORSALES</text><text fill="#000000" font-family="sans-serif" font-size="14" lengthAdjust="spacing" textLength="48" x="45" y="110.3613">PECHO</text><text fill="#000000" font-family="sans-serif" font-size="14" lengthAdjust="spacing" textLength="49" x="45" y="127.9707">BICEPS</text><text fill="#000000" font-family="sans-serif" font-size="14" lengthAdjust="spacing" textLength="59" x="45" y="145.5801">TRICEPS</text><text fill="#000000" font-family="sans-serif" font-size="14" lengthAdjust="spacing" textLength="83" x="45" y="163.1895">ANTEBRAZO</text><text fill="#000000" font-family="sans-serif" font-size="14" lengthAdjust="spacing" textLength="101" x="45" y="180.7988">ZONA_LUMBAR</text><text fill="#000000" font-family="sans-serif" font-size="14" lengthAdjust="spacing" textLength="113" x="45" y="198.4082">ESPALDA_MEDIA</text><text fill="#000000" font-family="sans-serif" font-size="14" lengthAdjust="spacing" textLength="79" x="45" y="216.0176">TRAPECIOS</text><text fill="#000000" font-family="sans-serif" font-size="14" lengthAdjust="spacing" textLength="86" x="45" y="233.627">ADUCTORES</text><text fill="#000000" font-family="sans-serif" font-size="14" lengthAdjust="spacing" textLength="95" x="45" y="251.2363">ABDUCTORES</text><text fill="#000000" font-family="sans-serif" font-size="14" lengthAdjust="spacing" textLength="97" x="45" y="268.8457">ABDOMINALES</text><text fill="#000000" font-family="sans-serif" font-size="14" lengthAdjust="spacing" textLength="66" x="45" y="286.4551">GLUTEOS</text><text fill="#000000" font-family="sans-serif" font-size="14" lengthAdjust="spacing" textLength="88" x="45" y="304.0645">CUADRICEPS</text><text fill="#000000" font-family="sans-serif" font-size="14" lengthAdjust="spacing" textLength="105" x="45" y="321.6738">ISQUIOTIBIALES</text><text fill="#000000" font-family="sans-serif" font-size="14" lengthAdjust="spacing" textLength="68" x="45" y="339.2832">GEMELOS</text><line style="stroke:#181818;stroke-width:0.5;" x1="40" x2="163" y1="346.3594" y2="346.3594"/></g><!--class DiaDeLaSemana--><g id="elem_DiaDeLaSemana"><rect codeLine="26" fill="#F1F1F1" height="171.2656" id="DiaDeLaSemana" rx="2.5" ry="2.5" style="stroke:#181818;stroke-width:0.5;" width="139" x="199" y="95"/><ellipse cx="214" cy="111" fill="#EB937F" rx="11" ry="11" style="stroke:#181818;stroke-width:1.0;"/><path d="M212.8594,111.7969 L212.8594,114.2969 L217.1875,114.2969 L217.1875,113.375 Q217.1875,112.7656 217.4219,112.5 Q217.6719,112.2344 218.0469,112.2344 Q218.4219,112.2344 218.6563,112.5 Q218.8906,112.7656 218.8906,113.375 L218.8906,116 L210.8906,116 Q210.2656,116 210,115.7656 Q209.75,115.5313 209.75,115.1406 Q209.75,114.7656 210.0156,114.5313 Q210.2813,114.2969 210.8906,114.2969 L211.1563,114.2969 L211.1563,107.6406 L210.8906,107.6406 Q210.2656,107.6406 210,107.4063 Q209.75,107.1719 209.75,106.7813 Q209.75,106.4063 210,106.1719 Q210.2656,105.9375 210.8906,105.9375 L218.5156,105.9375 L218.5156,108.5313 Q218.5156,109.1406 218.2813,109.4063 Q218.0625,109.6563 217.6719,109.6563 Q217.2969,109.6563 217.0625,109.4063 Q216.8281,109.1406 216.8281,108.5313 L216.8281,107.6406 L212.8594,107.6406 L212.8594,110.0938 L214.3438,110.0938 Q214.3438,109.4375 214.4688,109.25 Q214.7344,108.8438 215.2031,108.8438 Q215.5781,108.8438 215.8125,109.1094 Q216.0469,109.3594 216.0469,109.9688 L216.0469,111.9375 Q216.0469,112.4844 215.9219,112.6719 Q215.6563,113.0625 215.2031,113.0625 Q214.7344,113.0625 214.4688,112.6563 Q214.3438,112.4688 214.3438,111.7969 L212.8594,111.7969 Z " fill="#000000"/><text fill="#000000" font-family="sans-serif" font-size="14" lengthAdjust="spacing" textLength="107" x="228" y="116.7285">DiaDeLaSemana</text><line style="stroke:#181818;stroke-width:0.5;" x1="200" x2="337" y1="127" y2="127"/><text fill="#000000" font-family="sans-serif" font-size="14" lengthAdjust="spacing" textLength="44" x="205" y="145.5332">LUNES</text><text fill="#000000" font-family="sans-serif" font-size="14" lengthAdjust="spacing" textLength="57" x="205" y="163.1426">MARTES</text><text fill="#000000" font-family="sans-serif" font-size="14" lengthAdjust="spacing" textLength="80" x="205" y="180.752">MIERCOLES</text><text fill="#000000" font-family="sans-serif" font-size="14" lengthAdjust="spacing" textLength="51" x="205" y="198.3613">JUEVES</text><text fill="#000000" font-family="sans-serif" font-size="14" lengthAdjust="spacing" textLength="58" x="205" y="215.9707">VIERNES</text><text fill="#000000" font-family="sans-serif" font-size="14" lengthAdjust="spacing" textLength="57" x="205" y="233.5801">SABADO</text><text fill="#000000" font-family="sans-serif" font-size="14" lengthAdjust="spacing" textLength="66" x="205" y="251.1895">DOMINGO</text><line style="stroke:#181818;stroke-width:0.5;" x1="200" x2="337" y1="258.2656" y2="258.2656"/></g><!--class Genero--><g id="elem_Genero"><rect codeLine="36" fill="#F1F1F1" height="100.8281" id="Genero" rx="2.5" ry="2.5" style="stroke:#181818;stroke-width:0.5;" width="80" x="373.5" y="130"/><ellipse cx="388.5" cy="146" fill="#EB937F" rx="11" ry="11" style="stroke:#181818;stroke-width:1.0;"/><path d="M387.3594,146.7969 L387.3594,149.2969 L391.6875,149.2969 L391.6875,148.375 Q391.6875,147.7656 391.9219,147.5 Q392.1719,147.2344 392.5469,147.2344 Q392.9219,147.2344 393.1563,147.5 Q393.3906,147.7656 393.3906,148.375 L393.3906,151 L385.3906,151 Q384.7656,151 384.5,150.7656 Q384.25,150.5313 384.25,150.1406 Q384.25,149.7656 384.5156,149.5313 Q384.7813,149.2969 385.3906,149.2969 L385.6563,149.2969 L385.6563,142.6406 L385.3906,142.6406 Q384.7656,142.6406 384.5,142.4063 Q384.25,142.1719 384.25,141.7813 Q384.25,141.4063 384.5,141.1719 Q384.7656,140.9375 385.3906,140.9375 L393.0156,140.9375 L393.0156,143.5313 Q393.0156,144.1406 392.7813,144.4063 Q392.5625,144.6563 392.1719,144.6563 Q391.7969,144.6563 391.5625,144.4063 Q391.3281,144.1406 391.3281,143.5313 L391.3281,142.6406 L387.3594,142.6406 L387.3594,145.0938 L388.8438,145.0938 Q388.8438,144.4375 388.9688,144.25 Q389.2344,143.8438 389.7031,143.8438 Q390.0781,143.8438 390.3125,144.1094 Q390.5469,144.3594 390.5469,144.9688 L390.5469,146.9375 Q390.5469,147.4844 390.4219,147.6719 Q390.1563,148.0625 389.7031,148.0625 Q389.2344,148.0625 388.9688,147.6563 Q388.8438,147.4688 388.8438,146.7969 L387.3594,146.7969 Z " fill="#000000"/><text fill="#000000" font-family="sans-serif" font-size="14" lengthAdjust="spacing" textLength="48" x="402.5" y="151.7285">Genero</text><line style="stroke:#181818;stroke-width:0.5;" x1="374.5" x2="452.5" y1="162" y2="162"/><text fill="#000000" font-family="sans-serif" font-size="14" lengthAdjust="spacing" textLength="59" x="379.5" y="180.5332">HOMBRE</text><text fill="#000000" font-family="sans-serif" font-size="14" lengthAdjust="spacing" textLength="45" x="379.5" y="198.1426">MUJER</text><text fill="#000000" font-family="sans-serif" font-size="14" lengthAdjust="spacing" textLength="41" x="379.5" y="215.752">OTRO</text><line style="stroke:#181818;stroke-width:0.5;" x1="374.5" x2="452.5" y1="222.8281" y2="222.8281"/></g><!--class Objetivo--><g id="elem_Objetivo"><rect codeLine="42" fill="#F1F1F1" height="100.8281" id="Objetivo" rx="2.5" ry="2.5" style="stroke:#181818;stroke-width:0.5;" width="189" x="7" y="476"/><ellipse cx="71.25" cy="492" fill="#EB937F" rx="11" ry="11" style="stroke:#181818;stroke-width:1.0;"/><path d="M70.1094,492.7969 L70.1094,495.2969 L74.4375,495.2969 L74.4375,494.375 Q74.4375,493.7656 74.6719,493.5 Q74.9219,493.2344 75.2969,493.2344 Q75.6719,493.2344 75.9063,493.5 Q76.1406,493.7656 76.1406,494.375 L76.1406,497 L68.1406,497 Q67.5156,497 67.25,496.7656 Q67,496.5313 67,496.1406 Q67,495.7656 67.2656,495.5313 Q67.5313,495.2969 68.1406,495.2969 L68.4063,495.2969 L68.4063,488.6406 L68.1406,488.6406 Q67.5156,488.6406 67.25,488.4063 Q67,488.1719 67,487.7813 Q67,487.4063 67.25,487.1719 Q67.5156,486.9375 68.1406,486.9375 L75.7656,486.9375 L75.7656,489.5313 Q75.7656,490.1406 75.5313,490.4063 Q75.3125,490.6563 74.9219,490.6563 Q74.5469,490.6563 74.3125,490.4063 Q74.0781,490.1406 74.0781,489.5313 L74.0781,488.6406 L70.1094,488.6406 L70.1094,491.0938 L71.5938,491.0938 Q71.5938,490.4375 71.7188,490.25 Q71.9844,489.8438 72.4531,489.8438 Q72.8281,489.8438 73.0625,490.1094 Q73.2969,490.3594 73.2969,490.9688 L73.2969,492.9375 Q73.2969,493.4844 73.1719,493.6719 Q72.9063,494.0625 72.4531,494.0625 Q71.9844,494.0625 71.7188,493.6563 Q71.5938,493.4688 71.5938,492.7969 L70.1094,492.7969 Z " fill="#000000"/><text fill="#000000" font-family="sans-serif" font-size="14" lengthAdjust="spacing" textLength="52" x="91.75" y="497.7285">Objetivo</text><line style="stroke:#181818;stroke-width:0.5;" x1="8" x2="195" y1="508" y2="508"/><text fill="#000000" font-family="sans-serif" font-size="14" lengthAdjust="spacing" textLength="113" x="13" y="526.5332">PERDER_GRASA</text><text fill="#000000" font-family="sans-serif" font-size="14" lengthAdjust="spacing" textLength="177" x="13" y="544.1426">GANAR_MASA_MUSCULAR</text><text fill="#000000" font-family="sans-serif" font-size="14" lengthAdjust="spacing" textLength="121" x="13" y="561.752">MANTENER_PESO</text><line style="stroke:#181818;stroke-width:0.5;" x1="8" x2="195" y1="568.8281" y2="568.8281"/></g><!--class NivelDeActividad--><g id="elem_NivelDeActividad"><rect codeLine="48" fill="#F1F1F1" height="136.0469" id="NivelDeActividad" rx="2.5" ry="2.5" style="stroke:#181818;stroke-width:0.5;" width="172" x="231.5" y="458.5"/><ellipse cx="262.25" cy="474.5" fill="#EB937F" rx="11" ry="11" style="stroke:#181818;stroke-width:1.0;"/><path d="M261.1094,475.2969 L261.1094,477.7969 L265.4375,477.7969 L265.4375,476.875 Q265.4375,476.2656 265.6719,476 Q265.9219,475.7344 266.2969,475.7344 Q266.6719,475.7344 266.9063,476 Q267.1406,476.2656 267.1406,476.875 L267.1406,479.5 L259.1406,479.5 Q258.5156,479.5 258.25,479.2656 Q258,479.0313 258,478.6406 Q258,478.2656 258.2656,478.0313 Q258.5313,477.7969 259.1406,477.7969 L259.4063,477.7969 L259.4063,471.1406 L259.1406,471.1406 Q258.5156,471.1406 258.25,470.9063 Q258,470.6719 258,470.2813 Q258,469.9063 258.25,469.6719 Q258.5156,469.4375 259.1406,469.4375 L266.7656,469.4375 L266.7656,472.0313 Q266.7656,472.6406 266.5313,472.9063 Q266.3125,473.1563 265.9219,473.1563 Q265.5469,473.1563 265.3125,472.9063 Q265.0781,472.6406 265.0781,472.0313 L265.0781,471.1406 L261.1094,471.1406 L261.1094,473.5938 L262.5938,473.5938 Q262.5938,472.9375 262.7188,472.75 Q262.9844,472.3438 263.4531,472.3438 Q263.8281,472.3438 264.0625,472.6094 Q264.2969,472.8594 264.2969,473.4688 L264.2969,475.4375 Q264.2969,475.9844 264.1719,476.1719 Q263.9063,476.5625 263.4531,476.5625 Q262.9844,476.5625 262.7188,476.1563 Q262.5938,475.9688 262.5938,475.2969 L261.1094,475.2969 Z " fill="#000000"/><text fill="#000000" font-family="sans-serif" font-size="14" lengthAdjust="spacing" textLength="105" x="279.75" y="480.2285">NivelDeActividad</text><line style="stroke:#181818;stroke-width:0.5;" x1="232.5" x2="402.5" y1="490.5" y2="490.5"/><text fill="#000000" font-family="sans-serif" font-size="14" lengthAdjust="spacing" textLength="88" x="237.5" y="509.0332">SEDENTARIO</text><text fill="#000000" font-family="sans-serif" font-size="14" lengthAdjust="spacing" textLength="131" x="237.5" y="526.6426">EJERCICIO_LIGERO</text><text fill="#000000" font-family="sans-serif" font-size="14" lengthAdjust="spacing" textLength="160" x="237.5" y="544.252">EJERCICIO_MODERADO</text><text fill="#000000" font-family="sans-serif" font-size="14" lengthAdjust="spacing" textLength="138" x="237.5" y="561.8613">EJERCICIO_INTENSO</text><text fill="#000000" font-family="sans-serif" font-size="14" lengthAdjust="spacing" textLength="53" x="237.5" y="579.4707">ATLETA</text><line style="stroke:#181818;stroke-width:0.5;" x1="232.5" x2="402.5" y1="586.5469" y2="586.5469"/></g><!--class Usuario--><g id="elem_Usuario"><rect codeLine="60" fill="#F1F1F1" height="241.7031" id="Usuario" rx="2.5" ry="2.5" style="stroke:#181818;stroke-width:0.5;" width="247" x="760" y="59.5"/><ellipse cx="855.25" cy="75.5" fill="#ADD1B2" rx="11" ry="11" style="stroke:#181818;stroke-width:1.0;"/><path d="M858.0156,71.375 Q858.1719,71.1563 858.3594,71.0469 Q858.5469,70.9375 858.7656,70.9375 Q859.1406,70.9375 859.375,71.2031 Q859.6094,71.4531 859.6094,72.0625 L859.6094,73.5156 Q859.6094,74.125 859.375,74.3906 Q859.1406,74.6563 858.7656,74.6563 Q858.4219,74.6563 858.2188,74.4531 Q858.0156,74.2656 857.9063,73.75 Q857.8594,73.3906 857.6719,73.2031 Q857.3438,72.8281 856.7344,72.6094 Q856.125,72.3906 855.5,72.3906 Q854.7344,72.3906 854.0938,72.7188 Q853.4688,73.0469 852.9688,73.7969 Q852.4844,74.5469 852.4844,75.5781 L852.4844,76.6719 Q852.4844,77.9063 853.375,78.7344 Q854.2656,79.5469 855.8594,79.5469 Q856.7969,79.5469 857.4531,79.2969 Q857.8438,79.1406 858.2656,78.7031 Q858.5313,78.4375 858.6719,78.3594 Q858.8281,78.2813 859.0313,78.2813 Q859.3594,78.2813 859.6094,78.5469 Q859.875,78.7969 859.875,79.1406 Q859.875,79.4844 859.5313,79.8906 Q859.0313,80.4688 858.2344,80.7969 Q857.1563,81.25 855.8594,81.25 Q854.3438,81.25 853.1406,80.625 Q852.1563,80.125 851.4688,79.0625 Q850.7813,77.9844 850.7813,76.7031 L850.7813,75.5469 Q850.7813,74.2188 851.3906,73.0781 Q852.0156,71.9219 853.1094,71.3125 Q854.2031,70.6875 855.4375,70.6875 Q856.1719,70.6875 856.8125,70.8594 Q857.4688,71.0156 858.0156,71.375 Z " fill="#000000"/><text fill="#000000" font-family="sans-serif" font-size="14" lengthAdjust="spacing" textLength="48" x="875.75" y="81.2285">Usuario</text><line style="stroke:#181818;stroke-width:0.5;" x1="761" x2="1006" y1="91.5" y2="91.5"/><rect fill="none" height="6" style="stroke:#C82930;stroke-width:1.0;" width="6" x="768" y="102.8047"/><text fill="#000000" font-family="sans-serif" font-size="14" lengthAdjust="spacing" textLength="103" x="780" y="110.0332">idUsuario : Long</text><rect fill="none" height="6" style="stroke:#C82930;stroke-width:1.0;" width="6" x="768" y="120.4141"/><text fill="#000000" font-family="sans-serif" font-size="14" lengthAdjust="spacing" textLength="97" x="780" y="127.6426">nombre : String</text><rect fill="none" height="6" style="stroke:#C82930;stroke-width:1.0;" width="6" x="768" y="138.0234"/><text fill="#000000" font-family="sans-serif" font-size="14" lengthAdjust="spacing" textLength="106" x="780" y="145.252">apellido1 : String</text><rect fill="none" height="6" style="stroke:#C82930;stroke-width:1.0;" width="6" x="768" y="155.6328"/><text fill="#000000" font-family="sans-serif" font-size="14" lengthAdjust="spacing" textLength="142" x="780" y="162.8613">apellido2 : String [0..1]</text><rect fill="none" height="6" style="stroke:#C82930;stroke-width:1.0;" width="6" x="768" y="173.2422"/><text fill="#000000" font-family="sans-serif" font-size="14" lengthAdjust="spacing" textLength="180" x="780" y="180.4707">fechaNacimiento : LocalDate</text><rect fill="none" height="6" style="stroke:#C82930;stroke-width:1.0;" width="6" x="768" y="190.8516"/><text fill="#000000" font-family="sans-serif" font-size="14" lengthAdjust="spacing" textLength="101" x="780" y="198.0801">genero: Genero</text><rect fill="none" height="6" style="stroke:#C82930;stroke-width:1.0;" width="6" x="768" y="208.4609"/><text fill="#000000" font-family="sans-serif" font-size="14" lengthAdjust="spacing" textLength="70" x="780" y="215.6895">peso : float</text><rect fill="none" height="6" style="stroke:#C82930;stroke-width:1.0;" width="6" x="768" y="226.0703"/><text fill="#000000" font-family="sans-serif" font-size="14" lengthAdjust="spacing" textLength="63" x="780" y="233.2988">altura : int</text><rect fill="none" height="6" style="stroke:#C82930;stroke-width:1.0;" width="6" x="768" y="243.6797"/><text fill="#000000" font-family="sans-serif" font-size="14" lengthAdjust="spacing" textLength="100" x="780" y="250.9082">telefono : String</text><rect fill="none" height="6" style="stroke:#C82930;stroke-width:1.0;" width="6" x="768" y="261.2891"/><text fill="#000000" font-family="sans-serif" font-size="14" lengthAdjust="spacing" textLength="221" x="780" y="268.5176">nivelDeActividad : NivelDeActividad</text><rect fill="none" height="6" style="stroke:#C82930;stroke-width:1.0;" width="6" x="768" y="278.8984"/><text fill="#000000" font-family="sans-serif" font-size="14" lengthAdjust="spacing" textLength="113" x="780" y="286.127">objetivo : Objetivo</text><line style="stroke:#181818;stroke-width:0.5;" x1="761" x2="1006" y1="293.2031" y2="293.2031"/></g><!--class Credenciales--><g id="elem_Credenciales"><rect codeLine="74" fill="#F1F1F1" height="100.8281" id="Credenciales" rx="2.5" ry="2.5" style="stroke:#181818;stroke-width:0.5;" width="164" x="438.5" y="476"/><ellipse cx="475.55" cy="492" fill="#ADD1B2" rx="11" ry="11" style="stroke:#181818;stroke-width:1.0;"/><path d="M478.3156,487.875 Q478.4719,487.6563 478.6594,487.5469 Q478.8469,487.4375 479.0656,487.4375 Q479.4406,487.4375 479.675,487.7031 Q479.9094,487.9531 479.9094,488.5625 L479.9094,490.0156 Q479.9094,490.625 479.675,490.8906 Q479.4406,491.1563 479.0656,491.1563 Q478.7219,491.1563 478.5188,490.9531 Q478.3156,490.7656 478.2063,490.25 Q478.1594,489.8906 477.9719,489.7031 Q477.6438,489.3281 477.0344,489.1094 Q476.425,488.8906 475.8,488.8906 Q475.0344,488.8906 474.3938,489.2188 Q473.7688,489.5469 473.2688,490.2969 Q472.7844,491.0469 472.7844,492.0781 L472.7844,493.1719 Q472.7844,494.4063 473.675,495.2344 Q474.5656,496.0469 476.1594,496.0469 Q477.0969,496.0469 477.7531,495.7969 Q478.1438,495.6406 478.5656,495.2031 Q478.8313,494.9375 478.9719,494.8594 Q479.1281,494.7813 479.3313,494.7813 Q479.6594,494.7813 479.9094,495.0469 Q480.175,495.2969 480.175,495.6406 Q480.175,495.9844 479.8313,496.3906 Q479.3313,496.9688 478.5344,497.2969 Q477.4563,497.75 476.1594,497.75 Q474.6438,497.75 473.4406,497.125 Q472.4563,496.625 471.7688,495.5625 Q471.0813,494.4844 471.0813,493.2031 L471.0813,492.0469 Q471.0813,490.7188 471.6906,489.5781 Q472.3156,488.4219 473.4094,487.8125 Q474.5031,487.1875 475.7375,487.1875 Q476.4719,487.1875 477.1125,487.3594 Q477.7688,487.5156 478.3156,487.875 Z " fill="#000000"/><text fill="#000000" font-family="sans-serif" font-size="14" lengthAdjust="spacing" textLength="83" x="494.45" y="497.7285">Credenciales</text><line style="stroke:#181818;stroke-width:0.5;" x1="439.5" x2="601.5" y1="508" y2="508"/><rect fill="none" height="6" style="stroke:#C82930;stroke-width:1.0;" width="6" x="446.5" y="519.3047"/><text fill="#000000" font-family="sans-serif" font-size="14" lengthAdjust="spacing" textLength="138" x="458.5" y="526.5332">idCredenciales : Long</text><rect fill="none" height="6" style="stroke:#C82930;stroke-width:1.0;" width="6" x="446.5" y="536.9141"/><text fill="#000000" font-family="sans-serif" font-size="14" lengthAdjust="spacing" textLength="82" x="458.5" y="544.1426">email : String</text><rect fill="none" height="6" style="stroke:#C82930;stroke-width:1.0;" width="6" x="446.5" y="554.5234"/><text fill="#000000" font-family="sans-serif" font-size="14" lengthAdjust="spacing" textLength="128" x="458.5" y="561.752">contrasenha : String</text><line style="stroke:#181818;stroke-width:0.5;" x1="439.5" x2="601.5" y1="568.8281" y2="568.8281"/></g><!--class HistorialPeso--><g id="elem_HistorialPeso"><rect codeLine="80" fill="#F1F1F1" height="100.8281" id="HistorialPeso" rx="2.5" ry="2.5" style="stroke:#181818;stroke-width:0.5;" width="163" x="638" y="476"/><ellipse cx="675.05" cy="492" fill="#ADD1B2" rx="11" ry="11" style="stroke:#181818;stroke-width:1.0;"/><path d="M677.8156,487.875 Q677.9719,487.6563 678.1594,487.5469 Q678.3469,487.4375 678.5656,487.4375 Q678.9406,487.4375 679.175,487.7031 Q679.4094,487.9531 679.4094,488.5625 L679.4094,490.0156 Q679.4094,490.625 679.175,490.8906 Q678.9406,491.1563 678.5656,491.1563 Q678.2219,491.1563 678.0188,490.9531 Q677.8156,490.7656 677.7063,490.25 Q677.6594,489.8906 677.4719,489.7031 Q677.1438,489.3281 676.5344,489.1094 Q675.925,488.8906 675.3,488.8906 Q674.5344,488.8906 673.8938,489.2188 Q673.2688,489.5469 672.7688,490.2969 Q672.2844,491.0469 672.2844,492.0781 L672.2844,493.1719 Q672.2844,494.4063 673.175,495.2344 Q674.0656,496.0469 675.6594,496.0469 Q676.5969,496.0469 677.2531,495.7969 Q677.6438,495.6406 678.0656,495.2031 Q678.3313,494.9375 678.4719,494.8594 Q678.6281,494.7813 678.8313,494.7813 Q679.1594,494.7813 679.4094,495.0469 Q679.675,495.2969 679.675,495.6406 Q679.675,495.9844 679.3313,496.3906 Q678.8313,496.9688 678.0344,497.2969 Q676.9563,497.75 675.6594,497.75 Q674.1438,497.75 672.9406,497.125 Q671.9563,496.625 671.2688,495.5625 Q670.5813,494.4844 670.5813,493.2031 L670.5813,492.0469 Q670.5813,490.7188 671.1906,489.5781 Q671.8156,488.4219 672.9094,487.8125 Q674.0031,487.1875 675.2375,487.1875 Q675.9719,487.1875 676.6125,487.3594 Q677.2688,487.5156 677.8156,487.875 Z " fill="#000000"/><text fill="#000000" font-family="sans-serif" font-size="14" lengthAdjust="spacing" textLength="82" x="693.95" y="497.7285">HistorialPeso</text><line style="stroke:#181818;stroke-width:0.5;" x1="639" x2="800" y1="508" y2="508"/><rect fill="none" height="6" style="stroke:#C82930;stroke-width:1.0;" width="6" x="646" y="519.3047"/><text fill="#000000" font-family="sans-serif" font-size="14" lengthAdjust="spacing" textLength="137" x="658" y="526.5332">idHistorialPeso : Long</text><rect fill="none" height="6" style="stroke:#C82930;stroke-width:1.0;" width="6" x="646" y="536.9141"/><text fill="#000000" font-family="sans-serif" font-size="14" lengthAdjust="spacing" textLength="70" x="658" y="544.1426">peso : float</text><rect fill="none" height="6" style="stroke:#C82930;stroke-width:1.0;" width="6" x="646" y="554.5234"/><text fill="#000000" font-family="sans-serif" font-size="14" lengthAdjust="spacing" textLength="111" x="658" y="561.752">fecha : LocalDate</text><line style="stroke:#181818;stroke-width:0.5;" x1="639" x2="800" y1="568.8281" y2="568.8281"/></g><!--class RegistroComidaDiaria--><g id="elem_RegistroComidaDiaria"><rect codeLine="86" fill="#F1F1F1" height="153.6563" id="RegistroComidaDiaria" rx="2.5" ry="2.5" style="stroke:#181818;stroke-width:0.5;" width="219" x="775" y="1163"/><ellipse cx="812.05" cy="1179" fill="#ADD1B2" rx="11" ry="11" style="stroke:#181818;stroke-width:1.0;"/><path d="M814.8156,1174.875 Q814.9719,1174.6563 815.1594,1174.5469 Q815.3469,1174.4375 815.5656,1174.4375 Q815.9406,1174.4375 816.175,1174.7031 Q816.4094,1174.9531 816.4094,1175.5625 L816.4094,1177.0156 Q816.4094,1177.625 816.175,1177.8906 Q815.9406,1178.1563 815.5656,1178.1563 Q815.2219,1178.1563 815.0188,1177.9531 Q814.8156,1177.7656 814.7063,1177.25 Q814.6594,1176.8906 814.4719,1176.7031 Q814.1438,1176.3281 813.5344,1176.1094 Q812.925,1175.8906 812.3,1175.8906 Q811.5344,1175.8906 810.8938,1176.2188 Q810.2688,1176.5469 809.7688,1177.2969 Q809.2844,1178.0469 809.2844,1179.0781 L809.2844,1180.1719 Q809.2844,1181.4063 810.175,1182.2344 Q811.0656,1183.0469 812.6594,1183.0469 Q813.5969,1183.0469 814.2531,1182.7969 Q814.6438,1182.6406 815.0656,1182.2031 Q815.3313,1181.9375 815.4719,1181.8594 Q815.6281,1181.7813 815.8313,1181.7813 Q816.1594,1181.7813 816.4094,1182.0469 Q816.675,1182.2969 816.675,1182.6406 Q816.675,1182.9844 816.3313,1183.3906 Q815.8313,1183.9688 815.0344,1184.2969 Q813.9563,1184.75 812.6594,1184.75 Q811.1438,1184.75 809.9406,1184.125 Q808.9563,1183.625 808.2688,1182.5625 Q807.5813,1181.4844 807.5813,1180.2031 L807.5813,1179.0469 Q807.5813,1177.7188 808.1906,1176.5781 Q808.8156,1175.4219 809.9094,1174.8125 Q811.0031,1174.1875 812.2375,1174.1875 Q812.9719,1174.1875 813.6125,1174.3594 Q814.2688,1174.5156 814.8156,1174.875 Z " fill="#000000"/><text fill="#000000" font-family="sans-serif" font-size="14" lengthAdjust="spacing" textLength="138" x="830.95" y="1184.7285">RegistroComidaDiaria</text><line style="stroke:#181818;stroke-width:0.5;" x1="776" x2="993" y1="1195" y2="1195"/><rect fill="none" height="6" style="stroke:#C82930;stroke-width:1.0;" width="6" x="783" y="1206.3047"/><text fill="#000000" font-family="sans-serif" font-size="14" lengthAdjust="spacing" textLength="193" x="795" y="1213.5332">idRegistroComidaDiaria : Long</text><rect fill="none" height="6" style="stroke:#C82930;stroke-width:1.0;" width="6" x="783" y="1223.9141"/><text fill="#000000" font-family="sans-serif" font-size="14" lengthAdjust="spacing" textLength="111" x="795" y="1231.1426">fecha : LocalDate</text><rect fill="none" height="6" style="stroke:#C82930;stroke-width:1.0;" width="6" x="783" y="1241.5234"/><text fill="#000000" font-family="sans-serif" font-size="14" lengthAdjust="spacing" textLength="139" x="795" y="1248.752">/caloriasTotales : float</text><rect fill="none" height="6" style="stroke:#C82930;stroke-width:1.0;" width="6" x="783" y="1259.1328"/><text fill="#000000" font-family="sans-serif" font-size="14" lengthAdjust="spacing" textLength="102" x="795" y="1266.3613">/proteinas : float</text><rect fill="none" height="6" style="stroke:#C82930;stroke-width:1.0;" width="6" x="783" y="1276.7422"/><text fill="#000000" font-family="sans-serif" font-size="14" lengthAdjust="spacing" textLength="130" x="795" y="1283.9707">/carbohidratos : float</text><rect fill="none" height="6" style="stroke:#C82930;stroke-width:1.0;" width="6" x="783" y="1294.3516"/><text fill="#000000" font-family="sans-serif" font-size="14" lengthAdjust="spacing" textLength="86" x="795" y="1301.5801">/grasas : float</text><line style="stroke:#181818;stroke-width:0.5;" x1="776" x2="993" y1="1308.6563" y2="1308.6563"/></g><!--class DietaCompleta--><g id="elem_DietaCompleta"><rect codeLine="95" fill="#F1F1F1" height="188.875" id="DietaCompleta" rx="2.5" ry="2.5" style="stroke:#181818;stroke-width:0.5;" width="183" x="965" y="432"/><ellipse cx="1006.1" cy="448" fill="#ADD1B2" rx="11" ry="11" style="stroke:#181818;stroke-width:1.0;"/><path d="M1008.8656,443.875 Q1009.0219,443.6563 1009.2094,443.5469 Q1009.3969,443.4375 1009.6156,443.4375 Q1009.9906,443.4375 1010.225,443.7031 Q1010.4594,443.9531 1010.4594,444.5625 L1010.4594,446.0156 Q1010.4594,446.625 1010.225,446.8906 Q1009.9906,447.1563 1009.6156,447.1563 Q1009.2719,447.1563 1009.0688,446.9531 Q1008.8656,446.7656 1008.7563,446.25 Q1008.7094,445.8906 1008.5219,445.7031 Q1008.1938,445.3281 1007.5844,445.1094 Q1006.975,444.8906 1006.35,444.8906 Q1005.5844,444.8906 1004.9438,445.2188 Q1004.3188,445.5469 1003.8188,446.2969 Q1003.3344,447.0469 1003.3344,448.0781 L1003.3344,449.1719 Q1003.3344,450.4063 1004.225,451.2344 Q1005.1156,452.0469 1006.7094,452.0469 Q1007.6469,452.0469 1008.3031,451.7969 Q1008.6938,451.6406 1009.1156,451.2031 Q1009.3813,450.9375 1009.5219,450.8594 Q1009.6781,450.7813 1009.8813,450.7813 Q1010.2094,450.7813 1010.4594,451.0469 Q1010.725,451.2969 1010.725,451.6406 Q1010.725,451.9844 1010.3813,452.3906 Q1009.8813,452.9688 1009.0844,453.2969 Q1008.0063,453.75 1006.7094,453.75 Q1005.1938,453.75 1003.9906,453.125 Q1003.0063,452.625 1002.3188,451.5625 Q1001.6313,450.4844 1001.6313,449.2031 L1001.6313,448.0469 Q1001.6313,446.7188 1002.2406,445.5781 Q1002.8656,444.4219 1003.9594,443.8125 Q1005.0531,443.1875 1006.2875,443.1875 Q1007.0219,443.1875 1007.6625,443.3594 Q1008.3188,443.5156 1008.8656,443.875 Z " fill="#000000"/><text fill="#000000" font-family="sans-serif" font-size="14" lengthAdjust="spacing" textLength="93" x="1025.9" y="453.7285">DietaCompleta</text><line style="stroke:#181818;stroke-width:0.5;" x1="966" x2="1147" y1="464" y2="464"/><rect fill="none" height="6" style="stroke:#C82930;stroke-width:1.0;" width="6" x="973" y="475.3047"/><text fill="#000000" font-family="sans-serif" font-size="14" lengthAdjust="spacing" textLength="148" x="985" y="482.5332">idDietaCompleta : Long</text><rect fill="none" height="6" style="stroke:#C82930;stroke-width:1.0;" width="6" x="973" y="492.9141"/><text fill="#000000" font-family="sans-serif" font-size="14" lengthAdjust="spacing" textLength="97" x="985" y="500.1426">nombre : String</text><rect fill="none" height="6" style="stroke:#C82930;stroke-width:1.0;" width="6" x="973" y="510.5234"/><text fill="#000000" font-family="sans-serif" font-size="14" lengthAdjust="spacing" textLength="157" x="985" y="517.752">descripcion : String [0..1]</text><rect fill="none" height="6" style="stroke:#C82930;stroke-width:1.0;" width="6" x="973" y="528.1328"/><text fill="#000000" font-family="sans-serif" font-size="14" lengthAdjust="spacing" textLength="139" x="985" y="535.3613">/caloriasTotales : float</text><rect fill="none" height="6" style="stroke:#C82930;stroke-width:1.0;" width="6" x="973" y="545.7422"/><text fill="#000000" font-family="sans-serif" font-size="14" lengthAdjust="spacing" textLength="102" x="985" y="552.9707">/proteinas : float</text><rect fill="none" height="6" style="stroke:#C82930;stroke-width:1.0;" width="6" x="973" y="563.3516"/><text fill="#000000" font-family="sans-serif" font-size="14" lengthAdjust="spacing" textLength="130" x="985" y="570.5801">/carbohidratos : float</text><rect fill="none" height="6" style="stroke:#C82930;stroke-width:1.0;" width="6" x="973" y="580.9609"/><text fill="#000000" font-family="sans-serif" font-size="14" lengthAdjust="spacing" textLength="86" x="985" y="588.1895">/grasas : float</text><rect fill="none" height="6" style="stroke:#C82930;stroke-width:1.0;" width="6" x="973" y="598.5703"/><text fill="#000000" font-family="sans-serif" font-size="14" lengthAdjust="spacing" textLength="100" x="985" y="605.7988">activa : boolean</text><line style="stroke:#181818;stroke-width:0.5;" x1="966" x2="1147" y1="612.875" y2="612.875"/></g><!--class DiaEnDieta--><g id="elem_DiaEnDieta"><rect codeLine="106" fill="#F1F1F1" height="171.2656" id="DiaEnDieta" rx="2.5" ry="2.5" style="stroke:#181818;stroke-width:0.5;" width="250" x="1018.5" y="682"/><ellipse cx="1103.75" cy="698" fill="#ADD1B2" rx="11" ry="11" style="stroke:#181818;stroke-width:1.0;"/><path d="M1106.5156,693.875 Q1106.6719,693.6563 1106.8594,693.5469 Q1107.0469,693.4375 1107.2656,693.4375 Q1107.6406,693.4375 1107.875,693.7031 Q1108.1094,693.9531 1108.1094,694.5625 L1108.1094,696.0156 Q1108.1094,696.625 1107.875,696.8906 Q1107.6406,697.1563 1107.2656,697.1563 Q1106.9219,697.1563 1106.7188,696.9531 Q1106.5156,696.7656 1106.4063,696.25 Q1106.3594,695.8906 1106.1719,695.7031 Q1105.8438,695.3281 1105.2344,695.1094 Q1104.625,694.8906 1104,694.8906 Q1103.2344,694.8906 1102.5938,695.2188 Q1101.9688,695.5469 1101.4688,696.2969 Q1100.9844,697.0469 1100.9844,698.0781 L1100.9844,699.1719 Q1100.9844,700.4063 1101.875,701.2344 Q1102.7656,702.0469 1104.3594,702.0469 Q1105.2969,702.0469 1105.9531,701.7969 Q1106.3438,701.6406 1106.7656,701.2031 Q1107.0313,700.9375 1107.1719,700.8594 Q1107.3281,700.7813 1107.5313,700.7813 Q1107.8594,700.7813 1108.1094,701.0469 Q1108.375,701.2969 1108.375,701.6406 Q1108.375,701.9844 1108.0313,702.3906 Q1107.5313,702.9688 1106.7344,703.2969 Q1105.6563,703.75 1104.3594,703.75 Q1102.8438,703.75 1101.6406,703.125 Q1100.6563,702.625 1099.9688,701.5625 Q1099.2813,700.4844 1099.2813,699.2031 L1099.2813,698.0469 Q1099.2813,696.7188 1099.8906,695.5781 Q1100.5156,694.4219 1101.6094,693.8125 Q1102.7031,693.1875 1103.9375,693.1875 Q1104.6719,693.1875 1105.3125,693.3594 Q1105.9688,693.5156 1106.5156,693.875 Z " fill="#000000"/><text fill="#000000" font-family="sans-serif" font-size="14" lengthAdjust="spacing" textLength="71" x="1124.25" y="703.7285">DiaEnDieta</text><line style="stroke:#181818;stroke-width:0.5;" x1="1019.5" x2="1267.5" y1="714" y2="714"/><rect fill="none" height="6" style="stroke:#C82930;stroke-width:1.0;" width="6" x="1026.5" y="725.3047"/><text fill="#000000" font-family="sans-serif" font-size="14" lengthAdjust="spacing" textLength="126" x="1038.5" y="732.5332">idDiaEnDieta : Long</text><rect fill="none" height="6" style="stroke:#C82930;stroke-width:1.0;" width="6" x="1026.5" y="742.9141"/><text fill="#000000" font-family="sans-serif" font-size="14" lengthAdjust="spacing" textLength="97" x="1038.5" y="750.1426">nombre : String</text><rect fill="none" height="6" style="stroke:#C82930;stroke-width:1.0;" width="6" x="1026.5" y="760.5234"/><text fill="#000000" font-family="sans-serif" font-size="14" lengthAdjust="spacing" textLength="139" x="1038.5" y="767.752">/caloriasTotales : float</text><rect fill="none" height="6" style="stroke:#C82930;stroke-width:1.0;" width="6" x="1026.5" y="778.1328"/><text fill="#000000" font-family="sans-serif" font-size="14" lengthAdjust="spacing" textLength="102" x="1038.5" y="785.3613">/proteinas : float</text><rect fill="none" height="6" style="stroke:#C82930;stroke-width:1.0;" width="6" x="1026.5" y="795.7422"/><text fill="#000000" font-family="sans-serif" font-size="14" lengthAdjust="spacing" textLength="130" x="1038.5" y="802.9707">/carbohidratos : float</text><rect fill="none" height="6" style="stroke:#C82930;stroke-width:1.0;" width="6" x="1026.5" y="813.3516"/><text fill="#000000" font-family="sans-serif" font-size="14" lengthAdjust="spacing" textLength="86" x="1038.5" y="820.5801">/grasas : float</text><rect fill="none" height="6" style="stroke:#C82930;stroke-width:1.0;" width="6" x="1026.5" y="830.9609"/><text fill="#000000" font-family="sans-serif" font-size="14" lengthAdjust="spacing" textLength="224" x="1038.5" y="838.1895">diaDeLaSemana : DiaDeLaSemana</text><line style="stroke:#181818;stroke-width:0.5;" x1="1019.5" x2="1267.5" y1="845.2656" y2="845.2656"/></g><!--class Comida--><g id="elem_Comida"><rect codeLine="117" fill="#F1F1F1" height="153.6563" id="Comida" rx="2.5" ry="2.5" style="stroke:#181818;stroke-width:0.5;" width="165" x="1061" y="931"/><ellipse cx="1115.25" cy="947" fill="#ADD1B2" rx="11" ry="11" style="stroke:#181818;stroke-width:1.0;"/><path d="M1118.0156,942.875 Q1118.1719,942.6563 1118.3594,942.5469 Q1118.5469,942.4375 1118.7656,942.4375 Q1119.1406,942.4375 1119.375,942.7031 Q1119.6094,942.9531 1119.6094,943.5625 L1119.6094,945.0156 Q1119.6094,945.625 1119.375,945.8906 Q1119.1406,946.1563 1118.7656,946.1563 Q1118.4219,946.1563 1118.2188,945.9531 Q1118.0156,945.7656 1117.9063,945.25 Q1117.8594,944.8906 1117.6719,944.7031 Q1117.3438,944.3281 1116.7344,944.1094 Q1116.125,943.8906 1115.5,943.8906 Q1114.7344,943.8906 1114.0938,944.2188 Q1113.4688,944.5469 1112.9688,945.2969 Q1112.4844,946.0469 1112.4844,947.0781 L1112.4844,948.1719 Q1112.4844,949.4063 1113.375,950.2344 Q1114.2656,951.0469 1115.8594,951.0469 Q1116.7969,951.0469 1117.4531,950.7969 Q1117.8438,950.6406 1118.2656,950.2031 Q1118.5313,949.9375 1118.6719,949.8594 Q1118.8281,949.7813 1119.0313,949.7813 Q1119.3594,949.7813 1119.6094,950.0469 Q1119.875,950.2969 1119.875,950.6406 Q1119.875,950.9844 1119.5313,951.3906 Q1119.0313,951.9688 1118.2344,952.2969 Q1117.1563,952.75 1115.8594,952.75 Q1114.3438,952.75 1113.1406,952.125 Q1112.1563,951.625 1111.4688,950.5625 Q1110.7813,949.4844 1110.7813,948.2031 L1110.7813,947.0469 Q1110.7813,945.7188 1111.3906,944.5781 Q1112.0156,943.4219 1113.1094,942.8125 Q1114.2031,942.1875 1115.4375,942.1875 Q1116.1719,942.1875 1116.8125,942.3594 Q1117.4688,942.5156 1118.0156,942.875 Z " fill="#000000"/><text fill="#000000" font-family="sans-serif" font-size="14" lengthAdjust="spacing" textLength="48" x="1135.75" y="952.7285">Comida</text><line style="stroke:#181818;stroke-width:0.5;" x1="1062" x2="1225" y1="963" y2="963"/><rect fill="none" height="6" style="stroke:#C82930;stroke-width:1.0;" width="6" x="1069" y="974.3047"/><text fill="#000000" font-family="sans-serif" font-size="14" lengthAdjust="spacing" textLength="103" x="1081" y="981.5332">idComida : Long</text><rect fill="none" height="6" style="stroke:#C82930;stroke-width:1.0;" width="6" x="1069" y="991.9141"/><text fill="#000000" font-family="sans-serif" font-size="14" lengthAdjust="spacing" textLength="97" x="1081" y="999.1426">nombre : String</text><rect fill="none" height="6" style="stroke:#C82930;stroke-width:1.0;" width="6" x="1069" y="1009.5234"/><text fill="#000000" font-family="sans-serif" font-size="14" lengthAdjust="spacing" textLength="139" x="1081" y="1016.752">/caloriasTotales : float</text><rect fill="none" height="6" style="stroke:#C82930;stroke-width:1.0;" width="6" x="1069" y="1027.1328"/><text fill="#000000" font-family="sans-serif" font-size="14" lengthAdjust="spacing" textLength="102" x="1081" y="1034.3613">/proteinas : float</text><rect fill="none" height="6" style="stroke:#C82930;stroke-width:1.0;" width="6" x="1069" y="1044.7422"/><text fill="#000000" font-family="sans-serif" font-size="14" lengthAdjust="spacing" textLength="130" x="1081" y="1051.9707">/carbohidratos : float</text><rect fill="none" height="6" style="stroke:#C82930;stroke-width:1.0;" width="6" x="1069" y="1062.3516"/><text fill="#000000" font-family="sans-serif" font-size="14" lengthAdjust="spacing" textLength="86" x="1081" y="1069.5801">/grasas : float</text><line style="stroke:#181818;stroke-width:0.5;" x1="1062" x2="1225" y1="1076.6563" y2="1076.6563"/></g><!--class Ingrediente--><g id="elem_Ingrediente"><rect codeLine="126" fill="#F1F1F1" height="153.6563" id="Ingrediente" rx="2.5" ry="2.5" style="stroke:#181818;stroke-width:0.5;" width="169" x="1079" y="1163"/><ellipse cx="1123.75" cy="1179" fill="#ADD1B2" rx="11" ry="11" style="stroke:#181818;stroke-width:1.0;"/><path d="M1126.5156,1174.875 Q1126.6719,1174.6563 1126.8594,1174.5469 Q1127.0469,1174.4375 1127.2656,1174.4375 Q1127.6406,1174.4375 1127.875,1174.7031 Q1128.1094,1174.9531 1128.1094,1175.5625 L1128.1094,1177.0156 Q1128.1094,1177.625 1127.875,1177.8906 Q1127.6406,1178.1563 1127.2656,1178.1563 Q1126.9219,1178.1563 1126.7188,1177.9531 Q1126.5156,1177.7656 1126.4063,1177.25 Q1126.3594,1176.8906 1126.1719,1176.7031 Q1125.8438,1176.3281 1125.2344,1176.1094 Q1124.625,1175.8906 1124,1175.8906 Q1123.2344,1175.8906 1122.5938,1176.2188 Q1121.9688,1176.5469 1121.4688,1177.2969 Q1120.9844,1178.0469 1120.9844,1179.0781 L1120.9844,1180.1719 Q1120.9844,1181.4063 1121.875,1182.2344 Q1122.7656,1183.0469 1124.3594,1183.0469 Q1125.2969,1183.0469 1125.9531,1182.7969 Q1126.3438,1182.6406 1126.7656,1182.2031 Q1127.0313,1181.9375 1127.1719,1181.8594 Q1127.3281,1181.7813 1127.5313,1181.7813 Q1127.8594,1181.7813 1128.1094,1182.0469 Q1128.375,1182.2969 1128.375,1182.6406 Q1128.375,1182.9844 1128.0313,1183.3906 Q1127.5313,1183.9688 1126.7344,1184.2969 Q1125.6563,1184.75 1124.3594,1184.75 Q1122.8438,1184.75 1121.6406,1184.125 Q1120.6563,1183.625 1119.9688,1182.5625 Q1119.2813,1181.4844 1119.2813,1180.2031 L1119.2813,1179.0469 Q1119.2813,1177.7188 1119.8906,1176.5781 Q1120.5156,1175.4219 1121.6094,1174.8125 Q1122.7031,1174.1875 1123.9375,1174.1875 Q1124.6719,1174.1875 1125.3125,1174.3594 Q1125.9688,1174.5156 1126.5156,1174.875 Z " fill="#000000"/><text fill="#000000" font-family="sans-serif" font-size="14" lengthAdjust="spacing" textLength="71" x="1144.25" y="1184.7285">Ingrediente</text><line style="stroke:#181818;stroke-width:0.5;" x1="1080" x2="1247" y1="1195" y2="1195"/><rect fill="none" height="6" style="stroke:#C82930;stroke-width:1.0;" width="6" x="1087" y="1206.3047"/><text fill="#000000" font-family="sans-serif" font-size="14" lengthAdjust="spacing" textLength="126" x="1099" y="1213.5332">idIngrediente : Long</text><rect fill="none" height="6" style="stroke:#C82930;stroke-width:1.0;" width="6" x="1087" y="1223.9141"/><text fill="#000000" font-family="sans-serif" font-size="14" lengthAdjust="spacing" textLength="143" x="1099" y="1231.1426">cantidadGramos : float</text><rect fill="none" height="6" style="stroke:#C82930;stroke-width:1.0;" width="6" x="1087" y="1241.5234"/><text fill="#000000" font-family="sans-serif" font-size="14" lengthAdjust="spacing" textLength="92" x="1099" y="1248.752">/calorias : float</text><rect fill="none" height="6" style="stroke:#C82930;stroke-width:1.0;" width="6" x="1087" y="1259.1328"/><text fill="#000000" font-family="sans-serif" font-size="14" lengthAdjust="spacing" textLength="102" x="1099" y="1266.3613">/proteinas : float</text><rect fill="none" height="6" style="stroke:#C82930;stroke-width:1.0;" width="6" x="1087" y="1276.7422"/><text fill="#000000" font-family="sans-serif" font-size="14" lengthAdjust="spacing" textLength="130" x="1099" y="1283.9707">/carbohidratos : float</text><rect fill="none" height="6" style="stroke:#C82930;stroke-width:1.0;" width="6" x="1087" y="1294.3516"/><text fill="#000000" font-family="sans-serif" font-size="14" lengthAdjust="spacing" textLength="86" x="1099" y="1301.5801">/grasas : float</text><line style="stroke:#181818;stroke-width:0.5;" x1="1080" x2="1247" y1="1308.6563" y2="1308.6563"/></g><!--class Alimento--><g id="elem_Alimento"><rect codeLine="135" fill="#F1F1F1" height="153.6563" id="Alimento" rx="2.5" ry="2.5" style="stroke:#181818;stroke-width:0.5;" width="206" x="1149.5" y="1378"/><ellipse cx="1221.25" cy="1394" fill="#ADD1B2" rx="11" ry="11" style="stroke:#181818;stroke-width:1.0;"/><path d="M1224.0156,1389.875 Q1224.1719,1389.6563 1224.3594,1389.5469 Q1224.5469,1389.4375 1224.7656,1389.4375 Q1225.1406,1389.4375 1225.375,1389.7031 Q1225.6094,1389.9531 1225.6094,1390.5625 L1225.6094,1392.0156 Q1225.6094,1392.625 1225.375,1392.8906 Q1225.1406,1393.1563 1224.7656,1393.1563 Q1224.4219,1393.1563 1224.2188,1392.9531 Q1224.0156,1392.7656 1223.9063,1392.25 Q1223.8594,1391.8906 1223.6719,1391.7031 Q1223.3438,1391.3281 1222.7344,1391.1094 Q1222.125,1390.8906 1221.5,1390.8906 Q1220.7344,1390.8906 1220.0938,1391.2188 Q1219.4688,1391.5469 1218.9688,1392.2969 Q1218.4844,1393.0469 1218.4844,1394.0781 L1218.4844,1395.1719 Q1218.4844,1396.4063 1219.375,1397.2344 Q1220.2656,1398.0469 1221.8594,1398.0469 Q1222.7969,1398.0469 1223.4531,1397.7969 Q1223.8438,1397.6406 1224.2656,1397.2031 Q1224.5313,1396.9375 1224.6719,1396.8594 Q1224.8281,1396.7813 1225.0313,1396.7813 Q1225.3594,1396.7813 1225.6094,1397.0469 Q1225.875,1397.2969 1225.875,1397.6406 Q1225.875,1397.9844 1225.5313,1398.3906 Q1225.0313,1398.9688 1224.2344,1399.2969 Q1223.1563,1399.75 1221.8594,1399.75 Q1220.3438,1399.75 1219.1406,1399.125 Q1218.1563,1398.625 1217.4688,1397.5625 Q1216.7813,1396.4844 1216.7813,1395.2031 L1216.7813,1394.0469 Q1216.7813,1392.7188 1217.3906,1391.5781 Q1218.0156,1390.4219 1219.1094,1389.8125 Q1220.2031,1389.1875 1221.4375,1389.1875 Q1222.1719,1389.1875 1222.8125,1389.3594 Q1223.4688,1389.5156 1224.0156,1389.875 Z " fill="#000000"/><text fill="#000000" font-family="sans-serif" font-size="14" lengthAdjust="spacing" textLength="54" x="1241.75" y="1399.7285">Alimento</text><line style="stroke:#181818;stroke-width:0.5;" x1="1150.5" x2="1354.5" y1="1410" y2="1410"/><rect fill="none" height="6" style="stroke:#C82930;stroke-width:1.0;" width="6" x="1157.5" y="1421.3047"/><text fill="#000000" font-family="sans-serif" font-size="14" lengthAdjust="spacing" textLength="109" x="1169.5" y="1428.5332">idAlimento : Long</text><rect fill="none" height="6" style="stroke:#C82930;stroke-width:1.0;" width="6" x="1157.5" y="1438.9141"/><text fill="#000000" font-family="sans-serif" font-size="14" lengthAdjust="spacing" textLength="97" x="1169.5" y="1446.1426">nombre : String</text><rect fill="none" height="6" style="stroke:#C82930;stroke-width:1.0;" width="6" x="1157.5" y="1456.5234"/><text fill="#000000" font-family="sans-serif" font-size="14" lengthAdjust="spacing" textLength="142" x="1169.5" y="1463.752">caloriasPor100g : float</text><rect fill="none" height="6" style="stroke:#C82930;stroke-width:1.0;" width="6" x="1157.5" y="1474.1328"/><text fill="#000000" font-family="sans-serif" font-size="14" lengthAdjust="spacing" textLength="152" x="1169.5" y="1481.3613">proteinasPor100g : float</text><rect fill="none" height="6" style="stroke:#C82930;stroke-width:1.0;" width="6" x="1157.5" y="1491.7422"/><text fill="#000000" font-family="sans-serif" font-size="14" lengthAdjust="spacing" textLength="180" x="1169.5" y="1498.9707">carbohidratosPor100g : float</text><rect fill="none" height="6" style="stroke:#C82930;stroke-width:1.0;" width="6" x="1157.5" y="1509.3516"/><text fill="#000000" font-family="sans-serif" font-size="14" lengthAdjust="spacing" textLength="136" x="1169.5" y="1516.5801">grasasPor100g : float</text><line style="stroke:#181818;stroke-width:0.5;" x1="1150.5" x2="1354.5" y1="1523.6563" y2="1523.6563"/></g><!--class RutinaCompleta--><g id="elem_RutinaCompleta"><rect codeLine="144" fill="#F1F1F1" height="100.8281" id="RutinaCompleta" rx="2.5" ry="2.5" style="stroke:#181818;stroke-width:0.5;" width="182" x="1391.5" y="476"/><ellipse cx="1428.55" cy="492" fill="#ADD1B2" rx="11" ry="11" style="stroke:#181818;stroke-width:1.0;"/><path d="M1431.3156,487.875 Q1431.4719,487.6563 1431.6594,487.5469 Q1431.8469,487.4375 1432.0656,487.4375 Q1432.4406,487.4375 1432.675,487.7031 Q1432.9094,487.9531 1432.9094,488.5625 L1432.9094,490.0156 Q1432.9094,490.625 1432.675,490.8906 Q1432.4406,491.1563 1432.0656,491.1563 Q1431.7219,491.1563 1431.5188,490.9531 Q1431.3156,490.7656 1431.2063,490.25 Q1431.1594,489.8906 1430.9719,489.7031 Q1430.6438,489.3281 1430.0344,489.1094 Q1429.425,488.8906 1428.8,488.8906 Q1428.0344,488.8906 1427.3938,489.2188 Q1426.7688,489.5469 1426.2688,490.2969 Q1425.7844,491.0469 1425.7844,492.0781 L1425.7844,493.1719 Q1425.7844,494.4063 1426.675,495.2344 Q1427.5656,496.0469 1429.1594,496.0469 Q1430.0969,496.0469 1430.7531,495.7969 Q1431.1438,495.6406 1431.5656,495.2031 Q1431.8313,494.9375 1431.9719,494.8594 Q1432.1281,494.7813 1432.3313,494.7813 Q1432.6594,494.7813 1432.9094,495.0469 Q1433.175,495.2969 1433.175,495.6406 Q1433.175,495.9844 1432.8313,496.3906 Q1432.3313,496.9688 1431.5344,497.2969 Q1430.4563,497.75 1429.1594,497.75 Q1427.6438,497.75 1426.4406,497.125 Q1425.4563,496.625 1424.7688,495.5625 Q1424.0813,494.4844 1424.0813,493.2031 L1424.0813,492.0469 Q1424.0813,490.7188 1424.6906,489.5781 Q1425.3156,488.4219 1426.4094,487.8125 Q1427.5031,487.1875 1428.7375,487.1875 Q1429.4719,487.1875 1430.1125,487.3594 Q1430.7688,487.5156 1431.3156,487.875 Z " fill="#000000"/><text fill="#000000" font-family="sans-serif" font-size="14" lengthAdjust="spacing" textLength="101" x="1447.45" y="497.7285">RutinaCompleta</text><line style="stroke:#181818;stroke-width:0.5;" x1="1392.5" x2="1572.5" y1="508" y2="508"/><rect fill="none" height="6" style="stroke:#C82930;stroke-width:1.0;" width="6" x="1399.5" y="519.3047"/><text fill="#000000" font-family="sans-serif" font-size="14" lengthAdjust="spacing" textLength="156" x="1411.5" y="526.5332">idRutinaCompleta : Long</text><rect fill="none" height="6" style="stroke:#C82930;stroke-width:1.0;" width="6" x="1399.5" y="536.9141"/><text fill="#000000" font-family="sans-serif" font-size="14" lengthAdjust="spacing" textLength="97" x="1411.5" y="544.1426">nombre : String</text><rect fill="none" height="6" style="stroke:#C82930;stroke-width:1.0;" width="6" x="1399.5" y="554.5234"/><text fill="#000000" font-family="sans-serif" font-size="14" lengthAdjust="spacing" textLength="140" x="1411.5" y="561.752">resumen : String [0..1]</text><line style="stroke:#181818;stroke-width:0.5;" x1="1392.5" x2="1572.5" y1="568.8281" y2="568.8281"/></g><!--class DiaEnRutina--><g id="elem_DiaEnRutina"><rect codeLine="150" fill="#F1F1F1" height="100.8281" id="DiaEnRutina" rx="2.5" ry="2.5" style="stroke:#181818;stroke-width:0.5;" width="250" x="1374.5" y="717"/><ellipse cx="1455.75" cy="733" fill="#ADD1B2" rx="11" ry="11" style="stroke:#181818;stroke-width:1.0;"/><path d="M1458.5156,728.875 Q1458.6719,728.6563 1458.8594,728.5469 Q1459.0469,728.4375 1459.2656,728.4375 Q1459.6406,728.4375 1459.875,728.7031 Q1460.1094,728.9531 1460.1094,729.5625 L1460.1094,731.0156 Q1460.1094,731.625 1459.875,731.8906 Q1459.6406,732.1563 1459.2656,732.1563 Q1458.9219,732.1563 1458.7188,731.9531 Q1458.5156,731.7656 1458.4063,731.25 Q1458.3594,730.8906 1458.1719,730.7031 Q1457.8438,730.3281 1457.2344,730.1094 Q1456.625,729.8906 1456,729.8906 Q1455.2344,729.8906 1454.5938,730.2188 Q1453.9688,730.5469 1453.4688,731.2969 Q1452.9844,732.0469 1452.9844,733.0781 L1452.9844,734.1719 Q1452.9844,735.4063 1453.875,736.2344 Q1454.7656,737.0469 1456.3594,737.0469 Q1457.2969,737.0469 1457.9531,736.7969 Q1458.3438,736.6406 1458.7656,736.2031 Q1459.0313,735.9375 1459.1719,735.8594 Q1459.3281,735.7813 1459.5313,735.7813 Q1459.8594,735.7813 1460.1094,736.0469 Q1460.375,736.2969 1460.375,736.6406 Q1460.375,736.9844 1460.0313,737.3906 Q1459.5313,737.9688 1458.7344,738.2969 Q1457.6563,738.75 1456.3594,738.75 Q1454.8438,738.75 1453.6406,738.125 Q1452.6563,737.625 1451.9688,736.5625 Q1451.2813,735.4844 1451.2813,734.2031 L1451.2813,733.0469 Q1451.2813,731.7188 1451.8906,730.5781 Q1452.5156,729.4219 1453.6094,728.8125 Q1454.7031,728.1875 1455.9375,728.1875 Q1456.6719,728.1875 1457.3125,728.3594 Q1457.9688,728.5156 1458.5156,728.875 Z " fill="#000000"/><text fill="#000000" font-family="sans-serif" font-size="14" lengthAdjust="spacing" textLength="79" x="1476.25" y="738.7285">DiaEnRutina</text><line style="stroke:#181818;stroke-width:0.5;" x1="1375.5" x2="1623.5" y1="749" y2="749"/><rect fill="none" height="6" style="stroke:#C82930;stroke-width:1.0;" width="6" x="1382.5" y="760.3047"/><text fill="#000000" font-family="sans-serif" font-size="14" lengthAdjust="spacing" textLength="126" x="1394.5" y="767.5332">idDiaEnDieta : Long</text><rect fill="none" height="6" style="stroke:#C82930;stroke-width:1.0;" width="6" x="1382.5" y="777.9141"/><text fill="#000000" font-family="sans-serif" font-size="14" lengthAdjust="spacing" textLength="97" x="1394.5" y="785.1426">nombre : String</text><rect fill="none" height="6" style="stroke:#C82930;stroke-width:1.0;" width="6" x="1382.5" y="795.5234"/><text fill="#000000" font-family="sans-serif" font-size="14" lengthAdjust="spacing" textLength="224" x="1394.5" y="802.752">diaDeLaSemana : DiaDeLaSemana</text><line style="stroke:#181818;stroke-width:0.5;" x1="1375.5" x2="1623.5" y1="809.8281" y2="809.8281"/></g><!--class Ejercicio--><g id="elem_Ejercicio"><rect codeLine="156" fill="#F1F1F1" height="100.8281" id="Ejercicio" rx="2.5" ry="2.5" style="stroke:#181818;stroke-width:0.5;" width="202" x="1386.5" y="1189.5"/><ellipse cx="1456.75" cy="1205.5" fill="#ADD1B2" rx="11" ry="11" style="stroke:#181818;stroke-width:1.0;"/><path d="M1459.5156,1201.375 Q1459.6719,1201.1563 1459.8594,1201.0469 Q1460.0469,1200.9375 1460.2656,1200.9375 Q1460.6406,1200.9375 1460.875,1201.2031 Q1461.1094,1201.4531 1461.1094,1202.0625 L1461.1094,1203.5156 Q1461.1094,1204.125 1460.875,1204.3906 Q1460.6406,1204.6563 1460.2656,1204.6563 Q1459.9219,1204.6563 1459.7188,1204.4531 Q1459.5156,1204.2656 1459.4063,1203.75 Q1459.3594,1203.3906 1459.1719,1203.2031 Q1458.8438,1202.8281 1458.2344,1202.6094 Q1457.625,1202.3906 1457,1202.3906 Q1456.2344,1202.3906 1455.5938,1202.7188 Q1454.9688,1203.0469 1454.4688,1203.7969 Q1453.9844,1204.5469 1453.9844,1205.5781 L1453.9844,1206.6719 Q1453.9844,1207.9063 1454.875,1208.7344 Q1455.7656,1209.5469 1457.3594,1209.5469 Q1458.2969,1209.5469 1458.9531,1209.2969 Q1459.3438,1209.1406 1459.7656,1208.7031 Q1460.0313,1208.4375 1460.1719,1208.3594 Q1460.3281,1208.2813 1460.5313,1208.2813 Q1460.8594,1208.2813 1461.1094,1208.5469 Q1461.375,1208.7969 1461.375,1209.1406 Q1461.375,1209.4844 1461.0313,1209.8906 Q1460.5313,1210.4688 1459.7344,1210.7969 Q1458.6563,1211.25 1457.3594,1211.25 Q1455.8438,1211.25 1454.6406,1210.625 Q1453.6563,1210.125 1452.9688,1209.0625 Q1452.2813,1207.9844 1452.2813,1206.7031 L1452.2813,1205.5469 Q1452.2813,1204.2188 1452.8906,1203.0781 Q1453.5156,1201.9219 1454.6094,1201.3125 Q1455.7031,1200.6875 1456.9375,1200.6875 Q1457.6719,1200.6875 1458.3125,1200.8594 Q1458.9688,1201.0156 1459.5156,1201.375 Z " fill="#000000"/><text fill="#000000" font-family="sans-serif" font-size="14" lengthAdjust="spacing" textLength="53" x="1477.25" y="1211.2285">Ejercicio</text><line style="stroke:#181818;stroke-width:0.5;" x1="1387.5" x2="1587.5" y1="1221.5" y2="1221.5"/><rect fill="none" height="6" style="stroke:#C82930;stroke-width:1.0;" width="6" x="1394.5" y="1232.8047"/><text fill="#000000" font-family="sans-serif" font-size="14" lengthAdjust="spacing" textLength="108" x="1406.5" y="1240.0332">idEjercicio : Long</text><rect fill="none" height="6" style="stroke:#C82930;stroke-width:1.0;" width="6" x="1394.5" y="1250.4141"/><text fill="#000000" font-family="sans-serif" font-size="14" lengthAdjust="spacing" textLength="97" x="1406.5" y="1257.6426">nombre : String</text><rect fill="none" height="6" style="stroke:#C82930;stroke-width:1.0;" width="6" x="1394.5" y="1268.0234"/><text fill="#000000" font-family="sans-serif" font-size="14" lengthAdjust="spacing" textLength="176" x="1406.5" y="1275.252">musculoEnfocado : Musculo</text><line style="stroke:#181818;stroke-width:0.5;" x1="1387.5" x2="1587.5" y1="1282.3281" y2="1282.3281"/></g><!--class EjercicioEnDiaRutina--><g id="elem_EjercicioEnDiaRutina"><rect codeLine="162" fill="#F1F1F1" height="65.6094" id="EjercicioEnDiaRutina" rx="2.5" ry="2.5" style="stroke:#181818;stroke-width:0.5;" width="213" x="1393" y="975"/><ellipse cx="1430.05" cy="991" fill="#ADD1B2" rx="11" ry="11" style="stroke:#181818;stroke-width:1.0;"/><path d="M1432.8156,986.875 Q1432.9719,986.6563 1433.1594,986.5469 Q1433.3469,986.4375 1433.5656,986.4375 Q1433.9406,986.4375 1434.175,986.7031 Q1434.4094,986.9531 1434.4094,987.5625 L1434.4094,989.0156 Q1434.4094,989.625 1434.175,989.8906 Q1433.9406,990.1563 1433.5656,990.1563 Q1433.2219,990.1563 1433.0188,989.9531 Q1432.8156,989.7656 1432.7063,989.25 Q1432.6594,988.8906 1432.4719,988.7031 Q1432.1438,988.3281 1431.5344,988.1094 Q1430.925,987.8906 1430.3,987.8906 Q1429.5344,987.8906 1428.8938,988.2188 Q1428.2688,988.5469 1427.7688,989.2969 Q1427.2844,990.0469 1427.2844,991.0781 L1427.2844,992.1719 Q1427.2844,993.4063 1428.175,994.2344 Q1429.0656,995.0469 1430.6594,995.0469 Q1431.5969,995.0469 1432.2531,994.7969 Q1432.6438,994.6406 1433.0656,994.2031 Q1433.3313,993.9375 1433.4719,993.8594 Q1433.6281,993.7813 1433.8313,993.7813 Q1434.1594,993.7813 1434.4094,994.0469 Q1434.675,994.2969 1434.675,994.6406 Q1434.675,994.9844 1434.3313,995.3906 Q1433.8313,995.9688 1433.0344,996.2969 Q1431.9563,996.75 1430.6594,996.75 Q1429.1438,996.75 1427.9406,996.125 Q1426.9563,995.625 1426.2688,994.5625 Q1425.5813,993.4844 1425.5813,992.2031 L1425.5813,991.0469 Q1425.5813,989.7188 1426.1906,988.5781 Q1426.8156,987.4219 1427.9094,986.8125 Q1429.0031,986.1875 1430.2375,986.1875 Q1430.9719,986.1875 1431.6125,986.3594 Q1432.2688,986.5156 1432.8156,986.875 Z " fill="#000000"/><text fill="#000000" font-family="sans-serif" font-size="14" lengthAdjust="spacing" textLength="132" x="1448.95" y="996.7285">EjercicioEnDiaRutina</text><line style="stroke:#181818;stroke-width:0.5;" x1="1394" x2="1605" y1="1007" y2="1007"/><rect fill="none" height="6" style="stroke:#C82930;stroke-width:1.0;" width="6" x="1401" y="1018.3047"/><text fill="#000000" font-family="sans-serif" font-size="14" lengthAdjust="spacing" textLength="187" x="1413" y="1025.5332">idEjercicioEnDiaRutina : Long</text><line style="stroke:#181818;stroke-width:0.5;" x1="1394" x2="1605" y1="1032.6094" y2="1032.6094"/></g><!--class Serie--><g id="elem_Serie"><rect codeLine="166" fill="#F1F1F1" height="118.4375" id="Serie" rx="2.5" ry="2.5" style="stroke:#181818;stroke-width:0.5;" width="192" x="1623.5" y="1181"/><ellipse cx="1698.75" cy="1197" fill="#ADD1B2" rx="11" ry="11" style="stroke:#181818;stroke-width:1.0;"/><path d="M1701.5156,1192.875 Q1701.6719,1192.6563 1701.8594,1192.5469 Q1702.0469,1192.4375 1702.2656,1192.4375 Q1702.6406,1192.4375 1702.875,1192.7031 Q1703.1094,1192.9531 1703.1094,1193.5625 L1703.1094,1195.0156 Q1703.1094,1195.625 1702.875,1195.8906 Q1702.6406,1196.1563 1702.2656,1196.1563 Q1701.9219,1196.1563 1701.7188,1195.9531 Q1701.5156,1195.7656 1701.4063,1195.25 Q1701.3594,1194.8906 1701.1719,1194.7031 Q1700.8438,1194.3281 1700.2344,1194.1094 Q1699.625,1193.8906 1699,1193.8906 Q1698.2344,1193.8906 1697.5938,1194.2188 Q1696.9688,1194.5469 1696.4688,1195.2969 Q1695.9844,1196.0469 1695.9844,1197.0781 L1695.9844,1198.1719 Q1695.9844,1199.4063 1696.875,1200.2344 Q1697.7656,1201.0469 1699.3594,1201.0469 Q1700.2969,1201.0469 1700.9531,1200.7969 Q1701.3438,1200.6406 1701.7656,1200.2031 Q1702.0313,1199.9375 1702.1719,1199.8594 Q1702.3281,1199.7813 1702.5313,1199.7813 Q1702.8594,1199.7813 1703.1094,1200.0469 Q1703.375,1200.2969 1703.375,1200.6406 Q1703.375,1200.9844 1703.0313,1201.3906 Q1702.5313,1201.9688 1701.7344,1202.2969 Q1700.6563,1202.75 1699.3594,1202.75 Q1697.8438,1202.75 1696.6406,1202.125 Q1695.6563,1201.625 1694.9688,1200.5625 Q1694.2813,1199.4844 1694.2813,1198.2031 L1694.2813,1197.0469 Q1694.2813,1195.7188 1694.8906,1194.5781 Q1695.5156,1193.4219 1696.6094,1192.8125 Q1697.7031,1192.1875 1698.9375,1192.1875 Q1699.6719,1192.1875 1700.3125,1192.3594 Q1700.9688,1192.5156 1701.5156,1192.875 Z " fill="#000000"/><text fill="#000000" font-family="sans-serif" font-size="14" lengthAdjust="spacing" textLength="33" x="1719.25" y="1202.7285">Serie</text><line style="stroke:#181818;stroke-width:0.5;" x1="1624.5" x2="1814.5" y1="1213" y2="1213"/><rect fill="none" height="6" style="stroke:#C82930;stroke-width:1.0;" width="6" x="1631.5" y="1224.3047"/><text fill="#000000" font-family="sans-serif" font-size="14" lengthAdjust="spacing" textLength="88" x="1643.5" y="1231.5332">idSerie : Long</text><rect fill="none" height="6" style="stroke:#C82930;stroke-width:1.0;" width="6" x="1631.5" y="1241.9141"/><text fill="#000000" font-family="sans-serif" font-size="14" lengthAdjust="spacing" textLength="166" x="1643.5" y="1249.1426">serieAnterior : String [0..1]</text><rect fill="none" height="6" style="stroke:#C82930;stroke-width:1.0;" width="6" x="1631.5" y="1259.5234"/><text fill="#000000" font-family="sans-serif" font-size="14" lengthAdjust="spacing" textLength="104" x="1643.5" y="1266.752">repeticiones : int</text><rect fill="none" height="6" style="stroke:#C82930;stroke-width:1.0;" width="6" x="1631.5" y="1277.1328"/><text fill="#000000" font-family="sans-serif" font-size="14" lengthAdjust="spacing" textLength="58" x="1643.5" y="1284.3613">peso : int</text><line style="stroke:#181818;stroke-width:0.5;" x1="1624.5" x2="1814.5" y1="1291.4375" y2="1291.4375"/></g><!--reverse link Usuario to DietaCompleta--><g id="link_Usuario_DietaCompleta"><path codeLine="177" d="M949.3997,312.5315 C970.8297,355.1615 989.23,391.73 1009.38,431.81 " fill="none" id="Usuario-backto-DietaCompleta" style="stroke:#181818;stroke-width:1.0;"/><polygon fill="#181818" points="944.01,301.81,943.131,308.9673,949.3997,312.5315,950.2787,305.3742,944.01,301.81" style="stroke:#181818;stroke-width:1.0;"/><text fill="#000000" font-family="sans-serif" font-size="13" lengthAdjust="spacing" textLength="35" x="992.5" y="398.4951">dietas</text><text fill="#000000" font-family="sans-serif" font-size="13" lengthAdjust="spacing" textLength="20" x="984.8283" y="421.141">0..*</text></g><!--reverse link Usuario to Credenciales--><g id="link_Usuario_Credenciales"><path codeLine="179" d="M750.8953,302.1117 C719.3153,331.2117 694.39,354.52 663.5,384 C631.92,414.14 597.08,448.58 569.7,475.94 " fill="none" id="Usuario-backto-Credenciales" style="stroke:#181818;stroke-width:1.0;"/><polygon fill="#181818" points="759.72,293.98,752.5971,295.1043,750.8953,302.1117,758.0182,300.9874,759.72,293.98" style="stroke:#181818;stroke-width:1.0;"/><text fill="#000000" font-family="sans-serif" font-size="13" lengthAdjust="spacing" textLength="73" x="664.5" y="398.4951">credenciales</text></g><!--reverse link Usuario to HistorialPeso--><g id="link_Usuario_HistorialPeso"><path codeLine="181" d="M789.0011,311.7266 C772.6111,337.9566 763.31,356.07 751.5,384 C739.14,413.23 731.2,447.96 726.31,475.7 " fill="none" id="Usuario-backto-HistorialPeso" style="stroke:#181818;stroke-width:1.0;"/><polygon fill="#181818" points="795.36,301.55,788.7883,304.5187,789.0011,311.7266,795.5727,308.758,795.36,301.55" style="stroke:#181818;stroke-width:1.0;"/><text fill="#000000" font-family="sans-serif" font-size="13" lengthAdjust="spacing" textLength="75" x="752.5" y="398.4951">historialPeso</text><text fill="#000000" font-family="sans-serif" font-size="13" lengthAdjust="spacing" textLength="20" x="705.8614" y="464.9632">1..*</text></g><!--reverse link Usuario to RegistroComidaDiaria--><g id="link_Usuario_RegistroComidaDiaria"><path codeLine="183" d="M867.0879,313.8124 C860.0579,379.7524 854.5,451.03 854.5,525.5 C854.5,525.5 854.5,525.5 854.5,1009 C854.5,1060.64 862.03,1118.27 869.54,1162.92 " fill="none" id="Usuario-backto-RegistroComidaDiaria" style="stroke:#181818;stroke-width:1.0;"/><polygon fill="#181818" points="868.36,301.88,863.7465,307.4221,867.0879,313.8124,871.7014,308.2702,868.36,301.88" style="stroke:#181818;stroke-width:1.0;"/><text fill="#000000" font-family="sans-serif" font-size="13" lengthAdjust="spacing" textLength="127" x="855.5" y="772.9951">registrosComidaDiaria</text><text fill="#000000" font-family="sans-serif" font-size="13" lengthAdjust="spacing" textLength="20" x="847.083" y="1152.0743">0..*</text></g><!--link Comida to RegistroComidaDiaria--><g id="link_Comida_RegistroComidaDiaria"><path codeLine="185" d="M1060.84,1082.41 C1031.97,1108.04 1003.9963,1132.8859 974.8763,1158.7459 " fill="none" id="Comida-to-RegistroComidaDiaria" style="stroke:#181818;stroke-width:1.0;"/><polygon fill="#181818" points="970.39,1162.73,979.7755,1159.7448,974.1286,1159.4099,974.4634,1153.763,970.39,1162.73" style="stroke:#181818;stroke-width:1.0;"/><text fill="#000000" font-family="sans-serif" font-size="13" lengthAdjust="spacing" textLength="42" x="1010.9035" y="1085.0163">comida</text><text fill="#000000" font-family="sans-serif" font-size="13" lengthAdjust="spacing" textLength="74" x="901.0498" y="1152.131">registros 0..*</text></g><!--link DietaCompleta to DiaEnDieta--><g id="link_DietaCompleta_DiaEnDieta"><path codeLine="187" d="M1090.64,621.27 C1097.92,641.28 1103.5175,656.662 1110.6675,676.302 " fill="none" id="DietaCompleta-to-DiaEnDieta" style="stroke:#181818;stroke-width:1.0;"/><polygon fill="#181818" points="1112.72,681.94,1113.3999,672.1146,1111.0096,677.2417,1105.8825,674.8513,1112.72,681.94" style="stroke:#181818;stroke-width:1.0;"/><text fill="#000000" font-family="sans-serif" font-size="13" lengthAdjust="spacing" textLength="28" x="1064.119" y="642.3298">dieta</text><text fill="#000000" font-family="sans-serif" font-size="13" lengthAdjust="spacing" textLength="94" x="1011.7927" y="671.1063">diasDeDieta 1..*</text></g><!--reverse link Usuario to RutinaCompleta--><g id="link_Usuario_RutinaCompleta"><path codeLine="189" d="M1018.4598,224.2341 C1116.1398,258.3241 1241.79,310.09 1347.5,384 C1384.09,409.58 1418.71,446.22 1443.73,475.8 " fill="none" id="Usuario-backto-RutinaCompleta" style="stroke:#181818;stroke-width:1.0;"/><polygon fill="#181818" points="1007.13,220.28,1011.4769,226.0337,1018.4598,224.2341,1014.1129,218.4804,1007.13,220.28" style="stroke:#181818;stroke-width:1.0;"/><text fill="#000000" font-family="sans-serif" font-size="13" lengthAdjust="spacing" textLength="39" x="1370.5" y="398.4951">rutinas</text><text fill="#000000" font-family="sans-serif" font-size="13" lengthAdjust="spacing" textLength="20" x="1416.8717" y="465.0772">0..*</text></g><!--link DiaEnDieta to Comida--><g id="link_DiaEnDieta_Comida"><path codeLine="191" d="M1143.5,853.26 C1143.5,878.56 1143.5,900.14 1143.5,924.85 " fill="none" id="DiaEnDieta-to-Comida" style="stroke:#181818;stroke-width:1.0;"/><polygon fill="#181818" points="1143.5,930.85,1147.5,921.85,1143.5,925.85,1139.5,921.85,1143.5,930.85" style="stroke:#181818;stroke-width:1.0;"/><text fill="#000000" font-family="sans-serif" font-size="13" lengthAdjust="spacing" textLength="63" x="1077.793" y="874.8163">diaDeDieta</text><text fill="#000000" font-family="sans-serif" font-size="13" lengthAdjust="spacing" textLength="73" x="1067.0211" y="920.2624">comidas 1..*</text></g><!--link Comida to Ingrediente--><g id="link_Comida_Ingrediente"><path codeLine="193" d="M1150.13,1085.27 C1152.3,1110.24 1154.2003,1132.0025 1156.3703,1156.9625 " fill="none" id="Comida-to-Ingrediente" style="stroke:#181818;stroke-width:1.0;"/><polygon fill="#181818" points="1156.89,1162.94,1160.0955,1153.6274,1156.4569,1157.9588,1152.1255,1154.3203,1156.89,1162.94" style="stroke:#181818;stroke-width:1.0;"/><text fill="#000000" font-family="sans-serif" font-size="13" lengthAdjust="spacing" textLength="42" x="1106.8951" y="1106.1229">comida</text><text fill="#000000" font-family="sans-serif" font-size="13" lengthAdjust="spacing" textLength="94" x="1057.6128" y="1152.0962">ingredientes 1..*</text></g><!--link Ingrediente to Alimento--><g id="link_Ingrediente_Alimento"><path codeLine="195" d="M1195.38,1317.3 C1203.61,1336.99 1210.1585,1352.6531 1218.3785,1372.3431 " fill="none" id="Ingrediente-to-Alimento" style="stroke:#181818;stroke-width:1.0;"/><polygon fill="#181818" points="1220.69,1377.88,1220.914,1368.0337,1218.7638,1373.2659,1213.5315,1371.1157,1220.69,1377.88" style="stroke:#181818;stroke-width:1.0;"/><text fill="#000000" font-family="sans-serif" font-size="13" lengthAdjust="spacing" textLength="94" x="1100.0806" y="1338.1555">ingredientes 0..*</text><text fill="#000000" font-family="sans-serif" font-size="13" lengthAdjust="spacing" textLength="60" x="1154.6056" y="1367.0303">alimento 1</text></g><!--reverse link Usuario to Alimento--><g id="link_Usuario_Alimento"><path codeLine="197" d="M1018.5039,223.6122 C1148.0239,271.9022 1321.5,364.75 1321.5,525.5 C1321.5,525.5 1321.5,525.5 1321.5,1241 C1321.5,1287.84 1306.21,1337.78 1290.03,1377.52 " fill="none" id="Usuario-backto-Alimento" style="stroke:#181818;stroke-width:1.0;"/><polygon fill="#181818" points="1007.26,219.42,1011.4846,225.2641,1018.5039,223.6122,1014.2793,217.7681,1007.26,219.42" style="stroke:#181818;stroke-width:1.0;"/><text fill="#000000" font-family="sans-serif" font-size="13" lengthAdjust="spacing" textLength="121" x="1322.5" y="897.4951">alimentosPersonales</text><text fill="#000000" font-family="sans-serif" font-size="13" lengthAdjust="spacing" textLength="20" x="1272.5679" y="1367.167">0..*</text></g><!--link RutinaCompleta to DiaEnRutina--><g id="link_RutinaCompleta_DiaEnRutina"><path codeLine="199" d="M1486.02,577.02 C1488.93,617.9 1492.6149,669.6751 1495.5249,710.6451 " fill="none" id="RutinaCompleta-to-DiaEnRutina" style="stroke:#181818;stroke-width:1.0;"/><polygon fill="#181818" points="1495.95,716.63,1499.3023,707.3692,1495.5958,711.6426,1491.3224,707.936,1495.95,716.63" style="stroke:#181818;stroke-width:1.0;"/><text fill="#000000" font-family="sans-serif" font-size="13" lengthAdjust="spacing" textLength="32" x="1452.343" y="598.4139">rutina</text><text fill="#000000" font-family="sans-serif" font-size="13" lengthAdjust="spacing" textLength="101" x="1387.687" y="706.2496">diasEnRutina 1..*</text></g><!--link DiaEnRutina to EjercicioEnDiaRutina--><g id="link_DiaEnRutina_EjercicioEnDiaRutina"><path codeLine="201" d="M1499.5,818.21 C1499.5,865.31 1499.5,928.65 1499.5,968.88 " fill="none" id="DiaEnRutina-to-EjercicioEnDiaRutina" style="stroke:#181818;stroke-width:1.0;"/><polygon fill="#181818" points="1499.5,974.88,1503.5,965.88,1499.5,969.88,1495.5,965.88,1499.5,974.88" style="stroke:#181818;stroke-width:1.0;"/><text fill="#000000" font-family="sans-serif" font-size="13" lengthAdjust="spacing" textLength="70" x="1425.0156" y="839.2609">diaEnRutina</text><text fill="#000000" font-family="sans-serif" font-size="13" lengthAdjust="spacing" textLength="140" x="1345.0625" y="963.9707">ejerciciosAsignados 1..*</text></g><!--link EjercicioEnDiaRutina to Ejercicio--><g id="link_EjercicioEnDiaRutina_Ejercicio"><path codeLine="203" d="M1497.81,1041.47 C1495.8,1079.98 1492.743,1138.5882 1490.403,1183.3882 " fill="none" id="EjercicioEnDiaRutina-to-Ejercicio" style="stroke:#181818;stroke-width:1.0;"/><polygon fill="#181818" points="1490.09,1189.38,1494.554,1180.6009,1490.3508,1184.3868,1486.5649,1180.1836,1490.09,1189.38" style="stroke:#181818;stroke-width:1.0;"/><text fill="#000000" font-family="sans-serif" font-size="13" lengthAdjust="spacing" textLength="48" x="1495.5" y="1129.4951">ejercicio</text><text fill="#000000" font-family="sans-serif" font-size="13" lengthAdjust="spacing" textLength="116" x="1371.5508" y="1062.1566">ejercicioUsuario 0..*</text></g><!--link EjercicioEnDiaRutina to Serie--><g id="link_EjercicioEnDiaRutina_Serie"><path codeLine="205" d="M1530.55,1041.47 C1565.14,1077.62 1617.5826,1132.4542 1659.8326,1176.6242 " fill="none" id="EjercicioEnDiaRutina-to-Serie" style="stroke:#181818;stroke-width:1.0;"/><polygon fill="#181818" points="1663.98,1180.96,1660.6495,1171.6913,1660.5239,1177.3468,1654.8684,1177.2212,1663.98,1180.96" style="stroke:#181818;stroke-width:1.0;"/><text fill="#000000" font-family="sans-serif" font-size="13" lengthAdjust="spacing" textLength="102" x="1544.6523" y="1062.1566">ejercicioAsignado</text><text fill="#000000" font-family="sans-serif" font-size="13" lengthAdjust="spacing" textLength="59" x="1594.6182" y="1170.2794">series 0..*</text></g><!--SRC=[nLPBZzis4BxpLn2-10ZWPDtZ0Yr0IuHNWMIvUkIGeZ2uCjVBG1ODIiwbw7_ly25QahLE2ZIeB_8yzCqtmvcXtk5Vt_YXTyw4wRPCQ4R2DCSJqynRY3UN4qukRNMf9SP_eQ2aSPoYfpHPPscEmZJBIKnpjAF1KuhMKK1tEIeo-oJRWgupyYL5Nz8jsSTbiYOPelcEn27P9pIC2FWIU3S2B1AMGP5c04RMmxzf4crDZ4rS5XGSWvA4BaAK_rv6QH6j8-j14ng3nz-EU2XOo6EMynDhcAOVbrjmIqXMw4T4io3LxtqgwMTuV0Q5jkTa3VL19l8czMWRtd0b0SLaJr5IVg8PIeliwf8-V-MT-AQTCFnsD0jfjjza92T6iI5RakqJ4FT9cGTb3FNG-aINQWkkEvfVqRRY6wz3JYg050TsSAWv3Ucs85cK6f42Yo224kxZQ4EpgJ99GtFS4tMa0-OfDcfInBGW41VVQuQh2GSnoMcEPqotBLJLh6rnsLwO4hemIomElVI8OzaSGTN8qxFY8EUT4aR3phoknK6kvfI_U2N-u-73XzMVO7lXrIlRiagS16ywYrsnEcGT1-lH7DwZEqHGd7chVLvgoJgDN7SNnK0X6YrslEOlif73uCtqE1vlJWYyPDy2ZxuRz87QAWIA7tXJ2LRprfLYfFBrW8uLzJ1u9PjEiPOth-ogzhXFeksa0eoTpie2ZtKUUPAtgTgeLXuquqU0K3AG9yWDPWd07FQioOUunLpYZ_1NisaBsRbKUmeVpqfsN3HifAoOUfQlug1O9qU68vHXuEhfXe9t30YTQtWwdcFTdMuxyBPIubm9sSoqrayZ3tsdMqTJUvQovgmPviDeOnBmoNZ5dKn-8jV3Q9q-ZjUh9jvtkUcAlh-jy7ymzgMCcYDCcLuBtB4QQZorYZMTdkADOYSvYMWP_lVKI2rEPbrPNbwyKw-Up4wgrSF3SH35KxerZOZTcYszgVww2YuTm4w6QwAymrZnzW9ftKpMkDSjthzgzkzsf8MdNxcgHEMldwjy1_jaltfeym9hxA1TtNVG3AwcoaRyPqqkcdy_vqhq7Md_Upwj5Wcq9roJQcObANw6kqNlApCmzjPoknq4h8Fym5sECneJ-1xOqX_w7EplxVVB9Lu0bVSBF5sn1ostOrSykUIgWJW1NHdGwTtrEfHdQRnn8ocdReTwXDnIMbJckS3BvMzuuNtnsv08ZVDTc7GT07HZ6tBRj2jNdBwBvqbF9qWPHQkZ-FPVc2OFRHmRoD9kNH3BxpOfwokkcwv_OR3y41fkmh6pvMX0MB-MLWk_iMOp6kol_frsnrKh6tlMaumNDk6UgowWtmE32bgDguepQ-TUS2nvFtCjQSMnWQ7jCvwRHeHcP_IAqgTthSDmRtYtx-BqP1nBCzbzTStKety0]--></g></svg>