<?xml version="1.0" encoding="us-ascii" standalone="no"?><svg xmlns="http://www.w3.org/2000/svg" xmlns:xlink="http://www.w3.org/1999/xlink" contentStyleType="text/css" height="1286px" preserveAspectRatio="none" style="width:1312px;height:1286px;background:#FFFFFF;" version="1.1" viewBox="0 0 1312 1286" width="1312px" zoomAndPan="magnify"><defs/><g><!--class Musculo--><g id="elem_Musculo"><rect codeLine="6" fill="#F1F1F1" height="347.3594" id="Musculo" rx="2.5" ry="2.5" style="stroke:#181818;stroke-width:0.5;" width="125" x="39" y="7"/><ellipse cx="72.45" cy="23" fill="#EB937F" rx="11" ry="11" style="stroke:#181818;stroke-width:1.0;"/><path d="M71.3094,23.7969 L71.3094,26.2969 L75.6375,26.2969 L75.6375,25.375 Q75.6375,24.7656 75.8719,24.5 Q76.1219,24.2344 76.4969,24.2344 Q76.8719,24.2344 77.1063,24.5 Q77.3406,24.7656 77.3406,25.375 L77.3406,28 L69.3406,28 Q68.7156,28 68.45,27.7656 Q68.2,27.5313 68.2,27.1406 Q68.2,26.7656 68.4656,26.5313 Q68.7313,26.2969 69.3406,26.2969 L69.6063,26.2969 L69.6063,19.6406 L69.3406,19.6406 Q68.7156,19.6406 68.45,19.4063 Q68.2,19.1719 68.2,18.7813 Q68.2,18.4063 68.45,18.1719 Q68.7156,17.9375 69.3406,17.9375 L76.9656,17.9375 L76.9656,20.5313 Q76.9656,21.1406 76.7313,21.4063 Q76.5125,21.6563 76.1219,21.6563 Q75.7469,21.6563 75.5125,21.4063 Q75.2781,21.1406 75.2781,20.5313 L75.2781,19.6406 L71.3094,19.6406 L71.3094,22.0938 L72.7938,22.0938 Q72.7938,21.4375 72.9188,21.25 Q73.1844,20.8438 73.6531,20.8438 Q74.0281,20.8438 74.2625,21.1094 Q74.4969,21.3594 74.4969,21.9688 L74.4969,23.9375 Q74.4969,24.4844 74.3719,24.6719 Q74.1063,25.0625 73.6531,25.0625 Q73.1844,25.0625 72.9188,24.6563 Q72.7938,24.4688 72.7938,23.7969 L71.3094,23.7969 Z " fill="#000000"/><text fill="#000000" font-family="sans-serif" font-size="14" lengthAdjust="spacing" textLength="52" x="90.55" y="28.7285">Musculo</text><line style="stroke:#181818;stroke-width:0.5;" x1="40" x2="163" y1="39" y2="39"/><text fill="#000000" font-family="sans-serif" font-size="14" lengthAdjust="spacing" textLength="55" x="45" y="57.5332">CUELLO</text><text fill="#000000" font-family="sans-serif" font-size="14" lengthAdjust="spacing" textLength="70" x="45" y="75.1426">HOMBROS</text><text fill="#000000" font-family="sans-serif" font-size="14" lengthAdjust="spacing" textLength="75" x="45" y="92.752">DORSALES</text><text fill="#000000" font-family="sans-serif" font-size="14" lengthAdjust="spacing" textLength="48" x="45" y="110.3613">PECHO</text><text fill="#000000" font-family="sans-serif" font-size="14" lengthAdjust="spacing" textLength="49" x="45" y="127.9707">BICEPS</text><text fill="#000000" font-family="sans-serif" font-size="14" lengthAdjust="spacing" textLength="59" x="45" y="145.5801">TRICEPS</text><text fill="#000000" font-family="sans-serif" font-size="14" lengthAdjust="spacing" textLength="83" x="45" y="163.1895">ANTEBRAZO</text><text fill="#000000" font-family="sans-serif" font-size="14" lengthAdjust="spacing" textLength="101" x="45" y="180.7988">ZONA_LUMBAR</text><text fill="#000000" font-family="sans-serif" font-size="14" lengthAdjust="spacing" textLength="113" x="45" y="198.4082">ESPALDA_MEDIA</text><text fill="#000000" font-family="sans-serif" font-size="14" lengthAdjust="spacing" textLength="79" x="45" y="216.0176">TRAPECIOS</text><text fill="#000000" font-family="sans-serif" font-size="14" lengthAdjust="spacing" textLength="86" x="45" y="233.627">ADUCTORES</text><text fill="#000000" font-family="sans-serif" font-size="14" lengthAdjust="spacing" textLength="95" x="45" y="251.2363">ABDUCTORES</text><text fill="#000000" font-family="sans-serif" font-size="14" lengthAdjust="spacing" textLength="97" x="45" y="268.8457">ABDOMINALES</text><text fill="#000000" font-family="sans-serif" font-size="14" lengthAdjust="spacing" textLength="66" x="45" y="286.4551">GLUTEOS</text><text fill="#000000" font-family="sans-serif" font-size="14" lengthAdjust="spacing" textLength="88" x="45" y="304.0645">CUADRICEPS</text><text fill="#000000" font-family="sans-serif" font-size="14" lengthAdjust="spacing" textLength="105" x="45" y="321.6738">ISQUIOTIBIALES</text><text fill="#000000" font-family="sans-serif" font-size="14" lengthAdjust="spacing" textLength="68" x="45" y="339.2832">GEMELOS</text><line style="stroke:#181818;stroke-width:0.5;" x1="40" x2="163" y1="346.3594" y2="346.3594"/></g><!--class DiaDeLaSemana--><g id="elem_DiaDeLaSemana"><rect codeLine="26" fill="#F1F1F1" height="171.2656" id="DiaDeLaSemana" rx="2.5" ry="2.5" style="stroke:#181818;stroke-width:0.5;" width="139" x="199" y="95"/><ellipse cx="214" cy="111" fill="#EB937F" rx="11" ry="11" style="stroke:#181818;stroke-width:1.0;"/><path d="M212.8594,111.7969 L212.8594,114.2969 L217.1875,114.2969 L217.1875,113.375 Q217.1875,112.7656 217.4219,112.5 Q217.6719,112.2344 218.0469,112.2344 Q218.4219,112.2344 218.6563,112.5 Q218.8906,112.7656 218.8906,113.375 L218.8906,116 L210.8906,116 Q210.2656,116 210,115.7656 Q209.75,115.5313 209.75,115.1406 Q209.75,114.7656 210.0156,114.5313 Q210.2813,114.2969 210.8906,114.2969 L211.1563,114.2969 L211.1563,107.6406 L210.8906,107.6406 Q210.2656,107.6406 210,107.4063 Q209.75,107.1719 209.75,106.7813 Q209.75,106.4063 210,106.1719 Q210.2656,105.9375 210.8906,105.9375 L218.5156,105.9375 L218.5156,108.5313 Q218.5156,109.1406 218.2813,109.4063 Q218.0625,109.6563 217.6719,109.6563 Q217.2969,109.6563 217.0625,109.4063 Q216.8281,109.1406 216.8281,108.5313 L216.8281,107.6406 L212.8594,107.6406 L212.8594,110.0938 L214.3438,110.0938 Q214.3438,109.4375 214.4688,109.25 Q214.7344,108.8438 215.2031,108.8438 Q215.5781,108.8438 215.8125,109.1094 Q216.0469,109.3594 216.0469,109.9688 L216.0469,111.9375 Q216.0469,112.4844 215.9219,112.6719 Q215.6563,113.0625 215.2031,113.0625 Q214.7344,113.0625 214.4688,112.6563 Q214.3438,112.4688 214.3438,111.7969 L212.8594,111.7969 Z " fill="#000000"/><text fill="#000000" font-family="sans-serif" font-size="14" lengthAdjust="spacing" textLength="107" x="228" y="116.7285">DiaDeLaSemana</text><line style="stroke:#181818;stroke-width:0.5;" x1="200" x2="337" y1="127" y2="127"/><text fill="#000000" font-family="sans-serif" font-size="14" lengthAdjust="spacing" textLength="44" x="205" y="145.5332">LUNES</text><text fill="#000000" font-family="sans-serif" font-size="14" lengthAdjust="spacing" textLength="57" x="205" y="163.1426">MARTES</text><text fill="#000000" font-family="sans-serif" font-size="14" lengthAdjust="spacing" textLength="80" x="205" y="180.752">MIERCOLES</text><text fill="#000000" font-family="sans-serif" font-size="14" lengthAdjust="spacing" textLength="51" x="205" y="198.3613">JUEVES</text><text fill="#000000" font-family="sans-serif" font-size="14" lengthAdjust="spacing" textLength="58" x="205" y="215.9707">VIERNES</text><text fill="#000000" font-family="sans-serif" font-size="14" lengthAdjust="spacing" textLength="57" x="205" y="233.5801">SABADO</text><text fill="#000000" font-family="sans-serif" font-size="14" lengthAdjust="spacing" textLength="66" x="205" y="251.1895">DOMINGO</text><line style="stroke:#181818;stroke-width:0.5;" x1="200" x2="337" y1="258.2656" y2="258.2656"/></g><!--class Genero--><g id="elem_Genero"><rect codeLine="36" fill="#F1F1F1" height="100.8281" id="Genero" rx="2.5" ry="2.5" style="stroke:#181818;stroke-width:0.5;" width="80" x="373.5" y="130"/><ellipse cx="388.5" cy="146" fill="#EB937F" rx="11" ry="11" style="stroke:#181818;stroke-width:1.0;"/><path d="M387.3594,146.7969 L387.3594,149.2969 L391.6875,149.2969 L391.6875,148.375 Q391.6875,147.7656 391.9219,147.5 Q392.1719,147.2344 392.5469,147.2344 Q392.9219,147.2344 393.1563,147.5 Q393.3906,147.7656 393.3906,148.375 L393.3906,151 L385.3906,151 Q384.7656,151 384.5,150.7656 Q384.25,150.5313 384.25,150.1406 Q384.25,149.7656 384.5156,149.5313 Q384.7813,149.2969 385.3906,149.2969 L385.6563,149.2969 L385.6563,142.6406 L385.3906,142.6406 Q384.7656,142.6406 384.5,142.4063 Q384.25,142.1719 384.25,141.7813 Q384.25,141.4063 384.5,141.1719 Q384.7656,140.9375 385.3906,140.9375 L393.0156,140.9375 L393.0156,143.5313 Q393.0156,144.1406 392.7813,144.4063 Q392.5625,144.6563 392.1719,144.6563 Q391.7969,144.6563 391.5625,144.4063 Q391.3281,144.1406 391.3281,143.5313 L391.3281,142.6406 L387.3594,142.6406 L387.3594,145.0938 L388.8438,145.0938 Q388.8438,144.4375 388.9688,144.25 Q389.2344,143.8438 389.7031,143.8438 Q390.0781,143.8438 390.3125,144.1094 Q390.5469,144.3594 390.5469,144.9688 L390.5469,146.9375 Q390.5469,147.4844 390.4219,147.6719 Q390.1563,148.0625 389.7031,148.0625 Q389.2344,148.0625 388.9688,147.6563 Q388.8438,147.4688 388.8438,146.7969 L387.3594,146.7969 Z " fill="#000000"/><text fill="#000000" font-family="sans-serif" font-size="14" lengthAdjust="spacing" textLength="48" x="402.5" y="151.7285">Genero</text><line style="stroke:#181818;stroke-width:0.5;" x1="374.5" x2="452.5" y1="162" y2="162"/><text fill="#000000" font-family="sans-serif" font-size="14" lengthAdjust="spacing" textLength="59" x="379.5" y="180.5332">HOMBRE</text><text fill="#000000" font-family="sans-serif" font-size="14" lengthAdjust="spacing" textLength="45" x="379.5" y="198.1426">MUJER</text><text fill="#000000" font-family="sans-serif" font-size="14" lengthAdjust="spacing" textLength="41" x="379.5" y="215.752">OTRO</text><line style="stroke:#181818;stroke-width:0.5;" x1="374.5" x2="452.5" y1="222.8281" y2="222.8281"/></g><!--class Objetivo--><g id="elem_Objetivo"><rect codeLine="42" fill="#F1F1F1" height="100.8281" id="Objetivo" rx="2.5" ry="2.5" style="stroke:#181818;stroke-width:0.5;" width="189" x="7" y="458"/><ellipse cx="71.25" cy="474" fill="#EB937F" rx="11" ry="11" style="stroke:#181818;stroke-width:1.0;"/><path d="M70.1094,474.7969 L70.1094,477.2969 L74.4375,477.2969 L74.4375,476.375 Q74.4375,475.7656 74.6719,475.5 Q74.9219,475.2344 75.2969,475.2344 Q75.6719,475.2344 75.9063,475.5 Q76.1406,475.7656 76.1406,476.375 L76.1406,479 L68.1406,479 Q67.5156,479 67.25,478.7656 Q67,478.5313 67,478.1406 Q67,477.7656 67.2656,477.5313 Q67.5313,477.2969 68.1406,477.2969 L68.4063,477.2969 L68.4063,470.6406 L68.1406,470.6406 Q67.5156,470.6406 67.25,470.4063 Q67,470.1719 67,469.7813 Q67,469.4063 67.25,469.1719 Q67.5156,468.9375 68.1406,468.9375 L75.7656,468.9375 L75.7656,471.5313 Q75.7656,472.1406 75.5313,472.4063 Q75.3125,472.6563 74.9219,472.6563 Q74.5469,472.6563 74.3125,472.4063 Q74.0781,472.1406 74.0781,471.5313 L74.0781,470.6406 L70.1094,470.6406 L70.1094,473.0938 L71.5938,473.0938 Q71.5938,472.4375 71.7188,472.25 Q71.9844,471.8438 72.4531,471.8438 Q72.8281,471.8438 73.0625,472.1094 Q73.2969,472.3594 73.2969,472.9688 L73.2969,474.9375 Q73.2969,475.4844 73.1719,475.6719 Q72.9063,476.0625 72.4531,476.0625 Q71.9844,476.0625 71.7188,475.6563 Q71.5938,475.4688 71.5938,474.7969 L70.1094,474.7969 Z " fill="#000000"/><text fill="#000000" font-family="sans-serif" font-size="14" lengthAdjust="spacing" textLength="52" x="91.75" y="479.7285">Objetivo</text><line style="stroke:#181818;stroke-width:0.5;" x1="8" x2="195" y1="490" y2="490"/><text fill="#000000" font-family="sans-serif" font-size="14" lengthAdjust="spacing" textLength="113" x="13" y="508.5332">PERDER_GRASA</text><text fill="#000000" font-family="sans-serif" font-size="14" lengthAdjust="spacing" textLength="177" x="13" y="526.1426">GANAR_MASA_MUSCULAR</text><text fill="#000000" font-family="sans-serif" font-size="14" lengthAdjust="spacing" textLength="121" x="13" y="543.752">MANTENER_PESO</text><line style="stroke:#181818;stroke-width:0.5;" x1="8" x2="195" y1="550.8281" y2="550.8281"/></g><!--class NivelDeActividad--><g id="elem_NivelDeActividad"><rect codeLine="48" fill="#F1F1F1" height="136.0469" id="NivelDeActividad" rx="2.5" ry="2.5" style="stroke:#181818;stroke-width:0.5;" width="172" x="231.5" y="440.5"/><ellipse cx="262.25" cy="456.5" fill="#EB937F" rx="11" ry="11" style="stroke:#181818;stroke-width:1.0;"/><path d="M261.1094,457.2969 L261.1094,459.7969 L265.4375,459.7969 L265.4375,458.875 Q265.4375,458.2656 265.6719,458 Q265.9219,457.7344 266.2969,457.7344 Q266.6719,457.7344 266.9063,458 Q267.1406,458.2656 267.1406,458.875 L267.1406,461.5 L259.1406,461.5 Q258.5156,461.5 258.25,461.2656 Q258,461.0313 258,460.6406 Q258,460.2656 258.2656,460.0313 Q258.5313,459.7969 259.1406,459.7969 L259.4063,459.7969 L259.4063,453.1406 L259.1406,453.1406 Q258.5156,453.1406 258.25,452.9063 Q258,452.6719 258,452.2813 Q258,451.9063 258.25,451.6719 Q258.5156,451.4375 259.1406,451.4375 L266.7656,451.4375 L266.7656,454.0313 Q266.7656,454.6406 266.5313,454.9063 Q266.3125,455.1563 265.9219,455.1563 Q265.5469,455.1563 265.3125,454.9063 Q265.0781,454.6406 265.0781,454.0313 L265.0781,453.1406 L261.1094,453.1406 L261.1094,455.5938 L262.5938,455.5938 Q262.5938,454.9375 262.7188,454.75 Q262.9844,454.3438 263.4531,454.3438 Q263.8281,454.3438 264.0625,454.6094 Q264.2969,454.8594 264.2969,455.4688 L264.2969,457.4375 Q264.2969,457.9844 264.1719,458.1719 Q263.9063,458.5625 263.4531,458.5625 Q262.9844,458.5625 262.7188,458.1563 Q262.5938,457.9688 262.5938,457.2969 L261.1094,457.2969 Z " fill="#000000"/><text fill="#000000" font-family="sans-serif" font-size="14" lengthAdjust="spacing" textLength="105" x="279.75" y="462.2285">NivelDeActividad</text><line style="stroke:#181818;stroke-width:0.5;" x1="232.5" x2="402.5" y1="472.5" y2="472.5"/><text fill="#000000" font-family="sans-serif" font-size="14" lengthAdjust="spacing" textLength="88" x="237.5" y="491.0332">SEDENTARIO</text><text fill="#000000" font-family="sans-serif" font-size="14" lengthAdjust="spacing" textLength="131" x="237.5" y="508.6426">EJERCICIO_LIGERO</text><text fill="#000000" font-family="sans-serif" font-size="14" lengthAdjust="spacing" textLength="160" x="237.5" y="526.252">EJERCICIO_MODERADO</text><text fill="#000000" font-family="sans-serif" font-size="14" lengthAdjust="spacing" textLength="138" x="237.5" y="543.8613">EJERCICIO_INTENSO</text><text fill="#000000" font-family="sans-serif" font-size="14" lengthAdjust="spacing" textLength="53" x="237.5" y="561.4707">ATLETA</text><line style="stroke:#181818;stroke-width:0.5;" x1="232.5" x2="402.5" y1="568.5469" y2="568.5469"/></g><!--class Usuario--><g id="elem_Usuario"><rect codeLine="60" fill="#F1F1F1" height="241.7031" id="Usuario" rx="2.5" ry="2.5" style="stroke:#181818;stroke-width:0.5;" width="247" x="721" y="59.5"/><ellipse cx="816.25" cy="75.5" fill="#ADD1B2" rx="11" ry="11" style="stroke:#181818;stroke-width:1.0;"/><path d="M819.0156,71.375 Q819.1719,71.1563 819.3594,71.0469 Q819.5469,70.9375 819.7656,70.9375 Q820.1406,70.9375 820.375,71.2031 Q820.6094,71.4531 820.6094,72.0625 L820.6094,73.5156 Q820.6094,74.125 820.375,74.3906 Q820.1406,74.6563 819.7656,74.6563 Q819.4219,74.6563 819.2188,74.4531 Q819.0156,74.2656 818.9063,73.75 Q818.8594,73.3906 818.6719,73.2031 Q818.3438,72.8281 817.7344,72.6094 Q817.125,72.3906 816.5,72.3906 Q815.7344,72.3906 815.0938,72.7188 Q814.4688,73.0469 813.9688,73.7969 Q813.4844,74.5469 813.4844,75.5781 L813.4844,76.6719 Q813.4844,77.9063 814.375,78.7344 Q815.2656,79.5469 816.8594,79.5469 Q817.7969,79.5469 818.4531,79.2969 Q818.8438,79.1406 819.2656,78.7031 Q819.5313,78.4375 819.6719,78.3594 Q819.8281,78.2813 820.0313,78.2813 Q820.3594,78.2813 820.6094,78.5469 Q820.875,78.7969 820.875,79.1406 Q820.875,79.4844 820.5313,79.8906 Q820.0313,80.4688 819.2344,80.7969 Q818.1563,81.25 816.8594,81.25 Q815.3438,81.25 814.1406,80.625 Q813.1563,80.125 812.4688,79.0625 Q811.7813,77.9844 811.7813,76.7031 L811.7813,75.5469 Q811.7813,74.2188 812.3906,73.0781 Q813.0156,71.9219 814.1094,71.3125 Q815.2031,70.6875 816.4375,70.6875 Q817.1719,70.6875 817.8125,70.8594 Q818.4688,71.0156 819.0156,71.375 Z " fill="#000000"/><text fill="#000000" font-family="sans-serif" font-size="14" lengthAdjust="spacing" textLength="48" x="836.75" y="81.2285">Usuario</text><line style="stroke:#181818;stroke-width:0.5;" x1="722" x2="967" y1="91.5" y2="91.5"/><rect fill="none" height="6" style="stroke:#C82930;stroke-width:1.0;" width="6" x="729" y="102.8047"/><text fill="#000000" font-family="sans-serif" font-size="14" lengthAdjust="spacing" textLength="103" x="741" y="110.0332">idUsuario : Long</text><rect fill="none" height="6" style="stroke:#C82930;stroke-width:1.0;" width="6" x="729" y="120.4141"/><text fill="#000000" font-family="sans-serif" font-size="14" lengthAdjust="spacing" textLength="97" x="741" y="127.6426">nombre : String</text><rect fill="none" height="6" style="stroke:#C82930;stroke-width:1.0;" width="6" x="729" y="138.0234"/><text fill="#000000" font-family="sans-serif" font-size="14" lengthAdjust="spacing" textLength="106" x="741" y="145.252">apellido1 : String</text><rect fill="none" height="6" style="stroke:#C82930;stroke-width:1.0;" width="6" x="729" y="155.6328"/><text fill="#000000" font-family="sans-serif" font-size="14" lengthAdjust="spacing" textLength="142" x="741" y="162.8613">apellido2 : String [0..1]</text><rect fill="none" height="6" style="stroke:#C82930;stroke-width:1.0;" width="6" x="729" y="173.2422"/><text fill="#000000" font-family="sans-serif" font-size="14" lengthAdjust="spacing" textLength="180" x="741" y="180.4707">fechaNacimiento : LocalDate</text><rect fill="none" height="6" style="stroke:#C82930;stroke-width:1.0;" width="6" x="729" y="190.8516"/><text fill="#000000" font-family="sans-serif" font-size="14" lengthAdjust="spacing" textLength="101" x="741" y="198.0801">genero: Genero</text><rect fill="none" height="6" style="stroke:#C82930;stroke-width:1.0;" width="6" x="729" y="208.4609"/><text fill="#000000" font-family="sans-serif" font-size="14" lengthAdjust="spacing" textLength="70" x="741" y="215.6895">peso : float</text><rect fill="none" height="6" style="stroke:#C82930;stroke-width:1.0;" width="6" x="729" y="226.0703"/><text fill="#000000" font-family="sans-serif" font-size="14" lengthAdjust="spacing" textLength="63" x="741" y="233.2988">altura : int</text><rect fill="none" height="6" style="stroke:#C82930;stroke-width:1.0;" width="6" x="729" y="243.6797"/><text fill="#000000" font-family="sans-serif" font-size="14" lengthAdjust="spacing" textLength="100" x="741" y="250.9082">telefono : String</text><rect fill="none" height="6" style="stroke:#C82930;stroke-width:1.0;" width="6" x="729" y="261.2891"/><text fill="#000000" font-family="sans-serif" font-size="14" lengthAdjust="spacing" textLength="221" x="741" y="268.5176">nivelDeActividad : NivelDeActividad</text><rect fill="none" height="6" style="stroke:#C82930;stroke-width:1.0;" width="6" x="729" y="278.8984"/><text fill="#000000" font-family="sans-serif" font-size="14" lengthAdjust="spacing" textLength="113" x="741" y="286.127">objetivo : Objetivo</text><line style="stroke:#181818;stroke-width:0.5;" x1="722" x2="967" y1="293.2031" y2="293.2031"/></g><!--class Credenciales--><g id="elem_Credenciales"><rect codeLine="74" fill="#F1F1F1" height="100.8281" id="Credenciales" rx="2.5" ry="2.5" style="stroke:#181818;stroke-width:0.5;" width="164" x="438.5" y="458"/><ellipse cx="475.55" cy="474" fill="#ADD1B2" rx="11" ry="11" style="stroke:#181818;stroke-width:1.0;"/><path d="M478.3156,469.875 Q478.4719,469.6563 478.6594,469.5469 Q478.8469,469.4375 479.0656,469.4375 Q479.4406,469.4375 479.675,469.7031 Q479.9094,469.9531 479.9094,470.5625 L479.9094,472.0156 Q479.9094,472.625 479.675,472.8906 Q479.4406,473.1563 479.0656,473.1563 Q478.7219,473.1563 478.5188,472.9531 Q478.3156,472.7656 478.2063,472.25 Q478.1594,471.8906 477.9719,471.7031 Q477.6438,471.3281 477.0344,471.1094 Q476.425,470.8906 475.8,470.8906 Q475.0344,470.8906 474.3938,471.2188 Q473.7688,471.5469 473.2688,472.2969 Q472.7844,473.0469 472.7844,474.0781 L472.7844,475.1719 Q472.7844,476.4063 473.675,477.2344 Q474.5656,478.0469 476.1594,478.0469 Q477.0969,478.0469 477.7531,477.7969 Q478.1438,477.6406 478.5656,477.2031 Q478.8313,476.9375 478.9719,476.8594 Q479.1281,476.7813 479.3313,476.7813 Q479.6594,476.7813 479.9094,477.0469 Q480.175,477.2969 480.175,477.6406 Q480.175,477.9844 479.8313,478.3906 Q479.3313,478.9688 478.5344,479.2969 Q477.4563,479.75 476.1594,479.75 Q474.6438,479.75 473.4406,479.125 Q472.4563,478.625 471.7688,477.5625 Q471.0813,476.4844 471.0813,475.2031 L471.0813,474.0469 Q471.0813,472.7188 471.6906,471.5781 Q472.3156,470.4219 473.4094,469.8125 Q474.5031,469.1875 475.7375,469.1875 Q476.4719,469.1875 477.1125,469.3594 Q477.7688,469.5156 478.3156,469.875 Z " fill="#000000"/><text fill="#000000" font-family="sans-serif" font-size="14" lengthAdjust="spacing" textLength="83" x="494.45" y="479.7285">Credenciales</text><line style="stroke:#181818;stroke-width:0.5;" x1="439.5" x2="601.5" y1="490" y2="490"/><rect fill="none" height="6" style="stroke:#C82930;stroke-width:1.0;" width="6" x="446.5" y="501.3047"/><text fill="#000000" font-family="sans-serif" font-size="14" lengthAdjust="spacing" textLength="138" x="458.5" y="508.5332">idCredenciales : Long</text><rect fill="none" height="6" style="stroke:#C82930;stroke-width:1.0;" width="6" x="446.5" y="518.9141"/><text fill="#000000" font-family="sans-serif" font-size="14" lengthAdjust="spacing" textLength="82" x="458.5" y="526.1426">email : String</text><rect fill="none" height="6" style="stroke:#C82930;stroke-width:1.0;" width="6" x="446.5" y="536.5234"/><text fill="#000000" font-family="sans-serif" font-size="14" lengthAdjust="spacing" textLength="128" x="458.5" y="543.752">contrasenha : String</text><line style="stroke:#181818;stroke-width:0.5;" x1="439.5" x2="601.5" y1="550.8281" y2="550.8281"/></g><!--class DietaCompleta--><g id="elem_DietaCompleta"><rect codeLine="80" fill="#F1F1F1" height="188.875" id="DietaCompleta" rx="2.5" ry="2.5" style="stroke:#181818;stroke-width:0.5;" width="183" x="638" y="414"/><ellipse cx="679.1" cy="430" fill="#ADD1B2" rx="11" ry="11" style="stroke:#181818;stroke-width:1.0;"/><path d="M681.8656,425.875 Q682.0219,425.6563 682.2094,425.5469 Q682.3969,425.4375 682.6156,425.4375 Q682.9906,425.4375 683.225,425.7031 Q683.4594,425.9531 683.4594,426.5625 L683.4594,428.0156 Q683.4594,428.625 683.225,428.8906 Q682.9906,429.1563 682.6156,429.1563 Q682.2719,429.1563 682.0688,428.9531 Q681.8656,428.7656 681.7563,428.25 Q681.7094,427.8906 681.5219,427.7031 Q681.1938,427.3281 680.5844,427.1094 Q679.975,426.8906 679.35,426.8906 Q678.5844,426.8906 677.9438,427.2188 Q677.3188,427.5469 676.8188,428.2969 Q676.3344,429.0469 676.3344,430.0781 L676.3344,431.1719 Q676.3344,432.4063 677.225,433.2344 Q678.1156,434.0469 679.7094,434.0469 Q680.6469,434.0469 681.3031,433.7969 Q681.6938,433.6406 682.1156,433.2031 Q682.3813,432.9375 682.5219,432.8594 Q682.6781,432.7813 682.8813,432.7813 Q683.2094,432.7813 683.4594,433.0469 Q683.725,433.2969 683.725,433.6406 Q683.725,433.9844 683.3813,434.3906 Q682.8813,434.9688 682.0844,435.2969 Q681.0063,435.75 679.7094,435.75 Q678.1938,435.75 676.9906,435.125 Q676.0063,434.625 675.3188,433.5625 Q674.6313,432.4844 674.6313,431.2031 L674.6313,430.0469 Q674.6313,428.7188 675.2406,427.5781 Q675.8656,426.4219 676.9594,425.8125 Q678.0531,425.1875 679.2875,425.1875 Q680.0219,425.1875 680.6625,425.3594 Q681.3188,425.5156 681.8656,425.875 Z " fill="#000000"/><text fill="#000000" font-family="sans-serif" font-size="14" lengthAdjust="spacing" textLength="93" x="698.9" y="435.7285">DietaCompleta</text><line style="stroke:#181818;stroke-width:0.5;" x1="639" x2="820" y1="446" y2="446"/><rect fill="none" height="6" style="stroke:#C82930;stroke-width:1.0;" width="6" x="646" y="457.3047"/><text fill="#000000" font-family="sans-serif" font-size="14" lengthAdjust="spacing" textLength="88" x="658" y="464.5332">idDieta : Long</text><rect fill="none" height="6" style="stroke:#C82930;stroke-width:1.0;" width="6" x="646" y="474.9141"/><text fill="#000000" font-family="sans-serif" font-size="14" lengthAdjust="spacing" textLength="97" x="658" y="482.1426">nombre : String</text><rect fill="none" height="6" style="stroke:#C82930;stroke-width:1.0;" width="6" x="646" y="492.5234"/><text fill="#000000" font-family="sans-serif" font-size="14" lengthAdjust="spacing" textLength="157" x="658" y="499.752">descripcion : String [0..1]</text><rect fill="none" height="6" style="stroke:#C82930;stroke-width:1.0;" width="6" x="646" y="510.1328"/><text fill="#000000" font-family="sans-serif" font-size="14" lengthAdjust="spacing" textLength="139" x="658" y="517.3613">/caloriasTotales : float</text><rect fill="none" height="6" style="stroke:#C82930;stroke-width:1.0;" width="6" x="646" y="527.7422"/><text fill="#000000" font-family="sans-serif" font-size="14" lengthAdjust="spacing" textLength="102" x="658" y="534.9707">/proteinas : float</text><rect fill="none" height="6" style="stroke:#C82930;stroke-width:1.0;" width="6" x="646" y="545.3516"/><text fill="#000000" font-family="sans-serif" font-size="14" lengthAdjust="spacing" textLength="130" x="658" y="552.5801">/carbohidratos : float</text><rect fill="none" height="6" style="stroke:#C82930;stroke-width:1.0;" width="6" x="646" y="562.9609"/><text fill="#000000" font-family="sans-serif" font-size="14" lengthAdjust="spacing" textLength="86" x="658" y="570.1895">/grasas : float</text><rect fill="none" height="6" style="stroke:#C82930;stroke-width:1.0;" width="6" x="646" y="580.5703"/><text fill="#000000" font-family="sans-serif" font-size="14" lengthAdjust="spacing" textLength="100" x="658" y="587.7988">activa : boolean</text><line style="stroke:#181818;stroke-width:0.5;" x1="639" x2="820" y1="594.875" y2="594.875"/></g><!--class DiaEnDieta--><g id="elem_DiaEnDieta"><rect codeLine="91" fill="#F1F1F1" height="171.2656" id="DiaEnDieta" rx="2.5" ry="2.5" style="stroke:#181818;stroke-width:0.5;" width="250" x="604.5" y="663"/><ellipse cx="689.75" cy="679" fill="#ADD1B2" rx="11" ry="11" style="stroke:#181818;stroke-width:1.0;"/><path d="M692.5156,674.875 Q692.6719,674.6563 692.8594,674.5469 Q693.0469,674.4375 693.2656,674.4375 Q693.6406,674.4375 693.875,674.7031 Q694.1094,674.9531 694.1094,675.5625 L694.1094,677.0156 Q694.1094,677.625 693.875,677.8906 Q693.6406,678.1563 693.2656,678.1563 Q692.9219,678.1563 692.7188,677.9531 Q692.5156,677.7656 692.4063,677.25 Q692.3594,676.8906 692.1719,676.7031 Q691.8438,676.3281 691.2344,676.1094 Q690.625,675.8906 690,675.8906 Q689.2344,675.8906 688.5938,676.2188 Q687.9688,676.5469 687.4688,677.2969 Q686.9844,678.0469 686.9844,679.0781 L686.9844,680.1719 Q686.9844,681.4063 687.875,682.2344 Q688.7656,683.0469 690.3594,683.0469 Q691.2969,683.0469 691.9531,682.7969 Q692.3438,682.6406 692.7656,682.2031 Q693.0313,681.9375 693.1719,681.8594 Q693.3281,681.7813 693.5313,681.7813 Q693.8594,681.7813 694.1094,682.0469 Q694.375,682.2969 694.375,682.6406 Q694.375,682.9844 694.0313,683.3906 Q693.5313,683.9688 692.7344,684.2969 Q691.6563,684.75 690.3594,684.75 Q688.8438,684.75 687.6406,684.125 Q686.6563,683.625 685.9688,682.5625 Q685.2813,681.4844 685.2813,680.2031 L685.2813,679.0469 Q685.2813,677.7188 685.8906,676.5781 Q686.5156,675.4219 687.6094,674.8125 Q688.7031,674.1875 689.9375,674.1875 Q690.6719,674.1875 691.3125,674.3594 Q691.9688,674.5156 692.5156,674.875 Z " fill="#000000"/><text fill="#000000" font-family="sans-serif" font-size="14" lengthAdjust="spacing" textLength="71" x="710.25" y="684.7285">DiaEnDieta</text><line style="stroke:#181818;stroke-width:0.5;" x1="605.5" x2="853.5" y1="695" y2="695"/><rect fill="none" height="6" style="stroke:#C82930;stroke-width:1.0;" width="6" x="612.5" y="706.3047"/><text fill="#000000" font-family="sans-serif" font-size="14" lengthAdjust="spacing" textLength="126" x="624.5" y="713.5332">idDiaEnDieta : Long</text><rect fill="none" height="6" style="stroke:#C82930;stroke-width:1.0;" width="6" x="612.5" y="723.9141"/><text fill="#000000" font-family="sans-serif" font-size="14" lengthAdjust="spacing" textLength="97" x="624.5" y="731.1426">nombre : String</text><rect fill="none" height="6" style="stroke:#C82930;stroke-width:1.0;" width="6" x="612.5" y="741.5234"/><text fill="#000000" font-family="sans-serif" font-size="14" lengthAdjust="spacing" textLength="139" x="624.5" y="748.752">/caloriasTotales : float</text><rect fill="none" height="6" style="stroke:#C82930;stroke-width:1.0;" width="6" x="612.5" y="759.1328"/><text fill="#000000" font-family="sans-serif" font-size="14" lengthAdjust="spacing" textLength="102" x="624.5" y="766.3613">/proteinas : float</text><rect fill="none" height="6" style="stroke:#C82930;stroke-width:1.0;" width="6" x="612.5" y="776.7422"/><text fill="#000000" font-family="sans-serif" font-size="14" lengthAdjust="spacing" textLength="130" x="624.5" y="783.9707">/carbohidratos : float</text><rect fill="none" height="6" style="stroke:#C82930;stroke-width:1.0;" width="6" x="612.5" y="794.3516"/><text fill="#000000" font-family="sans-serif" font-size="14" lengthAdjust="spacing" textLength="86" x="624.5" y="801.5801">/grasas : float</text><rect fill="none" height="6" style="stroke:#C82930;stroke-width:1.0;" width="6" x="612.5" y="811.9609"/><text fill="#000000" font-family="sans-serif" font-size="14" lengthAdjust="spacing" textLength="224" x="624.5" y="819.1895">diaDeLaSemana : DiaDeLaSemana</text><line style="stroke:#181818;stroke-width:0.5;" x1="605.5" x2="853.5" y1="826.2656" y2="826.2656"/></g><!--class Comida--><g id="elem_Comida"><rect codeLine="102" fill="#F1F1F1" height="153.6563" id="Comida" rx="2.5" ry="2.5" style="stroke:#181818;stroke-width:0.5;" width="165" x="647" y="894"/><ellipse cx="701.25" cy="910" fill="#ADD1B2" rx="11" ry="11" style="stroke:#181818;stroke-width:1.0;"/><path d="M704.0156,905.875 Q704.1719,905.6563 704.3594,905.5469 Q704.5469,905.4375 704.7656,905.4375 Q705.1406,905.4375 705.375,905.7031 Q705.6094,905.9531 705.6094,906.5625 L705.6094,908.0156 Q705.6094,908.625 705.375,908.8906 Q705.1406,909.1563 704.7656,909.1563 Q704.4219,909.1563 704.2188,908.9531 Q704.0156,908.7656 703.9063,908.25 Q703.8594,907.8906 703.6719,907.7031 Q703.3438,907.3281 702.7344,907.1094 Q702.125,906.8906 701.5,906.8906 Q700.7344,906.8906 700.0938,907.2188 Q699.4688,907.5469 698.9688,908.2969 Q698.4844,909.0469 698.4844,910.0781 L698.4844,911.1719 Q698.4844,912.4063 699.375,913.2344 Q700.2656,914.0469 701.8594,914.0469 Q702.7969,914.0469 703.4531,913.7969 Q703.8438,913.6406 704.2656,913.2031 Q704.5313,912.9375 704.6719,912.8594 Q704.8281,912.7813 705.0313,912.7813 Q705.3594,912.7813 705.6094,913.0469 Q705.875,913.2969 705.875,913.6406 Q705.875,913.9844 705.5313,914.3906 Q705.0313,914.9688 704.2344,915.2969 Q703.1563,915.75 701.8594,915.75 Q700.3438,915.75 699.1406,915.125 Q698.1563,914.625 697.4688,913.5625 Q696.7813,912.4844 696.7813,911.2031 L696.7813,910.0469 Q696.7813,908.7188 697.3906,907.5781 Q698.0156,906.4219 699.1094,905.8125 Q700.2031,905.1875 701.4375,905.1875 Q702.1719,905.1875 702.8125,905.3594 Q703.4688,905.5156 704.0156,905.875 Z " fill="#000000"/><text fill="#000000" font-family="sans-serif" font-size="14" lengthAdjust="spacing" textLength="48" x="721.75" y="915.7285">Comida</text><line style="stroke:#181818;stroke-width:0.5;" x1="648" x2="811" y1="926" y2="926"/><rect fill="none" height="6" style="stroke:#C82930;stroke-width:1.0;" width="6" x="655" y="937.3047"/><text fill="#000000" font-family="sans-serif" font-size="14" lengthAdjust="spacing" textLength="103" x="667" y="944.5332">idComida : Long</text><rect fill="none" height="6" style="stroke:#C82930;stroke-width:1.0;" width="6" x="655" y="954.9141"/><text fill="#000000" font-family="sans-serif" font-size="14" lengthAdjust="spacing" textLength="97" x="667" y="962.1426">nombre : String</text><rect fill="none" height="6" style="stroke:#C82930;stroke-width:1.0;" width="6" x="655" y="972.5234"/><text fill="#000000" font-family="sans-serif" font-size="14" lengthAdjust="spacing" textLength="139" x="667" y="979.752">/caloriasTotales : float</text><rect fill="none" height="6" style="stroke:#C82930;stroke-width:1.0;" width="6" x="655" y="990.1328"/><text fill="#000000" font-family="sans-serif" font-size="14" lengthAdjust="spacing" textLength="102" x="667" y="997.3613">/proteinas : float</text><rect fill="none" height="6" style="stroke:#C82930;stroke-width:1.0;" width="6" x="655" y="1007.7422"/><text fill="#000000" font-family="sans-serif" font-size="14" lengthAdjust="spacing" textLength="130" x="667" y="1014.9707">/carbohidratos : float</text><rect fill="none" height="6" style="stroke:#C82930;stroke-width:1.0;" width="6" x="655" y="1025.3516"/><text fill="#000000" font-family="sans-serif" font-size="14" lengthAdjust="spacing" textLength="86" x="667" y="1032.5801">/grasas : float</text><line style="stroke:#181818;stroke-width:0.5;" x1="648" x2="811" y1="1039.6563" y2="1039.6563"/></g><!--class Ingrediente--><g id="elem_Ingrediente"><rect codeLine="111" fill="#F1F1F1" height="171.2656" id="Ingrediente" rx="2.5" ry="2.5" style="stroke:#181818;stroke-width:0.5;" width="169" x="645" y="1108"/><ellipse cx="689.75" cy="1124" fill="#ADD1B2" rx="11" ry="11" style="stroke:#181818;stroke-width:1.0;"/><path d="M692.5156,1119.875 Q692.6719,1119.6563 692.8594,1119.5469 Q693.0469,1119.4375 693.2656,1119.4375 Q693.6406,1119.4375 693.875,1119.7031 Q694.1094,1119.9531 694.1094,1120.5625 L694.1094,1122.0156 Q694.1094,1122.625 693.875,1122.8906 Q693.6406,1123.1563 693.2656,1123.1563 Q692.9219,1123.1563 692.7188,1122.9531 Q692.5156,1122.7656 692.4063,1122.25 Q692.3594,1121.8906 692.1719,1121.7031 Q691.8438,1121.3281 691.2344,1121.1094 Q690.625,1120.8906 690,1120.8906 Q689.2344,1120.8906 688.5938,1121.2188 Q687.9688,1121.5469 687.4688,1122.2969 Q686.9844,1123.0469 686.9844,1124.0781 L686.9844,1125.1719 Q686.9844,1126.4063 687.875,1127.2344 Q688.7656,1128.0469 690.3594,1128.0469 Q691.2969,1128.0469 691.9531,1127.7969 Q692.3438,1127.6406 692.7656,1127.2031 Q693.0313,1126.9375 693.1719,1126.8594 Q693.3281,1126.7813 693.5313,1126.7813 Q693.8594,1126.7813 694.1094,1127.0469 Q694.375,1127.2969 694.375,1127.6406 Q694.375,1127.9844 694.0313,1128.3906 Q693.5313,1128.9688 692.7344,1129.2969 Q691.6563,1129.75 690.3594,1129.75 Q688.8438,1129.75 687.6406,1129.125 Q686.6563,1128.625 685.9688,1127.5625 Q685.2813,1126.4844 685.2813,1125.2031 L685.2813,1124.0469 Q685.2813,1122.7188 685.8906,1121.5781 Q686.5156,1120.4219 687.6094,1119.8125 Q688.7031,1119.1875 689.9375,1119.1875 Q690.6719,1119.1875 691.3125,1119.3594 Q691.9688,1119.5156 692.5156,1119.875 Z " fill="#000000"/><text fill="#000000" font-family="sans-serif" font-size="14" lengthAdjust="spacing" textLength="71" x="710.25" y="1129.7285">Ingrediente</text><line style="stroke:#181818;stroke-width:0.5;" x1="646" x2="813" y1="1140" y2="1140"/><rect fill="none" height="6" style="stroke:#C82930;stroke-width:1.0;" width="6" x="653" y="1151.3047"/><text fill="#000000" font-family="sans-serif" font-size="14" lengthAdjust="spacing" textLength="126" x="665" y="1158.5332">idIngrediente : Long</text><rect fill="none" height="6" style="stroke:#C82930;stroke-width:1.0;" width="6" x="653" y="1168.9141"/><text fill="#000000" font-family="sans-serif" font-size="14" lengthAdjust="spacing" textLength="97" x="665" y="1176.1426">nombre : String</text><rect fill="none" height="6" style="stroke:#C82930;stroke-width:1.0;" width="6" x="653" y="1186.5234"/><text fill="#000000" font-family="sans-serif" font-size="14" lengthAdjust="spacing" textLength="143" x="665" y="1193.752">cantidadGramos : float</text><rect fill="none" height="6" style="stroke:#C82930;stroke-width:1.0;" width="6" x="653" y="1204.1328"/><text fill="#000000" font-family="sans-serif" font-size="14" lengthAdjust="spacing" textLength="92" x="665" y="1211.3613">/calorias : float</text><rect fill="none" height="6" style="stroke:#C82930;stroke-width:1.0;" width="6" x="653" y="1221.7422"/><text fill="#000000" font-family="sans-serif" font-size="14" lengthAdjust="spacing" textLength="102" x="665" y="1228.9707">/proteinas : float</text><rect fill="none" height="6" style="stroke:#C82930;stroke-width:1.0;" width="6" x="653" y="1239.3516"/><text fill="#000000" font-family="sans-serif" font-size="14" lengthAdjust="spacing" textLength="130" x="665" y="1246.5801">/carbohidratos : float</text><rect fill="none" height="6" style="stroke:#C82930;stroke-width:1.0;" width="6" x="653" y="1256.9609"/><text fill="#000000" font-family="sans-serif" font-size="14" lengthAdjust="spacing" textLength="86" x="665" y="1264.1895">/grasas : float</text><line style="stroke:#181818;stroke-width:0.5;" x1="646" x2="813" y1="1271.2656" y2="1271.2656"/></g><!--class Alimento--><g id="elem_Alimento"><rect codeLine="121" fill="#F1F1F1" height="153.6563" id="Alimento" rx="2.5" ry="2.5" style="stroke:#181818;stroke-width:0.5;" width="206" x="856.5" y="431.5"/><ellipse cx="928.25" cy="447.5" fill="#ADD1B2" rx="11" ry="11" style="stroke:#181818;stroke-width:1.0;"/><path d="M931.0156,443.375 Q931.1719,443.1563 931.3594,443.0469 Q931.5469,442.9375 931.7656,442.9375 Q932.1406,442.9375 932.375,443.2031 Q932.6094,443.4531 932.6094,444.0625 L932.6094,445.5156 Q932.6094,446.125 932.375,446.3906 Q932.1406,446.6563 931.7656,446.6563 Q931.4219,446.6563 931.2188,446.4531 Q931.0156,446.2656 930.9063,445.75 Q930.8594,445.3906 930.6719,445.2031 Q930.3438,444.8281 929.7344,444.6094 Q929.125,444.3906 928.5,444.3906 Q927.7344,444.3906 927.0938,444.7188 Q926.4688,445.0469 925.9688,445.7969 Q925.4844,446.5469 925.4844,447.5781 L925.4844,448.6719 Q925.4844,449.9063 926.375,450.7344 Q927.2656,451.5469 928.8594,451.5469 Q929.7969,451.5469 930.4531,451.2969 Q930.8438,451.1406 931.2656,450.7031 Q931.5313,450.4375 931.6719,450.3594 Q931.8281,450.2813 932.0313,450.2813 Q932.3594,450.2813 932.6094,450.5469 Q932.875,450.7969 932.875,451.1406 Q932.875,451.4844 932.5313,451.8906 Q932.0313,452.4688 931.2344,452.7969 Q930.1563,453.25 928.8594,453.25 Q927.3438,453.25 926.1406,452.625 Q925.1563,452.125 924.4688,451.0625 Q923.7813,449.9844 923.7813,448.7031 L923.7813,447.5469 Q923.7813,446.2188 924.3906,445.0781 Q925.0156,443.9219 926.1094,443.3125 Q927.2031,442.6875 928.4375,442.6875 Q929.1719,442.6875 929.8125,442.8594 Q930.4688,443.0156 931.0156,443.375 Z " fill="#000000"/><text fill="#000000" font-family="sans-serif" font-size="14" lengthAdjust="spacing" textLength="54" x="948.75" y="453.2285">Alimento</text><line style="stroke:#181818;stroke-width:0.5;" x1="857.5" x2="1061.5" y1="463.5" y2="463.5"/><rect fill="none" height="6" style="stroke:#C82930;stroke-width:1.0;" width="6" x="864.5" y="474.8047"/><text fill="#000000" font-family="sans-serif" font-size="14" lengthAdjust="spacing" textLength="109" x="876.5" y="482.0332">idAlimento : Long</text><rect fill="none" height="6" style="stroke:#C82930;stroke-width:1.0;" width="6" x="864.5" y="492.4141"/><text fill="#000000" font-family="sans-serif" font-size="14" lengthAdjust="spacing" textLength="97" x="876.5" y="499.6426">nombre : String</text><rect fill="none" height="6" style="stroke:#C82930;stroke-width:1.0;" width="6" x="864.5" y="510.0234"/><text fill="#000000" font-family="sans-serif" font-size="14" lengthAdjust="spacing" textLength="142" x="876.5" y="517.252">caloriasPor100g : float</text><rect fill="none" height="6" style="stroke:#C82930;stroke-width:1.0;" width="6" x="864.5" y="527.6328"/><text fill="#000000" font-family="sans-serif" font-size="14" lengthAdjust="spacing" textLength="152" x="876.5" y="534.8613">proteinasPor100g : float</text><rect fill="none" height="6" style="stroke:#C82930;stroke-width:1.0;" width="6" x="864.5" y="545.2422"/><text fill="#000000" font-family="sans-serif" font-size="14" lengthAdjust="spacing" textLength="180" x="876.5" y="552.4707">carbohidratosPor100g : float</text><rect fill="none" height="6" style="stroke:#C82930;stroke-width:1.0;" width="6" x="864.5" y="562.8516"/><text fill="#000000" font-family="sans-serif" font-size="14" lengthAdjust="spacing" textLength="136" x="876.5" y="570.0801">grasasPor100g : float</text><line style="stroke:#181818;stroke-width:0.5;" x1="857.5" x2="1061.5" y1="577.1563" y2="577.1563"/></g><!--class RutinaCompleta--><g id="elem_RutinaCompleta"><rect codeLine="130" fill="#F1F1F1" height="100.8281" id="RutinaCompleta" rx="2.5" ry="2.5" style="stroke:#181818;stroke-width:0.5;" width="166" x="1097.5" y="458"/><ellipse cx="1127.35" cy="474" fill="#ADD1B2" rx="11" ry="11" style="stroke:#181818;stroke-width:1.0;"/><path d="M1130.1156,469.875 Q1130.2719,469.6563 1130.4594,469.5469 Q1130.6469,469.4375 1130.8656,469.4375 Q1131.2406,469.4375 1131.475,469.7031 Q1131.7094,469.9531 1131.7094,470.5625 L1131.7094,472.0156 Q1131.7094,472.625 1131.475,472.8906 Q1131.2406,473.1563 1130.8656,473.1563 Q1130.5219,473.1563 1130.3188,472.9531 Q1130.1156,472.7656 1130.0063,472.25 Q1129.9594,471.8906 1129.7719,471.7031 Q1129.4438,471.3281 1128.8344,471.1094 Q1128.225,470.8906 1127.6,470.8906 Q1126.8344,470.8906 1126.1938,471.2188 Q1125.5688,471.5469 1125.0688,472.2969 Q1124.5844,473.0469 1124.5844,474.0781 L1124.5844,475.1719 Q1124.5844,476.4063 1125.475,477.2344 Q1126.3656,478.0469 1127.9594,478.0469 Q1128.8969,478.0469 1129.5531,477.7969 Q1129.9438,477.6406 1130.3656,477.2031 Q1130.6313,476.9375 1130.7719,476.8594 Q1130.9281,476.7813 1131.1313,476.7813 Q1131.4594,476.7813 1131.7094,477.0469 Q1131.975,477.2969 1131.975,477.6406 Q1131.975,477.9844 1131.6313,478.3906 Q1131.1313,478.9688 1130.3344,479.2969 Q1129.2563,479.75 1127.9594,479.75 Q1126.4438,479.75 1125.2406,479.125 Q1124.2563,478.625 1123.5688,477.5625 Q1122.8813,476.4844 1122.8813,475.2031 L1122.8813,474.0469 Q1122.8813,472.7188 1123.4906,471.5781 Q1124.1156,470.4219 1125.2094,469.8125 Q1126.3031,469.1875 1127.5375,469.1875 Q1128.2719,469.1875 1128.9125,469.3594 Q1129.5688,469.5156 1130.1156,469.875 Z " fill="#000000"/><text fill="#000000" font-family="sans-serif" font-size="14" lengthAdjust="spacing" textLength="101" x="1144.65" y="479.7285">RutinaCompleta</text><line style="stroke:#181818;stroke-width:0.5;" x1="1098.5" x2="1262.5" y1="490" y2="490"/><rect fill="none" height="6" style="stroke:#C82930;stroke-width:1.0;" width="6" x="1105.5" y="501.3047"/><text fill="#000000" font-family="sans-serif" font-size="14" lengthAdjust="spacing" textLength="96" x="1117.5" y="508.5332">idRutina : Long</text><rect fill="none" height="6" style="stroke:#C82930;stroke-width:1.0;" width="6" x="1105.5" y="518.9141"/><text fill="#000000" font-family="sans-serif" font-size="14" lengthAdjust="spacing" textLength="97" x="1117.5" y="526.1426">nombre : String</text><rect fill="none" height="6" style="stroke:#C82930;stroke-width:1.0;" width="6" x="1105.5" y="536.5234"/><text fill="#000000" font-family="sans-serif" font-size="14" lengthAdjust="spacing" textLength="140" x="1117.5" y="543.752">resumen : String [0..1]</text><line style="stroke:#181818;stroke-width:0.5;" x1="1098.5" x2="1262.5" y1="550.8281" y2="550.8281"/></g><!--class DiaEnRutina--><g id="elem_DiaEnRutina"><rect codeLine="136" fill="#F1F1F1" height="100.8281" id="DiaEnRutina" rx="2.5" ry="2.5" style="stroke:#181818;stroke-width:0.5;" width="250" x="1055.5" y="698"/><ellipse cx="1136.75" cy="714" fill="#ADD1B2" rx="11" ry="11" style="stroke:#181818;stroke-width:1.0;"/><path d="M1139.5156,709.875 Q1139.6719,709.6563 1139.8594,709.5469 Q1140.0469,709.4375 1140.2656,709.4375 Q1140.6406,709.4375 1140.875,709.7031 Q1141.1094,709.9531 1141.1094,710.5625 L1141.1094,712.0156 Q1141.1094,712.625 1140.875,712.8906 Q1140.6406,713.1563 1140.2656,713.1563 Q1139.9219,713.1563 1139.7188,712.9531 Q1139.5156,712.7656 1139.4063,712.25 Q1139.3594,711.8906 1139.1719,711.7031 Q1138.8438,711.3281 1138.2344,711.1094 Q1137.625,710.8906 1137,710.8906 Q1136.2344,710.8906 1135.5938,711.2188 Q1134.9688,711.5469 1134.4688,712.2969 Q1133.9844,713.0469 1133.9844,714.0781 L1133.9844,715.1719 Q1133.9844,716.4063 1134.875,717.2344 Q1135.7656,718.0469 1137.3594,718.0469 Q1138.2969,718.0469 1138.9531,717.7969 Q1139.3438,717.6406 1139.7656,717.2031 Q1140.0313,716.9375 1140.1719,716.8594 Q1140.3281,716.7813 1140.5313,716.7813 Q1140.8594,716.7813 1141.1094,717.0469 Q1141.375,717.2969 1141.375,717.6406 Q1141.375,717.9844 1141.0313,718.3906 Q1140.5313,718.9688 1139.7344,719.2969 Q1138.6563,719.75 1137.3594,719.75 Q1135.8438,719.75 1134.6406,719.125 Q1133.6563,718.625 1132.9688,717.5625 Q1132.2813,716.4844 1132.2813,715.2031 L1132.2813,714.0469 Q1132.2813,712.7188 1132.8906,711.5781 Q1133.5156,710.4219 1134.6094,709.8125 Q1135.7031,709.1875 1136.9375,709.1875 Q1137.6719,709.1875 1138.3125,709.3594 Q1138.9688,709.5156 1139.5156,709.875 Z " fill="#000000"/><text fill="#000000" font-family="sans-serif" font-size="14" lengthAdjust="spacing" textLength="79" x="1157.25" y="719.7285">DiaEnRutina</text><line style="stroke:#181818;stroke-width:0.5;" x1="1056.5" x2="1304.5" y1="730" y2="730"/><rect fill="none" height="6" style="stroke:#C82930;stroke-width:1.0;" width="6" x="1063.5" y="741.3047"/><text fill="#000000" font-family="sans-serif" font-size="14" lengthAdjust="spacing" textLength="126" x="1075.5" y="748.5332">idDiaEnDieta : Long</text><rect fill="none" height="6" style="stroke:#C82930;stroke-width:1.0;" width="6" x="1063.5" y="758.9141"/><text fill="#000000" font-family="sans-serif" font-size="14" lengthAdjust="spacing" textLength="97" x="1075.5" y="766.1426">nombre : String</text><rect fill="none" height="6" style="stroke:#C82930;stroke-width:1.0;" width="6" x="1063.5" y="776.5234"/><text fill="#000000" font-family="sans-serif" font-size="14" lengthAdjust="spacing" textLength="224" x="1075.5" y="783.752">diaDeLaSemana : DiaDeLaSemana</text><line style="stroke:#181818;stroke-width:0.5;" x1="1056.5" x2="1304.5" y1="790.8281" y2="790.8281"/></g><!--class Ejercicio--><g id="elem_Ejercicio"><rect codeLine="142" fill="#F1F1F1" height="100.8281" id="Ejercicio" rx="2.5" ry="2.5" style="stroke:#181818;stroke-width:0.5;" width="202" x="1079.5" y="920.5"/><ellipse cx="1149.75" cy="936.5" fill="#ADD1B2" rx="11" ry="11" style="stroke:#181818;stroke-width:1.0;"/><path d="M1152.5156,932.375 Q1152.6719,932.1563 1152.8594,932.0469 Q1153.0469,931.9375 1153.2656,931.9375 Q1153.6406,931.9375 1153.875,932.2031 Q1154.1094,932.4531 1154.1094,933.0625 L1154.1094,934.5156 Q1154.1094,935.125 1153.875,935.3906 Q1153.6406,935.6563 1153.2656,935.6563 Q1152.9219,935.6563 1152.7188,935.4531 Q1152.5156,935.2656 1152.4063,934.75 Q1152.3594,934.3906 1152.1719,934.2031 Q1151.8438,933.8281 1151.2344,933.6094 Q1150.625,933.3906 1150,933.3906 Q1149.2344,933.3906 1148.5938,933.7188 Q1147.9688,934.0469 1147.4688,934.7969 Q1146.9844,935.5469 1146.9844,936.5781 L1146.9844,937.6719 Q1146.9844,938.9063 1147.875,939.7344 Q1148.7656,940.5469 1150.3594,940.5469 Q1151.2969,940.5469 1151.9531,940.2969 Q1152.3438,940.1406 1152.7656,939.7031 Q1153.0313,939.4375 1153.1719,939.3594 Q1153.3281,939.2813 1153.5313,939.2813 Q1153.8594,939.2813 1154.1094,939.5469 Q1154.375,939.7969 1154.375,940.1406 Q1154.375,940.4844 1154.0313,940.8906 Q1153.5313,941.4688 1152.7344,941.7969 Q1151.6563,942.25 1150.3594,942.25 Q1148.8438,942.25 1147.6406,941.625 Q1146.6563,941.125 1145.9688,940.0625 Q1145.2813,938.9844 1145.2813,937.7031 L1145.2813,936.5469 Q1145.2813,935.2188 1145.8906,934.0781 Q1146.5156,932.9219 1147.6094,932.3125 Q1148.7031,931.6875 1149.9375,931.6875 Q1150.6719,931.6875 1151.3125,931.8594 Q1151.9688,932.0156 1152.5156,932.375 Z " fill="#000000"/><text fill="#000000" font-family="sans-serif" font-size="14" lengthAdjust="spacing" textLength="53" x="1170.25" y="942.2285">Ejercicio</text><line style="stroke:#181818;stroke-width:0.5;" x1="1080.5" x2="1280.5" y1="952.5" y2="952.5"/><rect fill="none" height="6" style="stroke:#C82930;stroke-width:1.0;" width="6" x="1087.5" y="963.8047"/><text fill="#000000" font-family="sans-serif" font-size="14" lengthAdjust="spacing" textLength="108" x="1099.5" y="971.0332">idEjercicio : Long</text><rect fill="none" height="6" style="stroke:#C82930;stroke-width:1.0;" width="6" x="1087.5" y="981.4141"/><text fill="#000000" font-family="sans-serif" font-size="14" lengthAdjust="spacing" textLength="97" x="1099.5" y="988.6426">nombre : String</text><rect fill="none" height="6" style="stroke:#C82930;stroke-width:1.0;" width="6" x="1087.5" y="999.0234"/><text fill="#000000" font-family="sans-serif" font-size="14" lengthAdjust="spacing" textLength="176" x="1099.5" y="1006.252">musculoEnfocado : Musculo</text><line style="stroke:#181818;stroke-width:0.5;" x1="1080.5" x2="1280.5" y1="1013.3281" y2="1013.3281"/></g><!--class Serie--><g id="elem_Serie"><rect codeLine="148" fill="#F1F1F1" height="118.4375" id="Serie" rx="2.5" ry="2.5" style="stroke:#181818;stroke-width:0.5;" width="192" x="1084.5" y="1134.5"/><ellipse cx="1159.75" cy="1150.5" fill="#ADD1B2" rx="11" ry="11" style="stroke:#181818;stroke-width:1.0;"/><path d="M1162.5156,1146.375 Q1162.6719,1146.1563 1162.8594,1146.0469 Q1163.0469,1145.9375 1163.2656,1145.9375 Q1163.6406,1145.9375 1163.875,1146.2031 Q1164.1094,1146.4531 1164.1094,1147.0625 L1164.1094,1148.5156 Q1164.1094,1149.125 1163.875,1149.3906 Q1163.6406,1149.6563 1163.2656,1149.6563 Q1162.9219,1149.6563 1162.7188,1149.4531 Q1162.5156,1149.2656 1162.4063,1148.75 Q1162.3594,1148.3906 1162.1719,1148.2031 Q1161.8438,1147.8281 1161.2344,1147.6094 Q1160.625,1147.3906 1160,1147.3906 Q1159.2344,1147.3906 1158.5938,1147.7188 Q1157.9688,1148.0469 1157.4688,1148.7969 Q1156.9844,1149.5469 1156.9844,1150.5781 L1156.9844,1151.6719 Q1156.9844,1152.9063 1157.875,1153.7344 Q1158.7656,1154.5469 1160.3594,1154.5469 Q1161.2969,1154.5469 1161.9531,1154.2969 Q1162.3438,1154.1406 1162.7656,1153.7031 Q1163.0313,1153.4375 1163.1719,1153.3594 Q1163.3281,1153.2813 1163.5313,1153.2813 Q1163.8594,1153.2813 1164.1094,1153.5469 Q1164.375,1153.7969 1164.375,1154.1406 Q1164.375,1154.4844 1164.0313,1154.8906 Q1163.5313,1155.4688 1162.7344,1155.7969 Q1161.6563,1156.25 1160.3594,1156.25 Q1158.8438,1156.25 1157.6406,1155.625 Q1156.6563,1155.125 1155.9688,1154.0625 Q1155.2813,1152.9844 1155.2813,1151.7031 L1155.2813,1150.5469 Q1155.2813,1149.2188 1155.8906,1148.0781 Q1156.5156,1146.9219 1157.6094,1146.3125 Q1158.7031,1145.6875 1159.9375,1145.6875 Q1160.6719,1145.6875 1161.3125,1145.8594 Q1161.9688,1146.0156 1162.5156,1146.375 Z " fill="#000000"/><text fill="#000000" font-family="sans-serif" font-size="14" lengthAdjust="spacing" textLength="33" x="1180.25" y="1156.2285">Serie</text><line style="stroke:#181818;stroke-width:0.5;" x1="1085.5" x2="1275.5" y1="1166.5" y2="1166.5"/><rect fill="none" height="6" style="stroke:#C82930;stroke-width:1.0;" width="6" x="1092.5" y="1177.8047"/><text fill="#000000" font-family="sans-serif" font-size="14" lengthAdjust="spacing" textLength="88" x="1104.5" y="1185.0332">idSerie : Long</text><rect fill="none" height="6" style="stroke:#C82930;stroke-width:1.0;" width="6" x="1092.5" y="1195.4141"/><text fill="#000000" font-family="sans-serif" font-size="14" lengthAdjust="spacing" textLength="166" x="1104.5" y="1202.6426">serieAnterior : String [0..1]</text><rect fill="none" height="6" style="stroke:#C82930;stroke-width:1.0;" width="6" x="1092.5" y="1213.0234"/><text fill="#000000" font-family="sans-serif" font-size="14" lengthAdjust="spacing" textLength="104" x="1104.5" y="1220.252">repeticiones : int</text><rect fill="none" height="6" style="stroke:#C82930;stroke-width:1.0;" width="6" x="1092.5" y="1230.6328"/><text fill="#000000" font-family="sans-serif" font-size="14" lengthAdjust="spacing" textLength="58" x="1104.5" y="1237.8613">peso : int</text><line style="stroke:#181818;stroke-width:0.5;" x1="1085.5" x2="1275.5" y1="1244.9375" y2="1244.9375"/></g><!--link Usuario to DietaCompleta--><g id="link_Usuario_DietaCompleta"><path codeLine="159" d="M802.17,301.5 C789.1,338.54 776.9051,373.1014 764.5651,408.1014 " fill="none" id="Usuario-to-DietaCompleta" style="stroke:#181818;stroke-width:1.0;"/><polygon fill="#181818" points="762.57,413.76,769.335,406.6021,764.2326,409.0445,761.7902,403.9421,762.57,413.76" style="stroke:#181818;stroke-width:1.0;"/><text fill="#000000" font-family="sans-serif" font-size="13" lengthAdjust="spacing" textLength="55" x="742.9147" y="322.8758">Usuario 1</text><text fill="#000000" font-family="sans-serif" font-size="13" lengthAdjust="spacing" textLength="61" x="701.7748" y="403.087">Dietas 0..*</text></g><!--link Usuario to Credenciales--><g id="link_Usuario_Credenciales"><path codeLine="161" d="M725.23,301.5 C671.46,355.6 615.1593,412.254 573.9493,453.724 " fill="none" id="Usuario-to-Credenciales" style="stroke:#181818;stroke-width:1.0;"/><polygon fill="#181818" points="569.72,457.98,578.9012,454.4156,573.2444,454.4334,573.2266,448.7765,569.72,457.98" style="stroke:#181818;stroke-width:1.0;"/><text fill="#000000" font-family="sans-serif" font-size="13" lengthAdjust="spacing" textLength="55" x="661.2862" y="322.8758">Usuario 1</text><text fill="#000000" font-family="sans-serif" font-size="13" lengthAdjust="spacing" textLength="86" x="484.5947" y="447.2825">Credenciales 1</text></g><!--link DietaCompleta to DiaEnDieta--><g id="link_DietaCompleta_DiaEnDieta"><path codeLine="163" d="M729.5,603.22 C729.5,622.86 729.5,637.47 729.5,656.76 " fill="none" id="DietaCompleta-to-DiaEnDieta" style="stroke:#181818;stroke-width:1.0;"/><polygon fill="#181818" points="729.5,662.76,733.5,653.76,729.5,657.76,725.5,653.76,729.5,662.76" style="stroke:#181818;stroke-width:1.0;"/><text fill="#000000" font-family="sans-serif" font-size="13" lengthAdjust="spacing" textLength="41" x="686.9945" y="624.2761">Dieta 1</text><text fill="#000000" font-family="sans-serif" font-size="13" lengthAdjust="spacing" textLength="100" x="625.2031" y="652.203">Dias de dieta 1..*</text></g><!--link Usuario to RutinaCompleta--><g id="link_Usuario_RutinaCompleta"><path codeLine="165" d="M968.18,301.5 C1023.94,355.6 1082.4139,412.3318 1125.1539,453.8018 " fill="none" id="Usuario-to-RutinaCompleta" style="stroke:#181818;stroke-width:1.0;"/><polygon fill="#181818" points="1129.46,457.98,1125.7863,448.842,1125.8716,454.4982,1120.2153,454.5835,1129.46,457.98" style="stroke:#181818;stroke-width:1.0;"/><text fill="#000000" font-family="sans-serif" font-size="13" lengthAdjust="spacing" textLength="55" x="919.041" y="322.8758">Usuario 1</text><text fill="#000000" font-family="sans-serif" font-size="13" lengthAdjust="spacing" textLength="68" x="1127.0638" y="447.2825">Rutinas 0..*</text></g><!--link DiaEnDieta to Comida--><g id="link_DiaEnDieta_Comida"><path codeLine="167" d="M729.5,834.12 C729.5,853.8 729.5,868.62 729.5,887.9 " fill="none" id="DiaEnDieta-to-Comida" style="stroke:#181818;stroke-width:1.0;"/><polygon fill="#181818" points="729.5,893.9,733.5,884.9,729.5,888.9,725.5,884.9,729.5,893.9" style="stroke:#181818;stroke-width:1.0;"/><text fill="#000000" font-family="sans-serif" font-size="13" lengthAdjust="spacing" textLength="80" x="646.0625" y="855.6643">Dia de dieta 1</text><text fill="#000000" font-family="sans-serif" font-size="13" lengthAdjust="spacing" textLength="75" x="650.8086" y="883.0523">Comidas 1..*</text></g><!--link Comida to Ingrediente--><g id="link_Comida_Ingrediente"><path codeLine="169" d="M729.5,1048.19 C729.5,1067.36 729.5,1082.06 729.5,1101.62 " fill="none" id="Comida-to-Ingrediente" style="stroke:#181818;stroke-width:1.0;"/><polygon fill="#181818" points="729.5,1107.62,733.5,1098.62,729.5,1102.62,725.5,1098.62,729.5,1107.62" style="stroke:#181818;stroke-width:1.0;"/><text fill="#000000" font-family="sans-serif" font-size="13" lengthAdjust="spacing" textLength="55" x="672.1367" y="1069.036">Comida 1</text><text fill="#000000" font-family="sans-serif" font-size="13" lengthAdjust="spacing" textLength="94" x="631.4609" y="1097.051">Ingredientes 1..*</text></g><!--link Usuario to Alimento--><g id="link_Usuario_Alimento"><path codeLine="171" d="M886.83,301.5 C902.14,344.89 916.9935,387.0019 930.6135,425.6019 " fill="none" id="Usuario-to-Alimento" style="stroke:#181818;stroke-width:1.0;"/><polygon fill="#181818" points="932.61,431.26,933.3874,421.4419,930.9463,426.5449,925.8432,424.1038,932.61,431.26" style="stroke:#181818;stroke-width:1.0;"/><text fill="#000000" font-family="sans-serif" font-size="13" lengthAdjust="spacing" textLength="55" x="832.7337" y="322.8758">Usuario 1</text><text fill="#000000" font-family="sans-serif" font-size="13" lengthAdjust="spacing" textLength="82" x="844.1392" y="420.6638">Alimentos 0..*</text></g><!--link RutinaCompleta to DiaEnRutina--><g id="link_RutinaCompleta_DiaEnRutina"><path codeLine="173" d="M1180.5,559.1 C1180.5,599.84 1180.5,651.24 1180.5,691.96 " fill="none" id="RutinaCompleta-to-DiaEnRutina" style="stroke:#181818;stroke-width:1.0;"/><polygon fill="#181818" points="1180.5,697.96,1184.5,688.96,1180.5,692.96,1176.5,688.96,1180.5,697.96" style="stroke:#181818;stroke-width:1.0;"/><text fill="#000000" font-family="sans-serif" font-size="13" lengthAdjust="spacing" textLength="48" x="1129.275" y="580.5047">Rutina 1</text><text fill="#000000" font-family="sans-serif" font-size="13" lengthAdjust="spacing" textLength="104" x="1069.1875" y="687.2597">Dias de rutina 1..*</text></g><!--link DiaEnRutina to Ejercicio--><g id="link_DiaEnRutina_Ejercicio"><path codeLine="175" d="M1180.5,799.26 C1180.5,835.46 1180.5,878.26 1180.5,914.42 " fill="none" id="DiaEnRutina-to-Ejercicio" style="stroke:#181818;stroke-width:1.0;"/><polygon fill="#181818" points="1180.5,920.42,1184.5,911.42,1180.5,915.42,1176.5,911.42,1180.5,920.42" style="stroke:#181818;stroke-width:1.0;"/><text fill="#000000" font-family="sans-serif" font-size="13" lengthAdjust="spacing" textLength="97" x="1077.2859" y="820.3173">Dia en rutina 1..*</text><text fill="#000000" font-family="sans-serif" font-size="13" lengthAdjust="spacing" textLength="81" x="1093.8047" y="909.7141">Ejercicios 1..*</text></g><!--link Ejercicio to Serie--><g id="link_Ejercicio_Serie"><path codeLine="177" d="M1180.5,1021.76 C1180.5,1055.17 1180.5,1093.3 1180.5,1128.33 " fill="none" id="Ejercicio-to-Serie" style="stroke:#181818;stroke-width:1.0;"/><polygon fill="#181818" points="1180.5,1134.33,1184.5,1125.33,1180.5,1129.33,1176.5,1125.33,1180.5,1134.33" style="stroke:#181818;stroke-width:1.0;"/><text fill="#000000" font-family="sans-serif" font-size="13" lengthAdjust="spacing" textLength="61" x="1115.5922" y="1042.8173">Ejercicio 1</text><text fill="#000000" font-family="sans-serif" font-size="13" lengthAdjust="spacing" textLength="61" x="1115.7828" y="1123.6335">Series 1..*</text></g><!--SRC=[nLPBZzis4BxpLn1x2L0WoMwF1bg0bWX7WHuk9UMGeZ2u4jVBG2ODIiwbw7_lKAIUTjqKQ11VfFdczN5cEF8R_Ci__D0Rhy8qBHFAI9ZbUAMwuOM4kfnmScchIwCn_XC59OtZ37t8aYtBSXHcB2SnpT6U1Xyoj8q2kizHmToJf0NTCl8vGv-pb1pYCjaIXcY-9t583WaD8mAs17mZY4N2CYWo1i78TlwQ9L7QvzZ5PK71C2X9w3D4-Mzbb1NHDd8MDA4nMFpbYOUIXoBckJXnnItzk4p1B26ii8-8iY2pVXzB-WaUdm2m-fnieJwepxpBncWxeOJH4AK_FKL9-P4ob1LiCicUluXEVhL667vxoaBA3Zj6Sj83Ev8ITaX0F2Hb7fGnrCFYYIrL2gPxca_HKlbLDA4W5OIKDQzzr9o6D2q8Yx9UfC0YYA24XpZQKRO6aopisxs28vimpt0FaoAc1O6y-DumJ2eSn2IdERwXkXwXgk5jYylsmesqXNcBPJr86nnhTGH8wTEp4I3ddP4zmi-YQMIjdsw1FuyW_ltntRkdFq3t8gfNdl9AdgHGdOjTyIRadG3jiM_UnZSHWBDehSrBetbd8pVTnN00fB9Y9nhnefMU9rVhTcokEWHMUXY1pJWDjg6k2e4HjL2Lv8reVJTjEHQmhudJmUJAPYBXm4ghpl1Mg5S-gSOSeHGT3_JftC3Jrxl7xbMx5crbvBcIMjqexNkeepQIjuNkFCUXRk_FHdT2Ahu0AswUzQki3U_qGd44tWjJRajdgJrhtGYkvkVWL3dYmo56uCv9lYFNUh5EDilrOeaFNTOd60RFsWi_Wl5OoaWTOSBijH2UrHovGwtYghDplJFyf5SS7EV_donfvAc_m8xfADwbwSZijNbwV3pEieoKhbKBOjTgHs-DZopPfOEmgslcm7jCZMWlS9ohExQSUX_dlupzlywc2q-_25F9Qbp4atmdzibz_wbwWOLQMrF_Zs2AcmiZXzboxsEyree41WqMlhcnN8mumvQqcwSVVRT__NO60Tiat_1Lmep61BviAVscFpR35-XXU7bwWDNwzbVyq9UwnK3lfuVLChtjrdijLZY0SncXPHYNOdGDxJMg1RImHttUeUdtgBev6RWkHz8c7GV7vfYb6FpTRcfzJYSXv3UMrqxMivqnkCoWExKPhl10T90HMjqYVw1vBrnfZCUdsZXBVqZlrfyIBjV2keypZlb0V0GGcgx0P3Onw8TvyEe5z3S0]--></g></svg>