<?xml version="1.0" encoding="us-ascii" standalone="no"?><svg xmlns="http://www.w3.org/2000/svg" xmlns:xlink="http://www.w3.org/1999/xlink" contentStyleType="text/css" height="607px" preserveAspectRatio="none" style="width:1350px;height:607px;background:#FFFFFF;" version="1.1" viewBox="0 0 1350 607" width="1350px" zoomAndPan="magnify"><defs/><g><!--cluster Arquitectura de Componentes--><g id="cluster_Arquitectura de Componentes"><path d="M115.5,6 L327.5,6 A3.75,3.75 0 0 1 330,8.5 L337,29.6094 L1340.5,29.6094 A2.5,2.5 0 0 1 1343,32.1094 L1343,266.5 A2.5,2.5 0 0 1 1340.5,269 L115.5,269 A2.5,2.5 0 0 1 113,266.5 L113,8.5 A2.5,2.5 0 0 1 115.5,6 " fill="none" style="stroke:#000000;stroke-width:1.5;"/><line style="stroke:#000000;stroke-width:1.5;" x1="113" x2="337" y1="29.6094" y2="29.6094"/><text fill="#000000" font-family="sans-serif" font-size="14" font-weight="bold" lengthAdjust="spacing" textLength="211" x="117" y="22.5332">Arquitectura de Componentes</text></g><!--cluster Especificaci?n de Interfaces--><g id="cluster_Especificaci&#243;n de Interfaces"><path d="M8.5,293 L208.5,293 A3.75,3.75 0 0 1 211,295.5 L218,316.6094 L984.5,316.6094 A2.5,2.5 0 0 1 987,319.1094 L987,597.5 A2.5,2.5 0 0 1 984.5,600 L8.5,600 A2.5,2.5 0 0 1 6,597.5 L6,295.5 A2.5,2.5 0 0 1 8.5,293 " fill="none" style="stroke:#000000;stroke-width:1.5;"/><line style="stroke:#000000;stroke-width:1.5;" x1="6" x2="218" y1="316.6094" y2="316.6094"/><text fill="#000000" font-family="sans-serif" font-size="14" font-weight="bold" lengthAdjust="spacing" textLength="199" x="10" y="309.5332">Especificaci&#243;n de Interfaces</text></g><!--entity AutentificationController--><g id="elem_AutentificationController"><rect fill="#F1F1F1" height="47.6094" rx="2.5" ry="2.5" style="stroke:#181818;stroke-width:0.5;" width="191" x="129" y="50"/><rect fill="#F1F1F1" height="10" style="stroke:#181818;stroke-width:0.5;" width="15" x="300" y="55"/><rect fill="#F1F1F1" height="2" style="stroke:#181818;stroke-width:0.5;" width="4" x="298" y="57"/><rect fill="#F1F1F1" height="2" style="stroke:#181818;stroke-width:0.5;" width="4" x="298" y="61"/><text fill="#000000" font-family="sans-serif" font-size="14" lengthAdjust="spacing" textLength="151" x="144" y="84.5332">AutentificationController</text></g><!--entity AlimentoController--><g id="elem_AlimentoController"><rect fill="#F1F1F1" height="47.6094" rx="2.5" ry="2.5" style="stroke:#181818;stroke-width:0.5;" width="156" x="146.5" y="163"/><rect fill="#F1F1F1" height="10" style="stroke:#181818;stroke-width:0.5;" width="15" x="282.5" y="168"/><rect fill="#F1F1F1" height="2" style="stroke:#181818;stroke-width:0.5;" width="4" x="280.5" y="170"/><rect fill="#F1F1F1" height="2" style="stroke:#181818;stroke-width:0.5;" width="4" x="280.5" y="174"/><text fill="#000000" font-family="sans-serif" font-size="14" lengthAdjust="spacing" textLength="116" x="161.5" y="197.5332">AlimentoController</text></g><!--entity UsuarioService--><g id="elem_UsuarioService"><rect fill="#F1F1F1" height="47.6094" rx="2.5" ry="2.5" style="stroke:#181818;stroke-width:0.5;" width="135" x="717.5" y="50"/><rect fill="#F1F1F1" height="10" style="stroke:#181818;stroke-width:0.5;" width="15" x="832.5" y="55"/><rect fill="#F1F1F1" height="2" style="stroke:#181818;stroke-width:0.5;" width="4" x="830.5" y="57"/><rect fill="#F1F1F1" height="2" style="stroke:#181818;stroke-width:0.5;" width="4" x="830.5" y="61"/><text fill="#000000" font-family="sans-serif" font-size="14" lengthAdjust="spacing" textLength="95" x="732.5" y="84.5332">UsuarioService</text></g><!--entity AlimentoService--><g id="elem_AlimentoService"><rect fill="#F1F1F1" height="47.6094" rx="2.5" ry="2.5" style="stroke:#181818;stroke-width:0.5;" width="141" x="714.5" y="163"/><rect fill="#F1F1F1" height="10" style="stroke:#181818;stroke-width:0.5;" width="15" x="835.5" y="168"/><rect fill="#F1F1F1" height="2" style="stroke:#181818;stroke-width:0.5;" width="4" x="833.5" y="170"/><rect fill="#F1F1F1" height="2" style="stroke:#181818;stroke-width:0.5;" width="4" x="833.5" y="174"/><text fill="#000000" font-family="sans-serif" font-size="14" lengthAdjust="spacing" textLength="101" x="729.5" y="197.5332">AlimentoService</text></g><!--entity UsuarioRepository--><g id="elem_UsuarioRepository"><rect fill="#F1F1F1" height="47.6094" rx="2.5" ry="2.5" style="stroke:#181818;stroke-width:0.5;" width="156" x="1168" y="81"/><rect fill="#F1F1F1" height="10" style="stroke:#181818;stroke-width:0.5;" width="15" x="1304" y="86"/><rect fill="#F1F1F1" height="2" style="stroke:#181818;stroke-width:0.5;" width="4" x="1302" y="88"/><rect fill="#F1F1F1" height="2" style="stroke:#181818;stroke-width:0.5;" width="4" x="1302" y="92"/><text fill="#000000" font-family="sans-serif" font-size="14" lengthAdjust="spacing" textLength="116" x="1183" y="115.5332">UsuarioRepository</text></g><!--entity AlimentoRepository--><g id="elem_AlimentoRepository"><rect fill="#F1F1F1" height="47.6094" rx="2.5" ry="2.5" style="stroke:#181818;stroke-width:0.5;" width="162" x="1165" y="194"/><rect fill="#F1F1F1" height="10" style="stroke:#181818;stroke-width:0.5;" width="15" x="1307" y="199"/><rect fill="#F1F1F1" height="2" style="stroke:#181818;stroke-width:0.5;" width="4" x="1305" y="201"/><rect fill="#F1F1F1" height="2" style="stroke:#181818;stroke-width:0.5;" width="4" x="1305" y="205"/><text fill="#000000" font-family="sans-serif" font-size="14" lengthAdjust="spacing" textLength="122" x="1180" y="228.5332">AlimentoRepository</text></g><!--class IUsuarioService--><g id="elem_IUsuarioService"><rect codeLine="31" fill="#F1F1F1" height="83.2188" id="IUsuarioService" rx="2.5" ry="2.5" style="stroke:#181818;stroke-width:0.5;" width="311" x="69" y="500.5"/><ellipse cx="170.75" cy="516.5" fill="#B4A7E5" rx="11" ry="11" style="stroke:#181818;stroke-width:1.0;"/><path d="M171.7031,513.1406 L171.7031,519.7969 L173.4219,519.7969 Q174.0313,519.7969 174.2969,520.0313 Q174.5625,520.2656 174.5625,520.6563 Q174.5625,521.0313 174.2969,521.2656 Q174.0313,521.5 173.4219,521.5 L168.2813,521.5 Q167.6719,521.5 167.4063,521.2656 Q167.1406,521.0313 167.1406,520.6406 Q167.1406,520.2656 167.4063,520.0313 Q167.6719,519.7969 168.2813,519.7969 L170,519.7969 L170,513.1406 L168.2813,513.1406 Q167.6719,513.1406 167.4063,512.9063 Q167.1406,512.6719 167.1406,512.2813 Q167.1406,511.9063 167.4063,511.6719 Q167.6719,511.4375 168.2813,511.4375 L173.4219,511.4375 Q174.0313,511.4375 174.2969,511.6719 Q174.5625,511.9063 174.5625,512.2813 Q174.5625,512.6719 174.2969,512.9063 Q174.0313,513.1406 173.4219,513.1406 L171.7031,513.1406 Z " fill="#000000"/><text fill="#000000" font-family="sans-serif" font-size="14" font-style="italic" lengthAdjust="spacing" textLength="99" x="191.25" y="522.2285">IUsuarioService</text><line style="stroke:#181818;stroke-width:0.5;" x1="70" x2="379" y1="532.5" y2="532.5"/><line style="stroke:#181818;stroke-width:0.5;" x1="70" x2="379" y1="540.5" y2="540.5"/><ellipse cx="80" cy="554.8047" fill="#84BE84" rx="3" ry="3" style="stroke:#038048;stroke-width:1.0;"/><text fill="#000000" font-family="sans-serif" font-size="14" lengthAdjust="spacing" textLength="284" x="89" y="559.0332">registrarUsuario(RegistroDTO) : UsuarioDTO</text><ellipse cx="80" cy="572.4141" fill="#84BE84" rx="3" ry="3" style="stroke:#038048;stroke-width:1.0;"/><text fill="#000000" font-family="sans-serif" font-size="14" lengthAdjust="spacing" textLength="285" x="89" y="576.6426">iniciarSesion(InicioSesionDTO) : UsuarioDTO</text></g><!--class IAlimentoService--><g id="elem_IAlimentoService"><rect codeLine="36" fill="#F1F1F1" height="136.0469" id="IAlimentoService" rx="2.5" ry="2.5" style="stroke:#181818;stroke-width:0.5;" width="405" x="22" y="329"/><ellipse cx="168.25" cy="345" fill="#B4A7E5" rx="11" ry="11" style="stroke:#181818;stroke-width:1.0;"/><path d="M169.2031,341.6406 L169.2031,348.2969 L170.9219,348.2969 Q171.5313,348.2969 171.7969,348.5313 Q172.0625,348.7656 172.0625,349.1563 Q172.0625,349.5313 171.7969,349.7656 Q171.5313,350 170.9219,350 L165.7813,350 Q165.1719,350 164.9063,349.7656 Q164.6406,349.5313 164.6406,349.1406 Q164.6406,348.7656 164.9063,348.5313 Q165.1719,348.2969 165.7813,348.2969 L167.5,348.2969 L167.5,341.6406 L165.7813,341.6406 Q165.1719,341.6406 164.9063,341.4063 Q164.6406,341.1719 164.6406,340.7813 Q164.6406,340.4063 164.9063,340.1719 Q165.1719,339.9375 165.7813,339.9375 L170.9219,339.9375 Q171.5313,339.9375 171.7969,340.1719 Q172.0625,340.4063 172.0625,340.7813 Q172.0625,341.1719 171.7969,341.4063 Q171.5313,341.6406 170.9219,341.6406 L169.2031,341.6406 Z " fill="#000000"/><text fill="#000000" font-family="sans-serif" font-size="14" font-style="italic" lengthAdjust="spacing" textLength="104" x="188.75" y="350.7285">IAlimentoService</text><line style="stroke:#181818;stroke-width:0.5;" x1="23" x2="426" y1="361" y2="361"/><line style="stroke:#181818;stroke-width:0.5;" x1="23" x2="426" y1="369" y2="369"/><ellipse cx="33" cy="383.3047" fill="#84BE84" rx="3" ry="3" style="stroke:#038048;stroke-width:1.0;"/><text fill="#000000" font-family="sans-serif" font-size="14" lengthAdjust="spacing" textLength="312" x="42" y="387.5332">creaAlimento(AlimentoDTO, Long) : AlimentoDTO</text><ellipse cx="33" cy="400.9141" fill="#84BE84" rx="3" ry="3" style="stroke:#038048;stroke-width:1.0;"/><text fill="#000000" font-family="sans-serif" font-size="14" lengthAdjust="spacing" textLength="379" x="42" y="405.1426">actualizaAlimento(Long, AlimentoDTO, Long) : AlimentoDTO</text><ellipse cx="33" cy="418.5234" fill="#84BE84" rx="3" ry="3" style="stroke:#038048;stroke-width:1.0;"/><text fill="#000000" font-family="sans-serif" font-size="14" lengthAdjust="spacing" textLength="373" x="42" y="422.752">listaAlimentosUsuario(Long idUsuario) : List&lt;AlimentoDTO&gt;</text><ellipse cx="33" cy="436.1328" fill="#84BE84" rx="3" ry="3" style="stroke:#038048;stroke-width:1.0;"/><text fill="#000000" font-family="sans-serif" font-size="14" lengthAdjust="spacing" textLength="286" x="42" y="440.3613">listaAlimentosGlobales() : List&lt;AlimentoDTO&gt;</text><ellipse cx="33" cy="453.7422" fill="#84BE84" rx="3" ry="3" style="stroke:#038048;stroke-width:1.0;"/><text fill="#000000" font-family="sans-serif" font-size="14" lengthAdjust="spacing" textLength="208" x="42" y="457.9707">borraAlimento(Long, Long) : void</text></g><!--class IUsuarioRepository--><g id="elem_IUsuarioRepository"><rect codeLine="44" fill="#F1F1F1" height="65.6094" id="IUsuarioRepository" rx="2.5" ry="2.5" style="stroke:#181818;stroke-width:0.5;" width="206" x="682" y="509"/><ellipse cx="720.85" cy="525" fill="#B4A7E5" rx="11" ry="11" style="stroke:#181818;stroke-width:1.0;"/><path d="M721.8031,521.6406 L721.8031,528.2969 L723.5219,528.2969 Q724.1313,528.2969 724.3969,528.5313 Q724.6625,528.7656 724.6625,529.1563 Q724.6625,529.5313 724.3969,529.7656 Q724.1313,530 723.5219,530 L718.3813,530 Q717.7719,530 717.5063,529.7656 Q717.2406,529.5313 717.2406,529.1406 Q717.2406,528.7656 717.5063,528.5313 Q717.7719,528.2969 718.3813,528.2969 L720.1,528.2969 L720.1,521.6406 L718.3813,521.6406 Q717.7719,521.6406 717.5063,521.4063 Q717.2406,521.1719 717.2406,520.7813 Q717.2406,520.4063 717.5063,520.1719 Q717.7719,519.9375 718.3813,519.9375 L723.5219,519.9375 Q724.1313,519.9375 724.3969,520.1719 Q724.6625,520.4063 724.6625,520.7813 Q724.6625,521.1719 724.3969,521.4063 Q724.1313,521.6406 723.5219,521.6406 L721.8031,521.6406 Z " fill="#000000"/><text fill="#000000" font-family="sans-serif" font-size="14" font-style="italic" lengthAdjust="spacing" textLength="121" x="740.15" y="530.7285">IUsuarioRepository</text><line style="stroke:#181818;stroke-width:0.5;" x1="683" x2="887" y1="541" y2="541"/><line style="stroke:#181818;stroke-width:0.5;" x1="683" x2="887" y1="549" y2="549"/><ellipse cx="693" cy="563.3047" fill="#84BE84" rx="3" ry="3" style="stroke:#038048;stroke-width:1.0;"/><text fill="#000000" font-family="sans-serif" font-size="14" lengthAdjust="spacing" textLength="180" x="702" y="567.5332">findByEmail(String) : Usuario</text></g><!--class IAlimentoRepository--><g id="elem_IAlimentoRepository"><rect codeLine="48" fill="#F1F1F1" height="136.0469" id="IAlimentoRepository" rx="2.5" ry="2.5" style="stroke:#181818;stroke-width:0.5;" width="372" x="599" y="338"/><ellipse cx="717.75" cy="354" fill="#B4A7E5" rx="11" ry="11" style="stroke:#181818;stroke-width:1.0;"/><path d="M718.7031,350.6406 L718.7031,357.2969 L720.4219,357.2969 Q721.0313,357.2969 721.2969,357.5313 Q721.5625,357.7656 721.5625,358.1563 Q721.5625,358.5313 721.2969,358.7656 Q721.0313,359 720.4219,359 L715.2813,359 Q714.6719,359 714.4063,358.7656 Q714.1406,358.5313 714.1406,358.1406 Q714.1406,357.7656 714.4063,357.5313 Q714.6719,357.2969 715.2813,357.2969 L717,357.2969 L717,350.6406 L715.2813,350.6406 Q714.6719,350.6406 714.4063,350.4063 Q714.1406,350.1719 714.1406,349.7813 Q714.1406,349.4063 714.4063,349.1719 Q714.6719,348.9375 715.2813,348.9375 L720.4219,348.9375 Q721.0313,348.9375 721.2969,349.1719 Q721.5625,349.4063 721.5625,349.7813 Q721.5625,350.1719 721.2969,350.4063 Q721.0313,350.6406 720.4219,350.6406 L718.7031,350.6406 Z " fill="#000000"/><text fill="#000000" font-family="sans-serif" font-size="14" font-style="italic" lengthAdjust="spacing" textLength="126" x="738.25" y="359.7285">IAlimentoRepository</text><line style="stroke:#181818;stroke-width:0.5;" x1="600" x2="970" y1="370" y2="370"/><line style="stroke:#181818;stroke-width:0.5;" x1="600" x2="970" y1="378" y2="378"/><ellipse cx="610" cy="392.3047" fill="#84BE84" rx="3" ry="3" style="stroke:#038048;stroke-width:1.0;"/><text fill="#000000" font-family="sans-serif" font-size="14" lengthAdjust="spacing" textLength="307" x="619" y="396.5332">findByNombreAndUsuarioIsNull(String) : Alimento</text><ellipse cx="610" cy="409.9141" fill="#84BE84" rx="3" ry="3" style="stroke:#038048;stroke-width:1.0;"/><text fill="#000000" font-family="sans-serif" font-size="14" lengthAdjust="spacing" textLength="330" x="619" y="414.1426">findByNombreAndUsuario(String, Usuario) : Alimento</text><ellipse cx="610" cy="427.5234" fill="#84BE84" rx="3" ry="3" style="stroke:#038048;stroke-width:1.0;"/><text fill="#000000" font-family="sans-serif" font-size="14" lengthAdjust="spacing" textLength="212" x="619" y="431.752">findByIdAlimento(Long) : Alimento</text><ellipse cx="610" cy="445.1328" fill="#84BE84" rx="3" ry="3" style="stroke:#038048;stroke-width:1.0;"/><text fill="#000000" font-family="sans-serif" font-size="14" lengthAdjust="spacing" textLength="346" x="619" y="449.3613">findByUsuarioOrUsuarioIsNull(Usuario) : List&lt;Alimento&gt;</text><ellipse cx="610" cy="462.7422" fill="#84BE84" rx="3" ry="3" style="stroke:#038048;stroke-width:1.0;"/><text fill="#000000" font-family="sans-serif" font-size="14" lengthAdjust="spacing" textLength="234" x="619" y="466.9707">findByUsuarioIsNull() : List&lt;Alimento&gt;</text></g><!--link AutentificationController to UsuarioService--><g id="link_AutentificationController_UsuarioService"><path codeLine="18" d="M320.24,74 C433.06,74 618.59,74 717.33,74 " fill="none" id="AutentificationController-UsuarioService" style="stroke:#181818;stroke-width:1.0;"/><text fill="#000000" font-family="sans-serif" font-size="13" lengthAdjust="spacing" textLength="89" x="468.5" y="63.4951">IUsuarioService</text><path d="M516.9939,66.9289 A10,10 0 0 0 516.9939 81.0711" fill="none" style="stroke:#181818;stroke-width:1.5;"/><ellipse cx="524.065" cy="74" fill="#FFFFFF" rx="6" ry="6" style="stroke:#181818;stroke-width:1.5;"/></g><!--link UsuarioService to UsuarioRepository--><g id="link_UsuarioService_UsuarioRepository"><path codeLine="19" d="M852.74,78.51 C936.41,84.16 1079.53,93.82 1167.82,99.79 " fill="none" id="UsuarioService-UsuarioRepository" style="stroke:#181818;stroke-width:1.0;"/><text fill="#000000" font-family="sans-serif" font-size="13" lengthAdjust="spacing" textLength="109" x="1014.5" y="79.4951">IUsuarioRepository</text><path d="M1001.9689,81.4986 A10,10 0 0 0 1001.0161 95.6086" fill="none" style="stroke:#181818;stroke-width:1.5;"/><ellipse cx="1008.5475" cy="89.03" fill="#FFFFFF" rx="6" ry="6" style="stroke:#181818;stroke-width:1.5;"/></g><!--link AlimentoController to AlimentoService--><g id="link_AlimentoController_AlimentoService"><path codeLine="21" d="M302.57,187 C411.64,187 609.41,187 714.31,187 " fill="none" id="AlimentoController-AlimentoService" style="stroke:#181818;stroke-width:1.0;"/><text fill="#000000" font-family="sans-serif" font-size="13" lengthAdjust="spacing" textLength="96" x="465" y="176.4951">IAlimentoService</text><path d="M502.9327,179.9289 A10,10 0 0 0 502.9327 194.0711" fill="none" style="stroke:#181818;stroke-width:1.5;"/><ellipse cx="510.0037" cy="187" fill="#FFFFFF" rx="6" ry="6" style="stroke:#181818;stroke-width:1.5;"/></g><!--link AlimentoService to AlimentoRepository--><g id="link_AlimentoService_AlimentoRepository"><path codeLine="22" d="M855.56,197.9 C919.03,207.84 1003,221 1003,221 C1003,221 1135,221 1135,221 C1135,221 1147.85,220.65 1164.77,220.19 " fill="none" id="AlimentoService-AlimentoRepository" style="stroke:#181818;stroke-width:1.0;"/><text fill="#000000" font-family="sans-serif" font-size="13" lengthAdjust="spacing" textLength="116" x="1011" y="210.4951">IAlimentoRepository</text><path d="M997.1089,212.9195 A10,10 0 0 0 994.9195 226.8911" fill="none" style="stroke:#181818;stroke-width:1.5;"/><ellipse cx="1003" cy="221" fill="#FFFFFF" rx="6" ry="6" style="stroke:#181818;stroke-width:1.5;"/></g><!--link AlimentoService to UsuarioRepository--><g id="link_AlimentoService_UsuarioRepository"><path codeLine="24" d="M855.79,177.2 C957.63,162.9 1135,138 1135,138 C1135,138 1149.36,133.69 1167.71,128.19 " fill="none" id="AlimentoService-UsuarioRepository" style="stroke:#181818;stroke-width:1.0;"/><text fill="#000000" font-family="sans-serif" font-size="13" lengthAdjust="spacing" textLength="109" x="1014.5" y="127.4951">IUsuarioRepository</text><path d="M1025.5995,146.2182 A10,10 0 0 0 1027.5657 160.223" fill="none" style="stroke:#181818;stroke-width:1.5;"/><ellipse cx="1033.585" cy="152.2375" fill="#FFFFFF" rx="6" ry="6" style="stroke:#181818;stroke-width:1.5;"/></g><!--SRC=[dPF1Rjim38RlVWeY9nTBWPw7ea3N5OM1eWMQxJmeik8HbKMFajjcGvvgZx0NcnJRZMnN3JOV58lvlryaJGcjwVbRZIzegaohZGD7m5XzTr0YA-cGJ6OVqJI2HGqQZNBRHa53UXisMTO8-IWg1OjB_j6YyqZB0ae5LrGtP9HnoYxWLmR-oVQh7FxmJElyBsvGYd3I5Hd7fBNY1Soa6cl_GYFDLFJLjeAHLegVKAgqoK6GS7XG3LbqnDkqoKZJrHUMP4rmcf-TmZX5-0Z5EBBtc8XYy71gn1w2NIBpPdKUa_g3moGqmaVdpykEyLG6_rN2BelcwjesIkxRAV7FRnD6g_13nHiXeyaA2mvXM1JJIUXauVa0h2gqZWNteloX2z3dB_SdFgK-x7SHX0Ob2bufwpzgNeGTTPktgLqsosasVN5IafKO1FdmuisMS4kc2WT4mOWJ_i89ZJyFSD0luHyij2_-5RT3Km83MFRRGDzwtNbaSP7qkD6q5bhP_1Ys9kPfvaEoJuHbgfLlNDEucHiqvQVjTIrGvol7s1dsqB7Fyxxf7TLhLfTcQ4nXxreTdpBO72LxPWbHYvDmKOwwzAwszxldSOgfBtcHCkYv1B0Br_Gl]--></g></svg>