<?xml version="1.0" encoding="us-ascii" standalone="no"?><svg xmlns="http://www.w3.org/2000/svg" xmlns:xlink="http://www.w3.org/1999/xlink" contentStyleType="text/css" height="1286px" preserveAspectRatio="none" style="width:1075px;height:1286px;background:#FFFFFF;" version="1.1" viewBox="0 0 1075 1286" width="1075px" zoomAndPan="magnify"><defs/><g><!--class Musculo--><g id="elem_Musculo"><rect codeLine="6" fill="#F1F1F1" height="347.3594" id="Musculo" rx="2.5" ry="2.5" style="stroke:#181818;stroke-width:0.5;" width="125" x="39" y="7"/><ellipse cx="72.45" cy="23" fill="#EB937F" rx="11" ry="11" style="stroke:#181818;stroke-width:1.0;"/><path d="M71.3094,23.7969 L71.3094,26.2969 L75.6375,26.2969 L75.6375,25.375 Q75.6375,24.7656 75.8719,24.5 Q76.1219,24.2344 76.4969,24.2344 Q76.8719,24.2344 77.1063,24.5 Q77.3406,24.7656 77.3406,25.375 L77.3406,28 L69.3406,28 Q68.7156,28 68.45,27.7656 Q68.2,27.5313 68.2,27.1406 Q68.2,26.7656 68.4656,26.5313 Q68.7313,26.2969 69.3406,26.2969 L69.6063,26.2969 L69.6063,19.6406 L69.3406,19.6406 Q68.7156,19.6406 68.45,19.4063 Q68.2,19.1719 68.2,18.7813 Q68.2,18.4063 68.45,18.1719 Q68.7156,17.9375 69.3406,17.9375 L76.9656,17.9375 L76.9656,20.5313 Q76.9656,21.1406 76.7313,21.4063 Q76.5125,21.6563 76.1219,21.6563 Q75.7469,21.6563 75.5125,21.4063 Q75.2781,21.1406 75.2781,20.5313 L75.2781,19.6406 L71.3094,19.6406 L71.3094,22.0938 L72.7938,22.0938 Q72.7938,21.4375 72.9188,21.25 Q73.1844,20.8438 73.6531,20.8438 Q74.0281,20.8438 74.2625,21.1094 Q74.4969,21.3594 74.4969,21.9688 L74.4969,23.9375 Q74.4969,24.4844 74.3719,24.6719 Q74.1063,25.0625 73.6531,25.0625 Q73.1844,25.0625 72.9188,24.6563 Q72.7938,24.4688 72.7938,23.7969 L71.3094,23.7969 Z " fill="#000000"/><text fill="#000000" font-family="sans-serif" font-size="14" lengthAdjust="spacing" textLength="52" x="90.55" y="28.7285">Musculo</text><line style="stroke:#181818;stroke-width:0.5;" x1="40" x2="163" y1="39" y2="39"/><text fill="#000000" font-family="sans-serif" font-size="14" lengthAdjust="spacing" textLength="55" x="45" y="57.5332">CUELLO</text><text fill="#000000" font-family="sans-serif" font-size="14" lengthAdjust="spacing" textLength="70" x="45" y="75.1426">HOMBROS</text><text fill="#000000" font-family="sans-serif" font-size="14" lengthAdjust="spacing" textLength="75" x="45" y="92.752">DORSALES</text><text fill="#000000" font-family="sans-serif" font-size="14" lengthAdjust="spacing" textLength="48" x="45" y="110.3613">PECHO</text><text fill="#000000" font-family="sans-serif" font-size="14" lengthAdjust="spacing" textLength="49" x="45" y="127.9707">BICEPS</text><text fill="#000000" font-family="sans-serif" font-size="14" lengthAdjust="spacing" textLength="59" x="45" y="145.5801">TRICEPS</text><text fill="#000000" font-family="sans-serif" font-size="14" lengthAdjust="spacing" textLength="83" x="45" y="163.1895">ANTEBRAZO</text><text fill="#000000" font-family="sans-serif" font-size="14" lengthAdjust="spacing" textLength="101" x="45" y="180.7988">ZONA_LUMBAR</text><text fill="#000000" font-family="sans-serif" font-size="14" lengthAdjust="spacing" textLength="113" x="45" y="198.4082">ESPALDA_MEDIA</text><text fill="#000000" font-family="sans-serif" font-size="14" lengthAdjust="spacing" textLength="79" x="45" y="216.0176">TRAPECIOS</text><text fill="#000000" font-family="sans-serif" font-size="14" lengthAdjust="spacing" textLength="86" x="45" y="233.627">ADUCTORES</text><text fill="#000000" font-family="sans-serif" font-size="14" lengthAdjust="spacing" textLength="95" x="45" y="251.2363">ABDUCTORES</text><text fill="#000000" font-family="sans-serif" font-size="14" lengthAdjust="spacing" textLength="97" x="45" y="268.8457">ABDOMINALES</text><text fill="#000000" font-family="sans-serif" font-size="14" lengthAdjust="spacing" textLength="66" x="45" y="286.4551">GLUTEOS</text><text fill="#000000" font-family="sans-serif" font-size="14" lengthAdjust="spacing" textLength="88" x="45" y="304.0645">CUADRICEPS</text><text fill="#000000" font-family="sans-serif" font-size="14" lengthAdjust="spacing" textLength="105" x="45" y="321.6738">ISQUIOTIBIALES</text><text fill="#000000" font-family="sans-serif" font-size="14" lengthAdjust="spacing" textLength="68" x="45" y="339.2832">GEMELOS</text><line style="stroke:#181818;stroke-width:0.5;" x1="40" x2="163" y1="346.3594" y2="346.3594"/></g><!--class DiaDeLaSemana--><g id="elem_DiaDeLaSemana"><rect codeLine="26" fill="#F1F1F1" height="171.2656" id="DiaDeLaSemana" rx="2.5" ry="2.5" style="stroke:#181818;stroke-width:0.5;" width="139" x="199" y="95"/><ellipse cx="214" cy="111" fill="#EB937F" rx="11" ry="11" style="stroke:#181818;stroke-width:1.0;"/><path d="M212.8594,111.7969 L212.8594,114.2969 L217.1875,114.2969 L217.1875,113.375 Q217.1875,112.7656 217.4219,112.5 Q217.6719,112.2344 218.0469,112.2344 Q218.4219,112.2344 218.6563,112.5 Q218.8906,112.7656 218.8906,113.375 L218.8906,116 L210.8906,116 Q210.2656,116 210,115.7656 Q209.75,115.5313 209.75,115.1406 Q209.75,114.7656 210.0156,114.5313 Q210.2813,114.2969 210.8906,114.2969 L211.1563,114.2969 L211.1563,107.6406 L210.8906,107.6406 Q210.2656,107.6406 210,107.4063 Q209.75,107.1719 209.75,106.7813 Q209.75,106.4063 210,106.1719 Q210.2656,105.9375 210.8906,105.9375 L218.5156,105.9375 L218.5156,108.5313 Q218.5156,109.1406 218.2813,109.4063 Q218.0625,109.6563 217.6719,109.6563 Q217.2969,109.6563 217.0625,109.4063 Q216.8281,109.1406 216.8281,108.5313 L216.8281,107.6406 L212.8594,107.6406 L212.8594,110.0938 L214.3438,110.0938 Q214.3438,109.4375 214.4688,109.25 Q214.7344,108.8438 215.2031,108.8438 Q215.5781,108.8438 215.8125,109.1094 Q216.0469,109.3594 216.0469,109.9688 L216.0469,111.9375 Q216.0469,112.4844 215.9219,112.6719 Q215.6563,113.0625 215.2031,113.0625 Q214.7344,113.0625 214.4688,112.6563 Q214.3438,112.4688 214.3438,111.7969 L212.8594,111.7969 Z " fill="#000000"/><text fill="#000000" font-family="sans-serif" font-size="14" lengthAdjust="spacing" textLength="107" x="228" y="116.7285">DiaDeLaSemana</text><line style="stroke:#181818;stroke-width:0.5;" x1="200" x2="337" y1="127" y2="127"/><text fill="#000000" font-family="sans-serif" font-size="14" lengthAdjust="spacing" textLength="44" x="205" y="145.5332">LUNES</text><text fill="#000000" font-family="sans-serif" font-size="14" lengthAdjust="spacing" textLength="57" x="205" y="163.1426">MARTES</text><text fill="#000000" font-family="sans-serif" font-size="14" lengthAdjust="spacing" textLength="80" x="205" y="180.752">MIERCOLES</text><text fill="#000000" font-family="sans-serif" font-size="14" lengthAdjust="spacing" textLength="51" x="205" y="198.3613">JUEVES</text><text fill="#000000" font-family="sans-serif" font-size="14" lengthAdjust="spacing" textLength="58" x="205" y="215.9707">VIERNES</text><text fill="#000000" font-family="sans-serif" font-size="14" lengthAdjust="spacing" textLength="57" x="205" y="233.5801">SABADO</text><text fill="#000000" font-family="sans-serif" font-size="14" lengthAdjust="spacing" textLength="66" x="205" y="251.1895">DOMINGO</text><line style="stroke:#181818;stroke-width:0.5;" x1="200" x2="337" y1="258.2656" y2="258.2656"/></g><!--class Genero--><g id="elem_Genero"><rect codeLine="36" fill="#F1F1F1" height="100.8281" id="Genero" rx="2.5" ry="2.5" style="stroke:#181818;stroke-width:0.5;" width="80" x="373.5" y="130"/><ellipse cx="388.5" cy="146" fill="#EB937F" rx="11" ry="11" style="stroke:#181818;stroke-width:1.0;"/><path d="M387.3594,146.7969 L387.3594,149.2969 L391.6875,149.2969 L391.6875,148.375 Q391.6875,147.7656 391.9219,147.5 Q392.1719,147.2344 392.5469,147.2344 Q392.9219,147.2344 393.1563,147.5 Q393.3906,147.7656 393.3906,148.375 L393.3906,151 L385.3906,151 Q384.7656,151 384.5,150.7656 Q384.25,150.5313 384.25,150.1406 Q384.25,149.7656 384.5156,149.5313 Q384.7813,149.2969 385.3906,149.2969 L385.6563,149.2969 L385.6563,142.6406 L385.3906,142.6406 Q384.7656,142.6406 384.5,142.4063 Q384.25,142.1719 384.25,141.7813 Q384.25,141.4063 384.5,141.1719 Q384.7656,140.9375 385.3906,140.9375 L393.0156,140.9375 L393.0156,143.5313 Q393.0156,144.1406 392.7813,144.4063 Q392.5625,144.6563 392.1719,144.6563 Q391.7969,144.6563 391.5625,144.4063 Q391.3281,144.1406 391.3281,143.5313 L391.3281,142.6406 L387.3594,142.6406 L387.3594,145.0938 L388.8438,145.0938 Q388.8438,144.4375 388.9688,144.25 Q389.2344,143.8438 389.7031,143.8438 Q390.0781,143.8438 390.3125,144.1094 Q390.5469,144.3594 390.5469,144.9688 L390.5469,146.9375 Q390.5469,147.4844 390.4219,147.6719 Q390.1563,148.0625 389.7031,148.0625 Q389.2344,148.0625 388.9688,147.6563 Q388.8438,147.4688 388.8438,146.7969 L387.3594,146.7969 Z " fill="#000000"/><text fill="#000000" font-family="sans-serif" font-size="14" lengthAdjust="spacing" textLength="48" x="402.5" y="151.7285">Genero</text><line style="stroke:#181818;stroke-width:0.5;" x1="374.5" x2="452.5" y1="162" y2="162"/><text fill="#000000" font-family="sans-serif" font-size="14" lengthAdjust="spacing" textLength="59" x="379.5" y="180.5332">HOMBRE</text><text fill="#000000" font-family="sans-serif" font-size="14" lengthAdjust="spacing" textLength="45" x="379.5" y="198.1426">MUJER</text><text fill="#000000" font-family="sans-serif" font-size="14" lengthAdjust="spacing" textLength="41" x="379.5" y="215.752">OTRO</text><line style="stroke:#181818;stroke-width:0.5;" x1="374.5" x2="452.5" y1="222.8281" y2="222.8281"/></g><!--class Objetivo--><g id="elem_Objetivo"><rect codeLine="42" fill="#F1F1F1" height="100.8281" id="Objetivo" rx="2.5" ry="2.5" style="stroke:#181818;stroke-width:0.5;" width="189" x="7" y="458"/><ellipse cx="71.25" cy="474" fill="#EB937F" rx="11" ry="11" style="stroke:#181818;stroke-width:1.0;"/><path d="M70.1094,474.7969 L70.1094,477.2969 L74.4375,477.2969 L74.4375,476.375 Q74.4375,475.7656 74.6719,475.5 Q74.9219,475.2344 75.2969,475.2344 Q75.6719,475.2344 75.9063,475.5 Q76.1406,475.7656 76.1406,476.375 L76.1406,479 L68.1406,479 Q67.5156,479 67.25,478.7656 Q67,478.5313 67,478.1406 Q67,477.7656 67.2656,477.5313 Q67.5313,477.2969 68.1406,477.2969 L68.4063,477.2969 L68.4063,470.6406 L68.1406,470.6406 Q67.5156,470.6406 67.25,470.4063 Q67,470.1719 67,469.7813 Q67,469.4063 67.25,469.1719 Q67.5156,468.9375 68.1406,468.9375 L75.7656,468.9375 L75.7656,471.5313 Q75.7656,472.1406 75.5313,472.4063 Q75.3125,472.6563 74.9219,472.6563 Q74.5469,472.6563 74.3125,472.4063 Q74.0781,472.1406 74.0781,471.5313 L74.0781,470.6406 L70.1094,470.6406 L70.1094,473.0938 L71.5938,473.0938 Q71.5938,472.4375 71.7188,472.25 Q71.9844,471.8438 72.4531,471.8438 Q72.8281,471.8438 73.0625,472.1094 Q73.2969,472.3594 73.2969,472.9688 L73.2969,474.9375 Q73.2969,475.4844 73.1719,475.6719 Q72.9063,476.0625 72.4531,476.0625 Q71.9844,476.0625 71.7188,475.6563 Q71.5938,475.4688 71.5938,474.7969 L70.1094,474.7969 Z " fill="#000000"/><text fill="#000000" font-family="sans-serif" font-size="14" lengthAdjust="spacing" textLength="52" x="91.75" y="479.7285">Objetivo</text><line style="stroke:#181818;stroke-width:0.5;" x1="8" x2="195" y1="490" y2="490"/><text fill="#000000" font-family="sans-serif" font-size="14" lengthAdjust="spacing" textLength="113" x="13" y="508.5332">PERDER_GRASA</text><text fill="#000000" font-family="sans-serif" font-size="14" lengthAdjust="spacing" textLength="177" x="13" y="526.1426">GANAR_MASA_MUSCULAR</text><text fill="#000000" font-family="sans-serif" font-size="14" lengthAdjust="spacing" textLength="121" x="13" y="543.752">MANTENER_PESO</text><line style="stroke:#181818;stroke-width:0.5;" x1="8" x2="195" y1="550.8281" y2="550.8281"/></g><!--class NivelDeActividad--><g id="elem_NivelDeActividad"><rect codeLine="48" fill="#F1F1F1" height="136.0469" id="NivelDeActividad" rx="2.5" ry="2.5" style="stroke:#181818;stroke-width:0.5;" width="172" x="231.5" y="440.5"/><ellipse cx="262.25" cy="456.5" fill="#EB937F" rx="11" ry="11" style="stroke:#181818;stroke-width:1.0;"/><path d="M261.1094,457.2969 L261.1094,459.7969 L265.4375,459.7969 L265.4375,458.875 Q265.4375,458.2656 265.6719,458 Q265.9219,457.7344 266.2969,457.7344 Q266.6719,457.7344 266.9063,458 Q267.1406,458.2656 267.1406,458.875 L267.1406,461.5 L259.1406,461.5 Q258.5156,461.5 258.25,461.2656 Q258,461.0313 258,460.6406 Q258,460.2656 258.2656,460.0313 Q258.5313,459.7969 259.1406,459.7969 L259.4063,459.7969 L259.4063,453.1406 L259.1406,453.1406 Q258.5156,453.1406 258.25,452.9063 Q258,452.6719 258,452.2813 Q258,451.9063 258.25,451.6719 Q258.5156,451.4375 259.1406,451.4375 L266.7656,451.4375 L266.7656,454.0313 Q266.7656,454.6406 266.5313,454.9063 Q266.3125,455.1563 265.9219,455.1563 Q265.5469,455.1563 265.3125,454.9063 Q265.0781,454.6406 265.0781,454.0313 L265.0781,453.1406 L261.1094,453.1406 L261.1094,455.5938 L262.5938,455.5938 Q262.5938,454.9375 262.7188,454.75 Q262.9844,454.3438 263.4531,454.3438 Q263.8281,454.3438 264.0625,454.6094 Q264.2969,454.8594 264.2969,455.4688 L264.2969,457.4375 Q264.2969,457.9844 264.1719,458.1719 Q263.9063,458.5625 263.4531,458.5625 Q262.9844,458.5625 262.7188,458.1563 Q262.5938,457.9688 262.5938,457.2969 L261.1094,457.2969 Z " fill="#000000"/><text fill="#000000" font-family="sans-serif" font-size="14" lengthAdjust="spacing" textLength="105" x="279.75" y="462.2285">NivelDeActividad</text><line style="stroke:#181818;stroke-width:0.5;" x1="232.5" x2="402.5" y1="472.5" y2="472.5"/><text fill="#000000" font-family="sans-serif" font-size="14" lengthAdjust="spacing" textLength="88" x="237.5" y="491.0332">SEDENTARIO</text><text fill="#000000" font-family="sans-serif" font-size="14" lengthAdjust="spacing" textLength="131" x="237.5" y="508.6426">EJERCICIO_LIGERO</text><text fill="#000000" font-family="sans-serif" font-size="14" lengthAdjust="spacing" textLength="160" x="237.5" y="526.252">EJERCICIO_MODERADO</text><text fill="#000000" font-family="sans-serif" font-size="14" lengthAdjust="spacing" textLength="138" x="237.5" y="543.8613">EJERCICIO_INTENSO</text><text fill="#000000" font-family="sans-serif" font-size="14" lengthAdjust="spacing" textLength="53" x="237.5" y="561.4707">ATLETA</text><line style="stroke:#181818;stroke-width:0.5;" x1="232.5" x2="402.5" y1="568.5469" y2="568.5469"/></g><!--class Usuario--><g id="elem_Usuario"><rect codeLine="60" fill="#F1F1F1" height="276.9219" id="Usuario" rx="2.5" ry="2.5" style="stroke:#181818;stroke-width:0.5;" width="247" x="615" y="42"/><ellipse cx="710.25" cy="58" fill="#ADD1B2" rx="11" ry="11" style="stroke:#181818;stroke-width:1.0;"/><path d="M713.0156,53.875 Q713.1719,53.6563 713.3594,53.5469 Q713.5469,53.4375 713.7656,53.4375 Q714.1406,53.4375 714.375,53.7031 Q714.6094,53.9531 714.6094,54.5625 L714.6094,56.0156 Q714.6094,56.625 714.375,56.8906 Q714.1406,57.1563 713.7656,57.1563 Q713.4219,57.1563 713.2188,56.9531 Q713.0156,56.7656 712.9063,56.25 Q712.8594,55.8906 712.6719,55.7031 Q712.3438,55.3281 711.7344,55.1094 Q711.125,54.8906 710.5,54.8906 Q709.7344,54.8906 709.0938,55.2188 Q708.4688,55.5469 707.9688,56.2969 Q707.4844,57.0469 707.4844,58.0781 L707.4844,59.1719 Q707.4844,60.4063 708.375,61.2344 Q709.2656,62.0469 710.8594,62.0469 Q711.7969,62.0469 712.4531,61.7969 Q712.8438,61.6406 713.2656,61.2031 Q713.5313,60.9375 713.6719,60.8594 Q713.8281,60.7813 714.0313,60.7813 Q714.3594,60.7813 714.6094,61.0469 Q714.875,61.2969 714.875,61.6406 Q714.875,61.9844 714.5313,62.3906 Q714.0313,62.9688 713.2344,63.2969 Q712.1563,63.75 710.8594,63.75 Q709.3438,63.75 708.1406,63.125 Q707.1563,62.625 706.4688,61.5625 Q705.7813,60.4844 705.7813,59.2031 L705.7813,58.0469 Q705.7813,56.7188 706.3906,55.5781 Q707.0156,54.4219 708.1094,53.8125 Q709.2031,53.1875 710.4375,53.1875 Q711.1719,53.1875 711.8125,53.3594 Q712.4688,53.5156 713.0156,53.875 Z " fill="#000000"/><text fill="#000000" font-family="sans-serif" font-size="14" lengthAdjust="spacing" textLength="48" x="730.75" y="63.7285">Usuario</text><line style="stroke:#181818;stroke-width:0.5;" x1="616" x2="861" y1="74" y2="74"/><rect fill="none" height="6" style="stroke:#C82930;stroke-width:1.0;" width="6" x="623" y="85.3047"/><text fill="#000000" font-family="sans-serif" font-size="14" lengthAdjust="spacing" textLength="103" x="635" y="92.5332">idUsuario : Long</text><rect fill="none" height="6" style="stroke:#C82930;stroke-width:1.0;" width="6" x="623" y="102.9141"/><text fill="#000000" font-family="sans-serif" font-size="14" lengthAdjust="spacing" textLength="97" x="635" y="110.1426">nombre : String</text><rect fill="none" height="6" style="stroke:#C82930;stroke-width:1.0;" width="6" x="623" y="120.5234"/><text fill="#000000" font-family="sans-serif" font-size="14" lengthAdjust="spacing" textLength="106" x="635" y="127.752">apellido1 : String</text><rect fill="none" height="6" style="stroke:#C82930;stroke-width:1.0;" width="6" x="623" y="138.1328"/><text fill="#000000" font-family="sans-serif" font-size="14" lengthAdjust="spacing" textLength="106" x="635" y="145.3613">apellido2 : String</text><rect fill="none" height="6" style="stroke:#C82930;stroke-width:1.0;" width="6" x="623" y="155.7422"/><text fill="#000000" font-family="sans-serif" font-size="14" lengthAdjust="spacing" textLength="180" x="635" y="162.9707">fechaNacimiento : LocalDate</text><rect fill="none" height="6" style="stroke:#C82930;stroke-width:1.0;" width="6" x="623" y="173.3516"/><text fill="#000000" font-family="sans-serif" font-size="14" lengthAdjust="spacing" textLength="101" x="635" y="180.5801">genero: Genero</text><rect fill="none" height="6" style="stroke:#C82930;stroke-width:1.0;" width="6" x="623" y="190.9609"/><text fill="#000000" font-family="sans-serif" font-size="14" lengthAdjust="spacing" textLength="70" x="635" y="198.1895">peso : float</text><rect fill="none" height="6" style="stroke:#C82930;stroke-width:1.0;" width="6" x="623" y="208.5703"/><text fill="#000000" font-family="sans-serif" font-size="14" lengthAdjust="spacing" textLength="63" x="635" y="215.7988">altura : int</text><rect fill="none" height="6" style="stroke:#C82930;stroke-width:1.0;" width="6" x="623" y="226.1797"/><text fill="#000000" font-family="sans-serif" font-size="14" lengthAdjust="spacing" textLength="82" x="635" y="233.4082">email : String</text><rect fill="none" height="6" style="stroke:#C82930;stroke-width:1.0;" width="6" x="623" y="243.7891"/><text fill="#000000" font-family="sans-serif" font-size="14" lengthAdjust="spacing" textLength="100" x="635" y="251.0176">telefono : String</text><rect fill="none" height="6" style="stroke:#C82930;stroke-width:1.0;" width="6" x="623" y="261.3984"/><text fill="#000000" font-family="sans-serif" font-size="14" lengthAdjust="spacing" textLength="128" x="635" y="268.627">contrasenha : String</text><rect fill="none" height="6" style="stroke:#C82930;stroke-width:1.0;" width="6" x="623" y="279.0078"/><text fill="#000000" font-family="sans-serif" font-size="14" lengthAdjust="spacing" textLength="221" x="635" y="286.2363">nivelDeActividad : NivelDeActividad</text><rect fill="none" height="6" style="stroke:#C82930;stroke-width:1.0;" width="6" x="623" y="296.6172"/><text fill="#000000" font-family="sans-serif" font-size="14" lengthAdjust="spacing" textLength="113" x="635" y="303.8457">objetivo : Objetivo</text><line style="stroke:#181818;stroke-width:0.5;" x1="616" x2="861" y1="310.9219" y2="310.9219"/></g><!--class DietaCompleta--><g id="elem_DietaCompleta"><rect codeLine="76" fill="#F1F1F1" height="188.875" id="DietaCompleta" rx="2.5" ry="2.5" style="stroke:#181818;stroke-width:0.5;" width="161" x="439" y="414"/><ellipse cx="470.2" cy="430" fill="#ADD1B2" rx="11" ry="11" style="stroke:#181818;stroke-width:1.0;"/><path d="M472.9656,425.875 Q473.1219,425.6563 473.3094,425.5469 Q473.4969,425.4375 473.7156,425.4375 Q474.0906,425.4375 474.325,425.7031 Q474.5594,425.9531 474.5594,426.5625 L474.5594,428.0156 Q474.5594,428.625 474.325,428.8906 Q474.0906,429.1563 473.7156,429.1563 Q473.3719,429.1563 473.1688,428.9531 Q472.9656,428.7656 472.8563,428.25 Q472.8094,427.8906 472.6219,427.7031 Q472.2938,427.3281 471.6844,427.1094 Q471.075,426.8906 470.45,426.8906 Q469.6844,426.8906 469.0438,427.2188 Q468.4188,427.5469 467.9188,428.2969 Q467.4344,429.0469 467.4344,430.0781 L467.4344,431.1719 Q467.4344,432.4063 468.325,433.2344 Q469.2156,434.0469 470.8094,434.0469 Q471.7469,434.0469 472.4031,433.7969 Q472.7938,433.6406 473.2156,433.2031 Q473.4813,432.9375 473.6219,432.8594 Q473.7781,432.7813 473.9813,432.7813 Q474.3094,432.7813 474.5594,433.0469 Q474.825,433.2969 474.825,433.6406 Q474.825,433.9844 474.4813,434.3906 Q473.9813,434.9688 473.1844,435.2969 Q472.1063,435.75 470.8094,435.75 Q469.2938,435.75 468.0906,435.125 Q467.1063,434.625 466.4188,433.5625 Q465.7313,432.4844 465.7313,431.2031 L465.7313,430.0469 Q465.7313,428.7188 466.3406,427.5781 Q466.9656,426.4219 468.0594,425.8125 Q469.1531,425.1875 470.3875,425.1875 Q471.1219,425.1875 471.7625,425.3594 Q472.4188,425.5156 472.9656,425.875 Z " fill="#000000"/><text fill="#000000" font-family="sans-serif" font-size="14" lengthAdjust="spacing" textLength="93" x="487.8" y="435.7285">DietaCompleta</text><line style="stroke:#181818;stroke-width:0.5;" x1="440" x2="599" y1="446" y2="446"/><rect fill="none" height="6" style="stroke:#C82930;stroke-width:1.0;" width="6" x="447" y="457.3047"/><text fill="#000000" font-family="sans-serif" font-size="14" lengthAdjust="spacing" textLength="88" x="459" y="464.5332">idDieta : Long</text><rect fill="none" height="6" style="stroke:#C82930;stroke-width:1.0;" width="6" x="447" y="474.9141"/><text fill="#000000" font-family="sans-serif" font-size="14" lengthAdjust="spacing" textLength="97" x="459" y="482.1426">nombre : String</text><rect fill="none" height="6" style="stroke:#C82930;stroke-width:1.0;" width="6" x="447" y="492.5234"/><text fill="#000000" font-family="sans-serif" font-size="14" lengthAdjust="spacing" textLength="121" x="459" y="499.752">descripcion : String</text><rect fill="none" height="6" style="stroke:#C82930;stroke-width:1.0;" width="6" x="447" y="510.1328"/><text fill="#000000" font-family="sans-serif" font-size="14" lengthAdjust="spacing" textLength="135" x="459" y="517.3613">caloriasTotales : float</text><rect fill="none" height="6" style="stroke:#C82930;stroke-width:1.0;" width="6" x="447" y="527.7422"/><text fill="#000000" font-family="sans-serif" font-size="14" lengthAdjust="spacing" textLength="98" x="459" y="534.9707">proteinas : float</text><rect fill="none" height="6" style="stroke:#C82930;stroke-width:1.0;" width="6" x="447" y="545.3516"/><text fill="#000000" font-family="sans-serif" font-size="14" lengthAdjust="spacing" textLength="126" x="459" y="552.5801">carbohidratos : float</text><rect fill="none" height="6" style="stroke:#C82930;stroke-width:1.0;" width="6" x="447" y="562.9609"/><text fill="#000000" font-family="sans-serif" font-size="14" lengthAdjust="spacing" textLength="82" x="459" y="570.1895">grasas : float</text><rect fill="none" height="6" style="stroke:#C82930;stroke-width:1.0;" width="6" x="447" y="580.5703"/><text fill="#000000" font-family="sans-serif" font-size="14" lengthAdjust="spacing" textLength="100" x="459" y="587.7988">activa : boolean</text><line style="stroke:#181818;stroke-width:0.5;" x1="440" x2="599" y1="594.875" y2="594.875"/></g><!--class DiaEnDieta--><g id="elem_DiaEnDieta"><rect codeLine="87" fill="#F1F1F1" height="171.2656" id="DiaEnDieta" rx="2.5" ry="2.5" style="stroke:#181818;stroke-width:0.5;" width="250" x="394.5" y="663"/><ellipse cx="479.75" cy="679" fill="#ADD1B2" rx="11" ry="11" style="stroke:#181818;stroke-width:1.0;"/><path d="M482.5156,674.875 Q482.6719,674.6563 482.8594,674.5469 Q483.0469,674.4375 483.2656,674.4375 Q483.6406,674.4375 483.875,674.7031 Q484.1094,674.9531 484.1094,675.5625 L484.1094,677.0156 Q484.1094,677.625 483.875,677.8906 Q483.6406,678.1563 483.2656,678.1563 Q482.9219,678.1563 482.7188,677.9531 Q482.5156,677.7656 482.4063,677.25 Q482.3594,676.8906 482.1719,676.7031 Q481.8438,676.3281 481.2344,676.1094 Q480.625,675.8906 480,675.8906 Q479.2344,675.8906 478.5938,676.2188 Q477.9688,676.5469 477.4688,677.2969 Q476.9844,678.0469 476.9844,679.0781 L476.9844,680.1719 Q476.9844,681.4063 477.875,682.2344 Q478.7656,683.0469 480.3594,683.0469 Q481.2969,683.0469 481.9531,682.7969 Q482.3438,682.6406 482.7656,682.2031 Q483.0313,681.9375 483.1719,681.8594 Q483.3281,681.7813 483.5313,681.7813 Q483.8594,681.7813 484.1094,682.0469 Q484.375,682.2969 484.375,682.6406 Q484.375,682.9844 484.0313,683.3906 Q483.5313,683.9688 482.7344,684.2969 Q481.6563,684.75 480.3594,684.75 Q478.8438,684.75 477.6406,684.125 Q476.6563,683.625 475.9688,682.5625 Q475.2813,681.4844 475.2813,680.2031 L475.2813,679.0469 Q475.2813,677.7188 475.8906,676.5781 Q476.5156,675.4219 477.6094,674.8125 Q478.7031,674.1875 479.9375,674.1875 Q480.6719,674.1875 481.3125,674.3594 Q481.9688,674.5156 482.5156,674.875 Z " fill="#000000"/><text fill="#000000" font-family="sans-serif" font-size="14" lengthAdjust="spacing" textLength="71" x="500.25" y="684.7285">DiaEnDieta</text><line style="stroke:#181818;stroke-width:0.5;" x1="395.5" x2="643.5" y1="695" y2="695"/><rect fill="none" height="6" style="stroke:#C82930;stroke-width:1.0;" width="6" x="402.5" y="706.3047"/><text fill="#000000" font-family="sans-serif" font-size="14" lengthAdjust="spacing" textLength="126" x="414.5" y="713.5332">idDiaEnDieta : Long</text><rect fill="none" height="6" style="stroke:#C82930;stroke-width:1.0;" width="6" x="402.5" y="723.9141"/><text fill="#000000" font-family="sans-serif" font-size="14" lengthAdjust="spacing" textLength="97" x="414.5" y="731.1426">nombre : String</text><rect fill="none" height="6" style="stroke:#C82930;stroke-width:1.0;" width="6" x="402.5" y="741.5234"/><text fill="#000000" font-family="sans-serif" font-size="14" lengthAdjust="spacing" textLength="135" x="414.5" y="748.752">caloriasTotales : float</text><rect fill="none" height="6" style="stroke:#C82930;stroke-width:1.0;" width="6" x="402.5" y="759.1328"/><text fill="#000000" font-family="sans-serif" font-size="14" lengthAdjust="spacing" textLength="98" x="414.5" y="766.3613">proteinas : float</text><rect fill="none" height="6" style="stroke:#C82930;stroke-width:1.0;" width="6" x="402.5" y="776.7422"/><text fill="#000000" font-family="sans-serif" font-size="14" lengthAdjust="spacing" textLength="126" x="414.5" y="783.9707">carbohidratos : float</text><rect fill="none" height="6" style="stroke:#C82930;stroke-width:1.0;" width="6" x="402.5" y="794.3516"/><text fill="#000000" font-family="sans-serif" font-size="14" lengthAdjust="spacing" textLength="82" x="414.5" y="801.5801">grasas : float</text><rect fill="none" height="6" style="stroke:#C82930;stroke-width:1.0;" width="6" x="402.5" y="811.9609"/><text fill="#000000" font-family="sans-serif" font-size="14" lengthAdjust="spacing" textLength="224" x="414.5" y="819.1895">diaDeLaSemana : DiaDeLaSemana</text><line style="stroke:#181818;stroke-width:0.5;" x1="395.5" x2="643.5" y1="826.2656" y2="826.2656"/></g><!--class Comida--><g id="elem_Comida"><rect codeLine="98" fill="#F1F1F1" height="153.6563" id="Comida" rx="2.5" ry="2.5" style="stroke:#181818;stroke-width:0.5;" width="161" x="439" y="894"/><ellipse cx="491.25" cy="910" fill="#ADD1B2" rx="11" ry="11" style="stroke:#181818;stroke-width:1.0;"/><path d="M494.0156,905.875 Q494.1719,905.6563 494.3594,905.5469 Q494.5469,905.4375 494.7656,905.4375 Q495.1406,905.4375 495.375,905.7031 Q495.6094,905.9531 495.6094,906.5625 L495.6094,908.0156 Q495.6094,908.625 495.375,908.8906 Q495.1406,909.1563 494.7656,909.1563 Q494.4219,909.1563 494.2188,908.9531 Q494.0156,908.7656 493.9063,908.25 Q493.8594,907.8906 493.6719,907.7031 Q493.3438,907.3281 492.7344,907.1094 Q492.125,906.8906 491.5,906.8906 Q490.7344,906.8906 490.0938,907.2188 Q489.4688,907.5469 488.9688,908.2969 Q488.4844,909.0469 488.4844,910.0781 L488.4844,911.1719 Q488.4844,912.4063 489.375,913.2344 Q490.2656,914.0469 491.8594,914.0469 Q492.7969,914.0469 493.4531,913.7969 Q493.8438,913.6406 494.2656,913.2031 Q494.5313,912.9375 494.6719,912.8594 Q494.8281,912.7813 495.0313,912.7813 Q495.3594,912.7813 495.6094,913.0469 Q495.875,913.2969 495.875,913.6406 Q495.875,913.9844 495.5313,914.3906 Q495.0313,914.9688 494.2344,915.2969 Q493.1563,915.75 491.8594,915.75 Q490.3438,915.75 489.1406,915.125 Q488.1563,914.625 487.4688,913.5625 Q486.7813,912.4844 486.7813,911.2031 L486.7813,910.0469 Q486.7813,908.7188 487.3906,907.5781 Q488.0156,906.4219 489.1094,905.8125 Q490.2031,905.1875 491.4375,905.1875 Q492.1719,905.1875 492.8125,905.3594 Q493.4688,905.5156 494.0156,905.875 Z " fill="#000000"/><text fill="#000000" font-family="sans-serif" font-size="14" lengthAdjust="spacing" textLength="48" x="511.75" y="915.7285">Comida</text><line style="stroke:#181818;stroke-width:0.5;" x1="440" x2="599" y1="926" y2="926"/><rect fill="none" height="6" style="stroke:#C82930;stroke-width:1.0;" width="6" x="447" y="937.3047"/><text fill="#000000" font-family="sans-serif" font-size="14" lengthAdjust="spacing" textLength="103" x="459" y="944.5332">idComida : Long</text><rect fill="none" height="6" style="stroke:#C82930;stroke-width:1.0;" width="6" x="447" y="954.9141"/><text fill="#000000" font-family="sans-serif" font-size="14" lengthAdjust="spacing" textLength="97" x="459" y="962.1426">nombre : String</text><rect fill="none" height="6" style="stroke:#C82930;stroke-width:1.0;" width="6" x="447" y="972.5234"/><text fill="#000000" font-family="sans-serif" font-size="14" lengthAdjust="spacing" textLength="135" x="459" y="979.752">caloriasTotales : float</text><rect fill="none" height="6" style="stroke:#C82930;stroke-width:1.0;" width="6" x="447" y="990.1328"/><text fill="#000000" font-family="sans-serif" font-size="14" lengthAdjust="spacing" textLength="98" x="459" y="997.3613">proteinas : float</text><rect fill="none" height="6" style="stroke:#C82930;stroke-width:1.0;" width="6" x="447" y="1007.7422"/><text fill="#000000" font-family="sans-serif" font-size="14" lengthAdjust="spacing" textLength="126" x="459" y="1014.9707">carbohidratos : float</text><rect fill="none" height="6" style="stroke:#C82930;stroke-width:1.0;" width="6" x="447" y="1025.3516"/><text fill="#000000" font-family="sans-serif" font-size="14" lengthAdjust="spacing" textLength="82" x="459" y="1032.5801">grasas : float</text><line style="stroke:#181818;stroke-width:0.5;" x1="440" x2="599" y1="1039.6563" y2="1039.6563"/></g><!--class Ingrediente--><g id="elem_Ingrediente"><rect codeLine="107" fill="#F1F1F1" height="171.2656" id="Ingrediente" rx="2.5" ry="2.5" style="stroke:#181818;stroke-width:0.5;" width="169" x="435" y="1108"/><ellipse cx="479.75" cy="1124" fill="#ADD1B2" rx="11" ry="11" style="stroke:#181818;stroke-width:1.0;"/><path d="M482.5156,1119.875 Q482.6719,1119.6563 482.8594,1119.5469 Q483.0469,1119.4375 483.2656,1119.4375 Q483.6406,1119.4375 483.875,1119.7031 Q484.1094,1119.9531 484.1094,1120.5625 L484.1094,1122.0156 Q484.1094,1122.625 483.875,1122.8906 Q483.6406,1123.1563 483.2656,1123.1563 Q482.9219,1123.1563 482.7188,1122.9531 Q482.5156,1122.7656 482.4063,1122.25 Q482.3594,1121.8906 482.1719,1121.7031 Q481.8438,1121.3281 481.2344,1121.1094 Q480.625,1120.8906 480,1120.8906 Q479.2344,1120.8906 478.5938,1121.2188 Q477.9688,1121.5469 477.4688,1122.2969 Q476.9844,1123.0469 476.9844,1124.0781 L476.9844,1125.1719 Q476.9844,1126.4063 477.875,1127.2344 Q478.7656,1128.0469 480.3594,1128.0469 Q481.2969,1128.0469 481.9531,1127.7969 Q482.3438,1127.6406 482.7656,1127.2031 Q483.0313,1126.9375 483.1719,1126.8594 Q483.3281,1126.7813 483.5313,1126.7813 Q483.8594,1126.7813 484.1094,1127.0469 Q484.375,1127.2969 484.375,1127.6406 Q484.375,1127.9844 484.0313,1128.3906 Q483.5313,1128.9688 482.7344,1129.2969 Q481.6563,1129.75 480.3594,1129.75 Q478.8438,1129.75 477.6406,1129.125 Q476.6563,1128.625 475.9688,1127.5625 Q475.2813,1126.4844 475.2813,1125.2031 L475.2813,1124.0469 Q475.2813,1122.7188 475.8906,1121.5781 Q476.5156,1120.4219 477.6094,1119.8125 Q478.7031,1119.1875 479.9375,1119.1875 Q480.6719,1119.1875 481.3125,1119.3594 Q481.9688,1119.5156 482.5156,1119.875 Z " fill="#000000"/><text fill="#000000" font-family="sans-serif" font-size="14" lengthAdjust="spacing" textLength="71" x="500.25" y="1129.7285">Ingrediente</text><line style="stroke:#181818;stroke-width:0.5;" x1="436" x2="603" y1="1140" y2="1140"/><rect fill="none" height="6" style="stroke:#C82930;stroke-width:1.0;" width="6" x="443" y="1151.3047"/><text fill="#000000" font-family="sans-serif" font-size="14" lengthAdjust="spacing" textLength="126" x="455" y="1158.5332">idIngrediente : Long</text><rect fill="none" height="6" style="stroke:#C82930;stroke-width:1.0;" width="6" x="443" y="1168.9141"/><text fill="#000000" font-family="sans-serif" font-size="14" lengthAdjust="spacing" textLength="97" x="455" y="1176.1426">nombre : String</text><rect fill="none" height="6" style="stroke:#C82930;stroke-width:1.0;" width="6" x="443" y="1186.5234"/><text fill="#000000" font-family="sans-serif" font-size="14" lengthAdjust="spacing" textLength="143" x="455" y="1193.752">cantidadGramos : float</text><rect fill="none" height="6" style="stroke:#C82930;stroke-width:1.0;" width="6" x="443" y="1204.1328"/><text fill="#000000" font-family="sans-serif" font-size="14" lengthAdjust="spacing" textLength="88" x="455" y="1211.3613">calorias : float</text><rect fill="none" height="6" style="stroke:#C82930;stroke-width:1.0;" width="6" x="443" y="1221.7422"/><text fill="#000000" font-family="sans-serif" font-size="14" lengthAdjust="spacing" textLength="98" x="455" y="1228.9707">proteinas : float</text><rect fill="none" height="6" style="stroke:#C82930;stroke-width:1.0;" width="6" x="443" y="1239.3516"/><text fill="#000000" font-family="sans-serif" font-size="14" lengthAdjust="spacing" textLength="126" x="455" y="1246.5801">carbohidratos : float</text><rect fill="none" height="6" style="stroke:#C82930;stroke-width:1.0;" width="6" x="443" y="1256.9609"/><text fill="#000000" font-family="sans-serif" font-size="14" lengthAdjust="spacing" textLength="82" x="455" y="1264.1895">grasas : float</text><line style="stroke:#181818;stroke-width:0.5;" x1="436" x2="603" y1="1271.2656" y2="1271.2656"/></g><!--class Alimento--><g id="elem_Alimento"><rect codeLine="117" fill="#F1F1F1" height="153.6563" id="Alimento" rx="2.5" ry="2.5" style="stroke:#181818;stroke-width:0.5;" width="206" x="635.5" y="431.5"/><ellipse cx="707.25" cy="447.5" fill="#ADD1B2" rx="11" ry="11" style="stroke:#181818;stroke-width:1.0;"/><path d="M710.0156,443.375 Q710.1719,443.1563 710.3594,443.0469 Q710.5469,442.9375 710.7656,442.9375 Q711.1406,442.9375 711.375,443.2031 Q711.6094,443.4531 711.6094,444.0625 L711.6094,445.5156 Q711.6094,446.125 711.375,446.3906 Q711.1406,446.6563 710.7656,446.6563 Q710.4219,446.6563 710.2188,446.4531 Q710.0156,446.2656 709.9063,445.75 Q709.8594,445.3906 709.6719,445.2031 Q709.3438,444.8281 708.7344,444.6094 Q708.125,444.3906 707.5,444.3906 Q706.7344,444.3906 706.0938,444.7188 Q705.4688,445.0469 704.9688,445.7969 Q704.4844,446.5469 704.4844,447.5781 L704.4844,448.6719 Q704.4844,449.9063 705.375,450.7344 Q706.2656,451.5469 707.8594,451.5469 Q708.7969,451.5469 709.4531,451.2969 Q709.8438,451.1406 710.2656,450.7031 Q710.5313,450.4375 710.6719,450.3594 Q710.8281,450.2813 711.0313,450.2813 Q711.3594,450.2813 711.6094,450.5469 Q711.875,450.7969 711.875,451.1406 Q711.875,451.4844 711.5313,451.8906 Q711.0313,452.4688 710.2344,452.7969 Q709.1563,453.25 707.8594,453.25 Q706.3438,453.25 705.1406,452.625 Q704.1563,452.125 703.4688,451.0625 Q702.7813,449.9844 702.7813,448.7031 L702.7813,447.5469 Q702.7813,446.2188 703.3906,445.0781 Q704.0156,443.9219 705.1094,443.3125 Q706.2031,442.6875 707.4375,442.6875 Q708.1719,442.6875 708.8125,442.8594 Q709.4688,443.0156 710.0156,443.375 Z " fill="#000000"/><text fill="#000000" font-family="sans-serif" font-size="14" lengthAdjust="spacing" textLength="54" x="727.75" y="453.2285">Alimento</text><line style="stroke:#181818;stroke-width:0.5;" x1="636.5" x2="840.5" y1="463.5" y2="463.5"/><rect fill="none" height="6" style="stroke:#C82930;stroke-width:1.0;" width="6" x="643.5" y="474.8047"/><text fill="#000000" font-family="sans-serif" font-size="14" lengthAdjust="spacing" textLength="109" x="655.5" y="482.0332">idAlimento : Long</text><rect fill="none" height="6" style="stroke:#C82930;stroke-width:1.0;" width="6" x="643.5" y="492.4141"/><text fill="#000000" font-family="sans-serif" font-size="14" lengthAdjust="spacing" textLength="97" x="655.5" y="499.6426">nombre : String</text><rect fill="none" height="6" style="stroke:#C82930;stroke-width:1.0;" width="6" x="643.5" y="510.0234"/><text fill="#000000" font-family="sans-serif" font-size="14" lengthAdjust="spacing" textLength="142" x="655.5" y="517.252">caloriasPor100g : float</text><rect fill="none" height="6" style="stroke:#C82930;stroke-width:1.0;" width="6" x="643.5" y="527.6328"/><text fill="#000000" font-family="sans-serif" font-size="14" lengthAdjust="spacing" textLength="152" x="655.5" y="534.8613">proteinasPor100g : float</text><rect fill="none" height="6" style="stroke:#C82930;stroke-width:1.0;" width="6" x="643.5" y="545.2422"/><text fill="#000000" font-family="sans-serif" font-size="14" lengthAdjust="spacing" textLength="180" x="655.5" y="552.4707">carbohidratosPor100g : float</text><rect fill="none" height="6" style="stroke:#C82930;stroke-width:1.0;" width="6" x="643.5" y="562.8516"/><text fill="#000000" font-family="sans-serif" font-size="14" lengthAdjust="spacing" textLength="136" x="655.5" y="570.0801">grasasPor100g : float</text><line style="stroke:#181818;stroke-width:0.5;" x1="636.5" x2="840.5" y1="577.1563" y2="577.1563"/></g><!--class RutinaCompleta--><g id="elem_RutinaCompleta"><rect codeLine="126" fill="#F1F1F1" height="100.8281" id="RutinaCompleta" rx="2.5" ry="2.5" style="stroke:#181818;stroke-width:0.5;" width="133" x="877" y="458"/><ellipse cx="892" cy="474" fill="#ADD1B2" rx="11" ry="11" style="stroke:#181818;stroke-width:1.0;"/><path d="M894.7656,469.875 Q894.9219,469.6563 895.1094,469.5469 Q895.2969,469.4375 895.5156,469.4375 Q895.8906,469.4375 896.125,469.7031 Q896.3594,469.9531 896.3594,470.5625 L896.3594,472.0156 Q896.3594,472.625 896.125,472.8906 Q895.8906,473.1563 895.5156,473.1563 Q895.1719,473.1563 894.9688,472.9531 Q894.7656,472.7656 894.6563,472.25 Q894.6094,471.8906 894.4219,471.7031 Q894.0938,471.3281 893.4844,471.1094 Q892.875,470.8906 892.25,470.8906 Q891.4844,470.8906 890.8438,471.2188 Q890.2188,471.5469 889.7188,472.2969 Q889.2344,473.0469 889.2344,474.0781 L889.2344,475.1719 Q889.2344,476.4063 890.125,477.2344 Q891.0156,478.0469 892.6094,478.0469 Q893.5469,478.0469 894.2031,477.7969 Q894.5938,477.6406 895.0156,477.2031 Q895.2813,476.9375 895.4219,476.8594 Q895.5781,476.7813 895.7813,476.7813 Q896.1094,476.7813 896.3594,477.0469 Q896.625,477.2969 896.625,477.6406 Q896.625,477.9844 896.2813,478.3906 Q895.7813,478.9688 894.9844,479.2969 Q893.9063,479.75 892.6094,479.75 Q891.0938,479.75 889.8906,479.125 Q888.9063,478.625 888.2188,477.5625 Q887.5313,476.4844 887.5313,475.2031 L887.5313,474.0469 Q887.5313,472.7188 888.1406,471.5781 Q888.7656,470.4219 889.8594,469.8125 Q890.9531,469.1875 892.1875,469.1875 Q892.9219,469.1875 893.5625,469.3594 Q894.2188,469.5156 894.7656,469.875 Z " fill="#000000"/><text fill="#000000" font-family="sans-serif" font-size="14" lengthAdjust="spacing" textLength="101" x="906" y="479.7285">RutinaCompleta</text><line style="stroke:#181818;stroke-width:0.5;" x1="878" x2="1009" y1="490" y2="490"/><rect fill="none" height="6" style="stroke:#C82930;stroke-width:1.0;" width="6" x="885" y="501.3047"/><text fill="#000000" font-family="sans-serif" font-size="14" lengthAdjust="spacing" textLength="96" x="897" y="508.5332">idRutina : Long</text><rect fill="none" height="6" style="stroke:#C82930;stroke-width:1.0;" width="6" x="885" y="518.9141"/><text fill="#000000" font-family="sans-serif" font-size="14" lengthAdjust="spacing" textLength="97" x="897" y="526.1426">nombre : String</text><rect fill="none" height="6" style="stroke:#C82930;stroke-width:1.0;" width="6" x="885" y="536.5234"/><text fill="#000000" font-family="sans-serif" font-size="14" lengthAdjust="spacing" textLength="104" x="897" y="543.752">resumen : String</text><line style="stroke:#181818;stroke-width:0.5;" x1="878" x2="1009" y1="550.8281" y2="550.8281"/></g><!--class DiaEnRutina--><g id="elem_DiaEnRutina"><rect codeLine="132" fill="#F1F1F1" height="100.8281" id="DiaEnRutina" rx="2.5" ry="2.5" style="stroke:#181818;stroke-width:0.5;" width="250" x="818.5" y="698"/><ellipse cx="899.75" cy="714" fill="#ADD1B2" rx="11" ry="11" style="stroke:#181818;stroke-width:1.0;"/><path d="M902.5156,709.875 Q902.6719,709.6563 902.8594,709.5469 Q903.0469,709.4375 903.2656,709.4375 Q903.6406,709.4375 903.875,709.7031 Q904.1094,709.9531 904.1094,710.5625 L904.1094,712.0156 Q904.1094,712.625 903.875,712.8906 Q903.6406,713.1563 903.2656,713.1563 Q902.9219,713.1563 902.7188,712.9531 Q902.5156,712.7656 902.4063,712.25 Q902.3594,711.8906 902.1719,711.7031 Q901.8438,711.3281 901.2344,711.1094 Q900.625,710.8906 900,710.8906 Q899.2344,710.8906 898.5938,711.2188 Q897.9688,711.5469 897.4688,712.2969 Q896.9844,713.0469 896.9844,714.0781 L896.9844,715.1719 Q896.9844,716.4063 897.875,717.2344 Q898.7656,718.0469 900.3594,718.0469 Q901.2969,718.0469 901.9531,717.7969 Q902.3438,717.6406 902.7656,717.2031 Q903.0313,716.9375 903.1719,716.8594 Q903.3281,716.7813 903.5313,716.7813 Q903.8594,716.7813 904.1094,717.0469 Q904.375,717.2969 904.375,717.6406 Q904.375,717.9844 904.0313,718.3906 Q903.5313,718.9688 902.7344,719.2969 Q901.6563,719.75 900.3594,719.75 Q898.8438,719.75 897.6406,719.125 Q896.6563,718.625 895.9688,717.5625 Q895.2813,716.4844 895.2813,715.2031 L895.2813,714.0469 Q895.2813,712.7188 895.8906,711.5781 Q896.5156,710.4219 897.6094,709.8125 Q898.7031,709.1875 899.9375,709.1875 Q900.6719,709.1875 901.3125,709.3594 Q901.9688,709.5156 902.5156,709.875 Z " fill="#000000"/><text fill="#000000" font-family="sans-serif" font-size="14" lengthAdjust="spacing" textLength="79" x="920.25" y="719.7285">DiaEnRutina</text><line style="stroke:#181818;stroke-width:0.5;" x1="819.5" x2="1067.5" y1="730" y2="730"/><rect fill="none" height="6" style="stroke:#C82930;stroke-width:1.0;" width="6" x="826.5" y="741.3047"/><text fill="#000000" font-family="sans-serif" font-size="14" lengthAdjust="spacing" textLength="126" x="838.5" y="748.5332">idDiaEnDieta : Long</text><rect fill="none" height="6" style="stroke:#C82930;stroke-width:1.0;" width="6" x="826.5" y="758.9141"/><text fill="#000000" font-family="sans-serif" font-size="14" lengthAdjust="spacing" textLength="97" x="838.5" y="766.1426">nombre : String</text><rect fill="none" height="6" style="stroke:#C82930;stroke-width:1.0;" width="6" x="826.5" y="776.5234"/><text fill="#000000" font-family="sans-serif" font-size="14" lengthAdjust="spacing" textLength="224" x="838.5" y="783.752">diaDeLaSemana : DiaDeLaSemana</text><line style="stroke:#181818;stroke-width:0.5;" x1="819.5" x2="1067.5" y1="790.8281" y2="790.8281"/></g><!--class Ejercicio--><g id="elem_Ejercicio"><rect codeLine="138" fill="#F1F1F1" height="100.8281" id="Ejercicio" rx="2.5" ry="2.5" style="stroke:#181818;stroke-width:0.5;" width="202" x="842.5" y="920.5"/><ellipse cx="912.75" cy="936.5" fill="#ADD1B2" rx="11" ry="11" style="stroke:#181818;stroke-width:1.0;"/><path d="M915.5156,932.375 Q915.6719,932.1563 915.8594,932.0469 Q916.0469,931.9375 916.2656,931.9375 Q916.6406,931.9375 916.875,932.2031 Q917.1094,932.4531 917.1094,933.0625 L917.1094,934.5156 Q917.1094,935.125 916.875,935.3906 Q916.6406,935.6563 916.2656,935.6563 Q915.9219,935.6563 915.7188,935.4531 Q915.5156,935.2656 915.4063,934.75 Q915.3594,934.3906 915.1719,934.2031 Q914.8438,933.8281 914.2344,933.6094 Q913.625,933.3906 913,933.3906 Q912.2344,933.3906 911.5938,933.7188 Q910.9688,934.0469 910.4688,934.7969 Q909.9844,935.5469 909.9844,936.5781 L909.9844,937.6719 Q909.9844,938.9063 910.875,939.7344 Q911.7656,940.5469 913.3594,940.5469 Q914.2969,940.5469 914.9531,940.2969 Q915.3438,940.1406 915.7656,939.7031 Q916.0313,939.4375 916.1719,939.3594 Q916.3281,939.2813 916.5313,939.2813 Q916.8594,939.2813 917.1094,939.5469 Q917.375,939.7969 917.375,940.1406 Q917.375,940.4844 917.0313,940.8906 Q916.5313,941.4688 915.7344,941.7969 Q914.6563,942.25 913.3594,942.25 Q911.8438,942.25 910.6406,941.625 Q909.6563,941.125 908.9688,940.0625 Q908.2813,938.9844 908.2813,937.7031 L908.2813,936.5469 Q908.2813,935.2188 908.8906,934.0781 Q909.5156,932.9219 910.6094,932.3125 Q911.7031,931.6875 912.9375,931.6875 Q913.6719,931.6875 914.3125,931.8594 Q914.9688,932.0156 915.5156,932.375 Z " fill="#000000"/><text fill="#000000" font-family="sans-serif" font-size="14" lengthAdjust="spacing" textLength="53" x="933.25" y="942.2285">Ejercicio</text><line style="stroke:#181818;stroke-width:0.5;" x1="843.5" x2="1043.5" y1="952.5" y2="952.5"/><rect fill="none" height="6" style="stroke:#C82930;stroke-width:1.0;" width="6" x="850.5" y="963.8047"/><text fill="#000000" font-family="sans-serif" font-size="14" lengthAdjust="spacing" textLength="108" x="862.5" y="971.0332">idEjercicio : Long</text><rect fill="none" height="6" style="stroke:#C82930;stroke-width:1.0;" width="6" x="850.5" y="981.4141"/><text fill="#000000" font-family="sans-serif" font-size="14" lengthAdjust="spacing" textLength="97" x="862.5" y="988.6426">nombre : String</text><rect fill="none" height="6" style="stroke:#C82930;stroke-width:1.0;" width="6" x="850.5" y="999.0234"/><text fill="#000000" font-family="sans-serif" font-size="14" lengthAdjust="spacing" textLength="176" x="862.5" y="1006.252">musculoEnfocado : Musculo</text><line style="stroke:#181818;stroke-width:0.5;" x1="843.5" x2="1043.5" y1="1013.3281" y2="1013.3281"/></g><!--class Serie--><g id="elem_Serie"><rect codeLine="144" fill="#F1F1F1" height="118.4375" id="Serie" rx="2.5" ry="2.5" style="stroke:#181818;stroke-width:0.5;" width="156" x="865.5" y="1134.5"/><ellipse cx="922.75" cy="1150.5" fill="#ADD1B2" rx="11" ry="11" style="stroke:#181818;stroke-width:1.0;"/><path d="M925.5156,1146.375 Q925.6719,1146.1563 925.8594,1146.0469 Q926.0469,1145.9375 926.2656,1145.9375 Q926.6406,1145.9375 926.875,1146.2031 Q927.1094,1146.4531 927.1094,1147.0625 L927.1094,1148.5156 Q927.1094,1149.125 926.875,1149.3906 Q926.6406,1149.6563 926.2656,1149.6563 Q925.9219,1149.6563 925.7188,1149.4531 Q925.5156,1149.2656 925.4063,1148.75 Q925.3594,1148.3906 925.1719,1148.2031 Q924.8438,1147.8281 924.2344,1147.6094 Q923.625,1147.3906 923,1147.3906 Q922.2344,1147.3906 921.5938,1147.7188 Q920.9688,1148.0469 920.4688,1148.7969 Q919.9844,1149.5469 919.9844,1150.5781 L919.9844,1151.6719 Q919.9844,1152.9063 920.875,1153.7344 Q921.7656,1154.5469 923.3594,1154.5469 Q924.2969,1154.5469 924.9531,1154.2969 Q925.3438,1154.1406 925.7656,1153.7031 Q926.0313,1153.4375 926.1719,1153.3594 Q926.3281,1153.2813 926.5313,1153.2813 Q926.8594,1153.2813 927.1094,1153.5469 Q927.375,1153.7969 927.375,1154.1406 Q927.375,1154.4844 927.0313,1154.8906 Q926.5313,1155.4688 925.7344,1155.7969 Q924.6563,1156.25 923.3594,1156.25 Q921.8438,1156.25 920.6406,1155.625 Q919.6563,1155.125 918.9688,1154.0625 Q918.2813,1152.9844 918.2813,1151.7031 L918.2813,1150.5469 Q918.2813,1149.2188 918.8906,1148.0781 Q919.5156,1146.9219 920.6094,1146.3125 Q921.7031,1145.6875 922.9375,1145.6875 Q923.6719,1145.6875 924.3125,1145.8594 Q924.9688,1146.0156 925.5156,1146.375 Z " fill="#000000"/><text fill="#000000" font-family="sans-serif" font-size="14" lengthAdjust="spacing" textLength="33" x="943.25" y="1156.2285">Serie</text><line style="stroke:#181818;stroke-width:0.5;" x1="866.5" x2="1020.5" y1="1166.5" y2="1166.5"/><rect fill="none" height="6" style="stroke:#C82930;stroke-width:1.0;" width="6" x="873.5" y="1177.8047"/><text fill="#000000" font-family="sans-serif" font-size="14" lengthAdjust="spacing" textLength="88" x="885.5" y="1185.0332">idSerie : Long</text><rect fill="none" height="6" style="stroke:#C82930;stroke-width:1.0;" width="6" x="873.5" y="1195.4141"/><text fill="#000000" font-family="sans-serif" font-size="14" lengthAdjust="spacing" textLength="130" x="885.5" y="1202.6426">serieAnterior : String</text><rect fill="none" height="6" style="stroke:#C82930;stroke-width:1.0;" width="6" x="873.5" y="1213.0234"/><text fill="#000000" font-family="sans-serif" font-size="14" lengthAdjust="spacing" textLength="104" x="885.5" y="1220.252">repeticiones : int</text><rect fill="none" height="6" style="stroke:#C82930;stroke-width:1.0;" width="6" x="873.5" y="1230.6328"/><text fill="#000000" font-family="sans-serif" font-size="14" lengthAdjust="spacing" textLength="58" x="885.5" y="1237.8613">peso : int</text><line style="stroke:#181818;stroke-width:0.5;" x1="866.5" x2="1020.5" y1="1244.9375" y2="1244.9375"/></g><!--link Usuario to DietaCompleta--><g id="link_Usuario_DietaCompleta"><path codeLine="155" d="M645.94,319.28 C624.58,351.08 602.33,384.19 582.57,413.62 " fill="none" id="Usuario-DietaCompleta" style="stroke:#181818;stroke-width:1.0;"/><text fill="#000000" font-family="sans-serif" font-size="13" lengthAdjust="spacing" textLength="7" x="633.9869" y="340.3545">1</text><text fill="#000000" font-family="sans-serif" font-size="13" lengthAdjust="spacing" textLength="20" x="566.6332" y="403.2566">0..*</text></g><!--link DietaCompleta to DiaEnDieta--><g id="link_DietaCompleta_DiaEnDieta"><path codeLine="157" d="M519.5,603.22 C519.5,622.86 519.5,643.47 519.5,662.76 " fill="none" id="DietaCompleta-DiaEnDieta" style="stroke:#181818;stroke-width:1.0;"/><text fill="#000000" font-family="sans-serif" font-size="13" lengthAdjust="spacing" textLength="7" x="512.243" y="624.2761">1</text><text fill="#000000" font-family="sans-serif" font-size="13" lengthAdjust="spacing" textLength="20" x="498.6406" y="652.203">1..*</text></g><!--link Usuario to RutinaCompleta--><g id="link_Usuario_RutinaCompleta"><path codeLine="159" d="M825.14,319.28 C856.07,368.46 888.97,420.78 912.21,457.74 " fill="none" id="Usuario-RutinaCompleta" style="stroke:#181818;stroke-width:1.0;"/><text fill="#000000" font-family="sans-serif" font-size="13" lengthAdjust="spacing" textLength="7" x="822.4269" y="340.3545">1</text><text fill="#000000" font-family="sans-serif" font-size="13" lengthAdjust="spacing" textLength="20" x="886.4036" y="447.0088">0..*</text></g><!--link DiaEnDieta to Comida--><g id="link_DiaEnDieta_Comida"><path codeLine="161" d="M519.5,834.12 C519.5,853.8 519.5,874.62 519.5,893.9 " fill="none" id="DiaEnDieta-Comida" style="stroke:#181818;stroke-width:1.0;"/><text fill="#000000" font-family="sans-serif" font-size="13" lengthAdjust="spacing" textLength="7" x="512.1992" y="855.6643">1</text><text fill="#000000" font-family="sans-serif" font-size="13" lengthAdjust="spacing" textLength="20" x="498.5156" y="883.0523">1..*</text></g><!--link Comida to Ingrediente--><g id="link_Comida_Ingrediente"><path codeLine="163" d="M519.5,1048.19 C519.5,1067.36 519.5,1088.06 519.5,1107.62 " fill="none" id="Comida-Ingrediente" style="stroke:#181818;stroke-width:1.0;"/><text fill="#000000" font-family="sans-serif" font-size="13" lengthAdjust="spacing" textLength="7" x="512.1992" y="1069.036">1</text><text fill="#000000" font-family="sans-serif" font-size="13" lengthAdjust="spacing" textLength="20" x="498.6406" y="1097.051">1..*</text></g><!--link Usuario to Alimento--><g id="link_Usuario_Alimento"><path codeLine="165" d="M738.5,319.28 C738.5,357.69 738.5,398 738.5,431.43 " fill="none" id="Usuario-Alimento" style="stroke:#181818;stroke-width:1.0;"/><text fill="#000000" font-family="sans-serif" font-size="13" lengthAdjust="spacing" textLength="7" x="731.3195" y="340.3545">1</text><text fill="#000000" font-family="sans-serif" font-size="13" lengthAdjust="spacing" textLength="20" x="717.5156" y="420.5853">0..*</text></g><!--link RutinaCompleta to DiaEnRutina--><g id="link_RutinaCompleta_DiaEnRutina"><path codeLine="167" d="M943.5,559.1 C943.5,599.84 943.5,657.24 943.5,697.96 " fill="none" id="RutinaCompleta-DiaEnRutina" style="stroke:#181818;stroke-width:1.0;"/><text fill="#000000" font-family="sans-serif" font-size="13" lengthAdjust="spacing" textLength="7" x="936.0297" y="580.5047">1</text><text fill="#000000" font-family="sans-serif" font-size="13" lengthAdjust="spacing" textLength="20" x="922.0938" y="687.2597">1..*</text></g><!--link DiaEnRutina to Ejercicio--><g id="link_DiaEnRutina_Ejercicio"><path codeLine="169" d="M943.5,799.26 C943.5,835.46 943.5,884.26 943.5,920.42 " fill="none" id="DiaEnRutina-Ejercicio" style="stroke:#181818;stroke-width:1.0;"/><text fill="#000000" font-family="sans-serif" font-size="13" lengthAdjust="spacing" textLength="20" x="922.2188" y="820.3173">1..*</text><text fill="#000000" font-family="sans-serif" font-size="13" lengthAdjust="spacing" textLength="20" x="922.0938" y="909.7141">1..*</text></g><!--link Ejercicio to Serie--><g id="link_Ejercicio_Serie"><path codeLine="171" d="M943.5,1021.76 C943.5,1055.17 943.5,1099.3 943.5,1134.33 " fill="none" id="Ejercicio-Serie" style="stroke:#181818;stroke-width:1.0;"/><text fill="#000000" font-family="sans-serif" font-size="13" lengthAdjust="spacing" textLength="7" x="936.0516" y="1042.8173">1</text><text fill="#000000" font-family="sans-serif" font-size="13" lengthAdjust="spacing" textLength="20" x="922.2813" y="1123.6335">1..*</text></g><!--SRC=[lLP1Rvim5BxxLw1UAatgrEuOQGS7h9GAS6P33xr4BhYf9s97XkmoxR_l6Hm2fCiwQHiNyZu_Fdz-_loSw-3pBnvqxOS2aXKfOJYYF9WDlV4Lalgm2z93Knvg4mJVKLYG9A7edgPBHZcAAECu8HojINXFqJ8EoPgZdFLldELaoV0JHKyqmvkaI9UO8SBNE8dm9YLHZ24NmxSnSE6e27FAW0mlnpzf6cVT7Akao0aaXWME_0mn_rB4D8-NSPz1Kf90nWylF58YaedWSYUqSFAJ8eEq5BFSlMB2Gkg-UoZ88xmU0N3Z72-XFgYRUKK7jfNKqXfWwLPFK5ey48PepaufzFchRDKtbnJ0ioOi8copOfZZ3bZX3BDD2k4cBNXO950FXwUkL1cahWa_iMNgcwmZYKkWL9MeF2id4Sbop6BQXGHKX36KS9F4AyBcO4gZRhjdSEmcv3JeO9md9CTktklVEmWy52QO4nwyCNJkeB8MJHCKpK5OvUfo4wZg62s2nEWjGDhidgs4cBTMTOZOoxfMbRbx2_mq1bza-IeoKQgTahhjIKjHHwALCBhjDctXDm-0lMnSpajjHEiew_PW1G1Akn2SekenUojh-MAq6MEbqQqLZTIlOWph-NOjpdOGiipH8el1BQxmVPaY9LiHcjs-XhSlLeTTAbKbczAgVQcCdgWKjR5ADBbfHIsRqPhtrhHIQJ76Ic6VpQkgh6ZD6D_2GYU9mgt5wNasffP2ZyKBedkrH-K3S47-Fz9PJSx-OjeBd6Yl6geDE-CL- -1_gnrA6EkjbPNpiVIAniX5MRfr1bjPiJDJ1RtUlomKrshNdRPUvH2-et9hO-zkRxTl2JeVckWw7-xbpV519JkqG3ixJpruIQcLpG6MSuAc5lS4V-BntvgnfoTVfIrLEVJ9Kto1UzVVpaI_GDkhNAg_hq-yN5frD5J_U-1hN8Z1NT2FxRG8UsXEhgbqBk_Res-UBdZVPH4mac2uRpBohhyRnulXwkug26vkWglRZny_N4tR8aBJBkboNUgTJptkno_PfgvmTCCM3fazMTyE4F9jOJOwEfhJkKvJ7Sy5GZChpgX6ll9wlCdy-2bpi0H29tVCsBejHZy1]--></g></svg>