<?xml version="1.0" encoding="us-ascii" standalone="no"?><svg xmlns="http://www.w3.org/2000/svg" xmlns:xlink="http://www.w3.org/1999/xlink" contentStyleType="text/css" height="1358px" preserveAspectRatio="none" style="width:973px;height:1358px;background:#FFFFFF;" version="1.1" viewBox="0 0 973 1358" width="973px" zoomAndPan="magnify"><defs/><g><!--class Musculos--><g id="elem_Musculos"><rect codeLine="6" fill="#F1F1F1" height="259.3125" id="Musculos" rx="2.5" ry="2.5" style="stroke:#181818;stroke-width:0.5;" width="109" x="47" y="7"/><ellipse cx="70.1" cy="23" fill="#EB937F" rx="11" ry="11" style="stroke:#181818;stroke-width:1.0;"/><path d="M68.9594,23.7969 L68.9594,26.2969 L73.2875,26.2969 L73.2875,25.375 Q73.2875,24.7656 73.5219,24.5 Q73.7719,24.2344 74.1469,24.2344 Q74.5219,24.2344 74.7563,24.5 Q74.9906,24.7656 74.9906,25.375 L74.9906,28 L66.9906,28 Q66.3656,28 66.1,27.7656 Q65.85,27.5313 65.85,27.1406 Q65.85,26.7656 66.1156,26.5313 Q66.3813,26.2969 66.9906,26.2969 L67.2563,26.2969 L67.2563,19.6406 L66.9906,19.6406 Q66.3656,19.6406 66.1,19.4063 Q65.85,19.1719 65.85,18.7813 Q65.85,18.4063 66.1,18.1719 Q66.3656,17.9375 66.9906,17.9375 L74.6156,17.9375 L74.6156,20.5313 Q74.6156,21.1406 74.3813,21.4063 Q74.1625,21.6563 73.7719,21.6563 Q73.3969,21.6563 73.1625,21.4063 Q72.9281,21.1406 72.9281,20.5313 L72.9281,19.6406 L68.9594,19.6406 L68.9594,22.0938 L70.4438,22.0938 Q70.4438,21.4375 70.5688,21.25 Q70.8344,20.8438 71.3031,20.8438 Q71.6781,20.8438 71.9125,21.1094 Q72.1469,21.3594 72.1469,21.9688 L72.1469,23.9375 Q72.1469,24.4844 72.0219,24.6719 Q71.7563,25.0625 71.3031,25.0625 Q70.8344,25.0625 70.5688,24.6563 Q70.4438,24.4688 70.4438,23.7969 L68.9594,23.7969 Z " fill="#000000"/><text fill="#000000" font-family="sans-serif" font-size="14" lengthAdjust="spacing" textLength="59" x="85.9" y="28.7285">Musculos</text><line style="stroke:#181818;stroke-width:0.5;" x1="48" x2="155" y1="39" y2="39"/><text fill="#000000" font-family="sans-serif" font-size="14" lengthAdjust="spacing" textLength="55" x="53" y="57.5332">CUELLO</text><text fill="#000000" font-family="sans-serif" font-size="14" lengthAdjust="spacing" textLength="61" x="53" y="75.1426">HOMBRO</text><text fill="#000000" font-family="sans-serif" font-size="14" lengthAdjust="spacing" textLength="48" x="53" y="92.752">PECHO</text><text fill="#000000" font-family="sans-serif" font-size="14" lengthAdjust="spacing" textLength="49" x="53" y="110.3613">BICEPS</text><text fill="#000000" font-family="sans-serif" font-size="14" lengthAdjust="spacing" textLength="59" x="53" y="127.9707">TRICEPS</text><text fill="#000000" font-family="sans-serif" font-size="14" lengthAdjust="spacing" textLength="83" x="53" y="145.5801">ANTEBRAZO</text><text fill="#000000" font-family="sans-serif" font-size="14" lengthAdjust="spacing" textLength="63" x="53" y="163.1895">ESPALDA</text><text fill="#000000" font-family="sans-serif" font-size="14" lengthAdjust="spacing" textLength="97" x="53" y="180.7988">ABDOMINALES</text><text fill="#000000" font-family="sans-serif" font-size="14" lengthAdjust="spacing" textLength="57" x="53" y="198.4082">GLUTEO</text><text fill="#000000" font-family="sans-serif" font-size="14" lengthAdjust="spacing" textLength="88" x="53" y="216.0176">CUADRICEPS</text><text fill="#000000" font-family="sans-serif" font-size="14" lengthAdjust="spacing" textLength="67" x="53" y="233.627">FEMORAL</text><text fill="#000000" font-family="sans-serif" font-size="14" lengthAdjust="spacing" textLength="59" x="53" y="251.2363">GEMELO</text><line style="stroke:#181818;stroke-width:0.5;" x1="48" x2="155" y1="258.3125" y2="258.3125"/></g><!--class DiaDeLaSemana--><g id="elem_DiaDeLaSemana"><rect codeLine="21" fill="#F1F1F1" height="171.2656" id="DiaDeLaSemana" rx="2.5" ry="2.5" style="stroke:#181818;stroke-width:0.5;" width="139" x="191" y="51"/><ellipse cx="206" cy="67" fill="#EB937F" rx="11" ry="11" style="stroke:#181818;stroke-width:1.0;"/><path d="M204.8594,67.7969 L204.8594,70.2969 L209.1875,70.2969 L209.1875,69.375 Q209.1875,68.7656 209.4219,68.5 Q209.6719,68.2344 210.0469,68.2344 Q210.4219,68.2344 210.6563,68.5 Q210.8906,68.7656 210.8906,69.375 L210.8906,72 L202.8906,72 Q202.2656,72 202,71.7656 Q201.75,71.5313 201.75,71.1406 Q201.75,70.7656 202.0156,70.5313 Q202.2813,70.2969 202.8906,70.2969 L203.1563,70.2969 L203.1563,63.6406 L202.8906,63.6406 Q202.2656,63.6406 202,63.4063 Q201.75,63.1719 201.75,62.7813 Q201.75,62.4063 202,62.1719 Q202.2656,61.9375 202.8906,61.9375 L210.5156,61.9375 L210.5156,64.5313 Q210.5156,65.1406 210.2813,65.4063 Q210.0625,65.6563 209.6719,65.6563 Q209.2969,65.6563 209.0625,65.4063 Q208.8281,65.1406 208.8281,64.5313 L208.8281,63.6406 L204.8594,63.6406 L204.8594,66.0938 L206.3438,66.0938 Q206.3438,65.4375 206.4688,65.25 Q206.7344,64.8438 207.2031,64.8438 Q207.5781,64.8438 207.8125,65.1094 Q208.0469,65.3594 208.0469,65.9688 L208.0469,67.9375 Q208.0469,68.4844 207.9219,68.6719 Q207.6563,69.0625 207.2031,69.0625 Q206.7344,69.0625 206.4688,68.6563 Q206.3438,68.4688 206.3438,67.7969 L204.8594,67.7969 Z " fill="#000000"/><text fill="#000000" font-family="sans-serif" font-size="14" lengthAdjust="spacing" textLength="107" x="220" y="72.7285">DiaDeLaSemana</text><line style="stroke:#181818;stroke-width:0.5;" x1="192" x2="329" y1="83" y2="83"/><text fill="#000000" font-family="sans-serif" font-size="14" lengthAdjust="spacing" textLength="44" x="197" y="101.5332">LUNES</text><text fill="#000000" font-family="sans-serif" font-size="14" lengthAdjust="spacing" textLength="57" x="197" y="119.1426">MARTES</text><text fill="#000000" font-family="sans-serif" font-size="14" lengthAdjust="spacing" textLength="80" x="197" y="136.752">MIERCOLES</text><text fill="#000000" font-family="sans-serif" font-size="14" lengthAdjust="spacing" textLength="51" x="197" y="154.3613">JUEVES</text><text fill="#000000" font-family="sans-serif" font-size="14" lengthAdjust="spacing" textLength="58" x="197" y="171.9707">VIERNES</text><text fill="#000000" font-family="sans-serif" font-size="14" lengthAdjust="spacing" textLength="57" x="197" y="189.5801">SABADO</text><text fill="#000000" font-family="sans-serif" font-size="14" lengthAdjust="spacing" textLength="66" x="197" y="207.1895">DOMINGO</text><line style="stroke:#181818;stroke-width:0.5;" x1="192" x2="329" y1="214.2656" y2="214.2656"/></g><!--class Generos--><g id="elem_Generos"><rect codeLine="31" fill="#F1F1F1" height="100.8281" id="Generos" rx="2.5" ry="2.5" style="stroke:#181818;stroke-width:0.5;" width="87" x="365" y="86"/><ellipse cx="380" cy="102" fill="#EB937F" rx="11" ry="11" style="stroke:#181818;stroke-width:1.0;"/><path d="M378.8594,102.7969 L378.8594,105.2969 L383.1875,105.2969 L383.1875,104.375 Q383.1875,103.7656 383.4219,103.5 Q383.6719,103.2344 384.0469,103.2344 Q384.4219,103.2344 384.6563,103.5 Q384.8906,103.7656 384.8906,104.375 L384.8906,107 L376.8906,107 Q376.2656,107 376,106.7656 Q375.75,106.5313 375.75,106.1406 Q375.75,105.7656 376.0156,105.5313 Q376.2813,105.2969 376.8906,105.2969 L377.1563,105.2969 L377.1563,98.6406 L376.8906,98.6406 Q376.2656,98.6406 376,98.4063 Q375.75,98.1719 375.75,97.7813 Q375.75,97.4063 376,97.1719 Q376.2656,96.9375 376.8906,96.9375 L384.5156,96.9375 L384.5156,99.5313 Q384.5156,100.1406 384.2813,100.4063 Q384.0625,100.6563 383.6719,100.6563 Q383.2969,100.6563 383.0625,100.4063 Q382.8281,100.1406 382.8281,99.5313 L382.8281,98.6406 L378.8594,98.6406 L378.8594,101.0938 L380.3438,101.0938 Q380.3438,100.4375 380.4688,100.25 Q380.7344,99.8438 381.2031,99.8438 Q381.5781,99.8438 381.8125,100.1094 Q382.0469,100.3594 382.0469,100.9688 L382.0469,102.9375 Q382.0469,103.4844 381.9219,103.6719 Q381.6563,104.0625 381.2031,104.0625 Q380.7344,104.0625 380.4688,103.6563 Q380.3438,103.4688 380.3438,102.7969 L378.8594,102.7969 Z " fill="#000000"/><text fill="#000000" font-family="sans-serif" font-size="14" lengthAdjust="spacing" textLength="55" x="394" y="107.7285">Generos</text><line style="stroke:#181818;stroke-width:0.5;" x1="366" x2="451" y1="118" y2="118"/><text fill="#000000" font-family="sans-serif" font-size="14" lengthAdjust="spacing" textLength="59" x="371" y="136.5332">HOMBRE</text><text fill="#000000" font-family="sans-serif" font-size="14" lengthAdjust="spacing" textLength="45" x="371" y="154.1426">MUJER</text><text fill="#000000" font-family="sans-serif" font-size="14" lengthAdjust="spacing" textLength="41" x="371" y="171.752">OTRO</text><line style="stroke:#181818;stroke-width:0.5;" x1="366" x2="451" y1="178.8281" y2="178.8281"/></g><!--class Objetivos--><g id="elem_Objetivos"><rect codeLine="37" fill="#F1F1F1" height="100.8281" id="Objetivos" rx="2.5" ry="2.5" style="stroke:#181818;stroke-width:0.5;" width="189" x="7" y="370"/><ellipse cx="67.75" cy="386" fill="#EB937F" rx="11" ry="11" style="stroke:#181818;stroke-width:1.0;"/><path d="M66.6094,386.7969 L66.6094,389.2969 L70.9375,389.2969 L70.9375,388.375 Q70.9375,387.7656 71.1719,387.5 Q71.4219,387.2344 71.7969,387.2344 Q72.1719,387.2344 72.4063,387.5 Q72.6406,387.7656 72.6406,388.375 L72.6406,391 L64.6406,391 Q64.0156,391 63.75,390.7656 Q63.5,390.5313 63.5,390.1406 Q63.5,389.7656 63.7656,389.5313 Q64.0313,389.2969 64.6406,389.2969 L64.9063,389.2969 L64.9063,382.6406 L64.6406,382.6406 Q64.0156,382.6406 63.75,382.4063 Q63.5,382.1719 63.5,381.7813 Q63.5,381.4063 63.75,381.1719 Q64.0156,380.9375 64.6406,380.9375 L72.2656,380.9375 L72.2656,383.5313 Q72.2656,384.1406 72.0313,384.4063 Q71.8125,384.6563 71.4219,384.6563 Q71.0469,384.6563 70.8125,384.4063 Q70.5781,384.1406 70.5781,383.5313 L70.5781,382.6406 L66.6094,382.6406 L66.6094,385.0938 L68.0938,385.0938 Q68.0938,384.4375 68.2188,384.25 Q68.4844,383.8438 68.9531,383.8438 Q69.3281,383.8438 69.5625,384.1094 Q69.7969,384.3594 69.7969,384.9688 L69.7969,386.9375 Q69.7969,387.4844 69.6719,387.6719 Q69.4063,388.0625 68.9531,388.0625 Q68.4844,388.0625 68.2188,387.6563 Q68.0938,387.4688 68.0938,386.7969 L66.6094,386.7969 Z " fill="#000000"/><text fill="#000000" font-family="sans-serif" font-size="14" lengthAdjust="spacing" textLength="59" x="88.25" y="391.7285">Objetivos</text><line style="stroke:#181818;stroke-width:0.5;" x1="8" x2="195" y1="402" y2="402"/><text fill="#000000" font-family="sans-serif" font-size="14" lengthAdjust="spacing" textLength="113" x="13" y="420.5332">PERDER_GRASA</text><text fill="#000000" font-family="sans-serif" font-size="14" lengthAdjust="spacing" textLength="177" x="13" y="438.1426">GANAR_MASA_MUSCULAR</text><text fill="#000000" font-family="sans-serif" font-size="14" lengthAdjust="spacing" textLength="121" x="13" y="455.752">MANTENER_PESO</text><line style="stroke:#181818;stroke-width:0.5;" x1="8" x2="195" y1="462.8281" y2="462.8281"/></g><!--class NivelDeActividad--><g id="elem_NivelDeActividad"><rect codeLine="43" fill="#F1F1F1" height="136.0469" id="NivelDeActividad" rx="2.5" ry="2.5" style="stroke:#181818;stroke-width:0.5;" width="172" x="231.5" y="352.5"/><ellipse cx="262.25" cy="368.5" fill="#EB937F" rx="11" ry="11" style="stroke:#181818;stroke-width:1.0;"/><path d="M261.1094,369.2969 L261.1094,371.7969 L265.4375,371.7969 L265.4375,370.875 Q265.4375,370.2656 265.6719,370 Q265.9219,369.7344 266.2969,369.7344 Q266.6719,369.7344 266.9063,370 Q267.1406,370.2656 267.1406,370.875 L267.1406,373.5 L259.1406,373.5 Q258.5156,373.5 258.25,373.2656 Q258,373.0313 258,372.6406 Q258,372.2656 258.2656,372.0313 Q258.5313,371.7969 259.1406,371.7969 L259.4063,371.7969 L259.4063,365.1406 L259.1406,365.1406 Q258.5156,365.1406 258.25,364.9063 Q258,364.6719 258,364.2813 Q258,363.9063 258.25,363.6719 Q258.5156,363.4375 259.1406,363.4375 L266.7656,363.4375 L266.7656,366.0313 Q266.7656,366.6406 266.5313,366.9063 Q266.3125,367.1563 265.9219,367.1563 Q265.5469,367.1563 265.3125,366.9063 Q265.0781,366.6406 265.0781,366.0313 L265.0781,365.1406 L261.1094,365.1406 L261.1094,367.5938 L262.5938,367.5938 Q262.5938,366.9375 262.7188,366.75 Q262.9844,366.3438 263.4531,366.3438 Q263.8281,366.3438 264.0625,366.6094 Q264.2969,366.8594 264.2969,367.4688 L264.2969,369.4375 Q264.2969,369.9844 264.1719,370.1719 Q263.9063,370.5625 263.4531,370.5625 Q262.9844,370.5625 262.7188,370.1563 Q262.5938,369.9688 262.5938,369.2969 L261.1094,369.2969 Z " fill="#000000"/><text fill="#000000" font-family="sans-serif" font-size="14" lengthAdjust="spacing" textLength="105" x="279.75" y="374.2285">NivelDeActividad</text><line style="stroke:#181818;stroke-width:0.5;" x1="232.5" x2="402.5" y1="384.5" y2="384.5"/><text fill="#000000" font-family="sans-serif" font-size="14" lengthAdjust="spacing" textLength="88" x="237.5" y="403.0332">SEDENTARIO</text><text fill="#000000" font-family="sans-serif" font-size="14" lengthAdjust="spacing" textLength="131" x="237.5" y="420.6426">EJERCICIO_LIGERO</text><text fill="#000000" font-family="sans-serif" font-size="14" lengthAdjust="spacing" textLength="160" x="237.5" y="438.252">EJERCICIO_MODERADO</text><text fill="#000000" font-family="sans-serif" font-size="14" lengthAdjust="spacing" textLength="138" x="237.5" y="455.8613">EJERCICIO_INTENSO</text><text fill="#000000" font-family="sans-serif" font-size="14" lengthAdjust="spacing" textLength="53" x="237.5" y="473.4707">ATLETA</text><line style="stroke:#181818;stroke-width:0.5;" x1="232.5" x2="402.5" y1="480.5469" y2="480.5469"/></g><!--class Usuario--><g id="elem_Usuario"><rect codeLine="55" fill="#F1F1F1" height="241.7031" id="Usuario" rx="2.5" ry="2.5" style="stroke:#181818;stroke-width:0.5;" width="206" x="542.5" y="15.5"/><ellipse cx="617.25" cy="31.5" fill="#ADD1B2" rx="11" ry="11" style="stroke:#181818;stroke-width:1.0;"/><path d="M620.0156,27.375 Q620.1719,27.1563 620.3594,27.0469 Q620.5469,26.9375 620.7656,26.9375 Q621.1406,26.9375 621.375,27.2031 Q621.6094,27.4531 621.6094,28.0625 L621.6094,29.5156 Q621.6094,30.125 621.375,30.3906 Q621.1406,30.6563 620.7656,30.6563 Q620.4219,30.6563 620.2188,30.4531 Q620.0156,30.2656 619.9063,29.75 Q619.8594,29.3906 619.6719,29.2031 Q619.3438,28.8281 618.7344,28.6094 Q618.125,28.3906 617.5,28.3906 Q616.7344,28.3906 616.0938,28.7188 Q615.4688,29.0469 614.9688,29.7969 Q614.4844,30.5469 614.4844,31.5781 L614.4844,32.6719 Q614.4844,33.9063 615.375,34.7344 Q616.2656,35.5469 617.8594,35.5469 Q618.7969,35.5469 619.4531,35.2969 Q619.8438,35.1406 620.2656,34.7031 Q620.5313,34.4375 620.6719,34.3594 Q620.8281,34.2813 621.0313,34.2813 Q621.3594,34.2813 621.6094,34.5469 Q621.875,34.7969 621.875,35.1406 Q621.875,35.4844 621.5313,35.8906 Q621.0313,36.4688 620.2344,36.7969 Q619.1563,37.25 617.8594,37.25 Q616.3438,37.25 615.1406,36.625 Q614.1563,36.125 613.4688,35.0625 Q612.7813,33.9844 612.7813,32.7031 L612.7813,31.5469 Q612.7813,30.2188 613.3906,29.0781 Q614.0156,27.9219 615.1094,27.3125 Q616.2031,26.6875 617.4375,26.6875 Q618.1719,26.6875 618.8125,26.8594 Q619.4688,27.0156 620.0156,27.375 Z " fill="#000000"/><text fill="#000000" font-family="sans-serif" font-size="14" lengthAdjust="spacing" textLength="48" x="637.75" y="37.2285">Usuario</text><line style="stroke:#181818;stroke-width:0.5;" x1="543.5" x2="747.5" y1="47.5" y2="47.5"/><rect fill="none" height="6" style="stroke:#C82930;stroke-width:1.0;" width="6" x="550.5" y="58.8047"/><text fill="#000000" font-family="sans-serif" font-size="14" lengthAdjust="spacing" textLength="103" x="562.5" y="66.0332">idUsuario : Long</text><rect fill="none" height="6" style="stroke:#C82930;stroke-width:1.0;" width="6" x="550.5" y="76.4141"/><text fill="#000000" font-family="sans-serif" font-size="14" lengthAdjust="spacing" textLength="97" x="562.5" y="83.6426">nombre : String</text><rect fill="none" height="6" style="stroke:#C82930;stroke-width:1.0;" width="6" x="550.5" y="94.0234"/><text fill="#000000" font-family="sans-serif" font-size="14" lengthAdjust="spacing" textLength="106" x="562.5" y="101.252">apellido1 : String</text><rect fill="none" height="6" style="stroke:#C82930;stroke-width:1.0;" width="6" x="550.5" y="111.6328"/><text fill="#000000" font-family="sans-serif" font-size="14" lengthAdjust="spacing" textLength="106" x="562.5" y="118.8613">apellido2 : String</text><rect fill="none" height="6" style="stroke:#C82930;stroke-width:1.0;" width="6" x="550.5" y="129.2422"/><text fill="#000000" font-family="sans-serif" font-size="14" lengthAdjust="spacing" textLength="180" x="562.5" y="136.4707">fechaNacimiento : LocalDate</text><rect fill="none" height="6" style="stroke:#C82930;stroke-width:1.0;" width="6" x="550.5" y="146.8516"/><text fill="#000000" font-family="sans-serif" font-size="14" lengthAdjust="spacing" textLength="108" x="562.5" y="154.0801">genero: Generos</text><rect fill="none" height="6" style="stroke:#C82930;stroke-width:1.0;" width="6" x="550.5" y="164.4609"/><text fill="#000000" font-family="sans-serif" font-size="14" lengthAdjust="spacing" textLength="70" x="562.5" y="171.6895">peso : float</text><rect fill="none" height="6" style="stroke:#C82930;stroke-width:1.0;" width="6" x="550.5" y="182.0703"/><text fill="#000000" font-family="sans-serif" font-size="14" lengthAdjust="spacing" textLength="75" x="562.5" y="189.2988">altura : float</text><rect fill="none" height="6" style="stroke:#C82930;stroke-width:1.0;" width="6" x="550.5" y="199.6797"/><text fill="#000000" font-family="sans-serif" font-size="14" lengthAdjust="spacing" textLength="82" x="562.5" y="206.9082">email : String</text><rect fill="none" height="6" style="stroke:#C82930;stroke-width:1.0;" width="6" x="550.5" y="217.2891"/><text fill="#000000" font-family="sans-serif" font-size="14" lengthAdjust="spacing" textLength="100" x="562.5" y="224.5176">telefono : String</text><rect fill="none" height="6" style="stroke:#C82930;stroke-width:1.0;" width="6" x="550.5" y="234.8984"/><text fill="#000000" font-family="sans-serif" font-size="14" lengthAdjust="spacing" textLength="128" x="562.5" y="242.127">contrasenha : String</text><line style="stroke:#181818;stroke-width:0.5;" x1="543.5" x2="747.5" y1="249.2031" y2="249.2031"/></g><!--class DietaCompleta--><g id="elem_DietaCompleta"><rect codeLine="69" fill="#F1F1F1" height="188.875" id="DietaCompleta" rx="2.5" ry="2.5" style="stroke:#181818;stroke-width:0.5;" width="161" x="502" y="326"/><ellipse cx="533.2" cy="342" fill="#ADD1B2" rx="11" ry="11" style="stroke:#181818;stroke-width:1.0;"/><path d="M535.9656,337.875 Q536.1219,337.6563 536.3094,337.5469 Q536.4969,337.4375 536.7156,337.4375 Q537.0906,337.4375 537.325,337.7031 Q537.5594,337.9531 537.5594,338.5625 L537.5594,340.0156 Q537.5594,340.625 537.325,340.8906 Q537.0906,341.1563 536.7156,341.1563 Q536.3719,341.1563 536.1688,340.9531 Q535.9656,340.7656 535.8563,340.25 Q535.8094,339.8906 535.6219,339.7031 Q535.2938,339.3281 534.6844,339.1094 Q534.075,338.8906 533.45,338.8906 Q532.6844,338.8906 532.0438,339.2188 Q531.4188,339.5469 530.9188,340.2969 Q530.4344,341.0469 530.4344,342.0781 L530.4344,343.1719 Q530.4344,344.4063 531.325,345.2344 Q532.2156,346.0469 533.8094,346.0469 Q534.7469,346.0469 535.4031,345.7969 Q535.7938,345.6406 536.2156,345.2031 Q536.4813,344.9375 536.6219,344.8594 Q536.7781,344.7813 536.9813,344.7813 Q537.3094,344.7813 537.5594,345.0469 Q537.825,345.2969 537.825,345.6406 Q537.825,345.9844 537.4813,346.3906 Q536.9813,346.9688 536.1844,347.2969 Q535.1063,347.75 533.8094,347.75 Q532.2938,347.75 531.0906,347.125 Q530.1063,346.625 529.4188,345.5625 Q528.7313,344.4844 528.7313,343.2031 L528.7313,342.0469 Q528.7313,340.7188 529.3406,339.5781 Q529.9656,338.4219 531.0594,337.8125 Q532.1531,337.1875 533.3875,337.1875 Q534.1219,337.1875 534.7625,337.3594 Q535.4188,337.5156 535.9656,337.875 Z " fill="#000000"/><text fill="#000000" font-family="sans-serif" font-size="14" lengthAdjust="spacing" textLength="93" x="550.8" y="347.7285">DietaCompleta</text><line style="stroke:#181818;stroke-width:0.5;" x1="503" x2="662" y1="358" y2="358"/><rect fill="none" height="6" style="stroke:#C82930;stroke-width:1.0;" width="6" x="510" y="369.3047"/><text fill="#000000" font-family="sans-serif" font-size="14" lengthAdjust="spacing" textLength="88" x="522" y="376.5332">idDieta : Long</text><rect fill="none" height="6" style="stroke:#C82930;stroke-width:1.0;" width="6" x="510" y="386.9141"/><text fill="#000000" font-family="sans-serif" font-size="14" lengthAdjust="spacing" textLength="97" x="522" y="394.1426">nombre : String</text><rect fill="none" height="6" style="stroke:#C82930;stroke-width:1.0;" width="6" x="510" y="404.5234"/><text fill="#000000" font-family="sans-serif" font-size="14" lengthAdjust="spacing" textLength="121" x="522" y="411.752">descripcion : String</text><rect fill="none" height="6" style="stroke:#C82930;stroke-width:1.0;" width="6" x="510" y="422.1328"/><text fill="#000000" font-family="sans-serif" font-size="14" lengthAdjust="spacing" textLength="135" x="522" y="429.3613">caloriasTotales : float</text><rect fill="none" height="6" style="stroke:#C82930;stroke-width:1.0;" width="6" x="510" y="439.7422"/><text fill="#000000" font-family="sans-serif" font-size="14" lengthAdjust="spacing" textLength="98" x="522" y="446.9707">proteinas : float</text><rect fill="none" height="6" style="stroke:#C82930;stroke-width:1.0;" width="6" x="510" y="457.3516"/><text fill="#000000" font-family="sans-serif" font-size="14" lengthAdjust="spacing" textLength="126" x="522" y="464.5801">carbohidratos : float</text><rect fill="none" height="6" style="stroke:#C82930;stroke-width:1.0;" width="6" x="510" y="474.9609"/><text fill="#000000" font-family="sans-serif" font-size="14" lengthAdjust="spacing" textLength="82" x="522" y="482.1895">grasas : float</text><rect fill="none" height="6" style="stroke:#C82930;stroke-width:1.0;" width="6" x="510" y="492.5703"/><text fill="#000000" font-family="sans-serif" font-size="14" lengthAdjust="spacing" textLength="100" x="522" y="499.7988">activa : boolean</text><line style="stroke:#181818;stroke-width:0.5;" x1="503" x2="662" y1="506.875" y2="506.875"/></g><!--class DiaEnDieta--><g id="elem_DiaEnDieta"><rect codeLine="80" fill="#F1F1F1" height="171.2656" id="DiaEnDieta" rx="2.5" ry="2.5" style="stroke:#181818;stroke-width:0.5;" width="250" x="431.5" y="575"/><ellipse cx="516.75" cy="591" fill="#ADD1B2" rx="11" ry="11" style="stroke:#181818;stroke-width:1.0;"/><path d="M519.5156,586.875 Q519.6719,586.6563 519.8594,586.5469 Q520.0469,586.4375 520.2656,586.4375 Q520.6406,586.4375 520.875,586.7031 Q521.1094,586.9531 521.1094,587.5625 L521.1094,589.0156 Q521.1094,589.625 520.875,589.8906 Q520.6406,590.1563 520.2656,590.1563 Q519.9219,590.1563 519.7188,589.9531 Q519.5156,589.7656 519.4063,589.25 Q519.3594,588.8906 519.1719,588.7031 Q518.8438,588.3281 518.2344,588.1094 Q517.625,587.8906 517,587.8906 Q516.2344,587.8906 515.5938,588.2188 Q514.9688,588.5469 514.4688,589.2969 Q513.9844,590.0469 513.9844,591.0781 L513.9844,592.1719 Q513.9844,593.4063 514.875,594.2344 Q515.7656,595.0469 517.3594,595.0469 Q518.2969,595.0469 518.9531,594.7969 Q519.3438,594.6406 519.7656,594.2031 Q520.0313,593.9375 520.1719,593.8594 Q520.3281,593.7813 520.5313,593.7813 Q520.8594,593.7813 521.1094,594.0469 Q521.375,594.2969 521.375,594.6406 Q521.375,594.9844 521.0313,595.3906 Q520.5313,595.9688 519.7344,596.2969 Q518.6563,596.75 517.3594,596.75 Q515.8438,596.75 514.6406,596.125 Q513.6563,595.625 512.9688,594.5625 Q512.2813,593.4844 512.2813,592.2031 L512.2813,591.0469 Q512.2813,589.7188 512.8906,588.5781 Q513.5156,587.4219 514.6094,586.8125 Q515.7031,586.1875 516.9375,586.1875 Q517.6719,586.1875 518.3125,586.3594 Q518.9688,586.5156 519.5156,586.875 Z " fill="#000000"/><text fill="#000000" font-family="sans-serif" font-size="14" lengthAdjust="spacing" textLength="71" x="537.25" y="596.7285">DiaEnDieta</text><line style="stroke:#181818;stroke-width:0.5;" x1="432.5" x2="680.5" y1="607" y2="607"/><rect fill="none" height="6" style="stroke:#C82930;stroke-width:1.0;" width="6" x="439.5" y="618.3047"/><text fill="#000000" font-family="sans-serif" font-size="14" lengthAdjust="spacing" textLength="126" x="451.5" y="625.5332">idDiaEnDieta : Long</text><rect fill="none" height="6" style="stroke:#C82930;stroke-width:1.0;" width="6" x="439.5" y="635.9141"/><text fill="#000000" font-family="sans-serif" font-size="14" lengthAdjust="spacing" textLength="97" x="451.5" y="643.1426">nombre : String</text><rect fill="none" height="6" style="stroke:#C82930;stroke-width:1.0;" width="6" x="439.5" y="653.5234"/><text fill="#000000" font-family="sans-serif" font-size="14" lengthAdjust="spacing" textLength="135" x="451.5" y="660.752">caloriasTotales : float</text><rect fill="none" height="6" style="stroke:#C82930;stroke-width:1.0;" width="6" x="439.5" y="671.1328"/><text fill="#000000" font-family="sans-serif" font-size="14" lengthAdjust="spacing" textLength="98" x="451.5" y="678.3613">proteinas : float</text><rect fill="none" height="6" style="stroke:#C82930;stroke-width:1.0;" width="6" x="439.5" y="688.7422"/><text fill="#000000" font-family="sans-serif" font-size="14" lengthAdjust="spacing" textLength="126" x="451.5" y="695.9707">carbohidratos : float</text><rect fill="none" height="6" style="stroke:#C82930;stroke-width:1.0;" width="6" x="439.5" y="706.3516"/><text fill="#000000" font-family="sans-serif" font-size="14" lengthAdjust="spacing" textLength="82" x="451.5" y="713.5801">grasas : float</text><rect fill="none" height="6" style="stroke:#C82930;stroke-width:1.0;" width="6" x="439.5" y="723.9609"/><text fill="#000000" font-family="sans-serif" font-size="14" lengthAdjust="spacing" textLength="224" x="451.5" y="731.1895">diaDeLaSemana : DiaDeLaSemana</text><line style="stroke:#181818;stroke-width:0.5;" x1="432.5" x2="680.5" y1="738.2656" y2="738.2656"/></g><!--class Comida--><g id="elem_Comida"><rect codeLine="91" fill="#F1F1F1" height="153.6563" id="Comida" rx="2.5" ry="2.5" style="stroke:#181818;stroke-width:0.5;" width="161" x="476" y="806"/><ellipse cx="528.25" cy="822" fill="#ADD1B2" rx="11" ry="11" style="stroke:#181818;stroke-width:1.0;"/><path d="M531.0156,817.875 Q531.1719,817.6563 531.3594,817.5469 Q531.5469,817.4375 531.7656,817.4375 Q532.1406,817.4375 532.375,817.7031 Q532.6094,817.9531 532.6094,818.5625 L532.6094,820.0156 Q532.6094,820.625 532.375,820.8906 Q532.1406,821.1563 531.7656,821.1563 Q531.4219,821.1563 531.2188,820.9531 Q531.0156,820.7656 530.9063,820.25 Q530.8594,819.8906 530.6719,819.7031 Q530.3438,819.3281 529.7344,819.1094 Q529.125,818.8906 528.5,818.8906 Q527.7344,818.8906 527.0938,819.2188 Q526.4688,819.5469 525.9688,820.2969 Q525.4844,821.0469 525.4844,822.0781 L525.4844,823.1719 Q525.4844,824.4063 526.375,825.2344 Q527.2656,826.0469 528.8594,826.0469 Q529.7969,826.0469 530.4531,825.7969 Q530.8438,825.6406 531.2656,825.2031 Q531.5313,824.9375 531.6719,824.8594 Q531.8281,824.7813 532.0313,824.7813 Q532.3594,824.7813 532.6094,825.0469 Q532.875,825.2969 532.875,825.6406 Q532.875,825.9844 532.5313,826.3906 Q532.0313,826.9688 531.2344,827.2969 Q530.1563,827.75 528.8594,827.75 Q527.3438,827.75 526.1406,827.125 Q525.1563,826.625 524.4688,825.5625 Q523.7813,824.4844 523.7813,823.2031 L523.7813,822.0469 Q523.7813,820.7188 524.3906,819.5781 Q525.0156,818.4219 526.1094,817.8125 Q527.2031,817.1875 528.4375,817.1875 Q529.1719,817.1875 529.8125,817.3594 Q530.4688,817.5156 531.0156,817.875 Z " fill="#000000"/><text fill="#000000" font-family="sans-serif" font-size="14" lengthAdjust="spacing" textLength="48" x="548.75" y="827.7285">Comida</text><line style="stroke:#181818;stroke-width:0.5;" x1="477" x2="636" y1="838" y2="838"/><rect fill="none" height="6" style="stroke:#C82930;stroke-width:1.0;" width="6" x="484" y="849.3047"/><text fill="#000000" font-family="sans-serif" font-size="14" lengthAdjust="spacing" textLength="103" x="496" y="856.5332">idComida : Long</text><rect fill="none" height="6" style="stroke:#C82930;stroke-width:1.0;" width="6" x="484" y="866.9141"/><text fill="#000000" font-family="sans-serif" font-size="14" lengthAdjust="spacing" textLength="97" x="496" y="874.1426">nombre : String</text><rect fill="none" height="6" style="stroke:#C82930;stroke-width:1.0;" width="6" x="484" y="884.5234"/><text fill="#000000" font-family="sans-serif" font-size="14" lengthAdjust="spacing" textLength="135" x="496" y="891.752">caloriasTotales : float</text><rect fill="none" height="6" style="stroke:#C82930;stroke-width:1.0;" width="6" x="484" y="902.1328"/><text fill="#000000" font-family="sans-serif" font-size="14" lengthAdjust="spacing" textLength="98" x="496" y="909.3613">proteinas : float</text><rect fill="none" height="6" style="stroke:#C82930;stroke-width:1.0;" width="6" x="484" y="919.7422"/><text fill="#000000" font-family="sans-serif" font-size="14" lengthAdjust="spacing" textLength="126" x="496" y="926.9707">carbohidratos : float</text><rect fill="none" height="6" style="stroke:#C82930;stroke-width:1.0;" width="6" x="484" y="937.3516"/><text fill="#000000" font-family="sans-serif" font-size="14" lengthAdjust="spacing" textLength="82" x="496" y="944.5801">grasas : float</text><line style="stroke:#181818;stroke-width:0.5;" x1="477" x2="636" y1="951.6563" y2="951.6563"/></g><!--class Ingrediente--><g id="elem_Ingrediente"><rect codeLine="100" fill="#F1F1F1" height="83.2188" id="Ingrediente" rx="2.5" ry="2.5" style="stroke:#181818;stroke-width:0.5;" width="169" x="472" y="1037.5"/><ellipse cx="516.75" cy="1053.5" fill="#ADD1B2" rx="11" ry="11" style="stroke:#181818;stroke-width:1.0;"/><path d="M519.5156,1049.375 Q519.6719,1049.1563 519.8594,1049.0469 Q520.0469,1048.9375 520.2656,1048.9375 Q520.6406,1048.9375 520.875,1049.2031 Q521.1094,1049.4531 521.1094,1050.0625 L521.1094,1051.5156 Q521.1094,1052.125 520.875,1052.3906 Q520.6406,1052.6563 520.2656,1052.6563 Q519.9219,1052.6563 519.7188,1052.4531 Q519.5156,1052.2656 519.4063,1051.75 Q519.3594,1051.3906 519.1719,1051.2031 Q518.8438,1050.8281 518.2344,1050.6094 Q517.625,1050.3906 517,1050.3906 Q516.2344,1050.3906 515.5938,1050.7188 Q514.9688,1051.0469 514.4688,1051.7969 Q513.9844,1052.5469 513.9844,1053.5781 L513.9844,1054.6719 Q513.9844,1055.9063 514.875,1056.7344 Q515.7656,1057.5469 517.3594,1057.5469 Q518.2969,1057.5469 518.9531,1057.2969 Q519.3438,1057.1406 519.7656,1056.7031 Q520.0313,1056.4375 520.1719,1056.3594 Q520.3281,1056.2813 520.5313,1056.2813 Q520.8594,1056.2813 521.1094,1056.5469 Q521.375,1056.7969 521.375,1057.1406 Q521.375,1057.4844 521.0313,1057.8906 Q520.5313,1058.4688 519.7344,1058.7969 Q518.6563,1059.25 517.3594,1059.25 Q515.8438,1059.25 514.6406,1058.625 Q513.6563,1058.125 512.9688,1057.0625 Q512.2813,1055.9844 512.2813,1054.7031 L512.2813,1053.5469 Q512.2813,1052.2188 512.8906,1051.0781 Q513.5156,1049.9219 514.6094,1049.3125 Q515.7031,1048.6875 516.9375,1048.6875 Q517.6719,1048.6875 518.3125,1048.8594 Q518.9688,1049.0156 519.5156,1049.375 Z " fill="#000000"/><text fill="#000000" font-family="sans-serif" font-size="14" lengthAdjust="spacing" textLength="71" x="537.25" y="1059.2285">Ingrediente</text><line style="stroke:#181818;stroke-width:0.5;" x1="473" x2="640" y1="1069.5" y2="1069.5"/><rect fill="none" height="6" style="stroke:#C82930;stroke-width:1.0;" width="6" x="480" y="1080.8047"/><text fill="#000000" font-family="sans-serif" font-size="14" lengthAdjust="spacing" textLength="126" x="492" y="1088.0332">idIngrediente : Long</text><rect fill="none" height="6" style="stroke:#C82930;stroke-width:1.0;" width="6" x="480" y="1098.4141"/><text fill="#000000" font-family="sans-serif" font-size="14" lengthAdjust="spacing" textLength="143" x="492" y="1105.6426">cantidadGramos : float</text><line style="stroke:#181818;stroke-width:0.5;" x1="473" x2="640" y1="1112.7188" y2="1112.7188"/></g><!--class Alimento--><g id="elem_Alimento"><rect codeLine="105" fill="#F1F1F1" height="153.6563" id="Alimento" rx="2.5" ry="2.5" style="stroke:#181818;stroke-width:0.5;" width="152" x="480.5" y="1198"/><ellipse cx="525.25" cy="1214" fill="#ADD1B2" rx="11" ry="11" style="stroke:#181818;stroke-width:1.0;"/><path d="M528.0156,1209.875 Q528.1719,1209.6563 528.3594,1209.5469 Q528.5469,1209.4375 528.7656,1209.4375 Q529.1406,1209.4375 529.375,1209.7031 Q529.6094,1209.9531 529.6094,1210.5625 L529.6094,1212.0156 Q529.6094,1212.625 529.375,1212.8906 Q529.1406,1213.1563 528.7656,1213.1563 Q528.4219,1213.1563 528.2188,1212.9531 Q528.0156,1212.7656 527.9063,1212.25 Q527.8594,1211.8906 527.6719,1211.7031 Q527.3438,1211.3281 526.7344,1211.1094 Q526.125,1210.8906 525.5,1210.8906 Q524.7344,1210.8906 524.0938,1211.2188 Q523.4688,1211.5469 522.9688,1212.2969 Q522.4844,1213.0469 522.4844,1214.0781 L522.4844,1215.1719 Q522.4844,1216.4063 523.375,1217.2344 Q524.2656,1218.0469 525.8594,1218.0469 Q526.7969,1218.0469 527.4531,1217.7969 Q527.8438,1217.6406 528.2656,1217.2031 Q528.5313,1216.9375 528.6719,1216.8594 Q528.8281,1216.7813 529.0313,1216.7813 Q529.3594,1216.7813 529.6094,1217.0469 Q529.875,1217.2969 529.875,1217.6406 Q529.875,1217.9844 529.5313,1218.3906 Q529.0313,1218.9688 528.2344,1219.2969 Q527.1563,1219.75 525.8594,1219.75 Q524.3438,1219.75 523.1406,1219.125 Q522.1563,1218.625 521.4688,1217.5625 Q520.7813,1216.4844 520.7813,1215.2031 L520.7813,1214.0469 Q520.7813,1212.7188 521.3906,1211.5781 Q522.0156,1210.4219 523.1094,1209.8125 Q524.2031,1209.1875 525.4375,1209.1875 Q526.1719,1209.1875 526.8125,1209.3594 Q527.4688,1209.5156 528.0156,1209.875 Z " fill="#000000"/><text fill="#000000" font-family="sans-serif" font-size="14" lengthAdjust="spacing" textLength="54" x="545.75" y="1219.7285">Alimento</text><line style="stroke:#181818;stroke-width:0.5;" x1="481.5" x2="631.5" y1="1230" y2="1230"/><rect fill="none" height="6" style="stroke:#C82930;stroke-width:1.0;" width="6" x="488.5" y="1241.3047"/><text fill="#000000" font-family="sans-serif" font-size="14" lengthAdjust="spacing" textLength="109" x="500.5" y="1248.5332">idAlimento : Long</text><rect fill="none" height="6" style="stroke:#C82930;stroke-width:1.0;" width="6" x="488.5" y="1258.9141"/><text fill="#000000" font-family="sans-serif" font-size="14" lengthAdjust="spacing" textLength="97" x="500.5" y="1266.1426">nombre : String</text><rect fill="none" height="6" style="stroke:#C82930;stroke-width:1.0;" width="6" x="488.5" y="1276.5234"/><text fill="#000000" font-family="sans-serif" font-size="14" lengthAdjust="spacing" textLength="88" x="500.5" y="1283.752">calorias : float</text><rect fill="none" height="6" style="stroke:#C82930;stroke-width:1.0;" width="6" x="488.5" y="1294.1328"/><text fill="#000000" font-family="sans-serif" font-size="14" lengthAdjust="spacing" textLength="98" x="500.5" y="1301.3613">proteinas : float</text><rect fill="none" height="6" style="stroke:#C82930;stroke-width:1.0;" width="6" x="488.5" y="1311.7422"/><text fill="#000000" font-family="sans-serif" font-size="14" lengthAdjust="spacing" textLength="126" x="500.5" y="1318.9707">carbohidratos : float</text><rect fill="none" height="6" style="stroke:#C82930;stroke-width:1.0;" width="6" x="488.5" y="1329.3516"/><text fill="#000000" font-family="sans-serif" font-size="14" lengthAdjust="spacing" textLength="82" x="500.5" y="1336.5801">grasas : float</text><line style="stroke:#181818;stroke-width:0.5;" x1="481.5" x2="631.5" y1="1343.6563" y2="1343.6563"/></g><!--class RutinaCompleta--><g id="elem_RutinaCompleta"><rect codeLine="114" fill="#F1F1F1" height="100.8281" id="RutinaCompleta" rx="2.5" ry="2.5" style="stroke:#181818;stroke-width:0.5;" width="133" x="749" y="370"/><ellipse cx="764" cy="386" fill="#ADD1B2" rx="11" ry="11" style="stroke:#181818;stroke-width:1.0;"/><path d="M766.7656,381.875 Q766.9219,381.6563 767.1094,381.5469 Q767.2969,381.4375 767.5156,381.4375 Q767.8906,381.4375 768.125,381.7031 Q768.3594,381.9531 768.3594,382.5625 L768.3594,384.0156 Q768.3594,384.625 768.125,384.8906 Q767.8906,385.1563 767.5156,385.1563 Q767.1719,385.1563 766.9688,384.9531 Q766.7656,384.7656 766.6563,384.25 Q766.6094,383.8906 766.4219,383.7031 Q766.0938,383.3281 765.4844,383.1094 Q764.875,382.8906 764.25,382.8906 Q763.4844,382.8906 762.8438,383.2188 Q762.2188,383.5469 761.7188,384.2969 Q761.2344,385.0469 761.2344,386.0781 L761.2344,387.1719 Q761.2344,388.4063 762.125,389.2344 Q763.0156,390.0469 764.6094,390.0469 Q765.5469,390.0469 766.2031,389.7969 Q766.5938,389.6406 767.0156,389.2031 Q767.2813,388.9375 767.4219,388.8594 Q767.5781,388.7813 767.7813,388.7813 Q768.1094,388.7813 768.3594,389.0469 Q768.625,389.2969 768.625,389.6406 Q768.625,389.9844 768.2813,390.3906 Q767.7813,390.9688 766.9844,391.2969 Q765.9063,391.75 764.6094,391.75 Q763.0938,391.75 761.8906,391.125 Q760.9063,390.625 760.2188,389.5625 Q759.5313,388.4844 759.5313,387.2031 L759.5313,386.0469 Q759.5313,384.7188 760.1406,383.5781 Q760.7656,382.4219 761.8594,381.8125 Q762.9531,381.1875 764.1875,381.1875 Q764.9219,381.1875 765.5625,381.3594 Q766.2188,381.5156 766.7656,381.875 Z " fill="#000000"/><text fill="#000000" font-family="sans-serif" font-size="14" lengthAdjust="spacing" textLength="101" x="778" y="391.7285">RutinaCompleta</text><line style="stroke:#181818;stroke-width:0.5;" x1="750" x2="881" y1="402" y2="402"/><rect fill="none" height="6" style="stroke:#C82930;stroke-width:1.0;" width="6" x="757" y="413.3047"/><text fill="#000000" font-family="sans-serif" font-size="14" lengthAdjust="spacing" textLength="96" x="769" y="420.5332">idRutina : Long</text><rect fill="none" height="6" style="stroke:#C82930;stroke-width:1.0;" width="6" x="757" y="430.9141"/><text fill="#000000" font-family="sans-serif" font-size="14" lengthAdjust="spacing" textLength="97" x="769" y="438.1426">nombre : String</text><rect fill="none" height="6" style="stroke:#C82930;stroke-width:1.0;" width="6" x="757" y="448.5234"/><text fill="#000000" font-family="sans-serif" font-size="14" lengthAdjust="spacing" textLength="104" x="769" y="455.752">resumen : String</text><line style="stroke:#181818;stroke-width:0.5;" x1="750" x2="881" y1="462.8281" y2="462.8281"/></g><!--class DiaEnRutina--><g id="elem_DiaEnRutina"><rect codeLine="120" fill="#F1F1F1" height="136.0469" id="DiaEnRutina" rx="2.5" ry="2.5" style="stroke:#181818;stroke-width:0.5;" width="250" x="716.5" y="592.5"/><ellipse cx="797.75" cy="608.5" fill="#ADD1B2" rx="11" ry="11" style="stroke:#181818;stroke-width:1.0;"/><path d="M800.5156,604.375 Q800.6719,604.1563 800.8594,604.0469 Q801.0469,603.9375 801.2656,603.9375 Q801.6406,603.9375 801.875,604.2031 Q802.1094,604.4531 802.1094,605.0625 L802.1094,606.5156 Q802.1094,607.125 801.875,607.3906 Q801.6406,607.6563 801.2656,607.6563 Q800.9219,607.6563 800.7188,607.4531 Q800.5156,607.2656 800.4063,606.75 Q800.3594,606.3906 800.1719,606.2031 Q799.8438,605.8281 799.2344,605.6094 Q798.625,605.3906 798,605.3906 Q797.2344,605.3906 796.5938,605.7188 Q795.9688,606.0469 795.4688,606.7969 Q794.9844,607.5469 794.9844,608.5781 L794.9844,609.6719 Q794.9844,610.9063 795.875,611.7344 Q796.7656,612.5469 798.3594,612.5469 Q799.2969,612.5469 799.9531,612.2969 Q800.3438,612.1406 800.7656,611.7031 Q801.0313,611.4375 801.1719,611.3594 Q801.3281,611.2813 801.5313,611.2813 Q801.8594,611.2813 802.1094,611.5469 Q802.375,611.7969 802.375,612.1406 Q802.375,612.4844 802.0313,612.8906 Q801.5313,613.4688 800.7344,613.7969 Q799.6563,614.25 798.3594,614.25 Q796.8438,614.25 795.6406,613.625 Q794.6563,613.125 793.9688,612.0625 Q793.2813,610.9844 793.2813,609.7031 L793.2813,608.5469 Q793.2813,607.2188 793.8906,606.0781 Q794.5156,604.9219 795.6094,604.3125 Q796.7031,603.6875 797.9375,603.6875 Q798.6719,603.6875 799.3125,603.8594 Q799.9688,604.0156 800.5156,604.375 Z " fill="#000000"/><text fill="#000000" font-family="sans-serif" font-size="14" lengthAdjust="spacing" textLength="79" x="818.25" y="614.2285">DiaEnRutina</text><line style="stroke:#181818;stroke-width:0.5;" x1="717.5" x2="965.5" y1="624.5" y2="624.5"/><rect fill="none" height="6" style="stroke:#C82930;stroke-width:1.0;" width="6" x="724.5" y="635.8047"/><text fill="#000000" font-family="sans-serif" font-size="14" lengthAdjust="spacing" textLength="126" x="736.5" y="643.0332">idDiaEnDieta : Long</text><rect fill="none" height="6" style="stroke:#C82930;stroke-width:1.0;" width="6" x="724.5" y="653.4141"/><text fill="#000000" font-family="sans-serif" font-size="14" lengthAdjust="spacing" textLength="97" x="736.5" y="660.6426">nombre : String</text><rect fill="none" height="6" style="stroke:#C82930;stroke-width:1.0;" width="6" x="724.5" y="671.0234"/><text fill="#000000" font-family="sans-serif" font-size="14" lengthAdjust="spacing" textLength="104" x="736.5" y="678.252">resumen : String</text><rect fill="none" height="6" style="stroke:#C82930;stroke-width:1.0;" width="6" x="724.5" y="688.6328"/><text fill="#000000" font-family="sans-serif" font-size="14" lengthAdjust="spacing" textLength="157" x="736.5" y="695.8613">caloriasQuemadas : float</text><rect fill="none" height="6" style="stroke:#C82930;stroke-width:1.0;" width="6" x="724.5" y="706.2422"/><text fill="#000000" font-family="sans-serif" font-size="14" lengthAdjust="spacing" textLength="224" x="736.5" y="713.4707">diaDeLaSemana : DiaDeLaSemana</text><line style="stroke:#181818;stroke-width:0.5;" x1="717.5" x2="965.5" y1="720.5469" y2="720.5469"/></g><!--class Ejercicio--><g id="elem_Ejercicio"><rect codeLine="128" fill="#F1F1F1" height="118.4375" id="Ejercicio" rx="2.5" ry="2.5" style="stroke:#181818;stroke-width:0.5;" width="209" x="737" y="824"/><ellipse cx="810.75" cy="840" fill="#ADD1B2" rx="11" ry="11" style="stroke:#181818;stroke-width:1.0;"/><path d="M813.5156,835.875 Q813.6719,835.6563 813.8594,835.5469 Q814.0469,835.4375 814.2656,835.4375 Q814.6406,835.4375 814.875,835.7031 Q815.1094,835.9531 815.1094,836.5625 L815.1094,838.0156 Q815.1094,838.625 814.875,838.8906 Q814.6406,839.1563 814.2656,839.1563 Q813.9219,839.1563 813.7188,838.9531 Q813.5156,838.7656 813.4063,838.25 Q813.3594,837.8906 813.1719,837.7031 Q812.8438,837.3281 812.2344,837.1094 Q811.625,836.8906 811,836.8906 Q810.2344,836.8906 809.5938,837.2188 Q808.9688,837.5469 808.4688,838.2969 Q807.9844,839.0469 807.9844,840.0781 L807.9844,841.1719 Q807.9844,842.4063 808.875,843.2344 Q809.7656,844.0469 811.3594,844.0469 Q812.2969,844.0469 812.9531,843.7969 Q813.3438,843.6406 813.7656,843.2031 Q814.0313,842.9375 814.1719,842.8594 Q814.3281,842.7813 814.5313,842.7813 Q814.8594,842.7813 815.1094,843.0469 Q815.375,843.2969 815.375,843.6406 Q815.375,843.9844 815.0313,844.3906 Q814.5313,844.9688 813.7344,845.2969 Q812.6563,845.75 811.3594,845.75 Q809.8438,845.75 808.6406,845.125 Q807.6563,844.625 806.9688,843.5625 Q806.2813,842.4844 806.2813,841.2031 L806.2813,840.0469 Q806.2813,838.7188 806.8906,837.5781 Q807.5156,836.4219 808.6094,835.8125 Q809.7031,835.1875 810.9375,835.1875 Q811.6719,835.1875 812.3125,835.3594 Q812.9688,835.5156 813.5156,835.875 Z " fill="#000000"/><text fill="#000000" font-family="sans-serif" font-size="14" lengthAdjust="spacing" textLength="53" x="831.25" y="845.7285">Ejercicio</text><line style="stroke:#181818;stroke-width:0.5;" x1="738" x2="945" y1="856" y2="856"/><rect fill="none" height="6" style="stroke:#C82930;stroke-width:1.0;" width="6" x="745" y="867.3047"/><text fill="#000000" font-family="sans-serif" font-size="14" lengthAdjust="spacing" textLength="108" x="757" y="874.5332">idEjercicio : Long</text><rect fill="none" height="6" style="stroke:#C82930;stroke-width:1.0;" width="6" x="745" y="884.9141"/><text fill="#000000" font-family="sans-serif" font-size="14" lengthAdjust="spacing" textLength="97" x="757" y="892.1426">nombre : String</text><rect fill="none" height="6" style="stroke:#C82930;stroke-width:1.0;" width="6" x="745" y="902.5234"/><text fill="#000000" font-family="sans-serif" font-size="14" lengthAdjust="spacing" textLength="118" x="757" y="909.752">explicacion : String</text><rect fill="none" height="6" style="stroke:#C82930;stroke-width:1.0;" width="6" x="745" y="920.1328"/><text fill="#000000" font-family="sans-serif" font-size="14" lengthAdjust="spacing" textLength="183" x="757" y="927.3613">musculoEnfocado : Musculos</text><line style="stroke:#181818;stroke-width:0.5;" x1="738" x2="945" y1="934.4375" y2="934.4375"/></g><!--class Serie--><g id="elem_Serie"><rect codeLine="135" fill="#F1F1F1" height="118.4375" id="Serie" rx="2.5" ry="2.5" style="stroke:#181818;stroke-width:0.5;" width="156" x="763.5" y="1020"/><ellipse cx="820.75" cy="1036" fill="#ADD1B2" rx="11" ry="11" style="stroke:#181818;stroke-width:1.0;"/><path d="M823.5156,1031.875 Q823.6719,1031.6563 823.8594,1031.5469 Q824.0469,1031.4375 824.2656,1031.4375 Q824.6406,1031.4375 824.875,1031.7031 Q825.1094,1031.9531 825.1094,1032.5625 L825.1094,1034.0156 Q825.1094,1034.625 824.875,1034.8906 Q824.6406,1035.1563 824.2656,1035.1563 Q823.9219,1035.1563 823.7188,1034.9531 Q823.5156,1034.7656 823.4063,1034.25 Q823.3594,1033.8906 823.1719,1033.7031 Q822.8438,1033.3281 822.2344,1033.1094 Q821.625,1032.8906 821,1032.8906 Q820.2344,1032.8906 819.5938,1033.2188 Q818.9688,1033.5469 818.4688,1034.2969 Q817.9844,1035.0469 817.9844,1036.0781 L817.9844,1037.1719 Q817.9844,1038.4063 818.875,1039.2344 Q819.7656,1040.0469 821.3594,1040.0469 Q822.2969,1040.0469 822.9531,1039.7969 Q823.3438,1039.6406 823.7656,1039.2031 Q824.0313,1038.9375 824.1719,1038.8594 Q824.3281,1038.7813 824.5313,1038.7813 Q824.8594,1038.7813 825.1094,1039.0469 Q825.375,1039.2969 825.375,1039.6406 Q825.375,1039.9844 825.0313,1040.3906 Q824.5313,1040.9688 823.7344,1041.2969 Q822.6563,1041.75 821.3594,1041.75 Q819.8438,1041.75 818.6406,1041.125 Q817.6563,1040.625 816.9688,1039.5625 Q816.2813,1038.4844 816.2813,1037.2031 L816.2813,1036.0469 Q816.2813,1034.7188 816.8906,1033.5781 Q817.5156,1032.4219 818.6094,1031.8125 Q819.7031,1031.1875 820.9375,1031.1875 Q821.6719,1031.1875 822.3125,1031.3594 Q822.9688,1031.5156 823.5156,1031.875 Z " fill="#000000"/><text fill="#000000" font-family="sans-serif" font-size="14" lengthAdjust="spacing" textLength="33" x="841.25" y="1041.7285">Serie</text><line style="stroke:#181818;stroke-width:0.5;" x1="764.5" x2="918.5" y1="1052" y2="1052"/><rect fill="none" height="6" style="stroke:#C82930;stroke-width:1.0;" width="6" x="771.5" y="1063.3047"/><text fill="#000000" font-family="sans-serif" font-size="14" lengthAdjust="spacing" textLength="88" x="783.5" y="1070.5332">idSerie : Long</text><rect fill="none" height="6" style="stroke:#C82930;stroke-width:1.0;" width="6" x="771.5" y="1080.9141"/><text fill="#000000" font-family="sans-serif" font-size="14" lengthAdjust="spacing" textLength="130" x="783.5" y="1088.1426">serieAnterior : String</text><rect fill="none" height="6" style="stroke:#C82930;stroke-width:1.0;" width="6" x="771.5" y="1098.5234"/><text fill="#000000" font-family="sans-serif" font-size="14" lengthAdjust="spacing" textLength="104" x="783.5" y="1105.752">repeticiones : int</text><rect fill="none" height="6" style="stroke:#C82930;stroke-width:1.0;" width="6" x="771.5" y="1116.1328"/><text fill="#000000" font-family="sans-serif" font-size="14" lengthAdjust="spacing" textLength="58" x="783.5" y="1123.3613">peso : int</text><line style="stroke:#181818;stroke-width:0.5;" x1="764.5" x2="918.5" y1="1130.4375" y2="1130.4375"/></g><!--link Usuario to DietaCompleta--><g id="link_Usuario_DietaCompleta"><path codeLine="146" d="M618.69,257.5 C613.6,280.29 608.34,303.82 603.47,325.65 " fill="none" id="Usuario-DietaCompleta" style="stroke:#181818;stroke-width:1.0;"/><text fill="#000000" font-family="sans-serif" font-size="13" lengthAdjust="spacing" textLength="7" x="609.843" y="278.8758">1</text><text fill="#000000" font-family="sans-serif" font-size="13" lengthAdjust="spacing" textLength="20" x="584.3099" y="315.2889">0..*</text></g><!--link DietaCompleta to DiaEnDieta--><g id="link_DietaCompleta_DiaEnDieta"><path codeLine="148" d="M572.26,515.22 C570.12,534.86 567.86,555.47 565.76,574.76 " fill="none" id="DietaCompleta-DiaEnDieta" style="stroke:#181818;stroke-width:1.0;"/><text fill="#000000" font-family="sans-serif" font-size="13" lengthAdjust="spacing" textLength="7" x="564.251" y="536.2761">1</text><text fill="#000000" font-family="sans-serif" font-size="13" lengthAdjust="spacing" textLength="20" x="545.6964" y="564.203">1..*</text></g><!--link Usuario to RutinaCompleta--><g id="link_Usuario_RutinaCompleta"><path codeLine="150" d="M717.84,257.5 C741.61,296.93 766.73,338.59 785.54,369.8 " fill="none" id="Usuario-RutinaCompleta" style="stroke:#181818;stroke-width:1.0;"/><text fill="#000000" font-family="sans-serif" font-size="13" lengthAdjust="spacing" textLength="7" x="715.0349" y="278.8758">1</text><text fill="#000000" font-family="sans-serif" font-size="13" lengthAdjust="spacing" textLength="20" x="759.9206" y="359.0772">0..*</text></g><!--link DiaEnDieta to Comida--><g id="link_DiaEnDieta_Comida"><path codeLine="152" d="M556.5,746.12 C556.5,765.8 556.5,786.62 556.5,805.9 " fill="none" id="DiaEnDieta-Comida" style="stroke:#181818;stroke-width:1.0;"/><text fill="#000000" font-family="sans-serif" font-size="13" lengthAdjust="spacing" textLength="7" x="549.1992" y="767.6643">1</text><text fill="#000000" font-family="sans-serif" font-size="13" lengthAdjust="spacing" textLength="20" x="535.5156" y="795.0523">1..*</text></g><!--link Comida to Ingrediente--><g id="link_Comida_Ingrediente"><path codeLine="154" d="M556.5,960.12 C556.5,986.44 556.5,1014.92 556.5,1037.29 " fill="none" id="Comida-Ingrediente" style="stroke:#181818;stroke-width:1.0;"/><text fill="#000000" font-family="sans-serif" font-size="13" lengthAdjust="spacing" textLength="7" x="549.1883" y="981.2271">1</text><text fill="#000000" font-family="sans-serif" font-size="13" lengthAdjust="spacing" textLength="20" x="534.8438" y="1026.5629">1..*</text></g><!--link Ingrediente to Alimento--><g id="link_Ingrediente_Alimento"><path codeLine="156" d="M556.5,1120.67 C556.5,1143 556.5,1171.43 556.5,1197.73 " fill="none" id="Ingrediente-Alimento" style="stroke:#181818;stroke-width:1.0;"/><text fill="#000000" font-family="sans-serif" font-size="13" lengthAdjust="spacing" textLength="20" x="534.9063" y="1142.0919">1..*</text><text fill="#000000" font-family="sans-serif" font-size="13" lengthAdjust="spacing" textLength="7" x="549.1664" y="1187.131">1</text></g><!--link RutinaCompleta to DiaEnRutina--><g id="link_RutinaCompleta_DiaEnRutina"><path codeLine="158" d="M820.92,471.1 C824.76,506.25 829.95,553.81 834.16,592.36 " fill="none" id="RutinaCompleta-DiaEnRutina" style="stroke:#181818;stroke-width:1.0;"/><text fill="#000000" font-family="sans-serif" font-size="13" lengthAdjust="spacing" textLength="7" x="814.178" y="492.5047">1</text><text fill="#000000" font-family="sans-serif" font-size="13" lengthAdjust="spacing" textLength="20" x="812.2634" y="581.544">1..*</text></g><!--link DiaEnRutina to Ejercicio--><g id="link_DiaEnRutina_Ejercicio"><path codeLine="160" d="M841.5,728.56 C841.5,758.96 841.5,794.58 841.5,823.84 " fill="none" id="DiaEnRutina-Ejercicio" style="stroke:#181818;stroke-width:1.0;"/><text fill="#000000" font-family="sans-serif" font-size="13" lengthAdjust="spacing" textLength="20" x="820.4688" y="749.9145">1..*</text><text fill="#000000" font-family="sans-serif" font-size="13" lengthAdjust="spacing" textLength="20" x="820.2813" y="813.1448">1..*</text></g><!--link Ejercicio to Serie--><g id="link_Ejercicio_Serie"><path codeLine="162" d="M841.5,942.21 C841.5,966.76 841.5,995.29 841.5,1019.83 " fill="none" id="Ejercicio-Serie" style="stroke:#181818;stroke-width:1.0;"/><text fill="#000000" font-family="sans-serif" font-size="13" lengthAdjust="spacing" textLength="7" x="834.0734" y="963.8911">1</text><text fill="#000000" font-family="sans-serif" font-size="13" lengthAdjust="spacing" textLength="20" x="820.2813" y="1009.1335">1..*</text></g><!--SRC=[lLLDRvmm4BtxLrXxYLGfKTDZf1wyu18Ym5i3EVIoye9tumZibO6eKfJ_Nfkl1Rf94waj5tQUPz-ymM_i2_ZrbGTSz4iGHsc8AN9931TBP_u5k6nA63PLrXIgWl0PE2aE0W9kIRYc16omSql0sdVm9WO9xTueIl2QeXy4u7Y30XS1j7P9w4Sem37mWZJ1nF0Wjy__XaD2KG0y7EA0GF3IbtK5Std0ObuooMpj88qCGOXeOby-fWwnZ7SflZUlUmFOzHYjJNUWhUYHaStZaclJmtEd7OCmlSCKa8IUSiZkaTVYgSs2vjbWwcAwzIYAKGjuA49q6vfm6wQnamQ8jdXeUuvCwWR79xf8FF72vIWpd29dUSyQOnT72Q8-QKDiP3Y-uvDju7kOBi6GkErsBM3V5epDrx8mIWAS85ltuiyEC1vm0XJZ69vP-jq1MS6g2gPLmxHGfeDBAF8Xke61aWS3ILNkD3TnN6lH8kp8YqBawleS-6KAxddsm2AMYL9mMNUa6IjSLdEpUcYtxMROFeCSUMMJzeLYjUKiwaQp2M3i8effWPeNVA-accAPahLc5PSFx0I_3DswWjVCKUMnCE- -vnPxg-ESLvaMnqmeEQl42gK5gn9Liu9N4w57hMek99jY6TCxzI1opMernGz6x2oHMLDPFJkb2ixaL3p3ibCxA1-1D-J_8vtvR8XlvaDjHVUgpTSs8z8hxeF_hNRyXBuyQ9vRE_9UqHGPPMLCrdQkFSrATOO65Q9iBTrnZE4x-lhB3T6cDWmBHtVWMseqhneZ-Uo464_r11znsP8HJdh-tXXJv1zpJwS6FtATYMmydqxn6rBupsCXCZQRLokdx6uxBFVc6CejnN3_dGh6N8l16jtliL1bGsHyOWv8FM_zQ2uNMwxrgv3rwJ2pmVjERqXnWCm54E5ttT_3IRswNa5uUGbNdw-kFgtc1nm0y_FEvjhKwpvrsDTNsURkidIZ5SRCZgmRR03w0L-iJeOCWEd4zUjjvceSAm0MjbxGJJpQQ-eDEwLhVur-0U1adGLRkytW5m00]--></g></svg>