<?xml version="1.0" encoding="us-ascii" standalone="no"?><svg xmlns="http://www.w3.org/2000/svg" xmlns:xlink="http://www.w3.org/1999/xlink" contentStyleType="text/css" height="608px" preserveAspectRatio="none" style="width:1240px;height:608px;background:#FFFFFF;" version="1.1" viewBox="0 0 1240 608" width="1240px" zoomAndPan="magnify"><defs/><g><!--cluster App M?vil Android--><g id="cluster_App M&#243;vil Android"><polygon fill="none" points="16,16,26,6,1036,6,1036,581,1026,591,16,591,16,16" style="stroke:#181818;stroke-width:1.0;"/><line style="stroke:#181818;stroke-width:1.0;" x1="1026" x2="1036" y1="16" y2="6"/><line style="stroke:#181818;stroke-width:1.0;" x1="16" x2="1026" y1="16" y2="16"/><line style="stroke:#181818;stroke-width:1.0;" x1="1026" x2="1026" y1="16" y2="591"/><text fill="#000000" font-family="sans-serif" font-size="14" font-weight="bold" lengthAdjust="spacing" textLength="129" x="457.5" y="33.5332">App M&#243;vil Android</text></g><!--cluster Capa de Presentacion--><g id="cluster_Capa de Presentacion"><path d="M50.5,63 L205.5,63 A3.75,3.75 0 0 1 208,65.5 L215,86.6094 L555.5,86.6094 A2.5,2.5 0 0 1 558,89.1094 L558,292.5 A2.5,2.5 0 0 1 555.5,295 L50.5,295 A2.5,2.5 0 0 1 48,292.5 L48,65.5 A2.5,2.5 0 0 1 50.5,63 " fill="none" style="stroke:#000000;stroke-width:1.5;"/><line style="stroke:#000000;stroke-width:1.5;" x1="48" x2="215" y1="86.6094" y2="86.6094"/><text fill="#000000" font-family="sans-serif" font-size="14" font-weight="bold" lengthAdjust="spacing" textLength="154" x="52" y="79.5332">Capa de Presentacion</text></g><!--cluster Capa de L?gica--><g id="cluster_Capa de L&#243;gica"><path d="M600.5,179 L708.5,179 A3.75,3.75 0 0 1 711,181.5 L718,202.6094 L1001.5,202.6094 A2.5,2.5 0 0 1 1004,205.1094 L1004,448.5 A2.5,2.5 0 0 1 1001.5,451 L600.5,451 A2.5,2.5 0 0 1 598,448.5 L598,181.5 A2.5,2.5 0 0 1 600.5,179 " fill="none" style="stroke:#000000;stroke-width:1.5;"/><line style="stroke:#000000;stroke-width:1.5;" x1="598" x2="718" y1="202.6094" y2="202.6094"/><text fill="#000000" font-family="sans-serif" font-size="14" font-weight="bold" lengthAdjust="spacing" textLength="107" x="602" y="195.5332">Capa de L&#243;gica</text></g><!--cluster Capa de Datos--><g id="cluster_Capa de Datos"><path d="M152.5,335 L254.5,335 A3.75,3.75 0 0 1 257,337.5 L264,358.6094 L555.5,358.6094 A2.5,2.5 0 0 1 558,361.1094 L558,556.5 A2.5,2.5 0 0 1 555.5,559 L152.5,559 A2.5,2.5 0 0 1 150,556.5 L150,337.5 A2.5,2.5 0 0 1 152.5,335 " fill="none" style="stroke:#000000;stroke-width:1.5;"/><line style="stroke:#000000;stroke-width:1.5;" x1="150" x2="264" y1="358.6094" y2="358.6094"/><text fill="#000000" font-family="sans-serif" font-size="14" font-weight="bold" lengthAdjust="spacing" textLength="101" x="154" y="351.5332">Capa de Datos</text></g><!--entity RegistroActivity--><g id="elem_RegistroActivity"><rect fill="#F1F1F1" height="47.6094" rx="2.5" ry="2.5" style="stroke:#181818;stroke-width:0.5;" width="137" x="72.5" y="107"/><rect fill="#F1F1F1" height="10" style="stroke:#181818;stroke-width:0.5;" width="15" x="189.5" y="112"/><rect fill="#F1F1F1" height="2" style="stroke:#181818;stroke-width:0.5;" width="4" x="187.5" y="114"/><rect fill="#F1F1F1" height="2" style="stroke:#181818;stroke-width:0.5;" width="4" x="187.5" y="118"/><text fill="#000000" font-family="sans-serif" font-size="14" lengthAdjust="spacing" textLength="97" x="87.5" y="141.5332">RegistroActivity</text></g><!--entity LoginActivity--><g id="elem_LoginActivity"><rect fill="#F1F1F1" height="47.6094" rx="2.5" ry="2.5" style="stroke:#181818;stroke-width:0.5;" width="119" x="244.5" y="107"/><rect fill="#F1F1F1" height="10" style="stroke:#181818;stroke-width:0.5;" width="15" x="343.5" y="112"/><rect fill="#F1F1F1" height="2" style="stroke:#181818;stroke-width:0.5;" width="4" x="341.5" y="114"/><rect fill="#F1F1F1" height="2" style="stroke:#181818;stroke-width:0.5;" width="4" x="341.5" y="118"/><text fill="#000000" font-family="sans-serif" font-size="14" lengthAdjust="spacing" textLength="79" x="259.5" y="141.5332">LoginActivity</text></g><!--entity PerfilActivity--><g id="elem_PerfilActivity"><rect fill="#F1F1F1" height="47.6094" rx="2.5" ry="2.5" style="stroke:#181818;stroke-width:0.5;" width="116" x="399" y="107"/><rect fill="#F1F1F1" height="10" style="stroke:#181818;stroke-width:0.5;" width="15" x="495" y="112"/><rect fill="#F1F1F1" height="2" style="stroke:#181818;stroke-width:0.5;" width="4" x="493" y="114"/><rect fill="#F1F1F1" height="2" style="stroke:#181818;stroke-width:0.5;" width="4" x="493" y="118"/><text fill="#000000" font-family="sans-serif" font-size="14" lengthAdjust="spacing" textLength="76" x="414" y="141.5332">PerfilActivity</text></g><!--entity RutinasActivity--><g id="elem_RutinasActivity"><rect fill="#F1F1F1" height="47.6094" rx="2.5" ry="2.5" style="stroke:#181818;stroke-width:0.5;" width="132" x="130" y="223"/><rect fill="#F1F1F1" height="10" style="stroke:#181818;stroke-width:0.5;" width="15" x="242" y="228"/><rect fill="#F1F1F1" height="2" style="stroke:#181818;stroke-width:0.5;" width="4" x="240" y="230"/><rect fill="#F1F1F1" height="2" style="stroke:#181818;stroke-width:0.5;" width="4" x="240" y="234"/><text fill="#000000" font-family="sans-serif" font-size="14" lengthAdjust="spacing" textLength="92" x="145" y="257.5332">RutinasActivity</text></g><!--entity DietasActivity--><g id="elem_DietasActivity"><rect fill="#F1F1F1" height="47.6094" rx="2.5" ry="2.5" style="stroke:#181818;stroke-width:0.5;" width="124" x="297" y="223"/><rect fill="#F1F1F1" height="10" style="stroke:#181818;stroke-width:0.5;" width="15" x="401" y="228"/><rect fill="#F1F1F1" height="2" style="stroke:#181818;stroke-width:0.5;" width="4" x="399" y="230"/><rect fill="#F1F1F1" height="2" style="stroke:#181818;stroke-width:0.5;" width="4" x="399" y="234"/><text fill="#000000" font-family="sans-serif" font-size="14" lengthAdjust="spacing" textLength="84" x="312" y="257.5332">DietasActivity</text></g><!--entity UsuarioViewModel--><g id="elem_UsuarioViewModel"><rect fill="#F1F1F1" height="47.6094" rx="2.5" ry="2.5" style="stroke:#181818;stroke-width:0.5;" width="155" x="641.5" y="223"/><rect fill="#F1F1F1" height="10" style="stroke:#181818;stroke-width:0.5;" width="15" x="776.5" y="228"/><rect fill="#F1F1F1" height="2" style="stroke:#181818;stroke-width:0.5;" width="4" x="774.5" y="230"/><rect fill="#F1F1F1" height="2" style="stroke:#181818;stroke-width:0.5;" width="4" x="774.5" y="234"/><text fill="#000000" font-family="sans-serif" font-size="14" lengthAdjust="spacing" textLength="115" x="656.5" y="257.5332">UsuarioViewModel</text></g><!--entity RutinaViewModel--><g id="elem_RutinaViewModel"><rect fill="#F1F1F1" height="47.6094" rx="2.5" ry="2.5" style="stroke:#181818;stroke-width:0.5;" width="148" x="832" y="223"/><rect fill="#F1F1F1" height="10" style="stroke:#181818;stroke-width:0.5;" width="15" x="960" y="228"/><rect fill="#F1F1F1" height="2" style="stroke:#181818;stroke-width:0.5;" width="4" x="958" y="230"/><rect fill="#F1F1F1" height="2" style="stroke:#181818;stroke-width:0.5;" width="4" x="958" y="234"/><text fill="#000000" font-family="sans-serif" font-size="14" lengthAdjust="spacing" textLength="108" x="847" y="257.5332">RutinaViewModel</text></g><!--entity DietaViewModel--><g id="elem_DietaViewModel"><rect fill="#F1F1F1" height="47.6094" rx="2.5" ry="2.5" style="stroke:#181818;stroke-width:0.5;" width="140" x="649" y="379"/><rect fill="#F1F1F1" height="10" style="stroke:#181818;stroke-width:0.5;" width="15" x="769" y="384"/><rect fill="#F1F1F1" height="2" style="stroke:#181818;stroke-width:0.5;" width="4" x="767" y="386"/><rect fill="#F1F1F1" height="2" style="stroke:#181818;stroke-width:0.5;" width="4" x="767" y="390"/><text fill="#000000" font-family="sans-serif" font-size="14" lengthAdjust="spacing" textLength="100" x="664" y="413.5332">DietaViewModel</text></g><!--entity UsuarioRepository--><g id="elem_UsuarioRepository"><rect fill="#F1F1F1" height="47.6094" rx="2.5" ry="2.5" style="stroke:#181818;stroke-width:0.5;" width="156" x="174" y="379"/><rect fill="#F1F1F1" height="10" style="stroke:#181818;stroke-width:0.5;" width="15" x="310" y="384"/><rect fill="#F1F1F1" height="2" style="stroke:#181818;stroke-width:0.5;" width="4" x="308" y="386"/><rect fill="#F1F1F1" height="2" style="stroke:#181818;stroke-width:0.5;" width="4" x="308" y="390"/><text fill="#000000" font-family="sans-serif" font-size="14" lengthAdjust="spacing" textLength="116" x="189" y="413.5332">UsuarioRepository</text></g><!--entity RutinaRepository--><g id="elem_RutinaRepository"><rect fill="#F1F1F1" height="47.6094" rx="2.5" ry="2.5" style="stroke:#181818;stroke-width:0.5;" width="149" x="365.5" y="379"/><rect fill="#F1F1F1" height="10" style="stroke:#181818;stroke-width:0.5;" width="15" x="494.5" y="384"/><rect fill="#F1F1F1" height="2" style="stroke:#181818;stroke-width:0.5;" width="4" x="492.5" y="386"/><rect fill="#F1F1F1" height="2" style="stroke:#181818;stroke-width:0.5;" width="4" x="492.5" y="390"/><text fill="#000000" font-family="sans-serif" font-size="14" lengthAdjust="spacing" textLength="109" x="380.5" y="413.5332">RutinaRepository</text></g><!--entity DietaRepository--><g id="elem_DietaRepository"><rect fill="#F1F1F1" height="47.6094" rx="2.5" ry="2.5" style="stroke:#181818;stroke-width:0.5;" width="141" x="181.5" y="487"/><rect fill="#F1F1F1" height="10" style="stroke:#181818;stroke-width:0.5;" width="15" x="302.5" y="492"/><rect fill="#F1F1F1" height="2" style="stroke:#181818;stroke-width:0.5;" width="4" x="300.5" y="494"/><rect fill="#F1F1F1" height="2" style="stroke:#181818;stroke-width:0.5;" width="4" x="300.5" y="498"/><text fill="#000000" font-family="sans-serif" font-size="14" lengthAdjust="spacing" textLength="101" x="196.5" y="521.5332">DietaRepository</text></g><!--entity Backend (API REST)--><g id="elem_Backend (API REST)"><polygon fill="#F1F1F1" points="1052.5,497,1062.5,487,1223.5,487,1223.5,524.6094,1213.5,534.6094,1052.5,534.6094,1052.5,497" style="stroke:#181818;stroke-width:0.5;"/><line style="stroke:#181818;stroke-width:0.5;" x1="1213.5" x2="1223.5" y1="497" y2="487"/><line style="stroke:#181818;stroke-width:0.5;" x1="1052.5" x2="1213.5" y1="497" y2="497"/><line style="stroke:#181818;stroke-width:0.5;" x1="1213.5" x2="1213.5" y1="497" y2="534.6094"/><text fill="#000000" font-family="sans-serif" font-size="14" lengthAdjust="spacing" textLength="131" x="1067.5" y="521.5332">Backend (API REST)</text></g><!--link Capa de Presentacion to Capa de L?gica--><g id="link_Capa de Presentacion_Capa de L&#243;gica"><path d="M558.0643,148.4143 C558.1414,148.5712 558.2189,148.729 558.2968,148.8876 C558.6085,149.5222 558.9269,150.1701 559.2514,150.8308 C564.4441,161.4009 571.2281,175.2106 578.0113,189.0188 C584.7944,202.8269 591.5766,216.6334 596.7655,227.1973 C597.0898,227.8576 597.4079,228.5052 597.7193,229.1393 C597.7972,229.2978 595.2294,224.0701 595.3065,224.2269 " fill="none" id="Capa de Presentacion-to-Capa de L&#243;gica" style="stroke:#181818;stroke-width:1.0;"/><polygon fill="#181818" points="597.9517,229.6123,597.5741,219.7707,595.7473,225.1245,590.3936,223.2977,597.9517,229.6123" style="stroke:#181818;stroke-width:1.0;"/></g><!--link Capa de L?gica to Capa de Datos--><g id="link_Capa de L&#243;gica_Capa de Datos"><path d="M597.9357,270.1745 C597.8586,270.3865 597.7811,270.5997 597.7032,270.814 C597.3915,271.6711 597.0731,272.5465 596.7486,273.4389 C591.5559,287.7178 584.7719,306.3731 577.9888,325.0263 C571.2056,343.6794 564.4234,362.3303 559.2345,376.6005 C558.9102,377.4924 558.5921,378.3671 558.2807,379.2237 C558.2028,379.4379 560.1757,374.0121 560.0987,374.2239 " fill="none" id="Capa de L&#243;gica-to-Capa de Datos" style="stroke:#181818;stroke-width:1.0;"/><polygon fill="#181818" points="558.0483,379.8627,564.883,372.7714,559.7569,375.1637,557.3646,370.0376,558.0483,379.8627" style="stroke:#181818;stroke-width:1.0;"/></g><!--link Capa de Datos to Backend (API REST)--><g id="link_Capa de Datos_Backend (API REST)"><path d="M558.1809,413.9922 C558.2483,414.0702 558.3161,414.1486 558.3843,414.2273 C558.5207,414.3847 558.6585,414.5435 558.7979,414.7036 C559.3552,415.3442 559.9363,416.006 560.5403,416.687 C561.7482,418.0491 563.0477,419.488 564.4323,420.9867 C567.2015,423.9842 570.3109,427.2213 573.7088,430.5625 C587.3,443.9275 605.505,458.96 625,467 C700.03,497.94 920.8211,506.5033 1046.2611,508.9433 " fill="none" id="Capa de Datos-to-Backend (API REST)" style="stroke:#181818;stroke-width:1.0;"/><polygon fill="#181818" points="1052.26,509.06,1043.3395,504.8857,1047.2609,508.9628,1043.1839,512.8842,1052.26,509.06" style="stroke:#181818;stroke-width:1.0;"/></g><!--SRC=[TP5BZi8m38RtEON52XPSOQJoM8m4KbKUcweBg_LKrbHnb0GGGfoA8t0nGfaHq0Rluk-NFZlMKX4C4cDWURtikO54LrQu6i19AGXbiFp5EcIcQ112EBNaI7iiMVGz1N-LPrIpyrQIqlEU_R5ueeNKh2FzbEmFDn6GxJnhT14oO_9TSFumwk9wgRd4joatReUMPSjqM8RTcvuqHbff1toIpj2BYoapCkBOY-ql6aMjj4lEAdXrUxH9C9EkO9Yatv3DL-lHl_MUoMFtAc0y_eAyyp-5wdNUS-rABwd7-v7fJr4eTGC0]--></g></svg>