<?xml version="1.0" encoding="us-ascii" standalone="no"?><svg xmlns="http://www.w3.org/2000/svg" xmlns:xlink="http://www.w3.org/1999/xlink" contentStyleType="text/css" height="1286px" preserveAspectRatio="none" style="width:1590px;height:1286px;background:#FFFFFF;" version="1.1" viewBox="0 0 1590 1286" width="1590px" zoomAndPan="magnify"><defs/><g><!--class Musculo--><g id="elem_Musculo"><rect codeLine="6" fill="#F1F1F1" height="347.3594" id="Musculo" rx="2.5" ry="2.5" style="stroke:#181818;stroke-width:0.5;" width="125" x="39" y="7"/><ellipse cx="72.45" cy="23" fill="#EB937F" rx="11" ry="11" style="stroke:#181818;stroke-width:1.0;"/><path d="M71.3094,23.7969 L71.3094,26.2969 L75.6375,26.2969 L75.6375,25.375 Q75.6375,24.7656 75.8719,24.5 Q76.1219,24.2344 76.4969,24.2344 Q76.8719,24.2344 77.1063,24.5 Q77.3406,24.7656 77.3406,25.375 L77.3406,28 L69.3406,28 Q68.7156,28 68.45,27.7656 Q68.2,27.5313 68.2,27.1406 Q68.2,26.7656 68.4656,26.5313 Q68.7313,26.2969 69.3406,26.2969 L69.6063,26.2969 L69.6063,19.6406 L69.3406,19.6406 Q68.7156,19.6406 68.45,19.4063 Q68.2,19.1719 68.2,18.7813 Q68.2,18.4063 68.45,18.1719 Q68.7156,17.9375 69.3406,17.9375 L76.9656,17.9375 L76.9656,20.5313 Q76.9656,21.1406 76.7313,21.4063 Q76.5125,21.6563 76.1219,21.6563 Q75.7469,21.6563 75.5125,21.4063 Q75.2781,21.1406 75.2781,20.5313 L75.2781,19.6406 L71.3094,19.6406 L71.3094,22.0938 L72.7938,22.0938 Q72.7938,21.4375 72.9188,21.25 Q73.1844,20.8438 73.6531,20.8438 Q74.0281,20.8438 74.2625,21.1094 Q74.4969,21.3594 74.4969,21.9688 L74.4969,23.9375 Q74.4969,24.4844 74.3719,24.6719 Q74.1063,25.0625 73.6531,25.0625 Q73.1844,25.0625 72.9188,24.6563 Q72.7938,24.4688 72.7938,23.7969 L71.3094,23.7969 Z " fill="#000000"/><text fill="#000000" font-family="sans-serif" font-size="14" lengthAdjust="spacing" textLength="52" x="90.55" y="28.7285">Musculo</text><line style="stroke:#181818;stroke-width:0.5;" x1="40" x2="163" y1="39" y2="39"/><text fill="#000000" font-family="sans-serif" font-size="14" lengthAdjust="spacing" textLength="55" x="45" y="57.5332">CUELLO</text><text fill="#000000" font-family="sans-serif" font-size="14" lengthAdjust="spacing" textLength="70" x="45" y="75.1426">HOMBROS</text><text fill="#000000" font-family="sans-serif" font-size="14" lengthAdjust="spacing" textLength="75" x="45" y="92.752">DORSALES</text><text fill="#000000" font-family="sans-serif" font-size="14" lengthAdjust="spacing" textLength="48" x="45" y="110.3613">PECHO</text><text fill="#000000" font-family="sans-serif" font-size="14" lengthAdjust="spacing" textLength="49" x="45" y="127.9707">BICEPS</text><text fill="#000000" font-family="sans-serif" font-size="14" lengthAdjust="spacing" textLength="59" x="45" y="145.5801">TRICEPS</text><text fill="#000000" font-family="sans-serif" font-size="14" lengthAdjust="spacing" textLength="83" x="45" y="163.1895">ANTEBRAZO</text><text fill="#000000" font-family="sans-serif" font-size="14" lengthAdjust="spacing" textLength="101" x="45" y="180.7988">ZONA_LUMBAR</text><text fill="#000000" font-family="sans-serif" font-size="14" lengthAdjust="spacing" textLength="113" x="45" y="198.4082">ESPALDA_MEDIA</text><text fill="#000000" font-family="sans-serif" font-size="14" lengthAdjust="spacing" textLength="79" x="45" y="216.0176">TRAPECIOS</text><text fill="#000000" font-family="sans-serif" font-size="14" lengthAdjust="spacing" textLength="86" x="45" y="233.627">ADUCTORES</text><text fill="#000000" font-family="sans-serif" font-size="14" lengthAdjust="spacing" textLength="95" x="45" y="251.2363">ABDUCTORES</text><text fill="#000000" font-family="sans-serif" font-size="14" lengthAdjust="spacing" textLength="97" x="45" y="268.8457">ABDOMINALES</text><text fill="#000000" font-family="sans-serif" font-size="14" lengthAdjust="spacing" textLength="66" x="45" y="286.4551">GLUTEOS</text><text fill="#000000" font-family="sans-serif" font-size="14" lengthAdjust="spacing" textLength="88" x="45" y="304.0645">CUADRICEPS</text><text fill="#000000" font-family="sans-serif" font-size="14" lengthAdjust="spacing" textLength="105" x="45" y="321.6738">ISQUIOTIBIALES</text><text fill="#000000" font-family="sans-serif" font-size="14" lengthAdjust="spacing" textLength="68" x="45" y="339.2832">GEMELOS</text><line style="stroke:#181818;stroke-width:0.5;" x1="40" x2="163" y1="346.3594" y2="346.3594"/></g><!--class DiaDeLaSemana--><g id="elem_DiaDeLaSemana"><rect codeLine="26" fill="#F1F1F1" height="171.2656" id="DiaDeLaSemana" rx="2.5" ry="2.5" style="stroke:#181818;stroke-width:0.5;" width="139" x="199" y="95"/><ellipse cx="214" cy="111" fill="#EB937F" rx="11" ry="11" style="stroke:#181818;stroke-width:1.0;"/><path d="M212.8594,111.7969 L212.8594,114.2969 L217.1875,114.2969 L217.1875,113.375 Q217.1875,112.7656 217.4219,112.5 Q217.6719,112.2344 218.0469,112.2344 Q218.4219,112.2344 218.6563,112.5 Q218.8906,112.7656 218.8906,113.375 L218.8906,116 L210.8906,116 Q210.2656,116 210,115.7656 Q209.75,115.5313 209.75,115.1406 Q209.75,114.7656 210.0156,114.5313 Q210.2813,114.2969 210.8906,114.2969 L211.1563,114.2969 L211.1563,107.6406 L210.8906,107.6406 Q210.2656,107.6406 210,107.4063 Q209.75,107.1719 209.75,106.7813 Q209.75,106.4063 210,106.1719 Q210.2656,105.9375 210.8906,105.9375 L218.5156,105.9375 L218.5156,108.5313 Q218.5156,109.1406 218.2813,109.4063 Q218.0625,109.6563 217.6719,109.6563 Q217.2969,109.6563 217.0625,109.4063 Q216.8281,109.1406 216.8281,108.5313 L216.8281,107.6406 L212.8594,107.6406 L212.8594,110.0938 L214.3438,110.0938 Q214.3438,109.4375 214.4688,109.25 Q214.7344,108.8438 215.2031,108.8438 Q215.5781,108.8438 215.8125,109.1094 Q216.0469,109.3594 216.0469,109.9688 L216.0469,111.9375 Q216.0469,112.4844 215.9219,112.6719 Q215.6563,113.0625 215.2031,113.0625 Q214.7344,113.0625 214.4688,112.6563 Q214.3438,112.4688 214.3438,111.7969 L212.8594,111.7969 Z " fill="#000000"/><text fill="#000000" font-family="sans-serif" font-size="14" lengthAdjust="spacing" textLength="107" x="228" y="116.7285">DiaDeLaSemana</text><line style="stroke:#181818;stroke-width:0.5;" x1="200" x2="337" y1="127" y2="127"/><text fill="#000000" font-family="sans-serif" font-size="14" lengthAdjust="spacing" textLength="44" x="205" y="145.5332">LUNES</text><text fill="#000000" font-family="sans-serif" font-size="14" lengthAdjust="spacing" textLength="57" x="205" y="163.1426">MARTES</text><text fill="#000000" font-family="sans-serif" font-size="14" lengthAdjust="spacing" textLength="80" x="205" y="180.752">MIERCOLES</text><text fill="#000000" font-family="sans-serif" font-size="14" lengthAdjust="spacing" textLength="51" x="205" y="198.3613">JUEVES</text><text fill="#000000" font-family="sans-serif" font-size="14" lengthAdjust="spacing" textLength="58" x="205" y="215.9707">VIERNES</text><text fill="#000000" font-family="sans-serif" font-size="14" lengthAdjust="spacing" textLength="57" x="205" y="233.5801">SABADO</text><text fill="#000000" font-family="sans-serif" font-size="14" lengthAdjust="spacing" textLength="66" x="205" y="251.1895">DOMINGO</text><line style="stroke:#181818;stroke-width:0.5;" x1="200" x2="337" y1="258.2656" y2="258.2656"/></g><!--class Genero--><g id="elem_Genero"><rect codeLine="36" fill="#F1F1F1" height="100.8281" id="Genero" rx="2.5" ry="2.5" style="stroke:#181818;stroke-width:0.5;" width="80" x="373.5" y="130"/><ellipse cx="388.5" cy="146" fill="#EB937F" rx="11" ry="11" style="stroke:#181818;stroke-width:1.0;"/><path d="M387.3594,146.7969 L387.3594,149.2969 L391.6875,149.2969 L391.6875,148.375 Q391.6875,147.7656 391.9219,147.5 Q392.1719,147.2344 392.5469,147.2344 Q392.9219,147.2344 393.1563,147.5 Q393.3906,147.7656 393.3906,148.375 L393.3906,151 L385.3906,151 Q384.7656,151 384.5,150.7656 Q384.25,150.5313 384.25,150.1406 Q384.25,149.7656 384.5156,149.5313 Q384.7813,149.2969 385.3906,149.2969 L385.6563,149.2969 L385.6563,142.6406 L385.3906,142.6406 Q384.7656,142.6406 384.5,142.4063 Q384.25,142.1719 384.25,141.7813 Q384.25,141.4063 384.5,141.1719 Q384.7656,140.9375 385.3906,140.9375 L393.0156,140.9375 L393.0156,143.5313 Q393.0156,144.1406 392.7813,144.4063 Q392.5625,144.6563 392.1719,144.6563 Q391.7969,144.6563 391.5625,144.4063 Q391.3281,144.1406 391.3281,143.5313 L391.3281,142.6406 L387.3594,142.6406 L387.3594,145.0938 L388.8438,145.0938 Q388.8438,144.4375 388.9688,144.25 Q389.2344,143.8438 389.7031,143.8438 Q390.0781,143.8438 390.3125,144.1094 Q390.5469,144.3594 390.5469,144.9688 L390.5469,146.9375 Q390.5469,147.4844 390.4219,147.6719 Q390.1563,148.0625 389.7031,148.0625 Q389.2344,148.0625 388.9688,147.6563 Q388.8438,147.4688 388.8438,146.7969 L387.3594,146.7969 Z " fill="#000000"/><text fill="#000000" font-family="sans-serif" font-size="14" lengthAdjust="spacing" textLength="48" x="402.5" y="151.7285">Genero</text><line style="stroke:#181818;stroke-width:0.5;" x1="374.5" x2="452.5" y1="162" y2="162"/><text fill="#000000" font-family="sans-serif" font-size="14" lengthAdjust="spacing" textLength="59" x="379.5" y="180.5332">HOMBRE</text><text fill="#000000" font-family="sans-serif" font-size="14" lengthAdjust="spacing" textLength="45" x="379.5" y="198.1426">MUJER</text><text fill="#000000" font-family="sans-serif" font-size="14" lengthAdjust="spacing" textLength="41" x="379.5" y="215.752">OTRO</text><line style="stroke:#181818;stroke-width:0.5;" x1="374.5" x2="452.5" y1="222.8281" y2="222.8281"/></g><!--class Objetivo--><g id="elem_Objetivo"><rect codeLine="42" fill="#F1F1F1" height="100.8281" id="Objetivo" rx="2.5" ry="2.5" style="stroke:#181818;stroke-width:0.5;" width="189" x="7" y="458"/><ellipse cx="71.25" cy="474" fill="#EB937F" rx="11" ry="11" style="stroke:#181818;stroke-width:1.0;"/><path d="M70.1094,474.7969 L70.1094,477.2969 L74.4375,477.2969 L74.4375,476.375 Q74.4375,475.7656 74.6719,475.5 Q74.9219,475.2344 75.2969,475.2344 Q75.6719,475.2344 75.9063,475.5 Q76.1406,475.7656 76.1406,476.375 L76.1406,479 L68.1406,479 Q67.5156,479 67.25,478.7656 Q67,478.5313 67,478.1406 Q67,477.7656 67.2656,477.5313 Q67.5313,477.2969 68.1406,477.2969 L68.4063,477.2969 L68.4063,470.6406 L68.1406,470.6406 Q67.5156,470.6406 67.25,470.4063 Q67,470.1719 67,469.7813 Q67,469.4063 67.25,469.1719 Q67.5156,468.9375 68.1406,468.9375 L75.7656,468.9375 L75.7656,471.5313 Q75.7656,472.1406 75.5313,472.4063 Q75.3125,472.6563 74.9219,472.6563 Q74.5469,472.6563 74.3125,472.4063 Q74.0781,472.1406 74.0781,471.5313 L74.0781,470.6406 L70.1094,470.6406 L70.1094,473.0938 L71.5938,473.0938 Q71.5938,472.4375 71.7188,472.25 Q71.9844,471.8438 72.4531,471.8438 Q72.8281,471.8438 73.0625,472.1094 Q73.2969,472.3594 73.2969,472.9688 L73.2969,474.9375 Q73.2969,475.4844 73.1719,475.6719 Q72.9063,476.0625 72.4531,476.0625 Q71.9844,476.0625 71.7188,475.6563 Q71.5938,475.4688 71.5938,474.7969 L70.1094,474.7969 Z " fill="#000000"/><text fill="#000000" font-family="sans-serif" font-size="14" lengthAdjust="spacing" textLength="52" x="91.75" y="479.7285">Objetivo</text><line style="stroke:#181818;stroke-width:0.5;" x1="8" x2="195" y1="490" y2="490"/><text fill="#000000" font-family="sans-serif" font-size="14" lengthAdjust="spacing" textLength="113" x="13" y="508.5332">PERDER_GRASA</text><text fill="#000000" font-family="sans-serif" font-size="14" lengthAdjust="spacing" textLength="177" x="13" y="526.1426">GANAR_MASA_MUSCULAR</text><text fill="#000000" font-family="sans-serif" font-size="14" lengthAdjust="spacing" textLength="121" x="13" y="543.752">MANTENER_PESO</text><line style="stroke:#181818;stroke-width:0.5;" x1="8" x2="195" y1="550.8281" y2="550.8281"/></g><!--class NivelDeActividad--><g id="elem_NivelDeActividad"><rect codeLine="48" fill="#F1F1F1" height="136.0469" id="NivelDeActividad" rx="2.5" ry="2.5" style="stroke:#181818;stroke-width:0.5;" width="172" x="231.5" y="440.5"/><ellipse cx="262.25" cy="456.5" fill="#EB937F" rx="11" ry="11" style="stroke:#181818;stroke-width:1.0;"/><path d="M261.1094,457.2969 L261.1094,459.7969 L265.4375,459.7969 L265.4375,458.875 Q265.4375,458.2656 265.6719,458 Q265.9219,457.7344 266.2969,457.7344 Q266.6719,457.7344 266.9063,458 Q267.1406,458.2656 267.1406,458.875 L267.1406,461.5 L259.1406,461.5 Q258.5156,461.5 258.25,461.2656 Q258,461.0313 258,460.6406 Q258,460.2656 258.2656,460.0313 Q258.5313,459.7969 259.1406,459.7969 L259.4063,459.7969 L259.4063,453.1406 L259.1406,453.1406 Q258.5156,453.1406 258.25,452.9063 Q258,452.6719 258,452.2813 Q258,451.9063 258.25,451.6719 Q258.5156,451.4375 259.1406,451.4375 L266.7656,451.4375 L266.7656,454.0313 Q266.7656,454.6406 266.5313,454.9063 Q266.3125,455.1563 265.9219,455.1563 Q265.5469,455.1563 265.3125,454.9063 Q265.0781,454.6406 265.0781,454.0313 L265.0781,453.1406 L261.1094,453.1406 L261.1094,455.5938 L262.5938,455.5938 Q262.5938,454.9375 262.7188,454.75 Q262.9844,454.3438 263.4531,454.3438 Q263.8281,454.3438 264.0625,454.6094 Q264.2969,454.8594 264.2969,455.4688 L264.2969,457.4375 Q264.2969,457.9844 264.1719,458.1719 Q263.9063,458.5625 263.4531,458.5625 Q262.9844,458.5625 262.7188,458.1563 Q262.5938,457.9688 262.5938,457.2969 L261.1094,457.2969 Z " fill="#000000"/><text fill="#000000" font-family="sans-serif" font-size="14" lengthAdjust="spacing" textLength="105" x="279.75" y="462.2285">NivelDeActividad</text><line style="stroke:#181818;stroke-width:0.5;" x1="232.5" x2="402.5" y1="472.5" y2="472.5"/><text fill="#000000" font-family="sans-serif" font-size="14" lengthAdjust="spacing" textLength="88" x="237.5" y="491.0332">SEDENTARIO</text><text fill="#000000" font-family="sans-serif" font-size="14" lengthAdjust="spacing" textLength="131" x="237.5" y="508.6426">EJERCICIO_LIGERO</text><text fill="#000000" font-family="sans-serif" font-size="14" lengthAdjust="spacing" textLength="160" x="237.5" y="526.252">EJERCICIO_MODERADO</text><text fill="#000000" font-family="sans-serif" font-size="14" lengthAdjust="spacing" textLength="138" x="237.5" y="543.8613">EJERCICIO_INTENSO</text><text fill="#000000" font-family="sans-serif" font-size="14" lengthAdjust="spacing" textLength="53" x="237.5" y="561.4707">ATLETA</text><line style="stroke:#181818;stroke-width:0.5;" x1="232.5" x2="402.5" y1="568.5469" y2="568.5469"/></g><!--class Usuario--><g id="elem_Usuario"><rect codeLine="60" fill="#F1F1F1" height="241.7031" id="Usuario" rx="2.5" ry="2.5" style="stroke:#181818;stroke-width:0.5;" width="247" x="803" y="59.5"/><ellipse cx="898.25" cy="75.5" fill="#ADD1B2" rx="11" ry="11" style="stroke:#181818;stroke-width:1.0;"/><path d="M901.0156,71.375 Q901.1719,71.1563 901.3594,71.0469 Q901.5469,70.9375 901.7656,70.9375 Q902.1406,70.9375 902.375,71.2031 Q902.6094,71.4531 902.6094,72.0625 L902.6094,73.5156 Q902.6094,74.125 902.375,74.3906 Q902.1406,74.6563 901.7656,74.6563 Q901.4219,74.6563 901.2188,74.4531 Q901.0156,74.2656 900.9063,73.75 Q900.8594,73.3906 900.6719,73.2031 Q900.3438,72.8281 899.7344,72.6094 Q899.125,72.3906 898.5,72.3906 Q897.7344,72.3906 897.0938,72.7188 Q896.4688,73.0469 895.9688,73.7969 Q895.4844,74.5469 895.4844,75.5781 L895.4844,76.6719 Q895.4844,77.9063 896.375,78.7344 Q897.2656,79.5469 898.8594,79.5469 Q899.7969,79.5469 900.4531,79.2969 Q900.8438,79.1406 901.2656,78.7031 Q901.5313,78.4375 901.6719,78.3594 Q901.8281,78.2813 902.0313,78.2813 Q902.3594,78.2813 902.6094,78.5469 Q902.875,78.7969 902.875,79.1406 Q902.875,79.4844 902.5313,79.8906 Q902.0313,80.4688 901.2344,80.7969 Q900.1563,81.25 898.8594,81.25 Q897.3438,81.25 896.1406,80.625 Q895.1563,80.125 894.4688,79.0625 Q893.7813,77.9844 893.7813,76.7031 L893.7813,75.5469 Q893.7813,74.2188 894.3906,73.0781 Q895.0156,71.9219 896.1094,71.3125 Q897.2031,70.6875 898.4375,70.6875 Q899.1719,70.6875 899.8125,70.8594 Q900.4688,71.0156 901.0156,71.375 Z " fill="#000000"/><text fill="#000000" font-family="sans-serif" font-size="14" lengthAdjust="spacing" textLength="48" x="918.75" y="81.2285">Usuario</text><line style="stroke:#181818;stroke-width:0.5;" x1="804" x2="1049" y1="91.5" y2="91.5"/><rect fill="none" height="6" style="stroke:#C82930;stroke-width:1.0;" width="6" x="811" y="102.8047"/><text fill="#000000" font-family="sans-serif" font-size="14" lengthAdjust="spacing" textLength="103" x="823" y="110.0332">idUsuario : Long</text><rect fill="none" height="6" style="stroke:#C82930;stroke-width:1.0;" width="6" x="811" y="120.4141"/><text fill="#000000" font-family="sans-serif" font-size="14" lengthAdjust="spacing" textLength="97" x="823" y="127.6426">nombre : String</text><rect fill="none" height="6" style="stroke:#C82930;stroke-width:1.0;" width="6" x="811" y="138.0234"/><text fill="#000000" font-family="sans-serif" font-size="14" lengthAdjust="spacing" textLength="106" x="823" y="145.252">apellido1 : String</text><rect fill="none" height="6" style="stroke:#C82930;stroke-width:1.0;" width="6" x="811" y="155.6328"/><text fill="#000000" font-family="sans-serif" font-size="14" lengthAdjust="spacing" textLength="142" x="823" y="162.8613">apellido2 : String [0..1]</text><rect fill="none" height="6" style="stroke:#C82930;stroke-width:1.0;" width="6" x="811" y="173.2422"/><text fill="#000000" font-family="sans-serif" font-size="14" lengthAdjust="spacing" textLength="180" x="823" y="180.4707">fechaNacimiento : LocalDate</text><rect fill="none" height="6" style="stroke:#C82930;stroke-width:1.0;" width="6" x="811" y="190.8516"/><text fill="#000000" font-family="sans-serif" font-size="14" lengthAdjust="spacing" textLength="101" x="823" y="198.0801">genero: Genero</text><rect fill="none" height="6" style="stroke:#C82930;stroke-width:1.0;" width="6" x="811" y="208.4609"/><text fill="#000000" font-family="sans-serif" font-size="14" lengthAdjust="spacing" textLength="70" x="823" y="215.6895">peso : float</text><rect fill="none" height="6" style="stroke:#C82930;stroke-width:1.0;" width="6" x="811" y="226.0703"/><text fill="#000000" font-family="sans-serif" font-size="14" lengthAdjust="spacing" textLength="63" x="823" y="233.2988">altura : int</text><rect fill="none" height="6" style="stroke:#C82930;stroke-width:1.0;" width="6" x="811" y="243.6797"/><text fill="#000000" font-family="sans-serif" font-size="14" lengthAdjust="spacing" textLength="100" x="823" y="250.9082">telefono : String</text><rect fill="none" height="6" style="stroke:#C82930;stroke-width:1.0;" width="6" x="811" y="261.2891"/><text fill="#000000" font-family="sans-serif" font-size="14" lengthAdjust="spacing" textLength="221" x="823" y="268.5176">nivelDeActividad : NivelDeActividad</text><rect fill="none" height="6" style="stroke:#C82930;stroke-width:1.0;" width="6" x="811" y="278.8984"/><text fill="#000000" font-family="sans-serif" font-size="14" lengthAdjust="spacing" textLength="113" x="823" y="286.127">objetivo : Objetivo</text><line style="stroke:#181818;stroke-width:0.5;" x1="804" x2="1049" y1="293.2031" y2="293.2031"/></g><!--class Credenciales--><g id="elem_Credenciales"><rect codeLine="74" fill="#F1F1F1" height="100.8281" id="Credenciales" rx="2.5" ry="2.5" style="stroke:#181818;stroke-width:0.5;" width="164" x="438.5" y="458"/><ellipse cx="475.55" cy="474" fill="#ADD1B2" rx="11" ry="11" style="stroke:#181818;stroke-width:1.0;"/><path d="M478.3156,469.875 Q478.4719,469.6563 478.6594,469.5469 Q478.8469,469.4375 479.0656,469.4375 Q479.4406,469.4375 479.675,469.7031 Q479.9094,469.9531 479.9094,470.5625 L479.9094,472.0156 Q479.9094,472.625 479.675,472.8906 Q479.4406,473.1563 479.0656,473.1563 Q478.7219,473.1563 478.5188,472.9531 Q478.3156,472.7656 478.2063,472.25 Q478.1594,471.8906 477.9719,471.7031 Q477.6438,471.3281 477.0344,471.1094 Q476.425,470.8906 475.8,470.8906 Q475.0344,470.8906 474.3938,471.2188 Q473.7688,471.5469 473.2688,472.2969 Q472.7844,473.0469 472.7844,474.0781 L472.7844,475.1719 Q472.7844,476.4063 473.675,477.2344 Q474.5656,478.0469 476.1594,478.0469 Q477.0969,478.0469 477.7531,477.7969 Q478.1438,477.6406 478.5656,477.2031 Q478.8313,476.9375 478.9719,476.8594 Q479.1281,476.7813 479.3313,476.7813 Q479.6594,476.7813 479.9094,477.0469 Q480.175,477.2969 480.175,477.6406 Q480.175,477.9844 479.8313,478.3906 Q479.3313,478.9688 478.5344,479.2969 Q477.4563,479.75 476.1594,479.75 Q474.6438,479.75 473.4406,479.125 Q472.4563,478.625 471.7688,477.5625 Q471.0813,476.4844 471.0813,475.2031 L471.0813,474.0469 Q471.0813,472.7188 471.6906,471.5781 Q472.3156,470.4219 473.4094,469.8125 Q474.5031,469.1875 475.7375,469.1875 Q476.4719,469.1875 477.1125,469.3594 Q477.7688,469.5156 478.3156,469.875 Z " fill="#000000"/><text fill="#000000" font-family="sans-serif" font-size="14" lengthAdjust="spacing" textLength="83" x="494.45" y="479.7285">Credenciales</text><line style="stroke:#181818;stroke-width:0.5;" x1="439.5" x2="601.5" y1="490" y2="490"/><rect fill="none" height="6" style="stroke:#C82930;stroke-width:1.0;" width="6" x="446.5" y="501.3047"/><text fill="#000000" font-family="sans-serif" font-size="14" lengthAdjust="spacing" textLength="138" x="458.5" y="508.5332">idCredenciales : Long</text><rect fill="none" height="6" style="stroke:#C82930;stroke-width:1.0;" width="6" x="446.5" y="518.9141"/><text fill="#000000" font-family="sans-serif" font-size="14" lengthAdjust="spacing" textLength="82" x="458.5" y="526.1426">email : String</text><rect fill="none" height="6" style="stroke:#C82930;stroke-width:1.0;" width="6" x="446.5" y="536.5234"/><text fill="#000000" font-family="sans-serif" font-size="14" lengthAdjust="spacing" textLength="128" x="458.5" y="543.752">contrasenha : String</text><line style="stroke:#181818;stroke-width:0.5;" x1="439.5" x2="601.5" y1="550.8281" y2="550.8281"/></g><!--class HistorialPeso--><g id="elem_HistorialPeso"><rect codeLine="80" fill="#F1F1F1" height="100.8281" id="HistorialPeso" rx="2.5" ry="2.5" style="stroke:#181818;stroke-width:0.5;" width="163" x="638" y="458"/><ellipse cx="675.05" cy="474" fill="#ADD1B2" rx="11" ry="11" style="stroke:#181818;stroke-width:1.0;"/><path d="M677.8156,469.875 Q677.9719,469.6563 678.1594,469.5469 Q678.3469,469.4375 678.5656,469.4375 Q678.9406,469.4375 679.175,469.7031 Q679.4094,469.9531 679.4094,470.5625 L679.4094,472.0156 Q679.4094,472.625 679.175,472.8906 Q678.9406,473.1563 678.5656,473.1563 Q678.2219,473.1563 678.0188,472.9531 Q677.8156,472.7656 677.7063,472.25 Q677.6594,471.8906 677.4719,471.7031 Q677.1438,471.3281 676.5344,471.1094 Q675.925,470.8906 675.3,470.8906 Q674.5344,470.8906 673.8938,471.2188 Q673.2688,471.5469 672.7688,472.2969 Q672.2844,473.0469 672.2844,474.0781 L672.2844,475.1719 Q672.2844,476.4063 673.175,477.2344 Q674.0656,478.0469 675.6594,478.0469 Q676.5969,478.0469 677.2531,477.7969 Q677.6438,477.6406 678.0656,477.2031 Q678.3313,476.9375 678.4719,476.8594 Q678.6281,476.7813 678.8313,476.7813 Q679.1594,476.7813 679.4094,477.0469 Q679.675,477.2969 679.675,477.6406 Q679.675,477.9844 679.3313,478.3906 Q678.8313,478.9688 678.0344,479.2969 Q676.9563,479.75 675.6594,479.75 Q674.1438,479.75 672.9406,479.125 Q671.9563,478.625 671.2688,477.5625 Q670.5813,476.4844 670.5813,475.2031 L670.5813,474.0469 Q670.5813,472.7188 671.1906,471.5781 Q671.8156,470.4219 672.9094,469.8125 Q674.0031,469.1875 675.2375,469.1875 Q675.9719,469.1875 676.6125,469.3594 Q677.2688,469.5156 677.8156,469.875 Z " fill="#000000"/><text fill="#000000" font-family="sans-serif" font-size="14" lengthAdjust="spacing" textLength="82" x="693.95" y="479.7285">HistorialPeso</text><line style="stroke:#181818;stroke-width:0.5;" x1="639" x2="800" y1="490" y2="490"/><rect fill="none" height="6" style="stroke:#C82930;stroke-width:1.0;" width="6" x="646" y="501.3047"/><text fill="#000000" font-family="sans-serif" font-size="14" lengthAdjust="spacing" textLength="137" x="658" y="508.5332">idHistorialPeso : Long</text><rect fill="none" height="6" style="stroke:#C82930;stroke-width:1.0;" width="6" x="646" y="518.9141"/><text fill="#000000" font-family="sans-serif" font-size="14" lengthAdjust="spacing" textLength="70" x="658" y="526.1426">peso : float</text><rect fill="none" height="6" style="stroke:#C82930;stroke-width:1.0;" width="6" x="646" y="536.5234"/><text fill="#000000" font-family="sans-serif" font-size="14" lengthAdjust="spacing" textLength="111" x="658" y="543.752">fecha : LocalDate</text><line style="stroke:#181818;stroke-width:0.5;" x1="639" x2="800" y1="550.8281" y2="550.8281"/></g><!--class RegistroComidaDiaria--><g id="elem_RegistroComidaDiaria"><rect codeLine="86" fill="#F1F1F1" height="153.6563" id="RegistroComidaDiaria" rx="2.5" ry="2.5" style="stroke:#181818;stroke-width:0.5;" width="219" x="745" y="1116.5"/><ellipse cx="782.05" cy="1132.5" fill="#ADD1B2" rx="11" ry="11" style="stroke:#181818;stroke-width:1.0;"/><path d="M784.8156,1128.375 Q784.9719,1128.1563 785.1594,1128.0469 Q785.3469,1127.9375 785.5656,1127.9375 Q785.9406,1127.9375 786.175,1128.2031 Q786.4094,1128.4531 786.4094,1129.0625 L786.4094,1130.5156 Q786.4094,1131.125 786.175,1131.3906 Q785.9406,1131.6563 785.5656,1131.6563 Q785.2219,1131.6563 785.0188,1131.4531 Q784.8156,1131.2656 784.7063,1130.75 Q784.6594,1130.3906 784.4719,1130.2031 Q784.1438,1129.8281 783.5344,1129.6094 Q782.925,1129.3906 782.3,1129.3906 Q781.5344,1129.3906 780.8938,1129.7188 Q780.2688,1130.0469 779.7688,1130.7969 Q779.2844,1131.5469 779.2844,1132.5781 L779.2844,1133.6719 Q779.2844,1134.9063 780.175,1135.7344 Q781.0656,1136.5469 782.6594,1136.5469 Q783.5969,1136.5469 784.2531,1136.2969 Q784.6438,1136.1406 785.0656,1135.7031 Q785.3313,1135.4375 785.4719,1135.3594 Q785.6281,1135.2813 785.8313,1135.2813 Q786.1594,1135.2813 786.4094,1135.5469 Q786.675,1135.7969 786.675,1136.1406 Q786.675,1136.4844 786.3313,1136.8906 Q785.8313,1137.4688 785.0344,1137.7969 Q783.9563,1138.25 782.6594,1138.25 Q781.1438,1138.25 779.9406,1137.625 Q778.9563,1137.125 778.2688,1136.0625 Q777.5813,1134.9844 777.5813,1133.7031 L777.5813,1132.5469 Q777.5813,1131.2188 778.1906,1130.0781 Q778.8156,1128.9219 779.9094,1128.3125 Q781.0031,1127.6875 782.2375,1127.6875 Q782.9719,1127.6875 783.6125,1127.8594 Q784.2688,1128.0156 784.8156,1128.375 Z " fill="#000000"/><text fill="#000000" font-family="sans-serif" font-size="14" lengthAdjust="spacing" textLength="138" x="800.95" y="1138.2285">RegistroComidaDiaria</text><line style="stroke:#181818;stroke-width:0.5;" x1="746" x2="963" y1="1148.5" y2="1148.5"/><rect fill="none" height="6" style="stroke:#C82930;stroke-width:1.0;" width="6" x="753" y="1159.8047"/><text fill="#000000" font-family="sans-serif" font-size="14" lengthAdjust="spacing" textLength="193" x="765" y="1167.0332">idRegistroComidaDiaria : Long</text><rect fill="none" height="6" style="stroke:#C82930;stroke-width:1.0;" width="6" x="753" y="1177.4141"/><text fill="#000000" font-family="sans-serif" font-size="14" lengthAdjust="spacing" textLength="111" x="765" y="1184.6426">fecha : LocalDate</text><rect fill="none" height="6" style="stroke:#C82930;stroke-width:1.0;" width="6" x="753" y="1195.0234"/><text fill="#000000" font-family="sans-serif" font-size="14" lengthAdjust="spacing" textLength="139" x="765" y="1202.252">/caloriasTotales : float</text><rect fill="none" height="6" style="stroke:#C82930;stroke-width:1.0;" width="6" x="753" y="1212.6328"/><text fill="#000000" font-family="sans-serif" font-size="14" lengthAdjust="spacing" textLength="102" x="765" y="1219.8613">/proteinas : float</text><rect fill="none" height="6" style="stroke:#C82930;stroke-width:1.0;" width="6" x="753" y="1230.2422"/><text fill="#000000" font-family="sans-serif" font-size="14" lengthAdjust="spacing" textLength="130" x="765" y="1237.4707">/carbohidratos : float</text><rect fill="none" height="6" style="stroke:#C82930;stroke-width:1.0;" width="6" x="753" y="1247.8516"/><text fill="#000000" font-family="sans-serif" font-size="14" lengthAdjust="spacing" textLength="86" x="765" y="1255.0801">/grasas : float</text><line style="stroke:#181818;stroke-width:0.5;" x1="746" x2="963" y1="1262.1563" y2="1262.1563"/></g><!--class DietaCompleta--><g id="elem_DietaCompleta"><rect codeLine="95" fill="#F1F1F1" height="188.875" id="DietaCompleta" rx="2.5" ry="2.5" style="stroke:#181818;stroke-width:0.5;" width="183" x="908" y="414"/><ellipse cx="949.1" cy="430" fill="#ADD1B2" rx="11" ry="11" style="stroke:#181818;stroke-width:1.0;"/><path d="M951.8656,425.875 Q952.0219,425.6563 952.2094,425.5469 Q952.3969,425.4375 952.6156,425.4375 Q952.9906,425.4375 953.225,425.7031 Q953.4594,425.9531 953.4594,426.5625 L953.4594,428.0156 Q953.4594,428.625 953.225,428.8906 Q952.9906,429.1563 952.6156,429.1563 Q952.2719,429.1563 952.0688,428.9531 Q951.8656,428.7656 951.7563,428.25 Q951.7094,427.8906 951.5219,427.7031 Q951.1938,427.3281 950.5844,427.1094 Q949.975,426.8906 949.35,426.8906 Q948.5844,426.8906 947.9438,427.2188 Q947.3188,427.5469 946.8188,428.2969 Q946.3344,429.0469 946.3344,430.0781 L946.3344,431.1719 Q946.3344,432.4063 947.225,433.2344 Q948.1156,434.0469 949.7094,434.0469 Q950.6469,434.0469 951.3031,433.7969 Q951.6938,433.6406 952.1156,433.2031 Q952.3813,432.9375 952.5219,432.8594 Q952.6781,432.7813 952.8813,432.7813 Q953.2094,432.7813 953.4594,433.0469 Q953.725,433.2969 953.725,433.6406 Q953.725,433.9844 953.3813,434.3906 Q952.8813,434.9688 952.0844,435.2969 Q951.0063,435.75 949.7094,435.75 Q948.1938,435.75 946.9906,435.125 Q946.0063,434.625 945.3188,433.5625 Q944.6313,432.4844 944.6313,431.2031 L944.6313,430.0469 Q944.6313,428.7188 945.2406,427.5781 Q945.8656,426.4219 946.9594,425.8125 Q948.0531,425.1875 949.2875,425.1875 Q950.0219,425.1875 950.6625,425.3594 Q951.3188,425.5156 951.8656,425.875 Z " fill="#000000"/><text fill="#000000" font-family="sans-serif" font-size="14" lengthAdjust="spacing" textLength="93" x="968.9" y="435.7285">DietaCompleta</text><line style="stroke:#181818;stroke-width:0.5;" x1="909" x2="1090" y1="446" y2="446"/><rect fill="none" height="6" style="stroke:#C82930;stroke-width:1.0;" width="6" x="916" y="457.3047"/><text fill="#000000" font-family="sans-serif" font-size="14" lengthAdjust="spacing" textLength="148" x="928" y="464.5332">idDietaCompleta : Long</text><rect fill="none" height="6" style="stroke:#C82930;stroke-width:1.0;" width="6" x="916" y="474.9141"/><text fill="#000000" font-family="sans-serif" font-size="14" lengthAdjust="spacing" textLength="97" x="928" y="482.1426">nombre : String</text><rect fill="none" height="6" style="stroke:#C82930;stroke-width:1.0;" width="6" x="916" y="492.5234"/><text fill="#000000" font-family="sans-serif" font-size="14" lengthAdjust="spacing" textLength="157" x="928" y="499.752">descripcion : String [0..1]</text><rect fill="none" height="6" style="stroke:#C82930;stroke-width:1.0;" width="6" x="916" y="510.1328"/><text fill="#000000" font-family="sans-serif" font-size="14" lengthAdjust="spacing" textLength="139" x="928" y="517.3613">/caloriasTotales : float</text><rect fill="none" height="6" style="stroke:#C82930;stroke-width:1.0;" width="6" x="916" y="527.7422"/><text fill="#000000" font-family="sans-serif" font-size="14" lengthAdjust="spacing" textLength="102" x="928" y="534.9707">/proteinas : float</text><rect fill="none" height="6" style="stroke:#C82930;stroke-width:1.0;" width="6" x="916" y="545.3516"/><text fill="#000000" font-family="sans-serif" font-size="14" lengthAdjust="spacing" textLength="130" x="928" y="552.5801">/carbohidratos : float</text><rect fill="none" height="6" style="stroke:#C82930;stroke-width:1.0;" width="6" x="916" y="562.9609"/><text fill="#000000" font-family="sans-serif" font-size="14" lengthAdjust="spacing" textLength="86" x="928" y="570.1895">/grasas : float</text><rect fill="none" height="6" style="stroke:#C82930;stroke-width:1.0;" width="6" x="916" y="580.5703"/><text fill="#000000" font-family="sans-serif" font-size="14" lengthAdjust="spacing" textLength="100" x="928" y="587.7988">activa : boolean</text><line style="stroke:#181818;stroke-width:0.5;" x1="909" x2="1090" y1="594.875" y2="594.875"/></g><!--class DiaEnDieta--><g id="elem_DiaEnDieta"><rect codeLine="106" fill="#F1F1F1" height="171.2656" id="DiaEnDieta" rx="2.5" ry="2.5" style="stroke:#181818;stroke-width:0.5;" width="250" x="907.5" y="663"/><ellipse cx="992.75" cy="679" fill="#ADD1B2" rx="11" ry="11" style="stroke:#181818;stroke-width:1.0;"/><path d="M995.5156,674.875 Q995.6719,674.6563 995.8594,674.5469 Q996.0469,674.4375 996.2656,674.4375 Q996.6406,674.4375 996.875,674.7031 Q997.1094,674.9531 997.1094,675.5625 L997.1094,677.0156 Q997.1094,677.625 996.875,677.8906 Q996.6406,678.1563 996.2656,678.1563 Q995.9219,678.1563 995.7188,677.9531 Q995.5156,677.7656 995.4063,677.25 Q995.3594,676.8906 995.1719,676.7031 Q994.8438,676.3281 994.2344,676.1094 Q993.625,675.8906 993,675.8906 Q992.2344,675.8906 991.5938,676.2188 Q990.9688,676.5469 990.4688,677.2969 Q989.9844,678.0469 989.9844,679.0781 L989.9844,680.1719 Q989.9844,681.4063 990.875,682.2344 Q991.7656,683.0469 993.3594,683.0469 Q994.2969,683.0469 994.9531,682.7969 Q995.3438,682.6406 995.7656,682.2031 Q996.0313,681.9375 996.1719,681.8594 Q996.3281,681.7813 996.5313,681.7813 Q996.8594,681.7813 997.1094,682.0469 Q997.375,682.2969 997.375,682.6406 Q997.375,682.9844 997.0313,683.3906 Q996.5313,683.9688 995.7344,684.2969 Q994.6563,684.75 993.3594,684.75 Q991.8438,684.75 990.6406,684.125 Q989.6563,683.625 988.9688,682.5625 Q988.2813,681.4844 988.2813,680.2031 L988.2813,679.0469 Q988.2813,677.7188 988.8906,676.5781 Q989.5156,675.4219 990.6094,674.8125 Q991.7031,674.1875 992.9375,674.1875 Q993.6719,674.1875 994.3125,674.3594 Q994.9688,674.5156 995.5156,674.875 Z " fill="#000000"/><text fill="#000000" font-family="sans-serif" font-size="14" lengthAdjust="spacing" textLength="71" x="1013.25" y="684.7285">DiaEnDieta</text><line style="stroke:#181818;stroke-width:0.5;" x1="908.5" x2="1156.5" y1="695" y2="695"/><rect fill="none" height="6" style="stroke:#C82930;stroke-width:1.0;" width="6" x="915.5" y="706.3047"/><text fill="#000000" font-family="sans-serif" font-size="14" lengthAdjust="spacing" textLength="126" x="927.5" y="713.5332">idDiaEnDieta : Long</text><rect fill="none" height="6" style="stroke:#C82930;stroke-width:1.0;" width="6" x="915.5" y="723.9141"/><text fill="#000000" font-family="sans-serif" font-size="14" lengthAdjust="spacing" textLength="97" x="927.5" y="731.1426">nombre : String</text><rect fill="none" height="6" style="stroke:#C82930;stroke-width:1.0;" width="6" x="915.5" y="741.5234"/><text fill="#000000" font-family="sans-serif" font-size="14" lengthAdjust="spacing" textLength="139" x="927.5" y="748.752">/caloriasTotales : float</text><rect fill="none" height="6" style="stroke:#C82930;stroke-width:1.0;" width="6" x="915.5" y="759.1328"/><text fill="#000000" font-family="sans-serif" font-size="14" lengthAdjust="spacing" textLength="102" x="927.5" y="766.3613">/proteinas : float</text><rect fill="none" height="6" style="stroke:#C82930;stroke-width:1.0;" width="6" x="915.5" y="776.7422"/><text fill="#000000" font-family="sans-serif" font-size="14" lengthAdjust="spacing" textLength="130" x="927.5" y="783.9707">/carbohidratos : float</text><rect fill="none" height="6" style="stroke:#C82930;stroke-width:1.0;" width="6" x="915.5" y="794.3516"/><text fill="#000000" font-family="sans-serif" font-size="14" lengthAdjust="spacing" textLength="86" x="927.5" y="801.5801">/grasas : float</text><rect fill="none" height="6" style="stroke:#C82930;stroke-width:1.0;" width="6" x="915.5" y="811.9609"/><text fill="#000000" font-family="sans-serif" font-size="14" lengthAdjust="spacing" textLength="224" x="927.5" y="819.1895">diaDeLaSemana : DiaDeLaSemana</text><line style="stroke:#181818;stroke-width:0.5;" x1="908.5" x2="1156.5" y1="826.2656" y2="826.2656"/></g><!--class Comida--><g id="elem_Comida"><rect codeLine="117" fill="#F1F1F1" height="153.6563" id="Comida" rx="2.5" ry="2.5" style="stroke:#181818;stroke-width:0.5;" width="165" x="950" y="894"/><ellipse cx="1004.25" cy="910" fill="#ADD1B2" rx="11" ry="11" style="stroke:#181818;stroke-width:1.0;"/><path d="M1007.0156,905.875 Q1007.1719,905.6563 1007.3594,905.5469 Q1007.5469,905.4375 1007.7656,905.4375 Q1008.1406,905.4375 1008.375,905.7031 Q1008.6094,905.9531 1008.6094,906.5625 L1008.6094,908.0156 Q1008.6094,908.625 1008.375,908.8906 Q1008.1406,909.1563 1007.7656,909.1563 Q1007.4219,909.1563 1007.2188,908.9531 Q1007.0156,908.7656 1006.9063,908.25 Q1006.8594,907.8906 1006.6719,907.7031 Q1006.3438,907.3281 1005.7344,907.1094 Q1005.125,906.8906 1004.5,906.8906 Q1003.7344,906.8906 1003.0938,907.2188 Q1002.4688,907.5469 1001.9688,908.2969 Q1001.4844,909.0469 1001.4844,910.0781 L1001.4844,911.1719 Q1001.4844,912.4063 1002.375,913.2344 Q1003.2656,914.0469 1004.8594,914.0469 Q1005.7969,914.0469 1006.4531,913.7969 Q1006.8438,913.6406 1007.2656,913.2031 Q1007.5313,912.9375 1007.6719,912.8594 Q1007.8281,912.7813 1008.0313,912.7813 Q1008.3594,912.7813 1008.6094,913.0469 Q1008.875,913.2969 1008.875,913.6406 Q1008.875,913.9844 1008.5313,914.3906 Q1008.0313,914.9688 1007.2344,915.2969 Q1006.1563,915.75 1004.8594,915.75 Q1003.3438,915.75 1002.1406,915.125 Q1001.1563,914.625 1000.4688,913.5625 Q999.7813,912.4844 999.7813,911.2031 L999.7813,910.0469 Q999.7813,908.7188 1000.3906,907.5781 Q1001.0156,906.4219 1002.1094,905.8125 Q1003.2031,905.1875 1004.4375,905.1875 Q1005.1719,905.1875 1005.8125,905.3594 Q1006.4688,905.5156 1007.0156,905.875 Z " fill="#000000"/><text fill="#000000" font-family="sans-serif" font-size="14" lengthAdjust="spacing" textLength="48" x="1024.75" y="915.7285">Comida</text><line style="stroke:#181818;stroke-width:0.5;" x1="951" x2="1114" y1="926" y2="926"/><rect fill="none" height="6" style="stroke:#C82930;stroke-width:1.0;" width="6" x="958" y="937.3047"/><text fill="#000000" font-family="sans-serif" font-size="14" lengthAdjust="spacing" textLength="103" x="970" y="944.5332">idComida : Long</text><rect fill="none" height="6" style="stroke:#C82930;stroke-width:1.0;" width="6" x="958" y="954.9141"/><text fill="#000000" font-family="sans-serif" font-size="14" lengthAdjust="spacing" textLength="97" x="970" y="962.1426">nombre : String</text><rect fill="none" height="6" style="stroke:#C82930;stroke-width:1.0;" width="6" x="958" y="972.5234"/><text fill="#000000" font-family="sans-serif" font-size="14" lengthAdjust="spacing" textLength="139" x="970" y="979.752">/caloriasTotales : float</text><rect fill="none" height="6" style="stroke:#C82930;stroke-width:1.0;" width="6" x="958" y="990.1328"/><text fill="#000000" font-family="sans-serif" font-size="14" lengthAdjust="spacing" textLength="102" x="970" y="997.3613">/proteinas : float</text><rect fill="none" height="6" style="stroke:#C82930;stroke-width:1.0;" width="6" x="958" y="1007.7422"/><text fill="#000000" font-family="sans-serif" font-size="14" lengthAdjust="spacing" textLength="130" x="970" y="1014.9707">/carbohidratos : float</text><rect fill="none" height="6" style="stroke:#C82930;stroke-width:1.0;" width="6" x="958" y="1025.3516"/><text fill="#000000" font-family="sans-serif" font-size="14" lengthAdjust="spacing" textLength="86" x="970" y="1032.5801">/grasas : float</text><line style="stroke:#181818;stroke-width:0.5;" x1="951" x2="1114" y1="1039.6563" y2="1039.6563"/></g><!--class Ingrediente--><g id="elem_Ingrediente"><rect codeLine="126" fill="#F1F1F1" height="171.2656" id="Ingrediente" rx="2.5" ry="2.5" style="stroke:#181818;stroke-width:0.5;" width="169" x="999" y="1108"/><ellipse cx="1043.75" cy="1124" fill="#ADD1B2" rx="11" ry="11" style="stroke:#181818;stroke-width:1.0;"/><path d="M1046.5156,1119.875 Q1046.6719,1119.6563 1046.8594,1119.5469 Q1047.0469,1119.4375 1047.2656,1119.4375 Q1047.6406,1119.4375 1047.875,1119.7031 Q1048.1094,1119.9531 1048.1094,1120.5625 L1048.1094,1122.0156 Q1048.1094,1122.625 1047.875,1122.8906 Q1047.6406,1123.1563 1047.2656,1123.1563 Q1046.9219,1123.1563 1046.7188,1122.9531 Q1046.5156,1122.7656 1046.4063,1122.25 Q1046.3594,1121.8906 1046.1719,1121.7031 Q1045.8438,1121.3281 1045.2344,1121.1094 Q1044.625,1120.8906 1044,1120.8906 Q1043.2344,1120.8906 1042.5938,1121.2188 Q1041.9688,1121.5469 1041.4688,1122.2969 Q1040.9844,1123.0469 1040.9844,1124.0781 L1040.9844,1125.1719 Q1040.9844,1126.4063 1041.875,1127.2344 Q1042.7656,1128.0469 1044.3594,1128.0469 Q1045.2969,1128.0469 1045.9531,1127.7969 Q1046.3438,1127.6406 1046.7656,1127.2031 Q1047.0313,1126.9375 1047.1719,1126.8594 Q1047.3281,1126.7813 1047.5313,1126.7813 Q1047.8594,1126.7813 1048.1094,1127.0469 Q1048.375,1127.2969 1048.375,1127.6406 Q1048.375,1127.9844 1048.0313,1128.3906 Q1047.5313,1128.9688 1046.7344,1129.2969 Q1045.6563,1129.75 1044.3594,1129.75 Q1042.8438,1129.75 1041.6406,1129.125 Q1040.6563,1128.625 1039.9688,1127.5625 Q1039.2813,1126.4844 1039.2813,1125.2031 L1039.2813,1124.0469 Q1039.2813,1122.7188 1039.8906,1121.5781 Q1040.5156,1120.4219 1041.6094,1119.8125 Q1042.7031,1119.1875 1043.9375,1119.1875 Q1044.6719,1119.1875 1045.3125,1119.3594 Q1045.9688,1119.5156 1046.5156,1119.875 Z " fill="#000000"/><text fill="#000000" font-family="sans-serif" font-size="14" lengthAdjust="spacing" textLength="71" x="1064.25" y="1129.7285">Ingrediente</text><line style="stroke:#181818;stroke-width:0.5;" x1="1000" x2="1167" y1="1140" y2="1140"/><rect fill="none" height="6" style="stroke:#C82930;stroke-width:1.0;" width="6" x="1007" y="1151.3047"/><text fill="#000000" font-family="sans-serif" font-size="14" lengthAdjust="spacing" textLength="126" x="1019" y="1158.5332">idIngrediente : Long</text><rect fill="none" height="6" style="stroke:#C82930;stroke-width:1.0;" width="6" x="1007" y="1168.9141"/><text fill="#000000" font-family="sans-serif" font-size="14" lengthAdjust="spacing" textLength="97" x="1019" y="1176.1426">nombre : String</text><rect fill="none" height="6" style="stroke:#C82930;stroke-width:1.0;" width="6" x="1007" y="1186.5234"/><text fill="#000000" font-family="sans-serif" font-size="14" lengthAdjust="spacing" textLength="143" x="1019" y="1193.752">cantidadGramos : float</text><rect fill="none" height="6" style="stroke:#C82930;stroke-width:1.0;" width="6" x="1007" y="1204.1328"/><text fill="#000000" font-family="sans-serif" font-size="14" lengthAdjust="spacing" textLength="92" x="1019" y="1211.3613">/calorias : float</text><rect fill="none" height="6" style="stroke:#C82930;stroke-width:1.0;" width="6" x="1007" y="1221.7422"/><text fill="#000000" font-family="sans-serif" font-size="14" lengthAdjust="spacing" textLength="102" x="1019" y="1228.9707">/proteinas : float</text><rect fill="none" height="6" style="stroke:#C82930;stroke-width:1.0;" width="6" x="1007" y="1239.3516"/><text fill="#000000" font-family="sans-serif" font-size="14" lengthAdjust="spacing" textLength="130" x="1019" y="1246.5801">/carbohidratos : float</text><rect fill="none" height="6" style="stroke:#C82930;stroke-width:1.0;" width="6" x="1007" y="1256.9609"/><text fill="#000000" font-family="sans-serif" font-size="14" lengthAdjust="spacing" textLength="86" x="1019" y="1264.1895">/grasas : float</text><line style="stroke:#181818;stroke-width:0.5;" x1="1000" x2="1167" y1="1271.2656" y2="1271.2656"/></g><!--class Alimento--><g id="elem_Alimento"><rect codeLine="136" fill="#F1F1F1" height="153.6563" id="Alimento" rx="2.5" ry="2.5" style="stroke:#181818;stroke-width:0.5;" width="206" x="1126.5" y="431.5"/><ellipse cx="1198.25" cy="447.5" fill="#ADD1B2" rx="11" ry="11" style="stroke:#181818;stroke-width:1.0;"/><path d="M1201.0156,443.375 Q1201.1719,443.1563 1201.3594,443.0469 Q1201.5469,442.9375 1201.7656,442.9375 Q1202.1406,442.9375 1202.375,443.2031 Q1202.6094,443.4531 1202.6094,444.0625 L1202.6094,445.5156 Q1202.6094,446.125 1202.375,446.3906 Q1202.1406,446.6563 1201.7656,446.6563 Q1201.4219,446.6563 1201.2188,446.4531 Q1201.0156,446.2656 1200.9063,445.75 Q1200.8594,445.3906 1200.6719,445.2031 Q1200.3438,444.8281 1199.7344,444.6094 Q1199.125,444.3906 1198.5,444.3906 Q1197.7344,444.3906 1197.0938,444.7188 Q1196.4688,445.0469 1195.9688,445.7969 Q1195.4844,446.5469 1195.4844,447.5781 L1195.4844,448.6719 Q1195.4844,449.9063 1196.375,450.7344 Q1197.2656,451.5469 1198.8594,451.5469 Q1199.7969,451.5469 1200.4531,451.2969 Q1200.8438,451.1406 1201.2656,450.7031 Q1201.5313,450.4375 1201.6719,450.3594 Q1201.8281,450.2813 1202.0313,450.2813 Q1202.3594,450.2813 1202.6094,450.5469 Q1202.875,450.7969 1202.875,451.1406 Q1202.875,451.4844 1202.5313,451.8906 Q1202.0313,452.4688 1201.2344,452.7969 Q1200.1563,453.25 1198.8594,453.25 Q1197.3438,453.25 1196.1406,452.625 Q1195.1563,452.125 1194.4688,451.0625 Q1193.7813,449.9844 1193.7813,448.7031 L1193.7813,447.5469 Q1193.7813,446.2188 1194.3906,445.0781 Q1195.0156,443.9219 1196.1094,443.3125 Q1197.2031,442.6875 1198.4375,442.6875 Q1199.1719,442.6875 1199.8125,442.8594 Q1200.4688,443.0156 1201.0156,443.375 Z " fill="#000000"/><text fill="#000000" font-family="sans-serif" font-size="14" lengthAdjust="spacing" textLength="54" x="1218.75" y="453.2285">Alimento</text><line style="stroke:#181818;stroke-width:0.5;" x1="1127.5" x2="1331.5" y1="463.5" y2="463.5"/><rect fill="none" height="6" style="stroke:#C82930;stroke-width:1.0;" width="6" x="1134.5" y="474.8047"/><text fill="#000000" font-family="sans-serif" font-size="14" lengthAdjust="spacing" textLength="109" x="1146.5" y="482.0332">idAlimento : Long</text><rect fill="none" height="6" style="stroke:#C82930;stroke-width:1.0;" width="6" x="1134.5" y="492.4141"/><text fill="#000000" font-family="sans-serif" font-size="14" lengthAdjust="spacing" textLength="97" x="1146.5" y="499.6426">nombre : String</text><rect fill="none" height="6" style="stroke:#C82930;stroke-width:1.0;" width="6" x="1134.5" y="510.0234"/><text fill="#000000" font-family="sans-serif" font-size="14" lengthAdjust="spacing" textLength="142" x="1146.5" y="517.252">caloriasPor100g : float</text><rect fill="none" height="6" style="stroke:#C82930;stroke-width:1.0;" width="6" x="1134.5" y="527.6328"/><text fill="#000000" font-family="sans-serif" font-size="14" lengthAdjust="spacing" textLength="152" x="1146.5" y="534.8613">proteinasPor100g : float</text><rect fill="none" height="6" style="stroke:#C82930;stroke-width:1.0;" width="6" x="1134.5" y="545.2422"/><text fill="#000000" font-family="sans-serif" font-size="14" lengthAdjust="spacing" textLength="180" x="1146.5" y="552.4707">carbohidratosPor100g : float</text><rect fill="none" height="6" style="stroke:#C82930;stroke-width:1.0;" width="6" x="1134.5" y="562.8516"/><text fill="#000000" font-family="sans-serif" font-size="14" lengthAdjust="spacing" textLength="136" x="1146.5" y="570.0801">grasasPor100g : float</text><line style="stroke:#181818;stroke-width:0.5;" x1="1127.5" x2="1331.5" y1="577.1563" y2="577.1563"/></g><!--class RutinaCompleta--><g id="elem_RutinaCompleta"><rect codeLine="145" fill="#F1F1F1" height="100.8281" id="RutinaCompleta" rx="2.5" ry="2.5" style="stroke:#181818;stroke-width:0.5;" width="182" x="1367.5" y="458"/><ellipse cx="1404.55" cy="474" fill="#ADD1B2" rx="11" ry="11" style="stroke:#181818;stroke-width:1.0;"/><path d="M1407.3156,469.875 Q1407.4719,469.6563 1407.6594,469.5469 Q1407.8469,469.4375 1408.0656,469.4375 Q1408.4406,469.4375 1408.675,469.7031 Q1408.9094,469.9531 1408.9094,470.5625 L1408.9094,472.0156 Q1408.9094,472.625 1408.675,472.8906 Q1408.4406,473.1563 1408.0656,473.1563 Q1407.7219,473.1563 1407.5188,472.9531 Q1407.3156,472.7656 1407.2063,472.25 Q1407.1594,471.8906 1406.9719,471.7031 Q1406.6438,471.3281 1406.0344,471.1094 Q1405.425,470.8906 1404.8,470.8906 Q1404.0344,470.8906 1403.3938,471.2188 Q1402.7688,471.5469 1402.2688,472.2969 Q1401.7844,473.0469 1401.7844,474.0781 L1401.7844,475.1719 Q1401.7844,476.4063 1402.675,477.2344 Q1403.5656,478.0469 1405.1594,478.0469 Q1406.0969,478.0469 1406.7531,477.7969 Q1407.1438,477.6406 1407.5656,477.2031 Q1407.8313,476.9375 1407.9719,476.8594 Q1408.1281,476.7813 1408.3313,476.7813 Q1408.6594,476.7813 1408.9094,477.0469 Q1409.175,477.2969 1409.175,477.6406 Q1409.175,477.9844 1408.8313,478.3906 Q1408.3313,478.9688 1407.5344,479.2969 Q1406.4563,479.75 1405.1594,479.75 Q1403.6438,479.75 1402.4406,479.125 Q1401.4563,478.625 1400.7688,477.5625 Q1400.0813,476.4844 1400.0813,475.2031 L1400.0813,474.0469 Q1400.0813,472.7188 1400.6906,471.5781 Q1401.3156,470.4219 1402.4094,469.8125 Q1403.5031,469.1875 1404.7375,469.1875 Q1405.4719,469.1875 1406.1125,469.3594 Q1406.7688,469.5156 1407.3156,469.875 Z " fill="#000000"/><text fill="#000000" font-family="sans-serif" font-size="14" lengthAdjust="spacing" textLength="101" x="1423.45" y="479.7285">RutinaCompleta</text><line style="stroke:#181818;stroke-width:0.5;" x1="1368.5" x2="1548.5" y1="490" y2="490"/><rect fill="none" height="6" style="stroke:#C82930;stroke-width:1.0;" width="6" x="1375.5" y="501.3047"/><text fill="#000000" font-family="sans-serif" font-size="14" lengthAdjust="spacing" textLength="156" x="1387.5" y="508.5332">idRutinaCompleta : Long</text><rect fill="none" height="6" style="stroke:#C82930;stroke-width:1.0;" width="6" x="1375.5" y="518.9141"/><text fill="#000000" font-family="sans-serif" font-size="14" lengthAdjust="spacing" textLength="97" x="1387.5" y="526.1426">nombre : String</text><rect fill="none" height="6" style="stroke:#C82930;stroke-width:1.0;" width="6" x="1375.5" y="536.5234"/><text fill="#000000" font-family="sans-serif" font-size="14" lengthAdjust="spacing" textLength="140" x="1387.5" y="543.752">resumen : String [0..1]</text><line style="stroke:#181818;stroke-width:0.5;" x1="1368.5" x2="1548.5" y1="550.8281" y2="550.8281"/></g><!--class DiaEnRutina--><g id="elem_DiaEnRutina"><rect codeLine="151" fill="#F1F1F1" height="100.8281" id="DiaEnRutina" rx="2.5" ry="2.5" style="stroke:#181818;stroke-width:0.5;" width="250" x="1333.5" y="698"/><ellipse cx="1414.75" cy="714" fill="#ADD1B2" rx="11" ry="11" style="stroke:#181818;stroke-width:1.0;"/><path d="M1417.5156,709.875 Q1417.6719,709.6563 1417.8594,709.5469 Q1418.0469,709.4375 1418.2656,709.4375 Q1418.6406,709.4375 1418.875,709.7031 Q1419.1094,709.9531 1419.1094,710.5625 L1419.1094,712.0156 Q1419.1094,712.625 1418.875,712.8906 Q1418.6406,713.1563 1418.2656,713.1563 Q1417.9219,713.1563 1417.7188,712.9531 Q1417.5156,712.7656 1417.4063,712.25 Q1417.3594,711.8906 1417.1719,711.7031 Q1416.8438,711.3281 1416.2344,711.1094 Q1415.625,710.8906 1415,710.8906 Q1414.2344,710.8906 1413.5938,711.2188 Q1412.9688,711.5469 1412.4688,712.2969 Q1411.9844,713.0469 1411.9844,714.0781 L1411.9844,715.1719 Q1411.9844,716.4063 1412.875,717.2344 Q1413.7656,718.0469 1415.3594,718.0469 Q1416.2969,718.0469 1416.9531,717.7969 Q1417.3438,717.6406 1417.7656,717.2031 Q1418.0313,716.9375 1418.1719,716.8594 Q1418.3281,716.7813 1418.5313,716.7813 Q1418.8594,716.7813 1419.1094,717.0469 Q1419.375,717.2969 1419.375,717.6406 Q1419.375,717.9844 1419.0313,718.3906 Q1418.5313,718.9688 1417.7344,719.2969 Q1416.6563,719.75 1415.3594,719.75 Q1413.8438,719.75 1412.6406,719.125 Q1411.6563,718.625 1410.9688,717.5625 Q1410.2813,716.4844 1410.2813,715.2031 L1410.2813,714.0469 Q1410.2813,712.7188 1410.8906,711.5781 Q1411.5156,710.4219 1412.6094,709.8125 Q1413.7031,709.1875 1414.9375,709.1875 Q1415.6719,709.1875 1416.3125,709.3594 Q1416.9688,709.5156 1417.5156,709.875 Z " fill="#000000"/><text fill="#000000" font-family="sans-serif" font-size="14" lengthAdjust="spacing" textLength="79" x="1435.25" y="719.7285">DiaEnRutina</text><line style="stroke:#181818;stroke-width:0.5;" x1="1334.5" x2="1582.5" y1="730" y2="730"/><rect fill="none" height="6" style="stroke:#C82930;stroke-width:1.0;" width="6" x="1341.5" y="741.3047"/><text fill="#000000" font-family="sans-serif" font-size="14" lengthAdjust="spacing" textLength="126" x="1353.5" y="748.5332">idDiaEnDieta : Long</text><rect fill="none" height="6" style="stroke:#C82930;stroke-width:1.0;" width="6" x="1341.5" y="758.9141"/><text fill="#000000" font-family="sans-serif" font-size="14" lengthAdjust="spacing" textLength="97" x="1353.5" y="766.1426">nombre : String</text><rect fill="none" height="6" style="stroke:#C82930;stroke-width:1.0;" width="6" x="1341.5" y="776.5234"/><text fill="#000000" font-family="sans-serif" font-size="14" lengthAdjust="spacing" textLength="224" x="1353.5" y="783.752">diaDeLaSemana : DiaDeLaSemana</text><line style="stroke:#181818;stroke-width:0.5;" x1="1334.5" x2="1582.5" y1="790.8281" y2="790.8281"/></g><!--class Ejercicio--><g id="elem_Ejercicio"><rect codeLine="157" fill="#F1F1F1" height="100.8281" id="Ejercicio" rx="2.5" ry="2.5" style="stroke:#181818;stroke-width:0.5;" width="202" x="1357.5" y="920.5"/><ellipse cx="1427.75" cy="936.5" fill="#ADD1B2" rx="11" ry="11" style="stroke:#181818;stroke-width:1.0;"/><path d="M1430.5156,932.375 Q1430.6719,932.1563 1430.8594,932.0469 Q1431.0469,931.9375 1431.2656,931.9375 Q1431.6406,931.9375 1431.875,932.2031 Q1432.1094,932.4531 1432.1094,933.0625 L1432.1094,934.5156 Q1432.1094,935.125 1431.875,935.3906 Q1431.6406,935.6563 1431.2656,935.6563 Q1430.9219,935.6563 1430.7188,935.4531 Q1430.5156,935.2656 1430.4063,934.75 Q1430.3594,934.3906 1430.1719,934.2031 Q1429.8438,933.8281 1429.2344,933.6094 Q1428.625,933.3906 1428,933.3906 Q1427.2344,933.3906 1426.5938,933.7188 Q1425.9688,934.0469 1425.4688,934.7969 Q1424.9844,935.5469 1424.9844,936.5781 L1424.9844,937.6719 Q1424.9844,938.9063 1425.875,939.7344 Q1426.7656,940.5469 1428.3594,940.5469 Q1429.2969,940.5469 1429.9531,940.2969 Q1430.3438,940.1406 1430.7656,939.7031 Q1431.0313,939.4375 1431.1719,939.3594 Q1431.3281,939.2813 1431.5313,939.2813 Q1431.8594,939.2813 1432.1094,939.5469 Q1432.375,939.7969 1432.375,940.1406 Q1432.375,940.4844 1432.0313,940.8906 Q1431.5313,941.4688 1430.7344,941.7969 Q1429.6563,942.25 1428.3594,942.25 Q1426.8438,942.25 1425.6406,941.625 Q1424.6563,941.125 1423.9688,940.0625 Q1423.2813,938.9844 1423.2813,937.7031 L1423.2813,936.5469 Q1423.2813,935.2188 1423.8906,934.0781 Q1424.5156,932.9219 1425.6094,932.3125 Q1426.7031,931.6875 1427.9375,931.6875 Q1428.6719,931.6875 1429.3125,931.8594 Q1429.9688,932.0156 1430.5156,932.375 Z " fill="#000000"/><text fill="#000000" font-family="sans-serif" font-size="14" lengthAdjust="spacing" textLength="53" x="1448.25" y="942.2285">Ejercicio</text><line style="stroke:#181818;stroke-width:0.5;" x1="1358.5" x2="1558.5" y1="952.5" y2="952.5"/><rect fill="none" height="6" style="stroke:#C82930;stroke-width:1.0;" width="6" x="1365.5" y="963.8047"/><text fill="#000000" font-family="sans-serif" font-size="14" lengthAdjust="spacing" textLength="108" x="1377.5" y="971.0332">idEjercicio : Long</text><rect fill="none" height="6" style="stroke:#C82930;stroke-width:1.0;" width="6" x="1365.5" y="981.4141"/><text fill="#000000" font-family="sans-serif" font-size="14" lengthAdjust="spacing" textLength="97" x="1377.5" y="988.6426">nombre : String</text><rect fill="none" height="6" style="stroke:#C82930;stroke-width:1.0;" width="6" x="1365.5" y="999.0234"/><text fill="#000000" font-family="sans-serif" font-size="14" lengthAdjust="spacing" textLength="176" x="1377.5" y="1006.252">musculoEnfocado : Musculo</text><line style="stroke:#181818;stroke-width:0.5;" x1="1358.5" x2="1558.5" y1="1013.3281" y2="1013.3281"/></g><!--class Serie--><g id="elem_Serie"><rect codeLine="163" fill="#F1F1F1" height="118.4375" id="Serie" rx="2.5" ry="2.5" style="stroke:#181818;stroke-width:0.5;" width="192" x="1362.5" y="1134.5"/><ellipse cx="1437.75" cy="1150.5" fill="#ADD1B2" rx="11" ry="11" style="stroke:#181818;stroke-width:1.0;"/><path d="M1440.5156,1146.375 Q1440.6719,1146.1563 1440.8594,1146.0469 Q1441.0469,1145.9375 1441.2656,1145.9375 Q1441.6406,1145.9375 1441.875,1146.2031 Q1442.1094,1146.4531 1442.1094,1147.0625 L1442.1094,1148.5156 Q1442.1094,1149.125 1441.875,1149.3906 Q1441.6406,1149.6563 1441.2656,1149.6563 Q1440.9219,1149.6563 1440.7188,1149.4531 Q1440.5156,1149.2656 1440.4063,1148.75 Q1440.3594,1148.3906 1440.1719,1148.2031 Q1439.8438,1147.8281 1439.2344,1147.6094 Q1438.625,1147.3906 1438,1147.3906 Q1437.2344,1147.3906 1436.5938,1147.7188 Q1435.9688,1148.0469 1435.4688,1148.7969 Q1434.9844,1149.5469 1434.9844,1150.5781 L1434.9844,1151.6719 Q1434.9844,1152.9063 1435.875,1153.7344 Q1436.7656,1154.5469 1438.3594,1154.5469 Q1439.2969,1154.5469 1439.9531,1154.2969 Q1440.3438,1154.1406 1440.7656,1153.7031 Q1441.0313,1153.4375 1441.1719,1153.3594 Q1441.3281,1153.2813 1441.5313,1153.2813 Q1441.8594,1153.2813 1442.1094,1153.5469 Q1442.375,1153.7969 1442.375,1154.1406 Q1442.375,1154.4844 1442.0313,1154.8906 Q1441.5313,1155.4688 1440.7344,1155.7969 Q1439.6563,1156.25 1438.3594,1156.25 Q1436.8438,1156.25 1435.6406,1155.625 Q1434.6563,1155.125 1433.9688,1154.0625 Q1433.2813,1152.9844 1433.2813,1151.7031 L1433.2813,1150.5469 Q1433.2813,1149.2188 1433.8906,1148.0781 Q1434.5156,1146.9219 1435.6094,1146.3125 Q1436.7031,1145.6875 1437.9375,1145.6875 Q1438.6719,1145.6875 1439.3125,1145.8594 Q1439.9688,1146.0156 1440.5156,1146.375 Z " fill="#000000"/><text fill="#000000" font-family="sans-serif" font-size="14" lengthAdjust="spacing" textLength="33" x="1458.25" y="1156.2285">Serie</text><line style="stroke:#181818;stroke-width:0.5;" x1="1363.5" x2="1553.5" y1="1166.5" y2="1166.5"/><rect fill="none" height="6" style="stroke:#C82930;stroke-width:1.0;" width="6" x="1370.5" y="1177.8047"/><text fill="#000000" font-family="sans-serif" font-size="14" lengthAdjust="spacing" textLength="88" x="1382.5" y="1185.0332">idSerie : Long</text><rect fill="none" height="6" style="stroke:#C82930;stroke-width:1.0;" width="6" x="1370.5" y="1195.4141"/><text fill="#000000" font-family="sans-serif" font-size="14" lengthAdjust="spacing" textLength="166" x="1382.5" y="1202.6426">serieAnterior : String [0..1]</text><rect fill="none" height="6" style="stroke:#C82930;stroke-width:1.0;" width="6" x="1370.5" y="1213.0234"/><text fill="#000000" font-family="sans-serif" font-size="14" lengthAdjust="spacing" textLength="104" x="1382.5" y="1220.252">repeticiones : int</text><rect fill="none" height="6" style="stroke:#C82930;stroke-width:1.0;" width="6" x="1370.5" y="1230.6328"/><text fill="#000000" font-family="sans-serif" font-size="14" lengthAdjust="spacing" textLength="58" x="1382.5" y="1237.8613">peso : int</text><line style="stroke:#181818;stroke-width:0.5;" x1="1363.5" x2="1553.5" y1="1244.9375" y2="1244.9375"/></g><!--link Usuario to DietaCompleta--><g id="link_Usuario_DietaCompleta"><path codeLine="174" d="M953.37,301.5 C961.66,338.54 969.3585,372.9051 977.1985,407.9051 " fill="none" id="Usuario-to-DietaCompleta" style="stroke:#181818;stroke-width:1.0;"/><polygon fill="#181818" points="978.51,413.76,980.446,404.1033,977.4171,408.8809,972.6395,405.852,978.51,413.76" style="stroke:#181818;stroke-width:1.0;"/><text fill="#000000" font-family="sans-serif" font-size="13" lengthAdjust="spacing" textLength="53" x="956.6222" y="322.8758">usuario 1</text><text fill="#000000" font-family="sans-serif" font-size="13" lengthAdjust="spacing" textLength="59" x="915.4866" y="403.087">dietas 0..*</text></g><!--link Usuario to Credenciales--><g id="link_Usuario_Credenciales"><path codeLine="176" d="M802.9,270.92 C746.26,313.03 678.89,364.74 620.5,414 C604.15,427.79 591.315,439.334 575.865,453.834 " fill="none" id="Usuario-to-Credenciales" style="stroke:#181818;stroke-width:1.0;"/><polygon fill="#181818" points="571.49,457.94,580.7899,454.6977,575.1358,454.5183,575.3152,448.8643,571.49,457.94" style="stroke:#181818;stroke-width:1.0;"/><text fill="#000000" font-family="sans-serif" font-size="13" lengthAdjust="spacing" textLength="53" x="742.1605" y="272.6816">usuario 1</text><text fill="#000000" font-family="sans-serif" font-size="13" lengthAdjust="spacing" textLength="84" x="488.7542" y="447.2369">credenciales 1</text></g><!--link Usuario to HistorialPeso--><g id="link_Usuario_HistorialPeso"><path codeLine="178" d="M850.3,301.5 C815.95,355.6 780.496,411.4447 754.166,452.9147 " fill="none" id="Usuario-to-HistorialPeso" style="stroke:#181818;stroke-width:1.0;"/><polygon fill="#181818" points="750.95,457.98,759.1509,452.5261,753.63,453.7589,752.3972,448.238,750.95,457.98" style="stroke:#181818;stroke-width:1.0;"/><text fill="#000000" font-family="sans-serif" font-size="13" lengthAdjust="spacing" textLength="53" x="791.0417" y="322.8758">usuario 1</text><text fill="#000000" font-family="sans-serif" font-size="13" lengthAdjust="spacing" textLength="99" x="649.4117" y="447.2825">historialPeso 1..*</text></g><!--link Usuario to RegistroComidaDiaria--><g id="link_Usuario_RegistroComidaDiaria"><path codeLine="180" d="M905.39,301.56 C899.74,337.61 894.18,377.32 890.5,414 C864.77,670.63 857.4898,970.7307 855.3998,1110.3307 " fill="none" id="Usuario-to-RegistroComidaDiaria" style="stroke:#181818;stroke-width:1.0;"/><polygon fill="#181818" points="855.31,1116.33,859.4443,1107.3909,855.3848,1111.3306,851.4452,1107.2711,855.31,1116.33" style="stroke:#181818;stroke-width:1.0;"/><text fill="#000000" font-family="sans-serif" font-size="13" lengthAdjust="spacing" textLength="53" x="849.6375" y="322.5351">usuario 1</text><text fill="#000000" font-family="sans-serif" font-size="13" lengthAdjust="spacing" textLength="151" x="697.1911" y="1105.7405">registrosComidaDiaria 0..*</text></g><!--link Comida to RegistroComidaDiaria--><g id="link_Comida_RegistroComidaDiaria"><path codeLine="182" d="M970.99,1048.19 C953.21,1070.23 937.5696,1089.602 919.7796,1111.632 " fill="none" id="Comida-to-RegistroComidaDiaria" style="stroke:#181818;stroke-width:1.0;"/><polygon fill="#181818" points="916.01,1116.3,924.7764,1111.811,919.1513,1112.41,918.5524,1106.7849,916.01,1116.3" style="stroke:#181818;stroke-width:1.0;"/><text fill="#000000" font-family="sans-serif" font-size="13" lengthAdjust="spacing" textLength="53" x="910.4266" y="1069.036">comida 1</text><text fill="#000000" font-family="sans-serif" font-size="13" lengthAdjust="spacing" textLength="74" x="916.8843" y="1099.1514">registros 0..*</text></g><!--link DietaCompleta to DiaEnDieta--><g id="link_DietaCompleta_DiaEnDieta"><path codeLine="184" d="M1012.5,603.22 C1015.22,622.86 1017.2574,637.5267 1019.9274,656.8167 " fill="none" id="DietaCompleta-to-DiaEnDieta" style="stroke:#181818;stroke-width:1.0;"/><polygon fill="#181818" points="1020.75,662.76,1023.4783,653.2966,1020.0645,657.8072,1015.5538,654.3934,1020.75,662.76" style="stroke:#181818;stroke-width:1.0;"/><text fill="#000000" font-family="sans-serif" font-size="13" lengthAdjust="spacing" textLength="39" x="973.0227" y="624.2761">dieta 1</text><text fill="#000000" font-family="sans-serif" font-size="13" lengthAdjust="spacing" textLength="94" x="921.7012" y="652.203">diasDeDieta 1..*</text></g><!--link Usuario to RutinaCompleta--><g id="link_Usuario_RutinaCompleta"><path codeLine="186" d="M1050.33,241 C1136.85,284.6 1253.57,347.56 1349.5,414 C1368.46,427.13 1383.4182,439.0477 1400.5782,453.9377 " fill="none" id="Usuario-to-RutinaCompleta" style="stroke:#181818;stroke-width:1.0;"/><polygon fill="#181818" points="1405.11,457.87,1400.9339,448.9504,1401.3335,454.5931,1395.6908,454.9927,1405.11,457.87" style="stroke:#181818;stroke-width:1.0;"/><text fill="#000000" font-family="sans-serif" font-size="13" lengthAdjust="spacing" textLength="53" x="1058.0814" y="241.2189">usuario 1</text><text fill="#000000" font-family="sans-serif" font-size="13" lengthAdjust="spacing" textLength="63" x="1330.1723" y="447.1571">rutinas 0..*</text></g><!--link DiaEnDieta to Comida--><g id="link_DiaEnDieta_Comida"><path codeLine="188" d="M1032.5,834.12 C1032.5,853.8 1032.5,868.62 1032.5,887.9 " fill="none" id="DiaEnDieta-to-Comida" style="stroke:#181818;stroke-width:1.0;"/><polygon fill="#181818" points="1032.5,893.9,1036.5,884.9,1032.5,888.9,1028.5,884.9,1032.5,893.9" style="stroke:#181818;stroke-width:1.0;"/><text fill="#000000" font-family="sans-serif" font-size="13" lengthAdjust="spacing" textLength="74" x="955.3203" y="855.6643">diaDeDieta 1</text><text fill="#000000" font-family="sans-serif" font-size="13" lengthAdjust="spacing" textLength="73" x="955.907" y="883.0523">comidas 1..*</text></g><!--link Comida to Ingrediente--><g id="link_Comida_Ingrediente"><path codeLine="190" d="M1050.12,1048.19 C1054.56,1067.36 1057.9863,1082.2147 1062.5163,1101.7747 " fill="none" id="Comida-to-Ingrediente" style="stroke:#181818;stroke-width:1.0;"/><polygon fill="#181818" points="1063.87,1107.62,1065.7362,1097.9496,1062.7419,1102.7489,1057.9425,1099.7546,1063.87,1107.62" style="stroke:#181818;stroke-width:1.0;"/><text fill="#000000" font-family="sans-serif" font-size="13" lengthAdjust="spacing" textLength="53" x="996.3569" y="1069.036">comida 1</text><text fill="#000000" font-family="sans-serif" font-size="13" lengthAdjust="spacing" textLength="94" x="1066.2221" y="1097.051">ingredientes 1..*</text></g><!--link Usuario to Alimento--><g id="link_Usuario_Alimento"><path codeLine="192" d="M1038.04,301.5 C1078.36,344.89 1118.675,388.2653 1154.555,426.8653 " fill="none" id="Usuario-to-Alimento" style="stroke:#181818;stroke-width:1.0;"/><polygon fill="#181818" points="1158.64,431.26,1155.4423,421.9447,1155.2359,427.5978,1149.5828,427.3913,1158.64,431.26" style="stroke:#181818;stroke-width:1.0;"/><text fill="#000000" font-family="sans-serif" font-size="13" lengthAdjust="spacing" textLength="53" x="1046.4518" y="322.8758">usuario 1</text><text fill="#000000" font-family="sans-serif" font-size="13" lengthAdjust="spacing" textLength="145" x="1158.7963" y="420.6638">alimentosPersonales 0..*</text></g><!--link RutinaCompleta to DiaEnRutina--><g id="link_RutinaCompleta_DiaEnRutina"><path codeLine="194" d="M1458.5,559.1 C1458.5,599.84 1458.5,651.24 1458.5,691.96 " fill="none" id="RutinaCompleta-to-DiaEnRutina" style="stroke:#181818;stroke-width:1.0;"/><polygon fill="#181818" points="1458.5,697.96,1462.5,688.96,1458.5,692.96,1454.5,688.96,1458.5,697.96" style="stroke:#181818;stroke-width:1.0;"/><text fill="#000000" font-family="sans-serif" font-size="13" lengthAdjust="spacing" textLength="43" x="1412.6109" y="580.5047">rutina 1</text><text fill="#000000" font-family="sans-serif" font-size="13" lengthAdjust="spacing" textLength="101" x="1350.3984" y="687.2597">diasEnRutina 1..*</text></g><!--link DiaEnRutina to Ejercicio--><g id="link_DiaEnRutina_Ejercicio"><path codeLine="196" d="M1458.5,799.26 C1458.5,835.46 1458.5,878.26 1458.5,914.42 " fill="none" id="DiaEnRutina-to-Ejercicio" style="stroke:#181818;stroke-width:1.0;"/><polygon fill="#181818" points="1458.5,920.42,1462.5,911.42,1458.5,915.42,1454.5,911.42,1458.5,920.42" style="stroke:#181818;stroke-width:1.0;"/><text fill="#000000" font-family="sans-serif" font-size="13" lengthAdjust="spacing" textLength="94" x="1358.4781" y="820.3173">diaEnRutina 1..*</text><text fill="#000000" font-family="sans-serif" font-size="13" lengthAdjust="spacing" textLength="79" x="1373.9453" y="909.7141">ejercicios 1..*</text></g><!--link Ejercicio to Serie--><g id="link_Ejercicio_Serie"><path codeLine="198" d="M1458.5,1021.76 C1458.5,1055.17 1458.5,1093.3 1458.5,1128.33 " fill="none" id="Ejercicio-to-Serie" style="stroke:#181818;stroke-width:1.0;"/><polygon fill="#181818" points="1458.5,1134.33,1462.5,1125.33,1458.5,1129.33,1454.5,1125.33,1458.5,1134.33" style="stroke:#181818;stroke-width:1.0;"/><text fill="#000000" font-family="sans-serif" font-size="13" lengthAdjust="spacing" textLength="59" x="1395.7203" y="1042.8173">ejercicio 1</text><text fill="#000000" font-family="sans-serif" font-size="13" lengthAdjust="spacing" textLength="59" x="1395.9047" y="1123.6335">series 1..*</text></g><!--SRC=[nLPBZzis4BxhLn2-12YmoRh71Lg0bWYl0ZrSFN98K1XSYUjb88i69UTIzBzt-13riAkcG8Fg8d4u_EQRuJpq3ltoDu_tpcuXafGnoN2GvcYnTUUKnzhh6SNNhhes0g4_FByaKPHwpscyozBS2z8inn79lGFndrDl5_haa7j5PjuuASWkmvzJxtEQu6DKnZkSUIG_u2Z0nvW48GPT36T3mC91wHTf1c1uD_rCup3HDlPHMH1Gz4iSM0jX_biPfaMu2uq6YKa46dzQuW6d0OjepiwqfOf-L2QW5kEiKA-GP7wgpdqioITuVGA1si_n3kBZQSlxrA7jMSka01JjFV7YyYF9lBJ8HfNqvIlh-JUbXE0va2mWsN6VuHnhmHudE3l6i3p6PUwN4SH3oMCLgWHK3oGVqHB-ZJK1mnL0yfhM5ZKd0KaAd8MfNX9WuOSGmcCKxacs5CPfeAzx8GwLmJn5MeoBY1GOxAArP1Yta1_XdEJepjPj2bKDxJfKTbSgkGhC0-Bri7f2aMXF86h5-KKoMEUzv5f2BwnfU2sszuG_Eo7wylZ-_VPts7jbrHjDQCNFdBMzmQve4z2UmUv9NzwJlKGGN5YdT5uRGNk5tFHNIK70MxNiMSDUHIkcnjlbTJpTt11eYI45dbmsg0irKV0bgrbRSTgmpePY9dBnW8pbpTHu9TfUqewrRtGKEzndtlL20iP1UMM0vpA7lF1RHsqMAmUQiHD0IE6BC_W6jGHW5llkbZDnY_c0Fi2dOjCLehUk3XG-NAJe6M_fJ5XH-IBUU2rfBsOR9mZ3HDNH3JZhAH2wDF2sFEUobMohMLT9VgcuQE-arWyZ3tcdKaTHUn6YORIT-aD9gnrmpZZ1YYS_a6izQwTFy_QgY0zPhhDYo6-p-3yOkr26xGcgJBK5PbbD9IlKAjhsggxtafx5WeFX_D-JnGq_wmPccBhbAar3vY3azl7nDB7YADrkpOZTRXjwI_dO7Auzm2xARI5SOInPTmMtRcfjdlq6xr-b_p_cg84dNvciUEK6qhXUmJwR_o3Ila9ZgvMg_JCQSNCc-P1ZvjlXTMg98U5WyCaxJKQo2qmBrO5q2PWvPBirB90oyXtJ6MKamZ3X4_9TFtZ39DvSxSTsWz33mwzeKwjGTmZe_RHPDDVxn_IfQZhEG3WTRol7tcR3QgjjpWROobbfXr4tcqQ6zxr1vNcs9sqgyxu1MZqy3uK9auE0zEi2Ph9qQoCtfErQiANET6TuLaVAf4lzZKxmO31gWwu9TjQYeNlFIwFDnzut79cqmvL0KzkAkWEJdMZr5Hl2GvFol4KBi8vDiufshh0d4J8IwwhTLieBNOt1Xc8TwBlgzRona4UrqRgkmU6Kha_lBm00]--></g></svg>