<?xml version="1.0" encoding="us-ascii" standalone="no"?><svg xmlns="http://www.w3.org/2000/svg" xmlns:xlink="http://www.w3.org/1999/xlink" contentStyleType="text/css" height="984px" preserveAspectRatio="none" style="width:452px;height:984px;background:#FFFFFF;" version="1.1" viewBox="0 0 452 984" width="452px" zoomAndPan="magnify"><defs/><g><!--class Musculos--><g id="elem_Musculos"><rect codeLine="2" fill="#F1F1F1" height="259.3125" id="Musculos" rx="2.5" ry="2.5" style="stroke:#181818;stroke-width:0.5;" width="109" x="7" y="16"/><ellipse cx="30.1" cy="32" fill="#EB937F" rx="11" ry="11" style="stroke:#181818;stroke-width:1.0;"/><path d="M28.9594,32.7969 L28.9594,35.2969 L33.2875,35.2969 L33.2875,34.375 Q33.2875,33.7656 33.5297,33.5 Q33.7719,33.2344 34.1469,33.2344 Q34.5219,33.2344 34.7563,33.5 Q34.9906,33.7656 34.9906,34.375 L34.9906,37 L26.9906,37 Q26.3656,37 26.1078,36.7656 Q25.85,36.5313 25.85,36.1406 Q25.85,35.7656 26.1156,35.5313 Q26.3813,35.2969 26.9906,35.2969 L27.2563,35.2969 L27.2563,28.6406 L26.9906,28.6406 Q26.3656,28.6406 26.1078,28.4063 Q25.85,28.1719 25.85,27.7813 Q25.85,27.4063 26.1078,27.1719 Q26.3656,26.9375 26.9906,26.9375 L34.6156,26.9375 L34.6156,29.5313 Q34.6156,30.1406 34.3891,30.3984 Q34.1625,30.6563 33.7719,30.6563 Q33.3969,30.6563 33.1625,30.3984 Q32.9281,30.1406 32.9281,29.5313 L32.9281,28.6406 L28.9594,28.6406 L28.9594,31.0938 L30.4438,31.0938 Q30.4438,30.4375 30.5688,30.25 Q30.8344,29.8438 31.3031,29.8438 Q31.6781,29.8438 31.9125,30.1016 Q32.1469,30.3594 32.1469,30.9688 L32.1469,32.9375 Q32.1469,33.4844 32.0219,33.6719 Q31.7563,34.0625 31.3031,34.0625 Q30.8344,34.0625 30.5688,33.6563 Q30.4438,33.4688 30.4438,32.7969 L28.9594,32.7969 Z " fill="#000000"/><text fill="#000000" font-family="sans-serif" font-size="14" lengthAdjust="spacing" textLength="59" x="45.9" y="37.7285">Musculos</text><line style="stroke:#181818;stroke-width:0.5;" x1="8" x2="115" y1="48" y2="48"/><text fill="#000000" font-family="sans-serif" font-size="14" lengthAdjust="spacing" textLength="55" x="13" y="66.5332">CUELLO</text><text fill="#000000" font-family="sans-serif" font-size="14" lengthAdjust="spacing" textLength="61" x="13" y="84.1426">HOMBRO</text><text fill="#000000" font-family="sans-serif" font-size="14" lengthAdjust="spacing" textLength="48" x="13" y="101.752">PECHO</text><text fill="#000000" font-family="sans-serif" font-size="14" lengthAdjust="spacing" textLength="49" x="13" y="119.3613">BICEPS</text><text fill="#000000" font-family="sans-serif" font-size="14" lengthAdjust="spacing" textLength="59" x="13" y="136.9707">TRICEPS</text><text fill="#000000" font-family="sans-serif" font-size="14" lengthAdjust="spacing" textLength="83" x="13" y="154.5801">ANTEBRAZO</text><text fill="#000000" font-family="sans-serif" font-size="14" lengthAdjust="spacing" textLength="63" x="13" y="172.1895">ESPALDA</text><text fill="#000000" font-family="sans-serif" font-size="14" lengthAdjust="spacing" textLength="97" x="13" y="189.7988">ABDOMINALES</text><text fill="#000000" font-family="sans-serif" font-size="14" lengthAdjust="spacing" textLength="57" x="13" y="207.4082">GLUTEO</text><text fill="#000000" font-family="sans-serif" font-size="14" lengthAdjust="spacing" textLength="88" x="13" y="225.0176">CUADRICEPS</text><text fill="#000000" font-family="sans-serif" font-size="14" lengthAdjust="spacing" textLength="67" x="13" y="242.627">FEMORAL</text><text fill="#000000" font-family="sans-serif" font-size="14" lengthAdjust="spacing" textLength="59" x="13" y="260.2363">GEMELO</text><line style="stroke:#181818;stroke-width:0.5;" x1="8" x2="115" y1="267.3125" y2="267.3125"/></g><!--class Usuario--><g id="elem_Usuario"><rect codeLine="17" fill="#F1F1F1" height="276.9219" id="Usuario" rx="2.5" ry="2.5" style="stroke:#181818;stroke-width:0.5;" width="157" x="151" y="7"/><ellipse cx="201.25" cy="23" fill="#ADD1B2" rx="11" ry="11" style="stroke:#181818;stroke-width:1.0;"/><path d="M204.0156,18.875 Q204.1719,18.6563 204.3594,18.5469 Q204.5469,18.4375 204.7656,18.4375 Q205.1406,18.4375 205.375,18.6953 Q205.6094,18.9531 205.6094,19.5625 L205.6094,21.0156 Q205.6094,21.625 205.375,21.8906 Q205.1406,22.1563 204.7656,22.1563 Q204.4219,22.1563 204.2188,21.9531 Q204.0156,21.7656 203.9063,21.25 Q203.8594,20.8906 203.6719,20.7031 Q203.3438,20.3281 202.7344,20.1094 Q202.125,19.8906 201.5,19.8906 Q200.7344,19.8906 200.1016,20.2188 Q199.4688,20.5469 198.9766,21.2969 Q198.4844,22.0469 198.4844,23.0781 L198.4844,24.1719 Q198.4844,25.4063 199.375,26.2266 Q200.2656,27.0469 201.8594,27.0469 Q202.7969,27.0469 203.4531,26.7969 Q203.8438,26.6406 204.2656,26.2031 Q204.5313,25.9375 204.6797,25.8594 Q204.8281,25.7813 205.0313,25.7813 Q205.3594,25.7813 205.6172,26.0391 Q205.875,26.2969 205.875,26.6406 Q205.875,26.9844 205.5313,27.3906 Q205.0313,27.9688 204.2344,28.2969 Q203.1563,28.75 201.8594,28.75 Q200.3438,28.75 199.1406,28.125 Q198.1563,27.625 197.4688,26.5547 Q196.7813,25.4844 196.7813,24.2031 L196.7813,23.0469 Q196.7813,21.7188 197.3984,20.5703 Q198.0156,19.4219 199.1094,18.8047 Q200.2031,18.1875 201.4375,18.1875 Q202.1719,18.1875 202.8203,18.3516 Q203.4688,18.5156 204.0156,18.875 Z " fill="#000000"/><text fill="#000000" font-family="sans-serif" font-size="14" lengthAdjust="spacing" textLength="48" x="221.75" y="28.7285">Usuario</text><line style="stroke:#181818;stroke-width:0.5;" x1="152" x2="307" y1="39" y2="39"/><rect fill="none" height="6" style="stroke:#C82930;stroke-width:1.0;" width="6" x="159" y="50.3047"/><text fill="#000000" font-family="sans-serif" font-size="14" lengthAdjust="spacing" textLength="86" x="171" y="57.5332">idUsuario : int</text><rect fill="none" height="6" style="stroke:#C82930;stroke-width:1.0;" width="6" x="159" y="67.9141"/><text fill="#000000" font-family="sans-serif" font-size="14" lengthAdjust="spacing" textLength="97" x="171" y="75.1426">nombre : String</text><rect fill="none" height="6" style="stroke:#C82930;stroke-width:1.0;" width="6" x="159" y="85.5234"/><text fill="#000000" font-family="sans-serif" font-size="14" lengthAdjust="spacing" textLength="106" x="171" y="92.752">apellido1 : String</text><rect fill="none" height="6" style="stroke:#C82930;stroke-width:1.0;" width="6" x="159" y="103.1328"/><text fill="#000000" font-family="sans-serif" font-size="14" lengthAdjust="spacing" textLength="106" x="171" y="110.3613">apellido2 : String</text><rect fill="none" height="6" style="stroke:#C82930;stroke-width:1.0;" width="6" x="159" y="120.7422"/><text fill="#000000" font-family="sans-serif" font-size="14" lengthAdjust="spacing" textLength="131" x="171" y="127.9707">fechaNacimiento : int</text><rect fill="none" height="6" style="stroke:#C82930;stroke-width:1.0;" width="6" x="159" y="138.3516"/><text fill="#000000" font-family="sans-serif" font-size="14" lengthAdjust="spacing" textLength="90" x="171" y="145.5801">genero: String</text><rect fill="none" height="6" style="stroke:#C82930;stroke-width:1.0;" width="6" x="159" y="155.9609"/><text fill="#000000" font-family="sans-serif" font-size="14" lengthAdjust="spacing" textLength="70" x="171" y="163.1895">peso : float</text><rect fill="none" height="6" style="stroke:#C82930;stroke-width:1.0;" width="6" x="159" y="173.5703"/><text fill="#000000" font-family="sans-serif" font-size="14" lengthAdjust="spacing" textLength="75" x="171" y="180.7988">altura : float</text><rect fill="none" height="6" style="stroke:#C82930;stroke-width:1.0;" width="6" x="159" y="191.1797"/><text fill="#000000" font-family="sans-serif" font-size="14" lengthAdjust="spacing" textLength="82" x="171" y="198.4082">email : String</text><rect fill="none" height="6" style="stroke:#C82930;stroke-width:1.0;" width="6" x="159" y="208.7891"/><text fill="#000000" font-family="sans-serif" font-size="14" lengthAdjust="spacing" textLength="128" x="171" y="216.0176">contrasenha : String</text><line style="stroke:#181818;stroke-width:0.5;" x1="152" x2="307" y1="223.0938" y2="223.0938"/><ellipse cx="162" cy="237.3984" fill="#84BE84" rx="3" ry="3" style="stroke:#038048;stroke-width:1.0;"/><text fill="#000000" font-family="sans-serif" font-size="14" lengthAdjust="spacing" textLength="78" x="171" y="241.627">registrarse()</text><ellipse cx="162" cy="255.0078" fill="#84BE84" rx="3" ry="3" style="stroke:#038048;stroke-width:1.0;"/><text fill="#000000" font-family="sans-serif" font-size="14" lengthAdjust="spacing" textLength="90" x="171" y="259.2363">iniciarSesion()</text><ellipse cx="162" cy="272.6172" fill="#84BE84" rx="3" ry="3" style="stroke:#038048;stroke-width:1.0;"/><text fill="#000000" font-family="sans-serif" font-size="14" lengthAdjust="spacing" textLength="102" x="171" y="276.8457">actualizarPerfil()</text></g><!--class Dieta--><g id="elem_Dieta"><rect codeLine="33" fill="#F1F1F1" height="188.875" id="Dieta" rx="2.5" ry="2.5" style="stroke:#181818;stroke-width:0.5;" width="161" x="40" y="344"/><ellipse cx="99.75" cy="360" fill="#ADD1B2" rx="11" ry="11" style="stroke:#181818;stroke-width:1.0;"/><path d="M102.5156,355.875 Q102.6719,355.6563 102.8594,355.5469 Q103.0469,355.4375 103.2656,355.4375 Q103.6406,355.4375 103.875,355.6953 Q104.1094,355.9531 104.1094,356.5625 L104.1094,358.0156 Q104.1094,358.625 103.875,358.8906 Q103.6406,359.1563 103.2656,359.1563 Q102.9219,359.1563 102.7188,358.9531 Q102.5156,358.7656 102.4063,358.25 Q102.3594,357.8906 102.1719,357.7031 Q101.8438,357.3281 101.2344,357.1094 Q100.625,356.8906 100,356.8906 Q99.2344,356.8906 98.6016,357.2188 Q97.9688,357.5469 97.4766,358.2969 Q96.9844,359.0469 96.9844,360.0781 L96.9844,361.1719 Q96.9844,362.4063 97.875,363.2266 Q98.7656,364.0469 100.3594,364.0469 Q101.2969,364.0469 101.9531,363.7969 Q102.3438,363.6406 102.7656,363.2031 Q103.0313,362.9375 103.1797,362.8594 Q103.3281,362.7813 103.5313,362.7813 Q103.8594,362.7813 104.1172,363.0391 Q104.375,363.2969 104.375,363.6406 Q104.375,363.9844 104.0313,364.3906 Q103.5313,364.9688 102.7344,365.2969 Q101.6563,365.75 100.3594,365.75 Q98.8438,365.75 97.6406,365.125 Q96.6563,364.625 95.9688,363.5547 Q95.2813,362.4844 95.2813,361.2031 L95.2813,360.0469 Q95.2813,358.7188 95.8984,357.5703 Q96.5156,356.4219 97.6094,355.8047 Q98.7031,355.1875 99.9375,355.1875 Q100.6719,355.1875 101.3203,355.3516 Q101.9688,355.5156 102.5156,355.875 Z " fill="#000000"/><text fill="#000000" font-family="sans-serif" font-size="14" lengthAdjust="spacing" textLength="33" x="120.25" y="365.7285">Dieta</text><line style="stroke:#181818;stroke-width:0.5;" x1="41" x2="200" y1="376" y2="376"/><rect fill="none" height="6" style="stroke:#C82930;stroke-width:1.0;" width="6" x="48" y="387.3047"/><text fill="#000000" font-family="sans-serif" font-size="14" lengthAdjust="spacing" textLength="71" x="60" y="394.5332">idDieta : int</text><rect fill="none" height="6" style="stroke:#C82930;stroke-width:1.0;" width="6" x="48" y="404.9141"/><text fill="#000000" font-family="sans-serif" font-size="14" lengthAdjust="spacing" textLength="97" x="60" y="412.1426">nombre : String</text><rect fill="none" height="6" style="stroke:#C82930;stroke-width:1.0;" width="6" x="48" y="422.5234"/><text fill="#000000" font-family="sans-serif" font-size="14" lengthAdjust="spacing" textLength="121" x="60" y="429.752">descripcion : String</text><rect fill="none" height="6" style="stroke:#C82930;stroke-width:1.0;" width="6" x="48" y="440.1328"/><text fill="#000000" font-family="sans-serif" font-size="14" lengthAdjust="spacing" textLength="135" x="60" y="447.3613">caloriasTotales : float</text><rect fill="none" height="6" style="stroke:#C82930;stroke-width:1.0;" width="6" x="48" y="457.7422"/><text fill="#000000" font-family="sans-serif" font-size="14" lengthAdjust="spacing" textLength="98" x="60" y="464.9707">proteinas : float</text><rect fill="none" height="6" style="stroke:#C82930;stroke-width:1.0;" width="6" x="48" y="475.3516"/><text fill="#000000" font-family="sans-serif" font-size="14" lengthAdjust="spacing" textLength="127" x="60" y="482.5801">carboHidratos : float</text><rect fill="none" height="6" style="stroke:#C82930;stroke-width:1.0;" width="6" x="48" y="492.9609"/><text fill="#000000" font-family="sans-serif" font-size="14" lengthAdjust="spacing" textLength="82" x="60" y="500.1895">grasas : float</text><line style="stroke:#181818;stroke-width:0.5;" x1="41" x2="200" y1="507.2656" y2="507.2656"/><ellipse cx="51" cy="521.5703" fill="#84BE84" rx="3" ry="3" style="stroke:#038048;stroke-width:1.0;"/><text fill="#000000" font-family="sans-serif" font-size="14" lengthAdjust="spacing" textLength="106" x="60" y="525.7988">calculaCalorias()</text></g><!--class Comida--><g id="elem_Comida"><rect codeLine="44" fill="#F1F1F1" height="171.2656" id="Comida" rx="2.5" ry="2.5" style="stroke:#181818;stroke-width:0.5;" width="161" x="40" y="593"/><ellipse cx="92.25" cy="609" fill="#ADD1B2" rx="11" ry="11" style="stroke:#181818;stroke-width:1.0;"/><path d="M95.0156,604.875 Q95.1719,604.6563 95.3594,604.5469 Q95.5469,604.4375 95.7656,604.4375 Q96.1406,604.4375 96.375,604.6953 Q96.6094,604.9531 96.6094,605.5625 L96.6094,607.0156 Q96.6094,607.625 96.375,607.8906 Q96.1406,608.1563 95.7656,608.1563 Q95.4219,608.1563 95.2188,607.9531 Q95.0156,607.7656 94.9063,607.25 Q94.8594,606.8906 94.6719,606.7031 Q94.3438,606.3281 93.7344,606.1094 Q93.125,605.8906 92.5,605.8906 Q91.7344,605.8906 91.1016,606.2188 Q90.4688,606.5469 89.9766,607.2969 Q89.4844,608.0469 89.4844,609.0781 L89.4844,610.1719 Q89.4844,611.4063 90.375,612.2266 Q91.2656,613.0469 92.8594,613.0469 Q93.7969,613.0469 94.4531,612.7969 Q94.8438,612.6406 95.2656,612.2031 Q95.5313,611.9375 95.6797,611.8594 Q95.8281,611.7813 96.0313,611.7813 Q96.3594,611.7813 96.6172,612.0391 Q96.875,612.2969 96.875,612.6406 Q96.875,612.9844 96.5313,613.3906 Q96.0313,613.9688 95.2344,614.2969 Q94.1563,614.75 92.8594,614.75 Q91.3438,614.75 90.1406,614.125 Q89.1563,613.625 88.4688,612.5547 Q87.7813,611.4844 87.7813,610.2031 L87.7813,609.0469 Q87.7813,607.7188 88.3984,606.5703 Q89.0156,605.4219 90.1094,604.8047 Q91.2031,604.1875 92.4375,604.1875 Q93.1719,604.1875 93.8203,604.3516 Q94.4688,604.5156 95.0156,604.875 Z " fill="#000000"/><text fill="#000000" font-family="sans-serif" font-size="14" lengthAdjust="spacing" textLength="48" x="112.75" y="614.7285">Comida</text><line style="stroke:#181818;stroke-width:0.5;" x1="41" x2="200" y1="625" y2="625"/><rect fill="none" height="6" style="stroke:#C82930;stroke-width:1.0;" width="6" x="48" y="636.3047"/><text fill="#000000" font-family="sans-serif" font-size="14" lengthAdjust="spacing" textLength="86" x="60" y="643.5332">idComida : int</text><rect fill="none" height="6" style="stroke:#C82930;stroke-width:1.0;" width="6" x="48" y="653.9141"/><text fill="#000000" font-family="sans-serif" font-size="14" lengthAdjust="spacing" textLength="97" x="60" y="661.1426">nombre : String</text><rect fill="none" height="6" style="stroke:#C82930;stroke-width:1.0;" width="6" x="48" y="671.5234"/><text fill="#000000" font-family="sans-serif" font-size="14" lengthAdjust="spacing" textLength="135" x="60" y="678.752">caloriasTotales : float</text><rect fill="none" height="6" style="stroke:#C82930;stroke-width:1.0;" width="6" x="48" y="689.1328"/><text fill="#000000" font-family="sans-serif" font-size="14" lengthAdjust="spacing" textLength="98" x="60" y="696.3613">proteinas : float</text><rect fill="none" height="6" style="stroke:#C82930;stroke-width:1.0;" width="6" x="48" y="706.7422"/><text fill="#000000" font-family="sans-serif" font-size="14" lengthAdjust="spacing" textLength="126" x="60" y="713.9707">carbohidratos : float</text><rect fill="none" height="6" style="stroke:#C82930;stroke-width:1.0;" width="6" x="48" y="724.3516"/><text fill="#000000" font-family="sans-serif" font-size="14" lengthAdjust="spacing" textLength="82" x="60" y="731.5801">grasas : float</text><line style="stroke:#181818;stroke-width:0.5;" x1="41" x2="200" y1="738.6563" y2="738.6563"/><ellipse cx="51" cy="752.9609" fill="#84BE84" rx="3" ry="3" style="stroke:#038048;stroke-width:1.0;"/><text fill="#000000" font-family="sans-serif" font-size="14" lengthAdjust="spacing" textLength="106" x="60" y="757.1895">calculaCalorias()</text></g><!--class Alimento--><g id="elem_Alimento"><rect codeLine="54" fill="#F1F1F1" height="153.6563" id="Alimento" rx="2.5" ry="2.5" style="stroke:#181818;stroke-width:0.5;" width="161" x="40" y="824"/><ellipse cx="89.25" cy="840" fill="#ADD1B2" rx="11" ry="11" style="stroke:#181818;stroke-width:1.0;"/><path d="M92.0156,835.875 Q92.1719,835.6563 92.3594,835.5469 Q92.5469,835.4375 92.7656,835.4375 Q93.1406,835.4375 93.375,835.6953 Q93.6094,835.9531 93.6094,836.5625 L93.6094,838.0156 Q93.6094,838.625 93.375,838.8906 Q93.1406,839.1563 92.7656,839.1563 Q92.4219,839.1563 92.2188,838.9531 Q92.0156,838.7656 91.9063,838.25 Q91.8594,837.8906 91.6719,837.7031 Q91.3438,837.3281 90.7344,837.1094 Q90.125,836.8906 89.5,836.8906 Q88.7344,836.8906 88.1016,837.2188 Q87.4688,837.5469 86.9766,838.2969 Q86.4844,839.0469 86.4844,840.0781 L86.4844,841.1719 Q86.4844,842.4063 87.375,843.2266 Q88.2656,844.0469 89.8594,844.0469 Q90.7969,844.0469 91.4531,843.7969 Q91.8438,843.6406 92.2656,843.2031 Q92.5313,842.9375 92.6797,842.8594 Q92.8281,842.7813 93.0313,842.7813 Q93.3594,842.7813 93.6172,843.0391 Q93.875,843.2969 93.875,843.6406 Q93.875,843.9844 93.5313,844.3906 Q93.0313,844.9688 92.2344,845.2969 Q91.1563,845.75 89.8594,845.75 Q88.3438,845.75 87.1406,845.125 Q86.1563,844.625 85.4688,843.5547 Q84.7813,842.4844 84.7813,841.2031 L84.7813,840.0469 Q84.7813,838.7188 85.3984,837.5703 Q86.0156,836.4219 87.1094,835.8047 Q88.2031,835.1875 89.4375,835.1875 Q90.1719,835.1875 90.8203,835.3516 Q91.4688,835.5156 92.0156,835.875 Z " fill="#000000"/><text fill="#000000" font-family="sans-serif" font-size="14" lengthAdjust="spacing" textLength="54" x="109.75" y="845.7285">Alimento</text><line style="stroke:#181818;stroke-width:0.5;" x1="41" x2="200" y1="856" y2="856"/><rect fill="none" height="6" style="stroke:#C82930;stroke-width:1.0;" width="6" x="48" y="867.3047"/><text fill="#000000" font-family="sans-serif" font-size="14" lengthAdjust="spacing" textLength="92" x="60" y="874.5332">idAlimento : int</text><rect fill="none" height="6" style="stroke:#C82930;stroke-width:1.0;" width="6" x="48" y="884.9141"/><text fill="#000000" font-family="sans-serif" font-size="14" lengthAdjust="spacing" textLength="97" x="60" y="892.1426">nombre : String</text><rect fill="none" height="6" style="stroke:#C82930;stroke-width:1.0;" width="6" x="48" y="902.5234"/><text fill="#000000" font-family="sans-serif" font-size="14" lengthAdjust="spacing" textLength="135" x="60" y="909.752">caloriasTotales : float</text><rect fill="none" height="6" style="stroke:#C82930;stroke-width:1.0;" width="6" x="48" y="920.1328"/><text fill="#000000" font-family="sans-serif" font-size="14" lengthAdjust="spacing" textLength="98" x="60" y="927.3613">proteinas : float</text><rect fill="none" height="6" style="stroke:#C82930;stroke-width:1.0;" width="6" x="48" y="937.7422"/><text fill="#000000" font-family="sans-serif" font-size="14" lengthAdjust="spacing" textLength="126" x="60" y="944.9707">carbohidratos : float</text><rect fill="none" height="6" style="stroke:#C82930;stroke-width:1.0;" width="6" x="48" y="955.3516"/><text fill="#000000" font-family="sans-serif" font-size="14" lengthAdjust="spacing" textLength="82" x="60" y="962.5801">grasas : float</text><line style="stroke:#181818;stroke-width:0.5;" x1="41" x2="200" y1="969.6563" y2="969.6563"/></g><!--class Rutina--><g id="elem_Rutina"><rect codeLine="63" fill="#F1F1F1" height="136.0469" id="Rutina" rx="2.5" ry="2.5" style="stroke:#181818;stroke-width:0.5;" width="206" x="236.5" y="370.5"/><ellipse cx="314.75" cy="386.5" fill="#ADD1B2" rx="11" ry="11" style="stroke:#181818;stroke-width:1.0;"/><path d="M317.5156,382.375 Q317.6719,382.1563 317.8594,382.0469 Q318.0469,381.9375 318.2656,381.9375 Q318.6406,381.9375 318.875,382.1953 Q319.1094,382.4531 319.1094,383.0625 L319.1094,384.5156 Q319.1094,385.125 318.875,385.3906 Q318.6406,385.6563 318.2656,385.6563 Q317.9219,385.6563 317.7188,385.4531 Q317.5156,385.2656 317.4063,384.75 Q317.3594,384.3906 317.1719,384.2031 Q316.8438,383.8281 316.2344,383.6094 Q315.625,383.3906 315,383.3906 Q314.2344,383.3906 313.6016,383.7188 Q312.9688,384.0469 312.4766,384.7969 Q311.9844,385.5469 311.9844,386.5781 L311.9844,387.6719 Q311.9844,388.9063 312.875,389.7266 Q313.7656,390.5469 315.3594,390.5469 Q316.2969,390.5469 316.9531,390.2969 Q317.3438,390.1406 317.7656,389.7031 Q318.0313,389.4375 318.1797,389.3594 Q318.3281,389.2813 318.5313,389.2813 Q318.8594,389.2813 319.1172,389.5391 Q319.375,389.7969 319.375,390.1406 Q319.375,390.4844 319.0313,390.8906 Q318.5313,391.4688 317.7344,391.7969 Q316.6563,392.25 315.3594,392.25 Q313.8438,392.25 312.6406,391.625 Q311.6563,391.125 310.9688,390.0547 Q310.2813,388.9844 310.2813,387.7031 L310.2813,386.5469 Q310.2813,385.2188 310.8984,384.0703 Q311.5156,382.9219 312.6094,382.3047 Q313.7031,381.6875 314.9375,381.6875 Q315.6719,381.6875 316.3203,381.8516 Q316.9688,382.0156 317.5156,382.375 Z " fill="#000000"/><text fill="#000000" font-family="sans-serif" font-size="14" lengthAdjust="spacing" textLength="41" x="335.25" y="392.2285">Rutina</text><line style="stroke:#181818;stroke-width:0.5;" x1="237.5" x2="441.5" y1="402.5" y2="402.5"/><rect fill="none" height="6" style="stroke:#C82930;stroke-width:1.0;" width="6" x="244.5" y="413.8047"/><text fill="#000000" font-family="sans-serif" font-size="14" lengthAdjust="spacing" textLength="79" x="256.5" y="421.0332">idRutina : int</text><rect fill="none" height="6" style="stroke:#C82930;stroke-width:1.0;" width="6" x="244.5" y="431.4141"/><text fill="#000000" font-family="sans-serif" font-size="14" lengthAdjust="spacing" textLength="97" x="256.5" y="438.6426">nombre : String</text><rect fill="none" height="6" style="stroke:#C82930;stroke-width:1.0;" width="6" x="244.5" y="449.0234"/><text fill="#000000" font-family="sans-serif" font-size="14" lengthAdjust="spacing" textLength="82" x="256.5" y="456.252">duracion : int</text><rect fill="none" height="6" style="stroke:#C82930;stroke-width:1.0;" width="6" x="244.5" y="466.6328"/><text fill="#000000" font-family="sans-serif" font-size="14" lengthAdjust="spacing" textLength="157" x="256.5" y="473.8613">caloriasQuemadas : float</text><line style="stroke:#181818;stroke-width:0.5;" x1="237.5" x2="441.5" y1="480.9375" y2="480.9375"/><ellipse cx="247.5" cy="495.2422" fill="#84BE84" rx="3" ry="3" style="stroke:#038048;stroke-width:1.0;"/><text fill="#000000" font-family="sans-serif" font-size="14" lengthAdjust="spacing" textLength="180" x="256.5" y="499.4707">calcularCaloriasQuemadas()</text></g><!--class Ejercicio--><g id="elem_Ejercicio"><rect codeLine="71" fill="#F1F1F1" height="100.8281" id="Ejercicio" rx="2.5" ry="2.5" style="stroke:#181818;stroke-width:0.5;" width="209" x="236" y="628"/><ellipse cx="309.75" cy="644" fill="#ADD1B2" rx="11" ry="11" style="stroke:#181818;stroke-width:1.0;"/><path d="M312.5156,639.875 Q312.6719,639.6563 312.8594,639.5469 Q313.0469,639.4375 313.2656,639.4375 Q313.6406,639.4375 313.875,639.6953 Q314.1094,639.9531 314.1094,640.5625 L314.1094,642.0156 Q314.1094,642.625 313.875,642.8906 Q313.6406,643.1563 313.2656,643.1563 Q312.9219,643.1563 312.7188,642.9531 Q312.5156,642.7656 312.4063,642.25 Q312.3594,641.8906 312.1719,641.7031 Q311.8438,641.3281 311.2344,641.1094 Q310.625,640.8906 310,640.8906 Q309.2344,640.8906 308.6016,641.2188 Q307.9688,641.5469 307.4766,642.2969 Q306.9844,643.0469 306.9844,644.0781 L306.9844,645.1719 Q306.9844,646.4063 307.875,647.2266 Q308.7656,648.0469 310.3594,648.0469 Q311.2969,648.0469 311.9531,647.7969 Q312.3438,647.6406 312.7656,647.2031 Q313.0313,646.9375 313.1797,646.8594 Q313.3281,646.7813 313.5313,646.7813 Q313.8594,646.7813 314.1172,647.0391 Q314.375,647.2969 314.375,647.6406 Q314.375,647.9844 314.0313,648.3906 Q313.5313,648.9688 312.7344,649.2969 Q311.6563,649.75 310.3594,649.75 Q308.8438,649.75 307.6406,649.125 Q306.6563,648.625 305.9688,647.5547 Q305.2813,646.4844 305.2813,645.2031 L305.2813,644.0469 Q305.2813,642.7188 305.8984,641.5703 Q306.5156,640.4219 307.6094,639.8047 Q308.7031,639.1875 309.9375,639.1875 Q310.6719,639.1875 311.3203,639.3516 Q311.9688,639.5156 312.5156,639.875 Z " fill="#000000"/><text fill="#000000" font-family="sans-serif" font-size="14" lengthAdjust="spacing" textLength="53" x="330.25" y="649.7285">Ejercicio</text><line style="stroke:#181818;stroke-width:0.5;" x1="237" x2="444" y1="660" y2="660"/><rect fill="none" height="6" style="stroke:#C82930;stroke-width:1.0;" width="6" x="244" y="671.3047"/><text fill="#000000" font-family="sans-serif" font-size="14" lengthAdjust="spacing" textLength="91" x="256" y="678.5332">idEjercicio : int</text><rect fill="none" height="6" style="stroke:#C82930;stroke-width:1.0;" width="6" x="244" y="688.9141"/><text fill="#000000" font-family="sans-serif" font-size="14" lengthAdjust="spacing" textLength="97" x="256" y="696.1426">nombre : String</text><rect fill="none" height="6" style="stroke:#C82930;stroke-width:1.0;" width="6" x="244" y="706.5234"/><text fill="#000000" font-family="sans-serif" font-size="14" lengthAdjust="spacing" textLength="183" x="256" y="713.752">musculoEnfocado : Musculos</text><line style="stroke:#181818;stroke-width:0.5;" x1="237" x2="444" y1="720.8281" y2="720.8281"/></g><!--class Serie--><g id="elem_Serie"><rect codeLine="77" fill="#F1F1F1" height="100.8281" id="Serie" rx="2.5" ry="2.5" style="stroke:#181818;stroke-width:0.5;" width="130" x="275.5" y="850.5"/><ellipse cx="319.75" cy="866.5" fill="#ADD1B2" rx="11" ry="11" style="stroke:#181818;stroke-width:1.0;"/><path d="M322.5156,862.375 Q322.6719,862.1563 322.8594,862.0469 Q323.0469,861.9375 323.2656,861.9375 Q323.6406,861.9375 323.875,862.1953 Q324.1094,862.4531 324.1094,863.0625 L324.1094,864.5156 Q324.1094,865.125 323.875,865.3906 Q323.6406,865.6563 323.2656,865.6563 Q322.9219,865.6563 322.7188,865.4531 Q322.5156,865.2656 322.4063,864.75 Q322.3594,864.3906 322.1719,864.2031 Q321.8438,863.8281 321.2344,863.6094 Q320.625,863.3906 320,863.3906 Q319.2344,863.3906 318.6016,863.7188 Q317.9688,864.0469 317.4766,864.7969 Q316.9844,865.5469 316.9844,866.5781 L316.9844,867.6719 Q316.9844,868.9063 317.875,869.7266 Q318.7656,870.5469 320.3594,870.5469 Q321.2969,870.5469 321.9531,870.2969 Q322.3438,870.1406 322.7656,869.7031 Q323.0313,869.4375 323.1797,869.3594 Q323.3281,869.2813 323.5313,869.2813 Q323.8594,869.2813 324.1172,869.5391 Q324.375,869.7969 324.375,870.1406 Q324.375,870.4844 324.0313,870.8906 Q323.5313,871.4688 322.7344,871.7969 Q321.6563,872.25 320.3594,872.25 Q318.8438,872.25 317.6406,871.625 Q316.6563,871.125 315.9688,870.0547 Q315.2813,868.9844 315.2813,867.7031 L315.2813,866.5469 Q315.2813,865.2188 315.8984,864.0703 Q316.5156,862.9219 317.6094,862.3047 Q318.7031,861.6875 319.9375,861.6875 Q320.6719,861.6875 321.3203,861.8516 Q321.9688,862.0156 322.5156,862.375 Z " fill="#000000"/><text fill="#000000" font-family="sans-serif" font-size="14" lengthAdjust="spacing" textLength="33" x="340.25" y="872.2285">Serie</text><line style="stroke:#181818;stroke-width:0.5;" x1="276.5" x2="404.5" y1="882.5" y2="882.5"/><rect fill="none" height="6" style="stroke:#C82930;stroke-width:1.0;" width="6" x="283.5" y="893.8047"/><text fill="#000000" font-family="sans-serif" font-size="14" lengthAdjust="spacing" textLength="71" x="295.5" y="901.0332">idSerie : int</text><rect fill="none" height="6" style="stroke:#C82930;stroke-width:1.0;" width="6" x="283.5" y="911.4141"/><text fill="#000000" font-family="sans-serif" font-size="14" lengthAdjust="spacing" textLength="104" x="295.5" y="918.6426">repeticiones : int</text><rect fill="none" height="6" style="stroke:#C82930;stroke-width:1.0;" width="6" x="283.5" y="929.0234"/><text fill="#000000" font-family="sans-serif" font-size="14" lengthAdjust="spacing" textLength="58" x="295.5" y="936.252">peso : int</text><line style="stroke:#181818;stroke-width:0.5;" x1="276.5" x2="404.5" y1="943.3281" y2="943.3281"/></g><!--link Usuario to Dieta--><g id="link_Usuario_Dieta"><path codeLine="83" d="M177.87,284.33 C170.33,304.46 164.8232,319.1607 157.7232,338.1307 " fill="none" id="Usuario-to-Dieta" style="stroke:#181818;stroke-width:1.0;"/><polygon fill="#181818" points="155.62,343.75,162.521,336.7231,157.3726,339.0672,155.0285,333.9189,155.62,343.75" style="stroke:#181818;stroke-width:1.0;"/><text fill="#000000" font-family="sans-serif" font-size="13" lengthAdjust="spacing" textLength="7" x="168.0274" y="305.4071">1</text><text fill="#000000" font-family="sans-serif" font-size="13" lengthAdjust="spacing" textLength="20" x="137.6218" y="333.0762">0..*</text></g><!--link Usuario to Rutina--><g id="link_Usuario_Rutina"><path codeLine="85" d="M281.6,284.33 C292.93,314.3 302.2985,339.0876 312.0285,364.8276 " fill="none" id="Usuario-to-Rutina" style="stroke:#181818;stroke-width:1.0;"/><polygon fill="#181818" points="314.15,370.44,314.7093,360.607,312.382,365.763,307.2261,363.4358,314.15,370.44" style="stroke:#181818;stroke-width:1.0;"/><text fill="#000000" font-family="sans-serif" font-size="13" lengthAdjust="spacing" textLength="7" x="277.1059" y="305.4071">1</text><text fill="#000000" font-family="sans-serif" font-size="13" lengthAdjust="spacing" textLength="20" x="290.2836" y="359.6327">0..*</text></g><!--link Dieta to Comida--><g id="link_Dieta_Comida"><path codeLine="87" d="M120.5,533.22 C120.5,552.86 120.5,567.47 120.5,586.76 " fill="none" id="Dieta-to-Comida" style="stroke:#181818;stroke-width:1.0;"/><polygon fill="#181818" points="120.5,592.76,124.5,583.76,120.5,587.76,116.5,583.76,120.5,592.76" style="stroke:#181818;stroke-width:1.0;"/><text fill="#000000" font-family="sans-serif" font-size="13" lengthAdjust="spacing" textLength="7" x="113.243" y="554.2761">1</text><text fill="#000000" font-family="sans-serif" font-size="13" lengthAdjust="spacing" textLength="20" x="99.6406" y="582.203">1..*</text></g><!--link Comida to Alimento--><g id="link_Comida_Alimento"><path codeLine="89" d="M120.5,764.12 C120.5,783.8 120.5,798.62 120.5,817.9 " fill="none" id="Comida-to-Alimento" style="stroke:#181818;stroke-width:1.0;"/><polygon fill="#181818" points="120.5,823.9,124.5,814.9,120.5,818.9,116.5,814.9,120.5,823.9" style="stroke:#181818;stroke-width:1.0;"/><text fill="#000000" font-family="sans-serif" font-size="13" lengthAdjust="spacing" textLength="7" x="113.1992" y="785.6643">1</text><text fill="#000000" font-family="sans-serif" font-size="13" lengthAdjust="spacing" textLength="20" x="99.5156" y="813.0523">1..*</text></g><!--link Rutina to Ejercicio--><g id="link_Rutina_Ejercicio"><path codeLine="91" d="M339.78,506.75 C339.94,545.24 340.1144,586.6901 340.2644,621.8001 " fill="none" id="Rutina-to-Ejercicio" style="stroke:#181818;stroke-width:1.0;"/><polygon fill="#181818" points="340.29,627.8,344.2515,618.783,340.2686,622.8,336.2516,618.8172,340.29,627.8" style="stroke:#181818;stroke-width:1.0;"/><text fill="#000000" font-family="sans-serif" font-size="13" lengthAdjust="spacing" textLength="7" x="332.4479" y="528.1241">1</text><text fill="#000000" font-family="sans-serif" font-size="13" lengthAdjust="spacing" textLength="20" x="318.8542" y="617.0772">1..*</text></g><!--link Ejercicio to Serie--><g id="link_Ejercicio_Serie"><path codeLine="93" d="M340.5,729.26 C340.5,765.46 340.5,808.26 340.5,844.42 " fill="none" id="Ejercicio-to-Serie" style="stroke:#181818;stroke-width:1.0;"/><polygon fill="#181818" points="340.5,850.42,344.5,841.42,340.5,845.42,336.5,841.42,340.5,850.42" style="stroke:#181818;stroke-width:1.0;"/><text fill="#000000" font-family="sans-serif" font-size="13" lengthAdjust="spacing" textLength="7" x="333.0516" y="750.3173">1</text><text fill="#000000" font-family="sans-serif" font-size="13" lengthAdjust="spacing" textLength="20" x="319.0938" y="839.7141">1..*</text></g><!--SRC=[lLJ1ZjCm4BtxAwoUW5LNb2C7f3GrsvNIfZJjXTkiCsq7ENPbEnSG_uvJEqsejXn0uXJFcz7pyvkPe6uRlcgTR9LndFzW-LuKHScMvMg-BTb6vCkIpPzpiQdORXk_sNedvjliQyb4jScAHSQo-Q9SFQ-pGbJigTZlH1buiaMg_onMvJOhs9DOYQBax2TZKe5pVEzQi6J2hLDETHzzvAHzGBHfNYo6iFAMz34WS4Qbg3Qpry0FO_20yWHhaDGGQZzm7b6ZDQF2CxekUr06kZmetreO0TW0gJ6pDDfRSAXFCC0FtEAHN4XOXs_UXfWqIG9ReIEZBmX8tuAYxs0tQ0-a0dWrOa7e8TaGp_TDgD59IsSPU7_J1SfO0hSp7XIwqHFErdWa3MDCWdqnIwejU3F6Z-5feyA7ZZQC1kI9VImwDmtLlUeKt9Vz5_fE_wOlKzHScXyLNiF_hF6gPzlwm93KfE0FRGvpc7eSItfnNzema_Lh9jZyfcJiXlY6LeQPxEqOuliQclXV4FfW9DHTPV-d67Whj8I9CvvxFejdzDqD-c9b1DE-TK6Ww5T-CfjmFfr-ufFtZu_l9d4VxgUZUOp5LHcoiqisZY9ZQIHlq_qSC9PwS5jmTOQnmQJReijJsIy0]--></g></svg>