<?xml version="1.0" encoding="us-ascii" standalone="no"?><svg xmlns="http://www.w3.org/2000/svg" xmlns:xlink="http://www.w3.org/1999/xlink" contentStyleType="text/css" height="1198px" preserveAspectRatio="none" style="width:1075px;height:1198px;background:#FFFFFF;" version="1.1" viewBox="0 0 1075 1198" width="1075px" zoomAndPan="magnify"><defs/><g><!--class Musculos--><g id="elem_Musculos"><rect codeLine="6" fill="#F1F1F1" height="259.3125" id="Musculos" rx="2.5" ry="2.5" style="stroke:#181818;stroke-width:0.5;" width="109" x="47" y="7"/><ellipse cx="70.1" cy="23" fill="#EB937F" rx="11" ry="11" style="stroke:#181818;stroke-width:1.0;"/><path d="M68.9594,23.7969 L68.9594,26.2969 L73.2875,26.2969 L73.2875,25.375 Q73.2875,24.7656 73.5219,24.5 Q73.7719,24.2344 74.1469,24.2344 Q74.5219,24.2344 74.7563,24.5 Q74.9906,24.7656 74.9906,25.375 L74.9906,28 L66.9906,28 Q66.3656,28 66.1,27.7656 Q65.85,27.5313 65.85,27.1406 Q65.85,26.7656 66.1156,26.5313 Q66.3813,26.2969 66.9906,26.2969 L67.2563,26.2969 L67.2563,19.6406 L66.9906,19.6406 Q66.3656,19.6406 66.1,19.4063 Q65.85,19.1719 65.85,18.7813 Q65.85,18.4063 66.1,18.1719 Q66.3656,17.9375 66.9906,17.9375 L74.6156,17.9375 L74.6156,20.5313 Q74.6156,21.1406 74.3813,21.4063 Q74.1625,21.6563 73.7719,21.6563 Q73.3969,21.6563 73.1625,21.4063 Q72.9281,21.1406 72.9281,20.5313 L72.9281,19.6406 L68.9594,19.6406 L68.9594,22.0938 L70.4438,22.0938 Q70.4438,21.4375 70.5688,21.25 Q70.8344,20.8438 71.3031,20.8438 Q71.6781,20.8438 71.9125,21.1094 Q72.1469,21.3594 72.1469,21.9688 L72.1469,23.9375 Q72.1469,24.4844 72.0219,24.6719 Q71.7563,25.0625 71.3031,25.0625 Q70.8344,25.0625 70.5688,24.6563 Q70.4438,24.4688 70.4438,23.7969 L68.9594,23.7969 Z " fill="#000000"/><text fill="#000000" font-family="sans-serif" font-size="14" lengthAdjust="spacing" textLength="59" x="85.9" y="28.7285">Musculos</text><line style="stroke:#181818;stroke-width:0.5;" x1="48" x2="155" y1="39" y2="39"/><text fill="#000000" font-family="sans-serif" font-size="14" lengthAdjust="spacing" textLength="55" x="53" y="57.5332">CUELLO</text><text fill="#000000" font-family="sans-serif" font-size="14" lengthAdjust="spacing" textLength="61" x="53" y="75.1426">HOMBRO</text><text fill="#000000" font-family="sans-serif" font-size="14" lengthAdjust="spacing" textLength="48" x="53" y="92.752">PECHO</text><text fill="#000000" font-family="sans-serif" font-size="14" lengthAdjust="spacing" textLength="49" x="53" y="110.3613">BICEPS</text><text fill="#000000" font-family="sans-serif" font-size="14" lengthAdjust="spacing" textLength="59" x="53" y="127.9707">TRICEPS</text><text fill="#000000" font-family="sans-serif" font-size="14" lengthAdjust="spacing" textLength="83" x="53" y="145.5801">ANTEBRAZO</text><text fill="#000000" font-family="sans-serif" font-size="14" lengthAdjust="spacing" textLength="63" x="53" y="163.1895">ESPALDA</text><text fill="#000000" font-family="sans-serif" font-size="14" lengthAdjust="spacing" textLength="97" x="53" y="180.7988">ABDOMINALES</text><text fill="#000000" font-family="sans-serif" font-size="14" lengthAdjust="spacing" textLength="57" x="53" y="198.4082">GLUTEO</text><text fill="#000000" font-family="sans-serif" font-size="14" lengthAdjust="spacing" textLength="88" x="53" y="216.0176">CUADRICEPS</text><text fill="#000000" font-family="sans-serif" font-size="14" lengthAdjust="spacing" textLength="67" x="53" y="233.627">FEMORAL</text><text fill="#000000" font-family="sans-serif" font-size="14" lengthAdjust="spacing" textLength="59" x="53" y="251.2363">GEMELO</text><line style="stroke:#181818;stroke-width:0.5;" x1="48" x2="155" y1="258.3125" y2="258.3125"/></g><!--class DiaDeLaSemana--><g id="elem_DiaDeLaSemana"><rect codeLine="21" fill="#F1F1F1" height="171.2656" id="DiaDeLaSemana" rx="2.5" ry="2.5" style="stroke:#181818;stroke-width:0.5;" width="139" x="191" y="51"/><ellipse cx="206" cy="67" fill="#EB937F" rx="11" ry="11" style="stroke:#181818;stroke-width:1.0;"/><path d="M204.8594,67.7969 L204.8594,70.2969 L209.1875,70.2969 L209.1875,69.375 Q209.1875,68.7656 209.4219,68.5 Q209.6719,68.2344 210.0469,68.2344 Q210.4219,68.2344 210.6563,68.5 Q210.8906,68.7656 210.8906,69.375 L210.8906,72 L202.8906,72 Q202.2656,72 202,71.7656 Q201.75,71.5313 201.75,71.1406 Q201.75,70.7656 202.0156,70.5313 Q202.2813,70.2969 202.8906,70.2969 L203.1563,70.2969 L203.1563,63.6406 L202.8906,63.6406 Q202.2656,63.6406 202,63.4063 Q201.75,63.1719 201.75,62.7813 Q201.75,62.4063 202,62.1719 Q202.2656,61.9375 202.8906,61.9375 L210.5156,61.9375 L210.5156,64.5313 Q210.5156,65.1406 210.2813,65.4063 Q210.0625,65.6563 209.6719,65.6563 Q209.2969,65.6563 209.0625,65.4063 Q208.8281,65.1406 208.8281,64.5313 L208.8281,63.6406 L204.8594,63.6406 L204.8594,66.0938 L206.3438,66.0938 Q206.3438,65.4375 206.4688,65.25 Q206.7344,64.8438 207.2031,64.8438 Q207.5781,64.8438 207.8125,65.1094 Q208.0469,65.3594 208.0469,65.9688 L208.0469,67.9375 Q208.0469,68.4844 207.9219,68.6719 Q207.6563,69.0625 207.2031,69.0625 Q206.7344,69.0625 206.4688,68.6563 Q206.3438,68.4688 206.3438,67.7969 L204.8594,67.7969 Z " fill="#000000"/><text fill="#000000" font-family="sans-serif" font-size="14" lengthAdjust="spacing" textLength="107" x="220" y="72.7285">DiaDeLaSemana</text><line style="stroke:#181818;stroke-width:0.5;" x1="192" x2="329" y1="83" y2="83"/><text fill="#000000" font-family="sans-serif" font-size="14" lengthAdjust="spacing" textLength="44" x="197" y="101.5332">LUNES</text><text fill="#000000" font-family="sans-serif" font-size="14" lengthAdjust="spacing" textLength="57" x="197" y="119.1426">MARTES</text><text fill="#000000" font-family="sans-serif" font-size="14" lengthAdjust="spacing" textLength="80" x="197" y="136.752">MIERCOLES</text><text fill="#000000" font-family="sans-serif" font-size="14" lengthAdjust="spacing" textLength="51" x="197" y="154.3613">JUEVES</text><text fill="#000000" font-family="sans-serif" font-size="14" lengthAdjust="spacing" textLength="58" x="197" y="171.9707">VIERNES</text><text fill="#000000" font-family="sans-serif" font-size="14" lengthAdjust="spacing" textLength="57" x="197" y="189.5801">SABADO</text><text fill="#000000" font-family="sans-serif" font-size="14" lengthAdjust="spacing" textLength="66" x="197" y="207.1895">DOMINGO</text><line style="stroke:#181818;stroke-width:0.5;" x1="192" x2="329" y1="214.2656" y2="214.2656"/></g><!--class Generos--><g id="elem_Generos"><rect codeLine="31" fill="#F1F1F1" height="100.8281" id="Generos" rx="2.5" ry="2.5" style="stroke:#181818;stroke-width:0.5;" width="87" x="365" y="86"/><ellipse cx="380" cy="102" fill="#EB937F" rx="11" ry="11" style="stroke:#181818;stroke-width:1.0;"/><path d="M378.8594,102.7969 L378.8594,105.2969 L383.1875,105.2969 L383.1875,104.375 Q383.1875,103.7656 383.4219,103.5 Q383.6719,103.2344 384.0469,103.2344 Q384.4219,103.2344 384.6563,103.5 Q384.8906,103.7656 384.8906,104.375 L384.8906,107 L376.8906,107 Q376.2656,107 376,106.7656 Q375.75,106.5313 375.75,106.1406 Q375.75,105.7656 376.0156,105.5313 Q376.2813,105.2969 376.8906,105.2969 L377.1563,105.2969 L377.1563,98.6406 L376.8906,98.6406 Q376.2656,98.6406 376,98.4063 Q375.75,98.1719 375.75,97.7813 Q375.75,97.4063 376,97.1719 Q376.2656,96.9375 376.8906,96.9375 L384.5156,96.9375 L384.5156,99.5313 Q384.5156,100.1406 384.2813,100.4063 Q384.0625,100.6563 383.6719,100.6563 Q383.2969,100.6563 383.0625,100.4063 Q382.8281,100.1406 382.8281,99.5313 L382.8281,98.6406 L378.8594,98.6406 L378.8594,101.0938 L380.3438,101.0938 Q380.3438,100.4375 380.4688,100.25 Q380.7344,99.8438 381.2031,99.8438 Q381.5781,99.8438 381.8125,100.1094 Q382.0469,100.3594 382.0469,100.9688 L382.0469,102.9375 Q382.0469,103.4844 381.9219,103.6719 Q381.6563,104.0625 381.2031,104.0625 Q380.7344,104.0625 380.4688,103.6563 Q380.3438,103.4688 380.3438,102.7969 L378.8594,102.7969 Z " fill="#000000"/><text fill="#000000" font-family="sans-serif" font-size="14" lengthAdjust="spacing" textLength="55" x="394" y="107.7285">Generos</text><line style="stroke:#181818;stroke-width:0.5;" x1="366" x2="451" y1="118" y2="118"/><text fill="#000000" font-family="sans-serif" font-size="14" lengthAdjust="spacing" textLength="59" x="371" y="136.5332">HOMBRE</text><text fill="#000000" font-family="sans-serif" font-size="14" lengthAdjust="spacing" textLength="45" x="371" y="154.1426">MUJER</text><text fill="#000000" font-family="sans-serif" font-size="14" lengthAdjust="spacing" textLength="41" x="371" y="171.752">OTRO</text><line style="stroke:#181818;stroke-width:0.5;" x1="366" x2="451" y1="178.8281" y2="178.8281"/></g><!--class Objetivos--><g id="elem_Objetivos"><rect codeLine="37" fill="#F1F1F1" height="100.8281" id="Objetivos" rx="2.5" ry="2.5" style="stroke:#181818;stroke-width:0.5;" width="189" x="7" y="370"/><ellipse cx="67.75" cy="386" fill="#EB937F" rx="11" ry="11" style="stroke:#181818;stroke-width:1.0;"/><path d="M66.6094,386.7969 L66.6094,389.2969 L70.9375,389.2969 L70.9375,388.375 Q70.9375,387.7656 71.1719,387.5 Q71.4219,387.2344 71.7969,387.2344 Q72.1719,387.2344 72.4063,387.5 Q72.6406,387.7656 72.6406,388.375 L72.6406,391 L64.6406,391 Q64.0156,391 63.75,390.7656 Q63.5,390.5313 63.5,390.1406 Q63.5,389.7656 63.7656,389.5313 Q64.0313,389.2969 64.6406,389.2969 L64.9063,389.2969 L64.9063,382.6406 L64.6406,382.6406 Q64.0156,382.6406 63.75,382.4063 Q63.5,382.1719 63.5,381.7813 Q63.5,381.4063 63.75,381.1719 Q64.0156,380.9375 64.6406,380.9375 L72.2656,380.9375 L72.2656,383.5313 Q72.2656,384.1406 72.0313,384.4063 Q71.8125,384.6563 71.4219,384.6563 Q71.0469,384.6563 70.8125,384.4063 Q70.5781,384.1406 70.5781,383.5313 L70.5781,382.6406 L66.6094,382.6406 L66.6094,385.0938 L68.0938,385.0938 Q68.0938,384.4375 68.2188,384.25 Q68.4844,383.8438 68.9531,383.8438 Q69.3281,383.8438 69.5625,384.1094 Q69.7969,384.3594 69.7969,384.9688 L69.7969,386.9375 Q69.7969,387.4844 69.6719,387.6719 Q69.4063,388.0625 68.9531,388.0625 Q68.4844,388.0625 68.2188,387.6563 Q68.0938,387.4688 68.0938,386.7969 L66.6094,386.7969 Z " fill="#000000"/><text fill="#000000" font-family="sans-serif" font-size="14" lengthAdjust="spacing" textLength="59" x="88.25" y="391.7285">Objetivos</text><line style="stroke:#181818;stroke-width:0.5;" x1="8" x2="195" y1="402" y2="402"/><text fill="#000000" font-family="sans-serif" font-size="14" lengthAdjust="spacing" textLength="113" x="13" y="420.5332">PERDER_GRASA</text><text fill="#000000" font-family="sans-serif" font-size="14" lengthAdjust="spacing" textLength="177" x="13" y="438.1426">GANAR_MASA_MUSCULAR</text><text fill="#000000" font-family="sans-serif" font-size="14" lengthAdjust="spacing" textLength="121" x="13" y="455.752">MANTENER_PESO</text><line style="stroke:#181818;stroke-width:0.5;" x1="8" x2="195" y1="462.8281" y2="462.8281"/></g><!--class NivelDeActividad--><g id="elem_NivelDeActividad"><rect codeLine="43" fill="#F1F1F1" height="136.0469" id="NivelDeActividad" rx="2.5" ry="2.5" style="stroke:#181818;stroke-width:0.5;" width="172" x="231.5" y="352.5"/><ellipse cx="262.25" cy="368.5" fill="#EB937F" rx="11" ry="11" style="stroke:#181818;stroke-width:1.0;"/><path d="M261.1094,369.2969 L261.1094,371.7969 L265.4375,371.7969 L265.4375,370.875 Q265.4375,370.2656 265.6719,370 Q265.9219,369.7344 266.2969,369.7344 Q266.6719,369.7344 266.9063,370 Q267.1406,370.2656 267.1406,370.875 L267.1406,373.5 L259.1406,373.5 Q258.5156,373.5 258.25,373.2656 Q258,373.0313 258,372.6406 Q258,372.2656 258.2656,372.0313 Q258.5313,371.7969 259.1406,371.7969 L259.4063,371.7969 L259.4063,365.1406 L259.1406,365.1406 Q258.5156,365.1406 258.25,364.9063 Q258,364.6719 258,364.2813 Q258,363.9063 258.25,363.6719 Q258.5156,363.4375 259.1406,363.4375 L266.7656,363.4375 L266.7656,366.0313 Q266.7656,366.6406 266.5313,366.9063 Q266.3125,367.1563 265.9219,367.1563 Q265.5469,367.1563 265.3125,366.9063 Q265.0781,366.6406 265.0781,366.0313 L265.0781,365.1406 L261.1094,365.1406 L261.1094,367.5938 L262.5938,367.5938 Q262.5938,366.9375 262.7188,366.75 Q262.9844,366.3438 263.4531,366.3438 Q263.8281,366.3438 264.0625,366.6094 Q264.2969,366.8594 264.2969,367.4688 L264.2969,369.4375 Q264.2969,369.9844 264.1719,370.1719 Q263.9063,370.5625 263.4531,370.5625 Q262.9844,370.5625 262.7188,370.1563 Q262.5938,369.9688 262.5938,369.2969 L261.1094,369.2969 Z " fill="#000000"/><text fill="#000000" font-family="sans-serif" font-size="14" lengthAdjust="spacing" textLength="105" x="279.75" y="374.2285">NivelDeActividad</text><line style="stroke:#181818;stroke-width:0.5;" x1="232.5" x2="402.5" y1="384.5" y2="384.5"/><text fill="#000000" font-family="sans-serif" font-size="14" lengthAdjust="spacing" textLength="88" x="237.5" y="403.0332">SEDENTARIO</text><text fill="#000000" font-family="sans-serif" font-size="14" lengthAdjust="spacing" textLength="131" x="237.5" y="420.6426">EJERCICIO_LIGERO</text><text fill="#000000" font-family="sans-serif" font-size="14" lengthAdjust="spacing" textLength="160" x="237.5" y="438.252">EJERCICIO_MODERADO</text><text fill="#000000" font-family="sans-serif" font-size="14" lengthAdjust="spacing" textLength="138" x="237.5" y="455.8613">EJERCICIO_INTENSO</text><text fill="#000000" font-family="sans-serif" font-size="14" lengthAdjust="spacing" textLength="53" x="237.5" y="473.4707">ATLETA</text><line style="stroke:#181818;stroke-width:0.5;" x1="232.5" x2="402.5" y1="480.5469" y2="480.5469"/></g><!--class Usuario--><g id="elem_Usuario"><rect codeLine="55" fill="#F1F1F1" height="241.7031" id="Usuario" rx="2.5" ry="2.5" style="stroke:#181818;stroke-width:0.5;" width="206" x="635.5" y="15.5"/><ellipse cx="710.25" cy="31.5" fill="#ADD1B2" rx="11" ry="11" style="stroke:#181818;stroke-width:1.0;"/><path d="M713.0156,27.375 Q713.1719,27.1563 713.3594,27.0469 Q713.5469,26.9375 713.7656,26.9375 Q714.1406,26.9375 714.375,27.2031 Q714.6094,27.4531 714.6094,28.0625 L714.6094,29.5156 Q714.6094,30.125 714.375,30.3906 Q714.1406,30.6563 713.7656,30.6563 Q713.4219,30.6563 713.2188,30.4531 Q713.0156,30.2656 712.9063,29.75 Q712.8594,29.3906 712.6719,29.2031 Q712.3438,28.8281 711.7344,28.6094 Q711.125,28.3906 710.5,28.3906 Q709.7344,28.3906 709.0938,28.7188 Q708.4688,29.0469 707.9688,29.7969 Q707.4844,30.5469 707.4844,31.5781 L707.4844,32.6719 Q707.4844,33.9063 708.375,34.7344 Q709.2656,35.5469 710.8594,35.5469 Q711.7969,35.5469 712.4531,35.2969 Q712.8438,35.1406 713.2656,34.7031 Q713.5313,34.4375 713.6719,34.3594 Q713.8281,34.2813 714.0313,34.2813 Q714.3594,34.2813 714.6094,34.5469 Q714.875,34.7969 714.875,35.1406 Q714.875,35.4844 714.5313,35.8906 Q714.0313,36.4688 713.2344,36.7969 Q712.1563,37.25 710.8594,37.25 Q709.3438,37.25 708.1406,36.625 Q707.1563,36.125 706.4688,35.0625 Q705.7813,33.9844 705.7813,32.7031 L705.7813,31.5469 Q705.7813,30.2188 706.3906,29.0781 Q707.0156,27.9219 708.1094,27.3125 Q709.2031,26.6875 710.4375,26.6875 Q711.1719,26.6875 711.8125,26.8594 Q712.4688,27.0156 713.0156,27.375 Z " fill="#000000"/><text fill="#000000" font-family="sans-serif" font-size="14" lengthAdjust="spacing" textLength="48" x="730.75" y="37.2285">Usuario</text><line style="stroke:#181818;stroke-width:0.5;" x1="636.5" x2="840.5" y1="47.5" y2="47.5"/><rect fill="none" height="6" style="stroke:#C82930;stroke-width:1.0;" width="6" x="643.5" y="58.8047"/><text fill="#000000" font-family="sans-serif" font-size="14" lengthAdjust="spacing" textLength="103" x="655.5" y="66.0332">idUsuario : Long</text><rect fill="none" height="6" style="stroke:#C82930;stroke-width:1.0;" width="6" x="643.5" y="76.4141"/><text fill="#000000" font-family="sans-serif" font-size="14" lengthAdjust="spacing" textLength="97" x="655.5" y="83.6426">nombre : String</text><rect fill="none" height="6" style="stroke:#C82930;stroke-width:1.0;" width="6" x="643.5" y="94.0234"/><text fill="#000000" font-family="sans-serif" font-size="14" lengthAdjust="spacing" textLength="106" x="655.5" y="101.252">apellido1 : String</text><rect fill="none" height="6" style="stroke:#C82930;stroke-width:1.0;" width="6" x="643.5" y="111.6328"/><text fill="#000000" font-family="sans-serif" font-size="14" lengthAdjust="spacing" textLength="106" x="655.5" y="118.8613">apellido2 : String</text><rect fill="none" height="6" style="stroke:#C82930;stroke-width:1.0;" width="6" x="643.5" y="129.2422"/><text fill="#000000" font-family="sans-serif" font-size="14" lengthAdjust="spacing" textLength="180" x="655.5" y="136.4707">fechaNacimiento : LocalDate</text><rect fill="none" height="6" style="stroke:#C82930;stroke-width:1.0;" width="6" x="643.5" y="146.8516"/><text fill="#000000" font-family="sans-serif" font-size="14" lengthAdjust="spacing" textLength="108" x="655.5" y="154.0801">genero: Generos</text><rect fill="none" height="6" style="stroke:#C82930;stroke-width:1.0;" width="6" x="643.5" y="164.4609"/><text fill="#000000" font-family="sans-serif" font-size="14" lengthAdjust="spacing" textLength="70" x="655.5" y="171.6895">peso : float</text><rect fill="none" height="6" style="stroke:#C82930;stroke-width:1.0;" width="6" x="643.5" y="182.0703"/><text fill="#000000" font-family="sans-serif" font-size="14" lengthAdjust="spacing" textLength="75" x="655.5" y="189.2988">altura : float</text><rect fill="none" height="6" style="stroke:#C82930;stroke-width:1.0;" width="6" x="643.5" y="199.6797"/><text fill="#000000" font-family="sans-serif" font-size="14" lengthAdjust="spacing" textLength="82" x="655.5" y="206.9082">email : String</text><rect fill="none" height="6" style="stroke:#C82930;stroke-width:1.0;" width="6" x="643.5" y="217.2891"/><text fill="#000000" font-family="sans-serif" font-size="14" lengthAdjust="spacing" textLength="100" x="655.5" y="224.5176">telefono : String</text><rect fill="none" height="6" style="stroke:#C82930;stroke-width:1.0;" width="6" x="643.5" y="234.8984"/><text fill="#000000" font-family="sans-serif" font-size="14" lengthAdjust="spacing" textLength="128" x="655.5" y="242.127">contrasenha : String</text><line style="stroke:#181818;stroke-width:0.5;" x1="636.5" x2="840.5" y1="249.2031" y2="249.2031"/></g><!--class DietaCompleta--><g id="elem_DietaCompleta"><rect codeLine="69" fill="#F1F1F1" height="188.875" id="DietaCompleta" rx="2.5" ry="2.5" style="stroke:#181818;stroke-width:0.5;" width="161" x="439" y="326"/><ellipse cx="470.2" cy="342" fill="#ADD1B2" rx="11" ry="11" style="stroke:#181818;stroke-width:1.0;"/><path d="M472.9656,337.875 Q473.1219,337.6563 473.3094,337.5469 Q473.4969,337.4375 473.7156,337.4375 Q474.0906,337.4375 474.325,337.7031 Q474.5594,337.9531 474.5594,338.5625 L474.5594,340.0156 Q474.5594,340.625 474.325,340.8906 Q474.0906,341.1563 473.7156,341.1563 Q473.3719,341.1563 473.1688,340.9531 Q472.9656,340.7656 472.8563,340.25 Q472.8094,339.8906 472.6219,339.7031 Q472.2938,339.3281 471.6844,339.1094 Q471.075,338.8906 470.45,338.8906 Q469.6844,338.8906 469.0438,339.2188 Q468.4188,339.5469 467.9188,340.2969 Q467.4344,341.0469 467.4344,342.0781 L467.4344,343.1719 Q467.4344,344.4063 468.325,345.2344 Q469.2156,346.0469 470.8094,346.0469 Q471.7469,346.0469 472.4031,345.7969 Q472.7938,345.6406 473.2156,345.2031 Q473.4813,344.9375 473.6219,344.8594 Q473.7781,344.7813 473.9813,344.7813 Q474.3094,344.7813 474.5594,345.0469 Q474.825,345.2969 474.825,345.6406 Q474.825,345.9844 474.4813,346.3906 Q473.9813,346.9688 473.1844,347.2969 Q472.1063,347.75 470.8094,347.75 Q469.2938,347.75 468.0906,347.125 Q467.1063,346.625 466.4188,345.5625 Q465.7313,344.4844 465.7313,343.2031 L465.7313,342.0469 Q465.7313,340.7188 466.3406,339.5781 Q466.9656,338.4219 468.0594,337.8125 Q469.1531,337.1875 470.3875,337.1875 Q471.1219,337.1875 471.7625,337.3594 Q472.4188,337.5156 472.9656,337.875 Z " fill="#000000"/><text fill="#000000" font-family="sans-serif" font-size="14" lengthAdjust="spacing" textLength="93" x="487.8" y="347.7285">DietaCompleta</text><line style="stroke:#181818;stroke-width:0.5;" x1="440" x2="599" y1="358" y2="358"/><rect fill="none" height="6" style="stroke:#C82930;stroke-width:1.0;" width="6" x="447" y="369.3047"/><text fill="#000000" font-family="sans-serif" font-size="14" lengthAdjust="spacing" textLength="88" x="459" y="376.5332">idDieta : Long</text><rect fill="none" height="6" style="stroke:#C82930;stroke-width:1.0;" width="6" x="447" y="386.9141"/><text fill="#000000" font-family="sans-serif" font-size="14" lengthAdjust="spacing" textLength="97" x="459" y="394.1426">nombre : String</text><rect fill="none" height="6" style="stroke:#C82930;stroke-width:1.0;" width="6" x="447" y="404.5234"/><text fill="#000000" font-family="sans-serif" font-size="14" lengthAdjust="spacing" textLength="121" x="459" y="411.752">descripcion : String</text><rect fill="none" height="6" style="stroke:#C82930;stroke-width:1.0;" width="6" x="447" y="422.1328"/><text fill="#000000" font-family="sans-serif" font-size="14" lengthAdjust="spacing" textLength="135" x="459" y="429.3613">caloriasTotales : float</text><rect fill="none" height="6" style="stroke:#C82930;stroke-width:1.0;" width="6" x="447" y="439.7422"/><text fill="#000000" font-family="sans-serif" font-size="14" lengthAdjust="spacing" textLength="98" x="459" y="446.9707">proteinas : float</text><rect fill="none" height="6" style="stroke:#C82930;stroke-width:1.0;" width="6" x="447" y="457.3516"/><text fill="#000000" font-family="sans-serif" font-size="14" lengthAdjust="spacing" textLength="126" x="459" y="464.5801">carbohidratos : float</text><rect fill="none" height="6" style="stroke:#C82930;stroke-width:1.0;" width="6" x="447" y="474.9609"/><text fill="#000000" font-family="sans-serif" font-size="14" lengthAdjust="spacing" textLength="82" x="459" y="482.1895">grasas : float</text><rect fill="none" height="6" style="stroke:#C82930;stroke-width:1.0;" width="6" x="447" y="492.5703"/><text fill="#000000" font-family="sans-serif" font-size="14" lengthAdjust="spacing" textLength="100" x="459" y="499.7988">activa : boolean</text><line style="stroke:#181818;stroke-width:0.5;" x1="440" x2="599" y1="506.875" y2="506.875"/></g><!--class DiaEnDieta--><g id="elem_DiaEnDieta"><rect codeLine="80" fill="#F1F1F1" height="171.2656" id="DiaEnDieta" rx="2.5" ry="2.5" style="stroke:#181818;stroke-width:0.5;" width="250" x="394.5" y="575"/><ellipse cx="479.75" cy="591" fill="#ADD1B2" rx="11" ry="11" style="stroke:#181818;stroke-width:1.0;"/><path d="M482.5156,586.875 Q482.6719,586.6563 482.8594,586.5469 Q483.0469,586.4375 483.2656,586.4375 Q483.6406,586.4375 483.875,586.7031 Q484.1094,586.9531 484.1094,587.5625 L484.1094,589.0156 Q484.1094,589.625 483.875,589.8906 Q483.6406,590.1563 483.2656,590.1563 Q482.9219,590.1563 482.7188,589.9531 Q482.5156,589.7656 482.4063,589.25 Q482.3594,588.8906 482.1719,588.7031 Q481.8438,588.3281 481.2344,588.1094 Q480.625,587.8906 480,587.8906 Q479.2344,587.8906 478.5938,588.2188 Q477.9688,588.5469 477.4688,589.2969 Q476.9844,590.0469 476.9844,591.0781 L476.9844,592.1719 Q476.9844,593.4063 477.875,594.2344 Q478.7656,595.0469 480.3594,595.0469 Q481.2969,595.0469 481.9531,594.7969 Q482.3438,594.6406 482.7656,594.2031 Q483.0313,593.9375 483.1719,593.8594 Q483.3281,593.7813 483.5313,593.7813 Q483.8594,593.7813 484.1094,594.0469 Q484.375,594.2969 484.375,594.6406 Q484.375,594.9844 484.0313,595.3906 Q483.5313,595.9688 482.7344,596.2969 Q481.6563,596.75 480.3594,596.75 Q478.8438,596.75 477.6406,596.125 Q476.6563,595.625 475.9688,594.5625 Q475.2813,593.4844 475.2813,592.2031 L475.2813,591.0469 Q475.2813,589.7188 475.8906,588.5781 Q476.5156,587.4219 477.6094,586.8125 Q478.7031,586.1875 479.9375,586.1875 Q480.6719,586.1875 481.3125,586.3594 Q481.9688,586.5156 482.5156,586.875 Z " fill="#000000"/><text fill="#000000" font-family="sans-serif" font-size="14" lengthAdjust="spacing" textLength="71" x="500.25" y="596.7285">DiaEnDieta</text><line style="stroke:#181818;stroke-width:0.5;" x1="395.5" x2="643.5" y1="607" y2="607"/><rect fill="none" height="6" style="stroke:#C82930;stroke-width:1.0;" width="6" x="402.5" y="618.3047"/><text fill="#000000" font-family="sans-serif" font-size="14" lengthAdjust="spacing" textLength="126" x="414.5" y="625.5332">idDiaEnDieta : Long</text><rect fill="none" height="6" style="stroke:#C82930;stroke-width:1.0;" width="6" x="402.5" y="635.9141"/><text fill="#000000" font-family="sans-serif" font-size="14" lengthAdjust="spacing" textLength="97" x="414.5" y="643.1426">nombre : String</text><rect fill="none" height="6" style="stroke:#C82930;stroke-width:1.0;" width="6" x="402.5" y="653.5234"/><text fill="#000000" font-family="sans-serif" font-size="14" lengthAdjust="spacing" textLength="135" x="414.5" y="660.752">caloriasTotales : float</text><rect fill="none" height="6" style="stroke:#C82930;stroke-width:1.0;" width="6" x="402.5" y="671.1328"/><text fill="#000000" font-family="sans-serif" font-size="14" lengthAdjust="spacing" textLength="98" x="414.5" y="678.3613">proteinas : float</text><rect fill="none" height="6" style="stroke:#C82930;stroke-width:1.0;" width="6" x="402.5" y="688.7422"/><text fill="#000000" font-family="sans-serif" font-size="14" lengthAdjust="spacing" textLength="126" x="414.5" y="695.9707">carbohidratos : float</text><rect fill="none" height="6" style="stroke:#C82930;stroke-width:1.0;" width="6" x="402.5" y="706.3516"/><text fill="#000000" font-family="sans-serif" font-size="14" lengthAdjust="spacing" textLength="82" x="414.5" y="713.5801">grasas : float</text><rect fill="none" height="6" style="stroke:#C82930;stroke-width:1.0;" width="6" x="402.5" y="723.9609"/><text fill="#000000" font-family="sans-serif" font-size="14" lengthAdjust="spacing" textLength="224" x="414.5" y="731.1895">diaDeLaSemana : DiaDeLaSemana</text><line style="stroke:#181818;stroke-width:0.5;" x1="395.5" x2="643.5" y1="738.2656" y2="738.2656"/></g><!--class Comida--><g id="elem_Comida"><rect codeLine="91" fill="#F1F1F1" height="153.6563" id="Comida" rx="2.5" ry="2.5" style="stroke:#181818;stroke-width:0.5;" width="161" x="439" y="806"/><ellipse cx="491.25" cy="822" fill="#ADD1B2" rx="11" ry="11" style="stroke:#181818;stroke-width:1.0;"/><path d="M494.0156,817.875 Q494.1719,817.6563 494.3594,817.5469 Q494.5469,817.4375 494.7656,817.4375 Q495.1406,817.4375 495.375,817.7031 Q495.6094,817.9531 495.6094,818.5625 L495.6094,820.0156 Q495.6094,820.625 495.375,820.8906 Q495.1406,821.1563 494.7656,821.1563 Q494.4219,821.1563 494.2188,820.9531 Q494.0156,820.7656 493.9063,820.25 Q493.8594,819.8906 493.6719,819.7031 Q493.3438,819.3281 492.7344,819.1094 Q492.125,818.8906 491.5,818.8906 Q490.7344,818.8906 490.0938,819.2188 Q489.4688,819.5469 488.9688,820.2969 Q488.4844,821.0469 488.4844,822.0781 L488.4844,823.1719 Q488.4844,824.4063 489.375,825.2344 Q490.2656,826.0469 491.8594,826.0469 Q492.7969,826.0469 493.4531,825.7969 Q493.8438,825.6406 494.2656,825.2031 Q494.5313,824.9375 494.6719,824.8594 Q494.8281,824.7813 495.0313,824.7813 Q495.3594,824.7813 495.6094,825.0469 Q495.875,825.2969 495.875,825.6406 Q495.875,825.9844 495.5313,826.3906 Q495.0313,826.9688 494.2344,827.2969 Q493.1563,827.75 491.8594,827.75 Q490.3438,827.75 489.1406,827.125 Q488.1563,826.625 487.4688,825.5625 Q486.7813,824.4844 486.7813,823.2031 L486.7813,822.0469 Q486.7813,820.7188 487.3906,819.5781 Q488.0156,818.4219 489.1094,817.8125 Q490.2031,817.1875 491.4375,817.1875 Q492.1719,817.1875 492.8125,817.3594 Q493.4688,817.5156 494.0156,817.875 Z " fill="#000000"/><text fill="#000000" font-family="sans-serif" font-size="14" lengthAdjust="spacing" textLength="48" x="511.75" y="827.7285">Comida</text><line style="stroke:#181818;stroke-width:0.5;" x1="440" x2="599" y1="838" y2="838"/><rect fill="none" height="6" style="stroke:#C82930;stroke-width:1.0;" width="6" x="447" y="849.3047"/><text fill="#000000" font-family="sans-serif" font-size="14" lengthAdjust="spacing" textLength="103" x="459" y="856.5332">idComida : Long</text><rect fill="none" height="6" style="stroke:#C82930;stroke-width:1.0;" width="6" x="447" y="866.9141"/><text fill="#000000" font-family="sans-serif" font-size="14" lengthAdjust="spacing" textLength="97" x="459" y="874.1426">nombre : String</text><rect fill="none" height="6" style="stroke:#C82930;stroke-width:1.0;" width="6" x="447" y="884.5234"/><text fill="#000000" font-family="sans-serif" font-size="14" lengthAdjust="spacing" textLength="135" x="459" y="891.752">caloriasTotales : float</text><rect fill="none" height="6" style="stroke:#C82930;stroke-width:1.0;" width="6" x="447" y="902.1328"/><text fill="#000000" font-family="sans-serif" font-size="14" lengthAdjust="spacing" textLength="98" x="459" y="909.3613">proteinas : float</text><rect fill="none" height="6" style="stroke:#C82930;stroke-width:1.0;" width="6" x="447" y="919.7422"/><text fill="#000000" font-family="sans-serif" font-size="14" lengthAdjust="spacing" textLength="126" x="459" y="926.9707">carbohidratos : float</text><rect fill="none" height="6" style="stroke:#C82930;stroke-width:1.0;" width="6" x="447" y="937.3516"/><text fill="#000000" font-family="sans-serif" font-size="14" lengthAdjust="spacing" textLength="82" x="459" y="944.5801">grasas : float</text><line style="stroke:#181818;stroke-width:0.5;" x1="440" x2="599" y1="951.6563" y2="951.6563"/></g><!--class Ingrediente--><g id="elem_Ingrediente"><rect codeLine="100" fill="#F1F1F1" height="171.2656" id="Ingrediente" rx="2.5" ry="2.5" style="stroke:#181818;stroke-width:0.5;" width="169" x="435" y="1020"/><ellipse cx="479.75" cy="1036" fill="#ADD1B2" rx="11" ry="11" style="stroke:#181818;stroke-width:1.0;"/><path d="M482.5156,1031.875 Q482.6719,1031.6563 482.8594,1031.5469 Q483.0469,1031.4375 483.2656,1031.4375 Q483.6406,1031.4375 483.875,1031.7031 Q484.1094,1031.9531 484.1094,1032.5625 L484.1094,1034.0156 Q484.1094,1034.625 483.875,1034.8906 Q483.6406,1035.1563 483.2656,1035.1563 Q482.9219,1035.1563 482.7188,1034.9531 Q482.5156,1034.7656 482.4063,1034.25 Q482.3594,1033.8906 482.1719,1033.7031 Q481.8438,1033.3281 481.2344,1033.1094 Q480.625,1032.8906 480,1032.8906 Q479.2344,1032.8906 478.5938,1033.2188 Q477.9688,1033.5469 477.4688,1034.2969 Q476.9844,1035.0469 476.9844,1036.0781 L476.9844,1037.1719 Q476.9844,1038.4063 477.875,1039.2344 Q478.7656,1040.0469 480.3594,1040.0469 Q481.2969,1040.0469 481.9531,1039.7969 Q482.3438,1039.6406 482.7656,1039.2031 Q483.0313,1038.9375 483.1719,1038.8594 Q483.3281,1038.7813 483.5313,1038.7813 Q483.8594,1038.7813 484.1094,1039.0469 Q484.375,1039.2969 484.375,1039.6406 Q484.375,1039.9844 484.0313,1040.3906 Q483.5313,1040.9688 482.7344,1041.2969 Q481.6563,1041.75 480.3594,1041.75 Q478.8438,1041.75 477.6406,1041.125 Q476.6563,1040.625 475.9688,1039.5625 Q475.2813,1038.4844 475.2813,1037.2031 L475.2813,1036.0469 Q475.2813,1034.7188 475.8906,1033.5781 Q476.5156,1032.4219 477.6094,1031.8125 Q478.7031,1031.1875 479.9375,1031.1875 Q480.6719,1031.1875 481.3125,1031.3594 Q481.9688,1031.5156 482.5156,1031.875 Z " fill="#000000"/><text fill="#000000" font-family="sans-serif" font-size="14" lengthAdjust="spacing" textLength="71" x="500.25" y="1041.7285">Ingrediente</text><line style="stroke:#181818;stroke-width:0.5;" x1="436" x2="603" y1="1052" y2="1052"/><rect fill="none" height="6" style="stroke:#C82930;stroke-width:1.0;" width="6" x="443" y="1063.3047"/><text fill="#000000" font-family="sans-serif" font-size="14" lengthAdjust="spacing" textLength="126" x="455" y="1070.5332">idIngrediente : Long</text><rect fill="none" height="6" style="stroke:#C82930;stroke-width:1.0;" width="6" x="443" y="1080.9141"/><text fill="#000000" font-family="sans-serif" font-size="14" lengthAdjust="spacing" textLength="97" x="455" y="1088.1426">nombre : String</text><rect fill="none" height="6" style="stroke:#C82930;stroke-width:1.0;" width="6" x="443" y="1098.5234"/><text fill="#000000" font-family="sans-serif" font-size="14" lengthAdjust="spacing" textLength="143" x="455" y="1105.752">cantidadGramos : float</text><rect fill="none" height="6" style="stroke:#C82930;stroke-width:1.0;" width="6" x="443" y="1116.1328"/><text fill="#000000" font-family="sans-serif" font-size="14" lengthAdjust="spacing" textLength="88" x="455" y="1123.3613">calorias : float</text><rect fill="none" height="6" style="stroke:#C82930;stroke-width:1.0;" width="6" x="443" y="1133.7422"/><text fill="#000000" font-family="sans-serif" font-size="14" lengthAdjust="spacing" textLength="98" x="455" y="1140.9707">proteinas : float</text><rect fill="none" height="6" style="stroke:#C82930;stroke-width:1.0;" width="6" x="443" y="1151.3516"/><text fill="#000000" font-family="sans-serif" font-size="14" lengthAdjust="spacing" textLength="126" x="455" y="1158.5801">carbohidratos : float</text><rect fill="none" height="6" style="stroke:#C82930;stroke-width:1.0;" width="6" x="443" y="1168.9609"/><text fill="#000000" font-family="sans-serif" font-size="14" lengthAdjust="spacing" textLength="82" x="455" y="1176.1895">grasas : float</text><line style="stroke:#181818;stroke-width:0.5;" x1="436" x2="603" y1="1183.2656" y2="1183.2656"/></g><!--class Alimento--><g id="elem_Alimento"><rect codeLine="110" fill="#F1F1F1" height="153.6563" id="Alimento" rx="2.5" ry="2.5" style="stroke:#181818;stroke-width:0.5;" width="206" x="635.5" y="343.5"/><ellipse cx="707.25" cy="359.5" fill="#ADD1B2" rx="11" ry="11" style="stroke:#181818;stroke-width:1.0;"/><path d="M710.0156,355.375 Q710.1719,355.1563 710.3594,355.0469 Q710.5469,354.9375 710.7656,354.9375 Q711.1406,354.9375 711.375,355.2031 Q711.6094,355.4531 711.6094,356.0625 L711.6094,357.5156 Q711.6094,358.125 711.375,358.3906 Q711.1406,358.6563 710.7656,358.6563 Q710.4219,358.6563 710.2188,358.4531 Q710.0156,358.2656 709.9063,357.75 Q709.8594,357.3906 709.6719,357.2031 Q709.3438,356.8281 708.7344,356.6094 Q708.125,356.3906 707.5,356.3906 Q706.7344,356.3906 706.0938,356.7188 Q705.4688,357.0469 704.9688,357.7969 Q704.4844,358.5469 704.4844,359.5781 L704.4844,360.6719 Q704.4844,361.9063 705.375,362.7344 Q706.2656,363.5469 707.8594,363.5469 Q708.7969,363.5469 709.4531,363.2969 Q709.8438,363.1406 710.2656,362.7031 Q710.5313,362.4375 710.6719,362.3594 Q710.8281,362.2813 711.0313,362.2813 Q711.3594,362.2813 711.6094,362.5469 Q711.875,362.7969 711.875,363.1406 Q711.875,363.4844 711.5313,363.8906 Q711.0313,364.4688 710.2344,364.7969 Q709.1563,365.25 707.8594,365.25 Q706.3438,365.25 705.1406,364.625 Q704.1563,364.125 703.4688,363.0625 Q702.7813,361.9844 702.7813,360.7031 L702.7813,359.5469 Q702.7813,358.2188 703.3906,357.0781 Q704.0156,355.9219 705.1094,355.3125 Q706.2031,354.6875 707.4375,354.6875 Q708.1719,354.6875 708.8125,354.8594 Q709.4688,355.0156 710.0156,355.375 Z " fill="#000000"/><text fill="#000000" font-family="sans-serif" font-size="14" lengthAdjust="spacing" textLength="54" x="727.75" y="365.2285">Alimento</text><line style="stroke:#181818;stroke-width:0.5;" x1="636.5" x2="840.5" y1="375.5" y2="375.5"/><rect fill="none" height="6" style="stroke:#C82930;stroke-width:1.0;" width="6" x="643.5" y="386.8047"/><text fill="#000000" font-family="sans-serif" font-size="14" lengthAdjust="spacing" textLength="109" x="655.5" y="394.0332">idAlimento : Long</text><rect fill="none" height="6" style="stroke:#C82930;stroke-width:1.0;" width="6" x="643.5" y="404.4141"/><text fill="#000000" font-family="sans-serif" font-size="14" lengthAdjust="spacing" textLength="97" x="655.5" y="411.6426">nombre : String</text><rect fill="none" height="6" style="stroke:#C82930;stroke-width:1.0;" width="6" x="643.5" y="422.0234"/><text fill="#000000" font-family="sans-serif" font-size="14" lengthAdjust="spacing" textLength="142" x="655.5" y="429.252">caloriasPor100g : float</text><rect fill="none" height="6" style="stroke:#C82930;stroke-width:1.0;" width="6" x="643.5" y="439.6328"/><text fill="#000000" font-family="sans-serif" font-size="14" lengthAdjust="spacing" textLength="152" x="655.5" y="446.8613">proteinasPor100g : float</text><rect fill="none" height="6" style="stroke:#C82930;stroke-width:1.0;" width="6" x="643.5" y="457.2422"/><text fill="#000000" font-family="sans-serif" font-size="14" lengthAdjust="spacing" textLength="180" x="655.5" y="464.4707">carbohidratosPor100g : float</text><rect fill="none" height="6" style="stroke:#C82930;stroke-width:1.0;" width="6" x="643.5" y="474.8516"/><text fill="#000000" font-family="sans-serif" font-size="14" lengthAdjust="spacing" textLength="136" x="655.5" y="482.0801">grasasPor100g : float</text><line style="stroke:#181818;stroke-width:0.5;" x1="636.5" x2="840.5" y1="489.1563" y2="489.1563"/></g><!--class RutinaCompleta--><g id="elem_RutinaCompleta"><rect codeLine="119" fill="#F1F1F1" height="100.8281" id="RutinaCompleta" rx="2.5" ry="2.5" style="stroke:#181818;stroke-width:0.5;" width="133" x="877" y="370"/><ellipse cx="892" cy="386" fill="#ADD1B2" rx="11" ry="11" style="stroke:#181818;stroke-width:1.0;"/><path d="M894.7656,381.875 Q894.9219,381.6563 895.1094,381.5469 Q895.2969,381.4375 895.5156,381.4375 Q895.8906,381.4375 896.125,381.7031 Q896.3594,381.9531 896.3594,382.5625 L896.3594,384.0156 Q896.3594,384.625 896.125,384.8906 Q895.8906,385.1563 895.5156,385.1563 Q895.1719,385.1563 894.9688,384.9531 Q894.7656,384.7656 894.6563,384.25 Q894.6094,383.8906 894.4219,383.7031 Q894.0938,383.3281 893.4844,383.1094 Q892.875,382.8906 892.25,382.8906 Q891.4844,382.8906 890.8438,383.2188 Q890.2188,383.5469 889.7188,384.2969 Q889.2344,385.0469 889.2344,386.0781 L889.2344,387.1719 Q889.2344,388.4063 890.125,389.2344 Q891.0156,390.0469 892.6094,390.0469 Q893.5469,390.0469 894.2031,389.7969 Q894.5938,389.6406 895.0156,389.2031 Q895.2813,388.9375 895.4219,388.8594 Q895.5781,388.7813 895.7813,388.7813 Q896.1094,388.7813 896.3594,389.0469 Q896.625,389.2969 896.625,389.6406 Q896.625,389.9844 896.2813,390.3906 Q895.7813,390.9688 894.9844,391.2969 Q893.9063,391.75 892.6094,391.75 Q891.0938,391.75 889.8906,391.125 Q888.9063,390.625 888.2188,389.5625 Q887.5313,388.4844 887.5313,387.2031 L887.5313,386.0469 Q887.5313,384.7188 888.1406,383.5781 Q888.7656,382.4219 889.8594,381.8125 Q890.9531,381.1875 892.1875,381.1875 Q892.9219,381.1875 893.5625,381.3594 Q894.2188,381.5156 894.7656,381.875 Z " fill="#000000"/><text fill="#000000" font-family="sans-serif" font-size="14" lengthAdjust="spacing" textLength="101" x="906" y="391.7285">RutinaCompleta</text><line style="stroke:#181818;stroke-width:0.5;" x1="878" x2="1009" y1="402" y2="402"/><rect fill="none" height="6" style="stroke:#C82930;stroke-width:1.0;" width="6" x="885" y="413.3047"/><text fill="#000000" font-family="sans-serif" font-size="14" lengthAdjust="spacing" textLength="96" x="897" y="420.5332">idRutina : Long</text><rect fill="none" height="6" style="stroke:#C82930;stroke-width:1.0;" width="6" x="885" y="430.9141"/><text fill="#000000" font-family="sans-serif" font-size="14" lengthAdjust="spacing" textLength="97" x="897" y="438.1426">nombre : String</text><rect fill="none" height="6" style="stroke:#C82930;stroke-width:1.0;" width="6" x="885" y="448.5234"/><text fill="#000000" font-family="sans-serif" font-size="14" lengthAdjust="spacing" textLength="104" x="897" y="455.752">resumen : String</text><line style="stroke:#181818;stroke-width:0.5;" x1="878" x2="1009" y1="462.8281" y2="462.8281"/></g><!--class DiaEnRutina--><g id="elem_DiaEnRutina"><rect codeLine="125" fill="#F1F1F1" height="136.0469" id="DiaEnRutina" rx="2.5" ry="2.5" style="stroke:#181818;stroke-width:0.5;" width="250" x="818.5" y="592.5"/><ellipse cx="899.75" cy="608.5" fill="#ADD1B2" rx="11" ry="11" style="stroke:#181818;stroke-width:1.0;"/><path d="M902.5156,604.375 Q902.6719,604.1563 902.8594,604.0469 Q903.0469,603.9375 903.2656,603.9375 Q903.6406,603.9375 903.875,604.2031 Q904.1094,604.4531 904.1094,605.0625 L904.1094,606.5156 Q904.1094,607.125 903.875,607.3906 Q903.6406,607.6563 903.2656,607.6563 Q902.9219,607.6563 902.7188,607.4531 Q902.5156,607.2656 902.4063,606.75 Q902.3594,606.3906 902.1719,606.2031 Q901.8438,605.8281 901.2344,605.6094 Q900.625,605.3906 900,605.3906 Q899.2344,605.3906 898.5938,605.7188 Q897.9688,606.0469 897.4688,606.7969 Q896.9844,607.5469 896.9844,608.5781 L896.9844,609.6719 Q896.9844,610.9063 897.875,611.7344 Q898.7656,612.5469 900.3594,612.5469 Q901.2969,612.5469 901.9531,612.2969 Q902.3438,612.1406 902.7656,611.7031 Q903.0313,611.4375 903.1719,611.3594 Q903.3281,611.2813 903.5313,611.2813 Q903.8594,611.2813 904.1094,611.5469 Q904.375,611.7969 904.375,612.1406 Q904.375,612.4844 904.0313,612.8906 Q903.5313,613.4688 902.7344,613.7969 Q901.6563,614.25 900.3594,614.25 Q898.8438,614.25 897.6406,613.625 Q896.6563,613.125 895.9688,612.0625 Q895.2813,610.9844 895.2813,609.7031 L895.2813,608.5469 Q895.2813,607.2188 895.8906,606.0781 Q896.5156,604.9219 897.6094,604.3125 Q898.7031,603.6875 899.9375,603.6875 Q900.6719,603.6875 901.3125,603.8594 Q901.9688,604.0156 902.5156,604.375 Z " fill="#000000"/><text fill="#000000" font-family="sans-serif" font-size="14" lengthAdjust="spacing" textLength="79" x="920.25" y="614.2285">DiaEnRutina</text><line style="stroke:#181818;stroke-width:0.5;" x1="819.5" x2="1067.5" y1="624.5" y2="624.5"/><rect fill="none" height="6" style="stroke:#C82930;stroke-width:1.0;" width="6" x="826.5" y="635.8047"/><text fill="#000000" font-family="sans-serif" font-size="14" lengthAdjust="spacing" textLength="126" x="838.5" y="643.0332">idDiaEnDieta : Long</text><rect fill="none" height="6" style="stroke:#C82930;stroke-width:1.0;" width="6" x="826.5" y="653.4141"/><text fill="#000000" font-family="sans-serif" font-size="14" lengthAdjust="spacing" textLength="97" x="838.5" y="660.6426">nombre : String</text><rect fill="none" height="6" style="stroke:#C82930;stroke-width:1.0;" width="6" x="826.5" y="671.0234"/><text fill="#000000" font-family="sans-serif" font-size="14" lengthAdjust="spacing" textLength="104" x="838.5" y="678.252">resumen : String</text><rect fill="none" height="6" style="stroke:#C82930;stroke-width:1.0;" width="6" x="826.5" y="688.6328"/><text fill="#000000" font-family="sans-serif" font-size="14" lengthAdjust="spacing" textLength="157" x="838.5" y="695.8613">caloriasQuemadas : float</text><rect fill="none" height="6" style="stroke:#C82930;stroke-width:1.0;" width="6" x="826.5" y="706.2422"/><text fill="#000000" font-family="sans-serif" font-size="14" lengthAdjust="spacing" textLength="224" x="838.5" y="713.4707">diaDeLaSemana : DiaDeLaSemana</text><line style="stroke:#181818;stroke-width:0.5;" x1="819.5" x2="1067.5" y1="720.5469" y2="720.5469"/></g><!--class Ejercicio--><g id="elem_Ejercicio"><rect codeLine="133" fill="#F1F1F1" height="118.4375" id="Ejercicio" rx="2.5" ry="2.5" style="stroke:#181818;stroke-width:0.5;" width="209" x="839" y="824"/><ellipse cx="912.75" cy="840" fill="#ADD1B2" rx="11" ry="11" style="stroke:#181818;stroke-width:1.0;"/><path d="M915.5156,835.875 Q915.6719,835.6563 915.8594,835.5469 Q916.0469,835.4375 916.2656,835.4375 Q916.6406,835.4375 916.875,835.7031 Q917.1094,835.9531 917.1094,836.5625 L917.1094,838.0156 Q917.1094,838.625 916.875,838.8906 Q916.6406,839.1563 916.2656,839.1563 Q915.9219,839.1563 915.7188,838.9531 Q915.5156,838.7656 915.4063,838.25 Q915.3594,837.8906 915.1719,837.7031 Q914.8438,837.3281 914.2344,837.1094 Q913.625,836.8906 913,836.8906 Q912.2344,836.8906 911.5938,837.2188 Q910.9688,837.5469 910.4688,838.2969 Q909.9844,839.0469 909.9844,840.0781 L909.9844,841.1719 Q909.9844,842.4063 910.875,843.2344 Q911.7656,844.0469 913.3594,844.0469 Q914.2969,844.0469 914.9531,843.7969 Q915.3438,843.6406 915.7656,843.2031 Q916.0313,842.9375 916.1719,842.8594 Q916.3281,842.7813 916.5313,842.7813 Q916.8594,842.7813 917.1094,843.0469 Q917.375,843.2969 917.375,843.6406 Q917.375,843.9844 917.0313,844.3906 Q916.5313,844.9688 915.7344,845.2969 Q914.6563,845.75 913.3594,845.75 Q911.8438,845.75 910.6406,845.125 Q909.6563,844.625 908.9688,843.5625 Q908.2813,842.4844 908.2813,841.2031 L908.2813,840.0469 Q908.2813,838.7188 908.8906,837.5781 Q909.5156,836.4219 910.6094,835.8125 Q911.7031,835.1875 912.9375,835.1875 Q913.6719,835.1875 914.3125,835.3594 Q914.9688,835.5156 915.5156,835.875 Z " fill="#000000"/><text fill="#000000" font-family="sans-serif" font-size="14" lengthAdjust="spacing" textLength="53" x="933.25" y="845.7285">Ejercicio</text><line style="stroke:#181818;stroke-width:0.5;" x1="840" x2="1047" y1="856" y2="856"/><rect fill="none" height="6" style="stroke:#C82930;stroke-width:1.0;" width="6" x="847" y="867.3047"/><text fill="#000000" font-family="sans-serif" font-size="14" lengthAdjust="spacing" textLength="108" x="859" y="874.5332">idEjercicio : Long</text><rect fill="none" height="6" style="stroke:#C82930;stroke-width:1.0;" width="6" x="847" y="884.9141"/><text fill="#000000" font-family="sans-serif" font-size="14" lengthAdjust="spacing" textLength="97" x="859" y="892.1426">nombre : String</text><rect fill="none" height="6" style="stroke:#C82930;stroke-width:1.0;" width="6" x="847" y="902.5234"/><text fill="#000000" font-family="sans-serif" font-size="14" lengthAdjust="spacing" textLength="118" x="859" y="909.752">explicacion : String</text><rect fill="none" height="6" style="stroke:#C82930;stroke-width:1.0;" width="6" x="847" y="920.1328"/><text fill="#000000" font-family="sans-serif" font-size="14" lengthAdjust="spacing" textLength="183" x="859" y="927.3613">musculoEnfocado : Musculos</text><line style="stroke:#181818;stroke-width:0.5;" x1="840" x2="1047" y1="934.4375" y2="934.4375"/></g><!--class Serie--><g id="elem_Serie"><rect codeLine="140" fill="#F1F1F1" height="118.4375" id="Serie" rx="2.5" ry="2.5" style="stroke:#181818;stroke-width:0.5;" width="156" x="865.5" y="1046.5"/><ellipse cx="922.75" cy="1062.5" fill="#ADD1B2" rx="11" ry="11" style="stroke:#181818;stroke-width:1.0;"/><path d="M925.5156,1058.375 Q925.6719,1058.1563 925.8594,1058.0469 Q926.0469,1057.9375 926.2656,1057.9375 Q926.6406,1057.9375 926.875,1058.2031 Q927.1094,1058.4531 927.1094,1059.0625 L927.1094,1060.5156 Q927.1094,1061.125 926.875,1061.3906 Q926.6406,1061.6563 926.2656,1061.6563 Q925.9219,1061.6563 925.7188,1061.4531 Q925.5156,1061.2656 925.4063,1060.75 Q925.3594,1060.3906 925.1719,1060.2031 Q924.8438,1059.8281 924.2344,1059.6094 Q923.625,1059.3906 923,1059.3906 Q922.2344,1059.3906 921.5938,1059.7188 Q920.9688,1060.0469 920.4688,1060.7969 Q919.9844,1061.5469 919.9844,1062.5781 L919.9844,1063.6719 Q919.9844,1064.9063 920.875,1065.7344 Q921.7656,1066.5469 923.3594,1066.5469 Q924.2969,1066.5469 924.9531,1066.2969 Q925.3438,1066.1406 925.7656,1065.7031 Q926.0313,1065.4375 926.1719,1065.3594 Q926.3281,1065.2813 926.5313,1065.2813 Q926.8594,1065.2813 927.1094,1065.5469 Q927.375,1065.7969 927.375,1066.1406 Q927.375,1066.4844 927.0313,1066.8906 Q926.5313,1067.4688 925.7344,1067.7969 Q924.6563,1068.25 923.3594,1068.25 Q921.8438,1068.25 920.6406,1067.625 Q919.6563,1067.125 918.9688,1066.0625 Q918.2813,1064.9844 918.2813,1063.7031 L918.2813,1062.5469 Q918.2813,1061.2188 918.8906,1060.0781 Q919.5156,1058.9219 920.6094,1058.3125 Q921.7031,1057.6875 922.9375,1057.6875 Q923.6719,1057.6875 924.3125,1057.8594 Q924.9688,1058.0156 925.5156,1058.375 Z " fill="#000000"/><text fill="#000000" font-family="sans-serif" font-size="14" lengthAdjust="spacing" textLength="33" x="943.25" y="1068.2285">Serie</text><line style="stroke:#181818;stroke-width:0.5;" x1="866.5" x2="1020.5" y1="1078.5" y2="1078.5"/><rect fill="none" height="6" style="stroke:#C82930;stroke-width:1.0;" width="6" x="873.5" y="1089.8047"/><text fill="#000000" font-family="sans-serif" font-size="14" lengthAdjust="spacing" textLength="88" x="885.5" y="1097.0332">idSerie : Long</text><rect fill="none" height="6" style="stroke:#C82930;stroke-width:1.0;" width="6" x="873.5" y="1107.4141"/><text fill="#000000" font-family="sans-serif" font-size="14" lengthAdjust="spacing" textLength="130" x="885.5" y="1114.6426">serieAnterior : String</text><rect fill="none" height="6" style="stroke:#C82930;stroke-width:1.0;" width="6" x="873.5" y="1125.0234"/><text fill="#000000" font-family="sans-serif" font-size="14" lengthAdjust="spacing" textLength="104" x="885.5" y="1132.252">repeticiones : int</text><rect fill="none" height="6" style="stroke:#C82930;stroke-width:1.0;" width="6" x="873.5" y="1142.6328"/><text fill="#000000" font-family="sans-serif" font-size="14" lengthAdjust="spacing" textLength="58" x="885.5" y="1149.8613">peso : int</text><line style="stroke:#181818;stroke-width:0.5;" x1="866.5" x2="1020.5" y1="1156.9375" y2="1156.9375"/></g><!--link Usuario to DietaCompleta--><g id="link_Usuario_DietaCompleta"><path codeLine="151" d="M645.31,257.5 C627.61,280.29 609.33,303.82 592.38,325.65 " fill="none" id="Usuario-DietaCompleta" style="stroke:#181818;stroke-width:1.0;"/><text fill="#000000" font-family="sans-serif" font-size="13" lengthAdjust="spacing" textLength="7" x="632.418" y="278.8758">1</text><text fill="#000000" font-family="sans-serif" font-size="13" lengthAdjust="spacing" textLength="20" x="577.1943" y="315.2889">0..*</text></g><!--link DietaCompleta to DiaEnDieta--><g id="link_DietaCompleta_DiaEnDieta"><path codeLine="153" d="M519.5,515.22 C519.5,534.86 519.5,555.47 519.5,574.76 " fill="none" id="DietaCompleta-DiaEnDieta" style="stroke:#181818;stroke-width:1.0;"/><text fill="#000000" font-family="sans-serif" font-size="13" lengthAdjust="spacing" textLength="7" x="512.243" y="536.2761">1</text><text fill="#000000" font-family="sans-serif" font-size="13" lengthAdjust="spacing" textLength="20" x="498.6406" y="564.203">1..*</text></g><!--link Usuario to RutinaCompleta--><g id="link_Usuario_RutinaCompleta"><path codeLine="155" d="M825.74,257.5 C854.4,296.93 884.69,338.59 907.37,369.8 " fill="none" id="Usuario-RutinaCompleta" style="stroke:#181818;stroke-width:1.0;"/><text fill="#000000" font-family="sans-serif" font-size="13" lengthAdjust="spacing" textLength="7" x="823.8429" y="278.8758">1</text><text fill="#000000" font-family="sans-serif" font-size="13" lengthAdjust="spacing" textLength="20" x="880.883" y="359.0772">0..*</text></g><!--link DiaEnDieta to Comida--><g id="link_DiaEnDieta_Comida"><path codeLine="157" d="M519.5,746.12 C519.5,765.8 519.5,786.62 519.5,805.9 " fill="none" id="DiaEnDieta-Comida" style="stroke:#181818;stroke-width:1.0;"/><text fill="#000000" font-family="sans-serif" font-size="13" lengthAdjust="spacing" textLength="7" x="512.1992" y="767.6643">1</text><text fill="#000000" font-family="sans-serif" font-size="13" lengthAdjust="spacing" textLength="20" x="498.5156" y="795.0523">1..*</text></g><!--link Comida to Ingrediente--><g id="link_Comida_Ingrediente"><path codeLine="159" d="M519.5,960.19 C519.5,979.36 519.5,1000.06 519.5,1019.62 " fill="none" id="Comida-Ingrediente" style="stroke:#181818;stroke-width:1.0;"/><text fill="#000000" font-family="sans-serif" font-size="13" lengthAdjust="spacing" textLength="7" x="512.1992" y="981.036">1</text><text fill="#000000" font-family="sans-serif" font-size="13" lengthAdjust="spacing" textLength="20" x="498.6406" y="1009.051">1..*</text></g><!--link Usuario to Alimento--><g id="link_Usuario_Alimento"><path codeLine="161" d="M738.5,257.5 C738.5,286.58 738.5,316.89 738.5,343.31 " fill="none" id="Usuario-Alimento" style="stroke:#181818;stroke-width:1.0;"/><text fill="#000000" font-family="sans-serif" font-size="13" lengthAdjust="spacing" textLength="7" x="731.2867" y="278.8758">1</text><text fill="#000000" font-family="sans-serif" font-size="13" lengthAdjust="spacing" textLength="20" x="717.5469" y="332.7186">0..*</text></g><!--link RutinaCompleta to DiaEnRutina--><g id="link_RutinaCompleta_DiaEnRutina"><path codeLine="163" d="M943.5,471.1 C943.5,506.25 943.5,553.81 943.5,592.36 " fill="none" id="RutinaCompleta-DiaEnRutina" style="stroke:#181818;stroke-width:1.0;"/><text fill="#000000" font-family="sans-serif" font-size="13" lengthAdjust="spacing" textLength="7" x="936.0297" y="492.5047">1</text><text fill="#000000" font-family="sans-serif" font-size="13" lengthAdjust="spacing" textLength="20" x="922.4063" y="581.544">1..*</text></g><!--link DiaEnRutina to Ejercicio--><g id="link_DiaEnRutina_Ejercicio"><path codeLine="165" d="M943.5,728.56 C943.5,758.96 943.5,794.58 943.5,823.84 " fill="none" id="DiaEnRutina-Ejercicio" style="stroke:#181818;stroke-width:1.0;"/><text fill="#000000" font-family="sans-serif" font-size="13" lengthAdjust="spacing" textLength="20" x="922.4688" y="749.9145">1..*</text><text fill="#000000" font-family="sans-serif" font-size="13" lengthAdjust="spacing" textLength="20" x="922.2813" y="813.1448">1..*</text></g><!--link Ejercicio to Serie--><g id="link_Ejercicio_Serie"><path codeLine="167" d="M943.5,942.22 C943.5,974.38 943.5,1014.19 943.5,1046.33 " fill="none" id="Ejercicio-Serie" style="stroke:#181818;stroke-width:1.0;"/><text fill="#000000" font-family="sans-serif" font-size="13" lengthAdjust="spacing" textLength="7" x="936.0734" y="963.9023">1</text><text fill="#000000" font-family="sans-serif" font-size="13" lengthAdjust="spacing" textLength="20" x="922.2813" y="1035.6335">1..*</text></g><!--SRC=[lLOzRzim4DtvAuWi0GeaY3i6w41BhA904brAoj35e2NQOI2J1YK71OByzvBwbkAu2T3M2yrtvxjtvBkZB-6tTpxWiZL17AKXfiWbCPoPJlmAS7dSm_1OPiT2bH2-02V5GK307GcNb80LTku8MFeENiKWeSsAeWGlAVf908vNA70HG4kNX7w40Xm3BqWJJ4mSvBR-tt58A0g0XqCS40XUsxIkO2uFMCptJ3AREqWZ4o14DB6BZwb3RCJx53-OvS40rXwZfQaEr1azqaVpkEJQrF3ISCSWJEyn1IIXWm_PFF5AFDTUq7nMcBgOhZsAObG37eeGNOTckmxJs4a3H6iyj3L7ndM5uo5S99vvuNAKcPWYPtaRDSOkZX94VL9liQ7X-8vFre7lOJe7G-BMrpM3VPimDgTbOPG4E44sx-MV5M0qu0GenZ4yONghWAnWPGdJyiYqKAQ2AoZoRdSB0oLt1f9glz7SxEDAYnfX1ruK8bUBK-3NCRZbsIEBM2RsWikg2PgnmcKLDzPTVMsttVKPvC1BwxGj5AjipA8wQZO2Z5n4CKvGyO9lbLHZB5Eoqgpayf4Dy6jNhIjunHorFnHcRMkkiNCLvxpCj3XaGib99bOeBLYPg8eLl1mHFMXLSI7P6CkOtgX7aMjMgJ6-CsGdZioAolBPA5Lm9iVa6PODsuvv3voX_uzuvfCclfqsjINTiZQdRLgaPTnk_ZVR_WXzkTCyjtBaBQCnSfQMh6odUvhjrPH1m_Sl4qM5sDTDqx3ijnyukPNIYvkRtIb2RqqJNc_D3RqvthEanyg4dVLJ0vvZgdbvDEMSx4-Zw3R0PpG-ZmX7v_7ZQ2IPVqwx3Hlyn7Kciduw3lipLFYlGo4oDfaMbiw-UMknt9eXcDiGtUix98ov5fqmc-zzej9kaL6f6SzwMlh1F6qsNTqjGbR3ABMRZxqTaE80cUSdmX_wzz2z4nUB2mYlhk35pVNrbulfU0LWEcsjhtLTjAxTlRuRRQek6wwNGk_P16l62W3jU9bPHoq-pJMawleBW9caPw56-cpvj69jxODdhnK01jdCejLN37u3]--></g></svg>